mtllib GROUND_MINE.mtl
o GROUND_MINE_M01GCR_Deck-col
usemtl Deck
v -8.5000 -0.3000 -0.0000
v 8.5000 -0.3000 -0.0000
v -8.5000 -0.3000 -20.0000
v 8.5000 -0.3000 -20.0000
v -8.5000 0.0000 -0.0000
v 8.5000 0.0000 -0.0000
v -8.5000 0.0000 -20.0000
v 8.5000 0.0000 -20.0000
f 5 7 3 1
f 2 4 8 6
f 1 2 6 5
f 7 8 4 3
f 3 4 2 1
f 5 6 8 7
o GROUND_MINE_M01GCR_Hull-col
usemtl Hull
v -9.0000 4.0000 0.4000
v 9.0000 4.0000 0.4000
v -9.0000 4.0000 -20.4000
v 9.0000 4.0000 -20.4000
v -9.0000 4.4000 0.4000
v 9.0000 4.4000 0.4000
v -9.0000 4.4000 -20.4000
v 9.0000 4.4000 -20.4000
v -9.0000 -0.7000 0.4000
v 9.0000 -0.7000 0.4000
v -9.0000 -0.7000 -20.4000
v 9.0000 -0.7000 -20.4000
v -9.0000 -0.3000 0.4000
v 9.0000 -0.3000 0.4000
v -9.0000 -0.3000 -20.4000
v 9.0000 -0.3000 -20.4000
v -9.0000 -0.3000 -0.0000
v -8.5000 -0.3000 -0.0000
v -9.0000 -0.3000 -4.0000
v -8.5000 -0.3000 -4.0000
v -9.0000 4.0000 -0.0000
v -8.5000 4.0000 -0.0000
v -9.0000 4.0000 -4.0000
v -8.5000 4.0000 -4.0000
v -9.0000 -0.3000 -4.0000
v -8.5000 -0.3000 -4.0000
v -9.0000 -0.3000 -6.0000
v -8.5000 -0.3000 -6.0000
v -9.0000 0.0000 -4.0000
v -8.5000 0.0000 -4.0000
v -9.0000 0.0000 -6.0000
v -8.5000 0.0000 -6.0000
v -9.0000 2.6000 -4.0000
v -8.5000 2.6000 -4.0000
v -9.0000 2.6000 -6.0000
v -8.5000 2.6000 -6.0000
v -9.0000 4.0000 -4.0000
v -8.5000 4.0000 -4.0000
v -9.0000 4.0000 -6.0000
v -8.5000 4.0000 -6.0000
v -9.0000 -0.3000 -6.0000
v -8.5000 -0.3000 -6.0000
v -9.0000 -0.3000 -20.0000
v -8.5000 -0.3000 -20.0000
v -9.0000 4.0000 -6.0000
v -8.5000 4.0000 -6.0000
v -9.0000 4.0000 -20.0000
v -8.5000 4.0000 -20.0000
v 8.5000 -0.3000 -0.0000
v 9.0000 -0.3000 -0.0000
v 8.5000 -0.3000 -4.0000
v 9.0000 -0.3000 -4.0000
v 8.5000 4.0000 -0.0000
v 9.0000 4.0000 -0.0000
v 8.5000 4.0000 -4.0000
v 9.0000 4.0000 -4.0000
v 8.5000 -0.3000 -4.0000
v 9.0000 -0.3000 -4.0000
v 8.5000 -0.3000 -6.0000
v 9.0000 -0.3000 -6.0000
v 8.5000 0.0000 -4.0000
v 9.0000 0.0000 -4.0000
v 8.5000 0.0000 -6.0000
v 9.0000 0.0000 -6.0000
v 8.5000 2.6000 -4.0000
v 9.0000 2.6000 -4.0000
v 8.5000 2.6000 -6.0000
v 9.0000 2.6000 -6.0000
v 8.5000 4.0000 -4.0000
v 9.0000 4.0000 -4.0000
v 8.5000 4.0000 -6.0000
v 9.0000 4.0000 -6.0000
v 8.5000 -0.3000 -6.0000
v 9.0000 -0.3000 -6.0000
v 8.5000 -0.3000 -20.0000
v 9.0000 -0.3000 -20.0000
v 8.5000 4.0000 -6.0000
v 9.0000 4.0000 -6.0000
v 8.5000 4.0000 -20.0000
v 9.0000 4.0000 -20.0000
v -9.0000 -0.3000 0.4000
v -0.9000 -0.3000 0.4000
v -9.0000 -0.3000 -0.0000
v -0.9000 -0.3000 -0.0000
v -9.0000 4.0000 0.4000
v -0.9000 4.0000 0.4000
v -9.0000 4.0000 -0.0000
v -0.9000 4.0000 -0.0000
v -0.9000 -0.3000 0.4000
v 0.9000 -0.3000 0.4000
v -0.9000 -0.3000 -0.0000
v 0.9000 -0.3000 -0.0000
v -0.9000 0.0000 0.4000
v 0.9000 0.0000 0.4000
v -0.9000 0.0000 -0.0000
v 0.9000 0.0000 -0.0000
v -0.9000 2.8000 0.4000
v 0.9000 2.8000 0.4000
v -0.9000 2.8000 -0.0000
v 0.9000 2.8000 -0.0000
v -0.9000 4.0000 0.4000
v 0.9000 4.0000 0.4000
v -0.9000 4.0000 -0.0000
v 0.9000 4.0000 -0.0000
v 0.9000 -0.3000 0.4000
v 9.0000 -0.3000 0.4000
v 0.9000 -0.3000 -0.0000
v 9.0000 -0.3000 -0.0000
v 0.9000 4.0000 0.4000
v 9.0000 4.0000 0.4000
v 0.9000 4.0000 -0.0000
v 9.0000 4.0000 -0.0000
v -9.0000 -0.3000 -20.0000
v -0.9000 -0.3000 -20.0000
v -9.0000 -0.3000 -20.4000
v -0.9000 -0.3000 -20.4000
v -9.0000 4.0000 -20.0000
v -0.9000 4.0000 -20.0000
v -9.0000 4.0000 -20.4000
v -0.9000 4.0000 -20.4000
v -0.9000 -0.3000 -20.0000
v 0.9000 -0.3000 -20.0000
v -0.9000 -0.3000 -20.4000
v 0.9000 -0.3000 -20.4000
v -0.9000 0.0000 -20.0000
v 0.9000 0.0000 -20.0000
v -0.9000 0.0000 -20.4000
v 0.9000 0.0000 -20.4000
v -0.9000 2.8000 -20.0000
v 0.9000 2.8000 -20.0000
v -0.9000 2.8000 -20.4000
v 0.9000 2.8000 -20.4000
v -0.9000 4.0000 -20.0000
v 0.9000 4.0000 -20.0000
v -0.9000 4.0000 -20.4000
v 0.9000 4.0000 -20.4000
v 0.9000 -0.3000 -20.0000
v 9.0000 -0.3000 -20.0000
v 0.9000 -0.3000 -20.4000
v 9.0000 -0.3000 -20.4000
v 0.9000 4.0000 -20.0000
v 9.0000 4.0000 -20.0000
v 0.9000 4.0000 -20.4000
v 9.0000 4.0000 -20.4000
f 13 15 11 9
f 10 12 16 14
f 9 10 14 13
f 15 16 12 11
f 11 12 10 9
f 13 14 16 15
f 21 23 19 17
f 18 20 24 22
f 17 18 22 21
f 23 24 20 19
f 19 20 18 17
f 21 22 24 23
f 29 31 27 25
f 26 28 32 30
f 25 26 30 29
f 31 32 28 27
f 27 28 26 25
f 29 30 32 31
f 37 39 35 33
f 34 36 40 38
f 33 34 38 37
f 39 40 36 35
f 35 36 34 33
f 37 38 40 39
f 45 47 43 41
f 42 44 48 46
f 41 42 46 45
f 47 48 44 43
f 43 44 42 41
f 45 46 48 47
f 53 55 51 49
f 50 52 56 54
f 49 50 54 53
f 55 56 52 51
f 51 52 50 49
f 53 54 56 55
f 61 63 59 57
f 58 60 64 62
f 57 58 62 61
f 63 64 60 59
f 59 60 58 57
f 61 62 64 63
f 69 71 67 65
f 66 68 72 70
f 65 66 70 69
f 71 72 68 67
f 67 68 66 65
f 69 70 72 71
f 77 79 75 73
f 74 76 80 78
f 73 74 78 77
f 79 80 76 75
f 75 76 74 73
f 77 78 80 79
f 85 87 83 81
f 82 84 88 86
f 81 82 86 85
f 87 88 84 83
f 83 84 82 81
f 85 86 88 87
f 93 95 91 89
f 90 92 96 94
f 89 90 94 93
f 95 96 92 91
f 91 92 90 89
f 93 94 96 95
f 101 103 99 97
f 98 100 104 102
f 97 98 102 101
f 103 104 100 99
f 99 100 98 97
f 101 102 104 103
f 109 111 107 105
f 106 108 112 110
f 105 106 110 109
f 111 112 108 107
f 107 108 106 105
f 109 110 112 111
f 117 119 115 113
f 114 116 120 118
f 113 114 118 117
f 119 120 116 115
f 115 116 114 113
f 117 118 120 119
f 125 127 123 121
f 122 124 128 126
f 121 122 126 125
f 127 128 124 123
f 123 124 122 121
f 125 126 128 127
f 133 135 131 129
f 130 132 136 134
f 129 130 134 133
f 135 136 132 131
f 131 132 130 129
f 133 134 136 135
f 141 143 139 137
f 138 140 144 142
f 137 138 142 141
f 143 144 140 139
f 139 140 138 137
f 141 142 144 143
f 149 151 147 145
f 146 148 152 150
f 145 146 150 149
f 151 152 148 147
f 147 148 146 145
f 149 150 152 151
o GROUND_MINE_M01GCR_Interior-col
usemtl Interior
v -8.5000 0.0000 -9.9000
v -1.2000 0.0000 -9.9000
v -8.5000 0.0000 -10.1000
v -1.2000 0.0000 -10.1000
v -8.5000 4.0000 -9.9000
v -1.2000 4.0000 -9.9000
v -8.5000 4.0000 -10.1000
v -1.2000 4.0000 -10.1000
v -1.2000 3.0000 -9.9000
v 1.2000 3.0000 -9.9000
v -1.2000 3.0000 -10.1000
v 1.2000 3.0000 -10.1000
v -1.2000 4.0000 -9.9000
v 1.2000 4.0000 -9.9000
v -1.2000 4.0000 -10.1000
v 1.2000 4.0000 -10.1000
v 1.2000 0.0000 -9.9000
v 8.5000 0.0000 -9.9000
v 1.2000 0.0000 -10.1000
v 8.5000 0.0000 -10.1000
v 1.2000 4.0000 -9.9000
v 8.5000 4.0000 -9.9000
v 1.2000 4.0000 -10.1000
v 8.5000 4.0000 -10.1000
v -1.4000 0.0000 -10.0000
v -1.2000 0.0000 -10.0000
v -1.4000 0.0000 -14.2000
v -1.2000 0.0000 -14.2000
v -1.4000 4.0000 -10.0000
v -1.2000 4.0000 -10.0000
v -1.4000 4.0000 -14.2000
v -1.2000 4.0000 -14.2000
v -1.4000 2.6000 -14.2000
v -1.2000 2.6000 -14.2000
v -1.4000 2.6000 -15.8000
v -1.2000 2.6000 -15.8000
v -1.4000 4.0000 -14.2000
v -1.2000 4.0000 -14.2000
v -1.4000 4.0000 -15.8000
v -1.2000 4.0000 -15.8000
v -1.4000 0.0000 -15.8000
v -1.2000 0.0000 -15.8000
v -1.4000 0.0000 -20.0000
v -1.2000 0.0000 -20.0000
v -1.4000 4.0000 -15.8000
v -1.2000 4.0000 -15.8000
v -1.4000 4.0000 -20.0000
v -1.2000 4.0000 -20.0000
v 1.2000 0.0000 -10.0000
v 1.4000 0.0000 -10.0000
v 1.2000 0.0000 -14.2000
v 1.4000 0.0000 -14.2000
v 1.2000 4.0000 -10.0000
v 1.4000 4.0000 -10.0000
v 1.2000 4.0000 -14.2000
v 1.4000 4.0000 -14.2000
v 1.2000 2.6000 -14.2000
v 1.4000 2.6000 -14.2000
v 1.2000 2.6000 -15.8000
v 1.4000 2.6000 -15.8000
v 1.2000 4.0000 -14.2000
v 1.4000 4.0000 -14.2000
v 1.2000 4.0000 -15.8000
v 1.4000 4.0000 -15.8000
v 1.2000 0.0000 -15.8000
v 1.4000 0.0000 -15.8000
v 1.2000 0.0000 -20.0000
v 1.4000 0.0000 -20.0000
v 1.2000 4.0000 -15.8000
v 1.4000 4.0000 -15.8000
v 1.2000 4.0000 -20.0000
v 1.4000 4.0000 -20.0000
f 157 159 155 153
f 154 156 160 158
f 153 154 158 157
f 159 160 156 155
f 155 156 154 153
f 157 158 160 159
f 165 167 163 161
f 162 164 168 166
f 161 162 166 165
f 167 168 164 163
f 163 164 162 161
f 165 166 168 167
f 173 175 171 169
f 170 172 176 174
f 169 170 174 173
f 175 176 172 171
f 171 172 170 169
f 173 174 176 175
f 181 183 179 177
f 178 180 184 182
f 177 178 182 181
f 183 184 180 179
f 179 180 178 177
f 181 182 184 183
f 189 191 187 185
f 186 188 192 190
f 185 186 190 189
f 191 192 188 187
f 187 188 186 185
f 189 190 192 191
f 197 199 195 193
f 194 196 200 198
f 193 194 198 197
f 199 200 196 195
f 195 196 194 193
f 197 198 200 199
f 205 207 203 201
f 202 204 208 206
f 201 202 206 205
f 207 208 204 203
f 203 204 202 201
f 205 206 208 207
f 213 215 211 209
f 210 212 216 214
f 209 210 214 213
f 215 216 212 211
f 211 212 210 209
f 213 214 216 215
f 221 223 219 217
f 218 220 224 222
f 217 218 222 221
f 223 224 220 219
f 219 220 218 217
f 221 222 224 223
o GROUND_MINE_M01GCR_Furniture-col
usemtl Furniture
v 7.7000 0.0000 -10.6000
v 8.4000 0.0000 -10.6000
v 7.7000 0.0000 -19.4000
v 8.4000 0.0000 -19.4000
v 7.7000 1.1000 -10.6000
v 8.4000 1.1000 -10.6000
v 7.7000 1.1000 -19.4000
v 8.4000 1.1000 -19.4000
v -8.4000 0.0000 -10.6000
v -7.9000 0.0000 -10.6000
v -8.4000 0.0000 -13.0000
v -7.9000 0.0000 -13.0000
v -8.4000 2.0000 -10.6000
v -7.9000 2.0000 -10.6000
v -8.4000 2.0000 -13.0000
v -7.9000 2.0000 -13.0000
v -4.0000 0.0000 -14.4000
v -2.6000 0.0000 -14.4000
v -4.0000 0.0000 -15.6000
v -2.6000 0.0000 -15.6000
v -4.0000 0.7500 -14.4000
v -2.6000 0.7500 -14.4000
v -4.0000 0.7500 -15.6000
v -2.6000 0.7500 -15.6000
v 0.8500 0.0000 -10.4000
v 1.2000 0.0000 -10.4000
v 0.8500 0.0000 -11.6000
v 1.2000 0.0000 -11.6000
v 0.8500 2.0000 -10.4000
v 1.2000 2.0000 -10.4000
v 0.8500 2.0000 -11.6000
v 1.2000 2.0000 -11.6000
v -8.4500 0.6000 -2.9667
v -8.0500 0.6000 -2.9667
v -8.4500 0.6000 -3.9667
v -8.0500 0.6000 -3.9667
v -8.4500 2.0000 -2.9667
v -8.0500 2.0000 -2.9667
v -8.4500 2.0000 -3.9667
v -8.0500 2.0000 -3.9667
v 8.0500 0.6000 -6.0333
v 8.4500 0.6000 -6.0333
v 8.0500 0.6000 -7.0333
v 8.4500 0.6000 -7.0333
v 8.0500 2.0000 -6.0333
v 8.4500 2.0000 -6.0333
v 8.0500 2.0000 -7.0333
v 8.4500 2.0000 -7.0333
f 229 231 227 225
f 226 228 232 230
f 225 226 230 229
f 231 232 228 227
f 227 228 226 225
f 229 230 232 231
f 237 239 235 233
f 234 236 240 238
f 233 234 238 237
f 239 240 236 235
f 235 236 234 233
f 237 238 240 239
f 245 247 243 241
f 242 244 248 246
f 241 242 246 245
f 247 248 244 243
f 243 244 242 241
f 245 246 248 247
f 253 255 251 249
f 250 252 256 254
f 249 250 254 253
f 255 256 252 251
f 251 252 250 249
f 253 254 256 255
f 261 263 259 257
f 258 260 264 262
f 257 258 262 261
f 263 264 260 259
f 259 260 258 257
f 261 262 264 263
f 269 271 267 265
f 266 268 272 270
f 265 266 270 269
f 271 272 268 267
f 267 268 266 265
f 269 270 272 271
o GROUND_MINE_M01GCR_Cover-col
usemtl Cover
v -3.6000 0.0000 -2.2000
v -2.6000 0.0000 -2.2000
v -3.6000 0.0000 -3.2000
v -2.6000 0.0000 -3.2000
v -3.6000 1.1000 -2.2000
v -2.6000 1.1000 -2.2000
v -3.6000 1.1000 -3.2000
v -2.6000 1.1000 -3.2000
v -3.6000 0.0000 -6.8000
v -2.6000 0.0000 -6.8000
v -3.6000 0.0000 -7.8000
v -2.6000 0.0000 -7.8000
v -3.6000 1.1000 -6.8000
v -2.6000 1.1000 -6.8000
v -3.6000 1.1000 -7.8000
v -2.6000 1.1000 -7.8000
f 277 279 275 273
f 274 276 280 278
f 273 274 278 277
f 279 280 276 275
f 275 276 274 273
f 277 278 280 279
f 285 287 283 281
f 282 284 288 286
f 281 282 286 285
f 287 288 284 283
f 283 284 282 281
f 285 286 288 287
o GROUND_MINE_M01GCR_Hazard
usemtl Hazard
v -9.1200 0.0000 -3.7000
v -9.0000 0.0000 -3.7000
v -9.1200 0.0000 -4.0000
v -9.0000 0.0000 -4.0000
v -9.1200 2.9000 -3.7000
v -9.0000 2.9000 -3.7000
v -9.1200 2.9000 -4.0000
v -9.0000 2.9000 -4.0000
v -9.1200 0.0000 -6.0000
v -9.0000 0.0000 -6.0000
v -9.1200 0.0000 -6.3000
v -9.0000 0.0000 -6.3000
v -9.1200 2.9000 -6.0000
v -9.0000 2.9000 -6.0000
v -9.1200 2.9000 -6.3000
v -9.0000 2.9000 -6.3000
v 9.0000 0.0000 -3.7000
v 9.1200 0.0000 -3.7000
v 9.0000 0.0000 -4.0000
v 9.1200 0.0000 -4.0000
v 9.0000 2.9000 -3.7000
v 9.1200 2.9000 -3.7000
v 9.0000 2.9000 -4.0000
v 9.1200 2.9000 -4.0000
v 9.0000 0.0000 -6.0000
v 9.1200 0.0000 -6.0000
v 9.0000 0.0000 -6.3000
v 9.1200 0.0000 -6.3000
v 9.0000 2.9000 -6.0000
v 9.1200 2.9000 -6.0000
v 9.0000 2.9000 -6.3000
v 9.1200 2.9000 -6.3000
v -1.2000 2.8000 0.4400
v 1.2000 2.8000 0.4400
v -1.2000 2.8000 0.4000
v 1.2000 2.8000 0.4000
v -1.2000 3.0000 0.4400
v 1.2000 3.0000 0.4400
v -1.2000 3.0000 0.4000
v 1.2000 3.0000 0.4000
v -8.0500 1.8000 -2.9667
v -8.0300 1.8000 -2.9667
v -8.0500 1.8000 -3.9667
v -8.0300 1.8000 -3.9667
v -8.0500 2.0000 -2.9667
v -8.0300 2.0000 -2.9667
v -8.0500 2.0000 -3.9667
v -8.0300 2.0000 -3.9667
v 8.0300 1.8000 -6.0333
v 8.0500 1.8000 -6.0333
v 8.0300 1.8000 -7.0333
v 8.0500 1.8000 -7.0333
v 8.0300 2.0000 -6.0333
v 8.0500 2.0000 -6.0333
v 8.0300 2.0000 -7.0333
v 8.0500 2.0000 -7.0333
f 293 295 291 289
f 290 292 296 294
f 289 290 294 293
f 295 296 292 291
f 291 292 290 289
f 293 294 296 295
f 301 303 299 297
f 298 300 304 302
f 297 298 302 301
f 303 304 300 299
f 299 300 298 297
f 301 302 304 303
f 309 311 307 305
f 306 308 312 310
f 305 306 310 309
f 311 312 308 307
f 307 308 306 305
f 309 310 312 311
f 317 319 315 313
f 314 316 320 318
f 313 314 318 317
f 319 320 316 315
f 315 316 314 313
f 317 318 320 319
f 325 327 323 321
f 322 324 328 326
f 321 322 326 325
f 327 328 324 323
f 323 324 322 321
f 325 326 328 327
f 333 335 331 329
f 330 332 336 334
f 329 330 334 333
f 335 336 332 331
f 331 332 330 329
f 333 334 336 335
f 341 343 339 337
f 338 340 344 342
f 337 338 342 341
f 343 344 340 339
f 339 340 338 337
f 341 342 344 343
o GROUND_MINE_M01GCR_Lights
usemtl Lights
v 7.6800 0.8000 -10.8000
v 7.7000 0.8000 -10.8000
v 7.6800 0.8000 -19.2000
v 7.7000 0.8000 -19.2000
v 7.6800 1.0500 -10.8000
v 7.7000 1.0500 -10.8000
v 7.6800 1.0500 -19.2000
v 7.7000 1.0500 -19.2000
v 2.7000 1.0000 -14.3000
v 3.7000 1.0000 -14.3000
v 2.7000 1.0000 -15.7000
v 3.7000 1.0000 -15.7000
v 2.7000 1.0300 -14.3000
v 3.7000 1.0300 -14.3000
v 2.7000 1.0300 -15.7000
v 3.7000 1.0300 -15.7000
v -0.3000 3.6200 -10.5000
v 0.3000 3.6200 -10.5000
v -0.3000 3.6200 -19.5000
v 0.3000 3.6200 -19.5000
v -0.3000 3.7000 -10.5000
v 0.3000 3.7000 -10.5000
v -0.3000 3.7000 -19.5000
v 0.3000 3.7000 -19.5000
v -0.4000 3.8800 -0.9000
v 0.4000 3.8800 -0.9000
v -0.4000 3.8800 -9.1000
v 0.4000 3.8800 -9.1000
v -0.4000 3.9600 -0.9000
v 0.4000 3.9600 -0.9000
v -0.4000 3.9600 -9.1000
v 0.4000 3.9600 -9.1000
f 349 351 347 345
f 346 348 352 350
f 345 346 350 349
f 351 352 348 347
f 347 348 346 345
f 349 350 352 351
f 357 359 355 353
f 354 356 360 358
f 353 354 358 357
f 359 360 356 355
f 355 356 354 353
f 357 358 360 359
f 365 367 363 361
f 362 364 368 366
f 361 362 366 365
f 367 368 364 363
f 363 364 362 361
f 365 366 368 367
f 373 375 371 369
f 370 372 376 374
f 369 370 374 373
f 375 376 372 371
f 371 372 370 369
f 373 374 376 375
o GROUND_MINE_M01GCR_Trim
usemtl Trim
v 4.8500 0.8000 -5.0000
v 4.7320 0.8000 -5.5932
v 4.3960 0.8000 -6.0960
v 3.8932 0.8000 -6.4320
v 3.3000 0.8000 -6.5500
v 2.7068 0.8000 -6.4320
v 2.2040 0.8000 -6.0960
v 1.8680 0.8000 -5.5932
v 1.7500 0.8000 -5.0000
v 1.8680 0.8000 -4.4068
v 2.2040 0.8000 -3.9040
v 2.7068 0.8000 -3.5680
v 3.3000 0.8000 -3.4500
v 3.8932 0.8000 -3.5680
v 4.3960 0.8000 -3.9040
v 4.7320 0.8000 -4.4068
v 4.8500 1.0000 -5.0000
v 4.7320 1.0000 -5.5932
v 4.3960 1.0000 -6.0960
v 3.8932 1.0000 -6.4320
v 3.3000 1.0000 -6.5500
v 2.7068 1.0000 -6.4320
v 2.2040 1.0000 -6.0960
v 1.8680 1.0000 -5.5932
v 1.7500 1.0000 -5.0000
v 1.8680 1.0000 -4.4068
v 2.2040 1.0000 -3.9040
v 2.7068 1.0000 -3.5680
v 3.3000 1.0000 -3.4500
v 3.8932 1.0000 -3.5680
v 4.3960 1.0000 -3.9040
v 4.7320 1.0000 -4.4068
v 4.8500 2.4000 -5.0000
v 4.7320 2.4000 -5.5932
v 4.3960 2.4000 -6.0960
v 3.8932 2.4000 -6.4320
v 3.3000 2.4000 -6.5500
v 2.7068 2.4000 -6.4320
v 2.2040 2.4000 -6.0960
v 1.8680 2.4000 -5.5932
v 1.7500 2.4000 -5.0000
v 1.8680 2.4000 -4.4068
v 2.2040 2.4000 -3.9040
v 2.7068 2.4000 -3.5680
v 3.3000 2.4000 -3.4500
v 3.8932 2.4000 -3.5680
v 4.3960 2.4000 -3.9040
v 4.7320 2.4000 -4.4068
v 4.8500 2.6000 -5.0000
v 4.7320 2.6000 -5.5932
v 4.3960 2.6000 -6.0960
v 3.8932 2.6000 -6.4320
v 3.3000 2.6000 -6.5500
v 2.7068 2.6000 -6.4320
v 2.2040 2.6000 -6.0960
v 1.8680 2.6000 -5.5932
v 1.7500 2.6000 -5.0000
v 1.8680 2.6000 -4.4068
v 2.2040 2.6000 -3.9040
v 2.7068 2.6000 -3.5680
v 3.3000 2.6000 -3.4500
v 3.8932 2.6000 -3.5680
v 4.3960 2.6000 -3.9040
v 4.7320 2.6000 -4.4068
v 4.8500 4.0000 -5.0000
v 4.7320 4.0000 -5.5932
v 4.3960 4.0000 -6.0960
v 3.8932 4.0000 -6.4320
v 3.3000 4.0000 -6.5500
v 2.7068 4.0000 -6.4320
v 2.2040 4.0000 -6.0960
v 1.8680 4.0000 -5.5932
v 1.7500 4.0000 -5.0000
v 1.8680 4.0000 -4.4068
v 2.2040 4.0000 -3.9040
v 2.7068 4.0000 -3.5680
v 3.3000 4.0000 -3.4500
v 3.8932 4.0000 -3.5680
v 4.3960 4.0000 -3.9040
v 4.7320 4.0000 -4.4068
v 4.8500 4.2000 -5.0000
v 4.7320 4.2000 -5.5932
v 4.3960 4.2000 -6.0960
v 3.8932 4.2000 -6.4320
v 3.3000 4.2000 -6.5500
v 2.7068 4.2000 -6.4320
v 2.2040 4.2000 -6.0960
v 1.8680 4.2000 -5.5932
v 1.7500 4.2000 -5.0000
v 1.8680 4.2000 -4.4068
v 2.2040 4.2000 -3.9040
v 2.7068 4.2000 -3.5680
v 3.3000 4.2000 -3.4500
v 3.8932 4.2000 -3.5680
v 4.3960 4.2000 -3.9040
v 4.7320 4.2000 -4.4068
f 377 378 394 393
f 378 379 395 394
f 379 380 396 395
f 380 381 397 396
f 381 382 398 397
f 382 383 399 398
f 383 384 400 399
f 384 385 401 400
f 385 386 402 401
f 386 387 403 402
f 387 388 404 403
f 388 389 405 404
f 389 390 406 405
f 390 391 407 406
f 391 392 408 407
f 392 377 393 408
f 392 391 390 389 388 387 386 385 384 383 382 381 380 379 378 377
f 393 394 395 396 397 398 399 400 401 402 403 404 405 406 407 408
f 409 410 426 425
f 410 411 427 426
f 411 412 428 427
f 412 413 429 428
f 413 414 430 429
f 414 415 431 430
f 415 416 432 431
f 416 417 433 432
f 417 418 434 433
f 418 419 435 434
f 419 420 436 435
f 420 421 437 436
f 421 422 438 437
f 422 423 439 438
f 423 424 440 439
f 424 409 425 440
f 424 423 422 421 420 419 418 417 416 415 414 413 412 411 410 409
f 425 426 427 428 429 430 431 432 433 434 435 436 437 438 439 440
f 441 442 458 457
f 442 443 459 458
f 443 444 460 459
f 444 445 461 460
f 445 446 462 461
f 446 447 463 462
f 447 448 464 463
f 448 449 465 464
f 449 450 466 465
f 450 451 467 466
f 451 452 468 467
f 452 453 469 468
f 453 454 470 469
f 454 455 471 470
f 455 456 472 471
f 456 441 457 472
f 456 455 454 453 452 451 450 449 448 447 446 445 444 443 442 441
f 457 458 459 460 461 462 463 464 465 466 467 468 469 470 471 472
o GROUND_MINE_M01GCR_Machinery-col
usemtl Engine
v 4.7000 0.0000 -5.0000
v 4.5934 0.0000 -5.5358
v 4.2899 0.0000 -5.9899
v 3.8358 0.0000 -6.2934
v 3.3000 0.0000 -6.4000
v 2.7642 0.0000 -6.2934
v 2.3101 0.0000 -5.9899
v 2.0066 0.0000 -5.5358
v 1.9000 0.0000 -5.0000
v 2.0066 0.0000 -4.4642
v 2.3101 0.0000 -4.0101
v 2.7642 0.0000 -3.7066
v 3.3000 0.0000 -3.6000
v 3.8358 0.0000 -3.7066
v 4.2899 0.0000 -4.0101
v 4.5934 0.0000 -4.4642
v 4.7000 3.6000 -5.0000
v 4.5934 3.6000 -5.5358
v 4.2899 3.6000 -5.9899
v 3.8358 3.6000 -6.2934
v 3.3000 3.6000 -6.4000
v 2.7642 3.6000 -6.2934
v 2.3101 3.6000 -5.9899
v 2.0066 3.6000 -5.5358
v 1.9000 3.6000 -5.0000
v 2.0066 3.6000 -4.4642
v 2.3101 3.6000 -4.0101
v 2.7642 3.6000 -3.7066
v 3.3000 3.6000 -3.6000
v 3.8358 3.6000 -3.7066
v 4.2899 3.6000 -4.0101
v 4.5934 3.6000 -4.4642
f 473 474 490 489
f 474 475 491 490
f 475 476 492 491
f 476 477 493 492
f 477 478 494 493
f 478 479 495 494
f 479 480 496 495
f 480 481 497 496
f 481 482 498 497
f 482 483 499 498
f 483 484 500 499
f 484 485 501 500
f 485 486 502 501
f 486 487 503 502
f 487 488 504 503
f 488 473 489 504
f 488 487 486 485 484 483 482 481 480 479 478 477 476 475 474 473
f 489 490 491 492 493 494 495 496 497 498 499 500 501 502 503 504
o GROUND_MINE_M01GCR_Glow
usemtl EngineGlow
v 4.1400 3.6000 -5.0000
v 4.0761 3.6000 -5.3215
v 3.8940 3.6000 -5.5940
v 3.6215 3.6000 -5.7761
v 3.3000 3.6000 -5.8400
v 2.9785 3.6000 -5.7761
v 2.7060 3.6000 -5.5940
v 2.5239 3.6000 -5.3215
v 2.4600 3.6000 -5.0000
v 2.5239 3.6000 -4.6785
v 2.7060 3.6000 -4.4060
v 2.9785 3.6000 -4.2239
v 3.3000 3.6000 -4.1600
v 3.6215 3.6000 -4.2239
v 3.8940 3.6000 -4.4060
v 4.0761 3.6000 -4.6785
v 4.1400 3.6500 -5.0000
v 4.0761 3.6500 -5.3215
v 3.8940 3.6500 -5.5940
v 3.6215 3.6500 -5.7761
v 3.3000 3.6500 -5.8400
v 2.9785 3.6500 -5.7761
v 2.7060 3.6500 -5.5940
v 2.5239 3.6500 -5.3215
v 2.4600 3.6500 -5.0000
v 2.5239 3.6500 -4.6785
v 2.7060 3.6500 -4.4060
v 2.9785 3.6500 -4.2239
v 3.3000 3.6500 -4.1600
v 3.6215 3.6500 -4.2239
v 3.8940 3.6500 -4.4060
v 4.0761 3.6500 -4.6785
f 505 506 522 521
f 506 507 523 522
f 507 508 524 523
f 508 509 525 524
f 509 510 526 525
f 510 511 527 526
f 511 512 528 527
f 512 513 529 528
f 513 514 530 529
f 514 515 531 530
f 515 516 532 531
f 516 517 533 532
f 517 518 534 533
f 518 519 535 534
f 519 520 536 535
f 520 505 521 536
f 520 519 518 517 516 515 514 513 512 511 510 509 508 507 506 505
f 521 522 523 524 525 526 527 528 529 530 531 532 533 534 535 536
o GROUND_MINE_M01GCR_AirlockPort_Door-col
usemtl Door
v -8.8000 0.0000 -3.9500
v -8.7000 0.0000 -3.9500
v -8.8000 0.0000 -6.0500
v -8.7000 0.0000 -6.0500
v -8.8000 2.6000 -3.9500
v -8.7000 2.6000 -3.9500
v -8.8000 2.6000 -6.0500
v -8.7000 2.6000 -6.0500
f 541 543 539 537
f 538 540 544 542
f 537 538 542 541
f 543 544 540 539
f 539 540 538 537
f 541 542 544 543
o GROUND_MINE_M01GCR_AirlockStbd_Door-col
usemtl Door
v 8.7000 0.0000 -3.9500
v 8.8000 0.0000 -3.9500
v 8.7000 0.0000 -6.0500
v 8.8000 0.0000 -6.0500
v 8.7000 2.6000 -3.9500
v 8.8000 2.6000 -3.9500
v 8.7000 2.6000 -6.0500
v 8.8000 2.6000 -6.0500
f 549 551 547 545
f 546 548 552 550
f 545 546 550 549
f 551 552 548 547
f 547 548 546 545
f 549 550 552 551
o GROUND_MINE_M01GCR_Connector_Back_Door-col
usemtl Door
v -0.9500 0.0000 0.2500
v 0.9500 0.0000 0.2500
v -0.9500 0.0000 0.1500
v 0.9500 0.0000 0.1500
v -0.9500 2.8000 0.2500
v 0.9500 2.8000 0.2500
v -0.9500 2.8000 0.1500
v 0.9500 2.8000 0.1500
f 557 559 555 553
f 554 556 560 558
f 553 554 558 557
f 559 560 556 555
f 555 556 554 553
f 557 558 560 559
o GROUND_MINE_M01GCR_Connector_Front_Door-col
usemtl Door
v -0.9500 0.0000 -20.1500
v 0.9500 0.0000 -20.1500
v -0.9500 0.0000 -20.2500
v 0.9500 0.0000 -20.2500
v -0.9500 2.8000 -20.1500
v 0.9500 2.8000 -20.1500
v -0.9500 2.8000 -20.2500
v 0.9500 2.8000 -20.2500
f 565 567 563 561
f 562 564 568 566
f 561 562 566 565
f 567 568 564 563
f 563 564 562 561
f 565 566 568 567
o GROUND_MINE_M01GCR_ControlConsole-col
usemtl Furniture
v 2.6000 0.0000 -14.2000
v 3.8000 0.0000 -14.2000
v 2.6000 0.0000 -15.8000
v 3.8000 0.0000 -15.8000
v 2.6000 1.0000 -14.2000
v 3.8000 1.0000 -14.2000
v 2.6000 1.0000 -15.8000
v 3.8000 1.0000 -15.8000
f 573 575 571 569
f 570 572 576 574
f 569 570 574 573
f 575 576 572 571
f 571 572 570 569
f 573 574 576 575
o GROUND_MINE_M01GCR_StatusLight
usemtl Lights
v -0.5000 4.4000 -18.5000
v 0.5000 4.4000 -18.5000
v -0.5000 4.4000 -19.5000
v 0.5000 4.4000 -19.5000
v -0.5000 4.7000 -18.5000
v 0.5000 4.7000 -18.5000
v -0.5000 4.7000 -19.5000
v 0.5000 4.7000 -19.5000
f 581 583 579 577
f 578 580 584 582
f 577 578 582 581
f 583 584 580 579
f 579 580 578 577
f 581 582 584 583
o GROUND_MINE_T01_Deck-col
usemtl Deck
v -1.4000 -0.3000 -20.4000
v 1.4000 -0.3000 -20.4000
v -1.4000 -0.3000 -27.7200
v 1.4000 -0.3000 -27.7200
v -1.4000 0.0000 -20.4000
v 1.4000 0.0000 -20.4000
v -1.4000 0.0000 -27.7200
v 1.4000 0.0000 -27.7200
f 589 591 587 585
f 586 588 592 590
f 585 586 590 589
f 591 592 588 587
f 587 588 586 585
f 589 590 592 591
o GROUND_MINE_T01_Hull-col
usemtl Hull
v -1.8000 3.2000 -20.4000
v 1.8000 3.2000 -20.4000
v -1.8000 3.2000 -27.7200
v 1.8000 3.2000 -27.7200
v -1.8000 3.6000 -20.4000
v 1.8000 3.6000 -20.4000
v -1.8000 3.6000 -27.7200
v 1.8000 3.6000 -27.7200
v -1.8000 -0.7000 -20.4000
v 1.8000 -0.7000 -20.4000
v -1.8000 -0.7000 -27.7200
v 1.8000 -0.7000 -27.7200
v -1.8000 -0.3000 -20.4000
v 1.8000 -0.3000 -20.4000
v -1.8000 -0.3000 -27.7200
v 1.8000 -0.3000 -27.7200
v -1.8000 -0.3000 -20.4000
v -1.4000 -0.3000 -20.4000
v -1.8000 -0.3000 -21.4000
v -1.4000 -0.3000 -21.4000
v -1.8000 3.2000 -20.4000
v -1.4000 3.2000 -20.4000
v -1.8000 3.2000 -21.4000
v -1.4000 3.2000 -21.4000
v -1.8000 -0.3000 -21.4000
v -1.4000 -0.3000 -21.4000
v -1.8000 -0.3000 -26.7200
v -1.4000 -0.3000 -26.7200
v -1.8000 1.2000 -21.4000
v -1.4000 1.2000 -21.4000
v -1.8000 1.2000 -26.7200
v -1.4000 1.2000 -26.7200
v -1.8000 2.4000 -21.4000
v -1.4000 2.4000 -21.4000
v -1.8000 2.4000 -26.7200
v -1.4000 2.4000 -26.7200
v -1.8000 3.2000 -21.4000
v -1.4000 3.2000 -21.4000
v -1.8000 3.2000 -26.7200
v -1.4000 3.2000 -26.7200
v -1.8000 -0.3000 -26.7200
v -1.4000 -0.3000 -26.7200
v -1.8000 -0.3000 -27.7200
v -1.4000 -0.3000 -27.7200
v -1.8000 3.2000 -26.7200
v -1.4000 3.2000 -26.7200
v -1.8000 3.2000 -27.7200
v -1.4000 3.2000 -27.7200
v 1.4000 -0.3000 -20.4000
v 1.8000 -0.3000 -20.4000
v 1.4000 -0.3000 -21.4000
v 1.8000 -0.3000 -21.4000
v 1.4000 3.2000 -20.4000
v 1.8000 3.2000 -20.4000
v 1.4000 3.2000 -21.4000
v 1.8000 3.2000 -21.4000
v 1.4000 -0.3000 -21.4000
v 1.8000 -0.3000 -21.4000
v 1.4000 -0.3000 -26.7200
v 1.8000 -0.3000 -26.7200
v 1.4000 1.2000 -21.4000
v 1.8000 1.2000 -21.4000
v 1.4000 1.2000 -26.7200
v 1.8000 1.2000 -26.7200
v 1.4000 2.4000 -21.4000
v 1.8000 2.4000 -21.4000
v 1.4000 2.4000 -26.7200
v 1.8000 2.4000 -26.7200
v 1.4000 3.2000 -21.4000
v 1.8000 3.2000 -21.4000
v 1.4000 3.2000 -26.7200
v 1.8000 3.2000 -26.7200
v 1.4000 -0.3000 -26.7200
v 1.8000 -0.3000 -26.7200
v 1.4000 -0.3000 -27.7200
v 1.8000 -0.3000 -27.7200
v 1.4000 3.2000 -26.7200
v 1.8000 3.2000 -26.7200
v 1.4000 3.2000 -27.7200
v 1.8000 3.2000 -27.7200
f 597 599 595 593
f 594 596 600 598
f 593 594 598 597
f 599 600 596 595
f 595 596 594 593
f 597 598 600 599
f 605 607 603 601
f 602 604 608 606
f 601 602 606 605
f 607 608 604 603
f 603 604 602 601
f 605 606 608 607
f 613 615 611 609
f 610 612 616 614
f 609 610 614 613
f 615 616 612 611
f 611 612 610 609
f 613 614 616 615
f 621 623 619 617
f 618 620 624 622
f 617 618 622 621
f 623 624 620 619
f 619 620 618 617
f 621 622 624 623
f 629 631 627 625
f 626 628 632 630
f 625 626 630 629
f 631 632 628 627
f 627 628 626 625
f 629 630 632 631
f 637 639 635 633
f 634 636 640 638
f 633 634 638 637
f 639 640 636 635
f 635 636 634 633
f 637 638 640 639
f 645 647 643 641
f 642 644 648 646
f 641 642 646 645
f 647 648 644 643
f 643 644 642 641
f 645 646 648 647
f 653 655 651 649
f 650 652 656 654
f 649 650 654 653
f 655 656 652 651
f 651 652 650 649
f 653 654 656 655
f 661 663 659 657
f 658 660 664 662
f 657 658 662 661
f 663 664 660 659
f 659 660 658 657
f 661 662 664 663
f 669 671 667 665
f 666 668 672 670
f 665 666 670 669
f 671 672 668 667
f 667 668 666 665
f 669 670 672 671
o GROUND_MINE_T01_Lights
usemtl Lights
v -0.3000 3.1200 -20.9000
v 0.3000 3.1200 -20.9000
v -0.3000 3.1200 -27.2200
v 0.3000 3.1200 -27.2200
v -0.3000 3.2000 -20.9000
v 0.3000 3.2000 -20.9000
v -0.3000 3.2000 -27.2200
v 0.3000 3.2000 -27.2200
f 677 679 675 673
f 674 676 680 678
f 673 674 678 677
f 679 680 676 675
f 675 676 674 673
f 677 678 680 679
o GROUND_MINE_T01_Glass-col
usemtl Glass
v -1.6000 1.2000 -21.4000
v -1.5500 1.2000 -21.4000
v -1.6000 1.2000 -26.7200
v -1.5500 1.2000 -26.7200
v -1.6000 2.4000 -21.4000
v -1.5500 2.4000 -21.4000
v -1.6000 2.4000 -26.7200
v -1.5500 2.4000 -26.7200
v 1.5500 1.2000 -21.4000
v 1.6000 1.2000 -21.4000
v 1.5500 1.2000 -26.7200
v 1.6000 1.2000 -26.7200
v 1.5500 2.4000 -21.4000
v 1.6000 2.4000 -21.4000
v 1.5500 2.4000 -26.7200
v 1.6000 2.4000 -26.7200
f 685 687 683 681
f 682 684 688 686
f 681 682 686 685
f 687 688 684 683
f 683 684 682 681
f 685 686 688 687
f 693 695 691 689
f 690 692 696 694
f 689 690 694 693
f 695 696 692 691
f 691 692 690 689
f 693 694 696 695
o GROUND_MINE_H01_Deck-col
usemtl Deck
v -4.0000 -0.3000 -28.1200
v 4.0000 -0.3000 -28.1200
v -4.0000 -0.3000 -36.1200
v 4.0000 -0.3000 -36.1200
v -4.0000 0.0000 -28.1200
v 4.0000 0.0000 -28.1200
v -4.0000 0.0000 -36.1200
v 4.0000 0.0000 -36.1200
f 701 703 699 697
f 698 700 704 702
f 697 698 702 701
f 703 704 700 699
f 699 700 698 697
f 701 702 704 703
o GROUND_MINE_H01_Hull-col
usemtl Hull
v -4.4000 4.0000 -27.7200
v 4.4000 4.0000 -27.7200
v -4.4000 4.0000 -36.5200
v 4.4000 4.0000 -36.5200
v -4.4000 4.4000 -27.7200
v 4.4000 4.4000 -27.7200
v -4.4000 4.4000 -36.5200
v 4.4000 4.4000 -36.5200
v -4.4000 -0.7000 -27.7200
v 4.4000 -0.7000 -27.7200
v -4.4000 -0.7000 -36.5200
v 4.4000 -0.7000 -36.5200
v -4.4000 -0.3000 -27.7200
v 4.4000 -0.3000 -27.7200
v -4.4000 -0.3000 -36.5200
v 4.4000 -0.3000 -36.5200
v -4.4000 -0.3000 -27.7200
v -1.1000 -0.3000 -27.7200
v -4.4000 -0.3000 -28.1200
v -1.1000 -0.3000 -28.1200
v -4.4000 4.0000 -27.7200
v -1.1000 4.0000 -27.7200
v -4.4000 4.0000 -28.1200
v -1.1000 4.0000 -28.1200
v -1.1000 -0.3000 -27.7200
v 1.1000 -0.3000 -27.7200
v -1.1000 -0.3000 -28.1200
v 1.1000 -0.3000 -28.1200
v -1.1000 0.0000 -27.7200
v 1.1000 0.0000 -27.7200
v -1.1000 0.0000 -28.1200
v 1.1000 0.0000 -28.1200
v -1.1000 3.0000 -27.7200
v 1.1000 3.0000 -27.7200
v -1.1000 3.0000 -28.1200
v 1.1000 3.0000 -28.1200
v -1.1000 4.0000 -27.7200
v 1.1000 4.0000 -27.7200
v -1.1000 4.0000 -28.1200
v 1.1000 4.0000 -28.1200
v 1.1000 -0.3000 -27.7200
v 4.4000 -0.3000 -27.7200
v 1.1000 -0.3000 -28.1200
v 4.4000 -0.3000 -28.1200
v 1.1000 4.0000 -27.7200
v 4.4000 4.0000 -27.7200
v 1.1000 4.0000 -28.1200
v 4.4000 4.0000 -28.1200
v -4.4000 -0.3000 -36.1200
v -1.1000 -0.3000 -36.1200
v -4.4000 -0.3000 -36.5200
v -1.1000 -0.3000 -36.5200
v -4.4000 4.0000 -36.1200
v -1.1000 4.0000 -36.1200
v -4.4000 4.0000 -36.5200
v -1.1000 4.0000 -36.5200
v -1.1000 -0.3000 -36.1200
v 1.1000 -0.3000 -36.1200
v -1.1000 -0.3000 -36.5200
v 1.1000 -0.3000 -36.5200
v -1.1000 0.0000 -36.1200
v 1.1000 0.0000 -36.1200
v -1.1000 0.0000 -36.5200
v 1.1000 0.0000 -36.5200
v -1.1000 3.0000 -36.1200
v 1.1000 3.0000 -36.1200
v -1.1000 3.0000 -36.5200
v 1.1000 3.0000 -36.5200
v -1.1000 4.0000 -36.1200
v 1.1000 4.0000 -36.1200
v -1.1000 4.0000 -36.5200
v 1.1000 4.0000 -36.5200
v 1.1000 -0.3000 -36.1200
v 4.4000 -0.3000 -36.1200
v 1.1000 -0.3000 -36.5200
v 4.4000 -0.3000 -36.5200
v 1.1000 4.0000 -36.1200
v 4.4000 4.0000 -36.1200
v 1.1000 4.0000 -36.5200
v 4.4000 4.0000 -36.5200
v -4.4000 -0.3000 -27.7200
v -4.0000 -0.3000 -27.7200
v -4.4000 -0.3000 -31.0200
v -4.0000 -0.3000 -31.0200
v -4.4000 4.0000 -27.7200
v -4.0000 4.0000 -27.7200
v -4.4000 4.0000 -31.0200
v -4.0000 4.0000 -31.0200
v -4.4000 -0.3000 -31.0200
v -4.0000 -0.3000 -31.0200
v -4.4000 -0.3000 -33.2200
v -4.0000 -0.3000 -33.2200
v -4.4000 0.0000 -31.0200
v -4.0000 0.0000 -31.0200
v -4.4000 0.0000 -33.2200
v -4.0000 0.0000 -33.2200
v -4.4000 3.0000 -31.0200
v -4.0000 3.0000 -31.0200
v -4.4000 3.0000 -33.2200
v -4.0000 3.0000 -33.2200
v -4.4000 4.0000 -31.0200
v -4.0000 4.0000 -31.0200
v -4.4000 4.0000 -33.2200
v -4.0000 4.0000 -33.2200
v -4.4000 -0.3000 -33.2200
v -4.0000 -0.3000 -33.2200
v -4.4000 -0.3000 -36.5200
v -4.0000 -0.3000 -36.5200
v -4.4000 4.0000 -33.2200
v -4.0000 4.0000 -33.2200
v -4.4000 4.0000 -36.5200
v -4.0000 4.0000 -36.5200
v 4.0000 -0.3000 -27.7200
v 4.4000 -0.3000 -27.7200
v 4.0000 -0.3000 -31.0200
v 4.4000 -0.3000 -31.0200
v 4.0000 4.0000 -27.7200
v 4.4000 4.0000 -27.7200
v 4.0000 4.0000 -31.0200
v 4.4000 4.0000 -31.0200
v 4.0000 -0.3000 -31.0200
v 4.4000 -0.3000 -31.0200
v 4.0000 -0.3000 -33.2200
v 4.4000 -0.3000 -33.2200
v 4.0000 0.0000 -31.0200
v 4.4000 0.0000 -31.0200
v 4.0000 0.0000 -33.2200
v 4.4000 0.0000 -33.2200
v 4.0000 3.0000 -31.0200
v 4.4000 3.0000 -31.0200
v 4.0000 3.0000 -33.2200
v 4.4000 3.0000 -33.2200
v 4.0000 4.0000 -31.0200
v 4.4000 4.0000 -31.0200
v 4.0000 4.0000 -33.2200
v 4.4000 4.0000 -33.2200
v 4.0000 -0.3000 -33.2200
v 4.4000 -0.3000 -33.2200
v 4.0000 -0.3000 -36.5200
v 4.4000 -0.3000 -36.5200
v 4.0000 4.0000 -33.2200
v 4.4000 4.0000 -33.2200
v 4.0000 4.0000 -36.5200
v 4.4000 4.0000 -36.5200
f 709 711 707 705
f 706 708 712 710
f 705 706 710 709
f 711 712 708 707
f 707 708 706 705
f 709 710 712 711
f 717 719 715 713
f 714 716 720 718
f 713 714 718 717
f 719 720 716 715
f 715 716 714 713
f 717 718 720 719
f 725 727 723 721
f 722 724 728 726
f 721 722 726 725
f 727 728 724 723
f 723 724 722 721
f 725 726 728 727
f 733 735 731 729
f 730 732 736 734
f 729 730 734 733
f 735 736 732 731
f 731 732 730 729
f 733 734 736 735
f 741 743 739 737
f 738 740 744 742
f 737 738 742 741
f 743 744 740 739
f 739 740 738 737
f 741 742 744 743
f 749 751 747 745
f 746 748 752 750
f 745 746 750 749
f 751 752 748 747
f 747 748 746 745
f 749 750 752 751
f 757 759 755 753
f 754 756 760 758
f 753 754 758 757
f 759 760 756 755
f 755 756 754 753
f 757 758 760 759
f 765 767 763 761
f 762 764 768 766
f 761 762 766 765
f 767 768 764 763
f 763 764 762 761
f 765 766 768 767
f 773 775 771 769
f 770 772 776 774
f 769 770 774 773
f 775 776 772 771
f 771 772 770 769
f 773 774 776 775
f 781 783 779 777
f 778 780 784 782
f 777 778 782 781
f 783 784 780 779
f 779 780 778 777
f 781 782 784 783
f 789 791 787 785
f 786 788 792 790
f 785 786 790 789
f 791 792 788 787
f 787 788 786 785
f 789 790 792 791
f 797 799 795 793
f 794 796 800 798
f 793 794 798 797
f 799 800 796 795
f 795 796 794 793
f 797 798 800 799
f 805 807 803 801
f 802 804 808 806
f 801 802 806 805
f 807 808 804 803
f 803 804 802 801
f 805 806 808 807
f 813 815 811 809
f 810 812 816 814
f 809 810 814 813
f 815 816 812 811
f 811 812 810 809
f 813 814 816 815
f 821 823 819 817
f 818 820 824 822
f 817 818 822 821
f 823 824 820 819
f 819 820 818 817
f 821 822 824 823
f 829 831 827 825
f 826 828 832 830
f 825 826 830 829
f 831 832 828 827
f 827 828 826 825
f 829 830 832 831
f 837 839 835 833
f 834 836 840 838
f 833 834 838 837
f 839 840 836 835
f 835 836 834 833
f 837 838 840 839
f 845 847 843 841
f 842 844 848 846
f 841 842 846 845
f 847 848 844 843
f 843 844 842 841
f 845 846 848 847
o GROUND_MINE_H01_Lights
usemtl Lights
v -1.0000 3.9200 -31.1200
v 1.0000 3.9200 -31.1200
v -1.0000 3.9200 -33.1200
v 1.0000 3.9200 -33.1200
v -1.0000 4.0000 -31.1200
v 1.0000 4.0000 -31.1200
v -1.0000 4.0000 -33.1200
v 1.0000 4.0000 -33.1200
f 853 855 851 849
f 850 852 856 854
f 849 850 854 853
f 855 856 852 851
f 851 852 850 849
f 853 854 856 855
o GROUND_MINE_T01R_Deck-col
usemtl Deck
v 4.4000 -0.3000 -33.5200
v 4.4000 -0.3000 -30.7200
v 10.4000 -0.3000 -33.5200
v 10.4000 -0.3000 -30.7200
v 4.4000 0.0000 -33.5200
v 4.4000 0.0000 -30.7200
v 10.4000 0.0000 -33.5200
v 10.4000 0.0000 -30.7200
f 861 863 859 857
f 858 860 864 862
f 857 858 862 861
f 863 864 860 859
f 859 860 858 857
f 861 862 864 863
o GROUND_MINE_T01R_Hull-col
usemtl Hull
v 4.4000 3.2000 -33.9200
v 4.4000 3.2000 -30.3200
v 10.4000 3.2000 -33.9200
v 10.4000 3.2000 -30.3200
v 4.4000 3.6000 -33.9200
v 4.4000 3.6000 -30.3200
v 10.4000 3.6000 -33.9200
v 10.4000 3.6000 -30.3200
v 4.4000 -0.7000 -33.9200
v 4.4000 -0.7000 -30.3200
v 10.4000 -0.7000 -33.9200
v 10.4000 -0.7000 -30.3200
v 4.4000 -0.3000 -33.9200
v 4.4000 -0.3000 -30.3200
v 10.4000 -0.3000 -33.9200
v 10.4000 -0.3000 -30.3200
v 4.4000 -0.3000 -33.9200
v 4.4000 -0.3000 -33.5200
v 5.4000 -0.3000 -33.9200
v 5.4000 -0.3000 -33.5200
v 4.4000 3.2000 -33.9200
v 4.4000 3.2000 -33.5200
v 5.4000 3.2000 -33.9200
v 5.4000 3.2000 -33.5200
v 5.4000 -0.3000 -33.9200
v 5.4000 -0.3000 -33.5200
v 9.4000 -0.3000 -33.9200
v 9.4000 -0.3000 -33.5200
v 5.4000 1.2000 -33.9200
v 5.4000 1.2000 -33.5200
v 9.4000 1.2000 -33.9200
v 9.4000 1.2000 -33.5200
v 5.4000 2.4000 -33.9200
v 5.4000 2.4000 -33.5200
v 9.4000 2.4000 -33.9200
v 9.4000 2.4000 -33.5200
v 5.4000 3.2000 -33.9200
v 5.4000 3.2000 -33.5200
v 9.4000 3.2000 -33.9200
v 9.4000 3.2000 -33.5200
v 9.4000 -0.3000 -33.9200
v 9.4000 -0.3000 -33.5200
v 10.4000 -0.3000 -33.9200
v 10.4000 -0.3000 -33.5200
v 9.4000 3.2000 -33.9200
v 9.4000 3.2000 -33.5200
v 10.4000 3.2000 -33.9200
v 10.4000 3.2000 -33.5200
v 4.4000 -0.3000 -30.7200
v 4.4000 -0.3000 -30.3200
v 5.4000 -0.3000 -30.7200
v 5.4000 -0.3000 -30.3200
v 4.4000 3.2000 -30.7200
v 4.4000 3.2000 -30.3200
v 5.4000 3.2000 -30.7200
v 5.4000 3.2000 -30.3200
v 5.4000 -0.3000 -30.7200
v 5.4000 -0.3000 -30.3200
v 9.4000 -0.3000 -30.7200
v 9.4000 -0.3000 -30.3200
v 5.4000 1.2000 -30.7200
v 5.4000 1.2000 -30.3200
v 9.4000 1.2000 -30.7200
v 9.4000 1.2000 -30.3200
v 5.4000 2.4000 -30.7200
v 5.4000 2.4000 -30.3200
v 9.4000 2.4000 -30.7200
v 9.4000 2.4000 -30.3200
v 5.4000 3.2000 -30.7200
v 5.4000 3.2000 -30.3200
v 9.4000 3.2000 -30.7200
v 9.4000 3.2000 -30.3200
v 9.4000 -0.3000 -30.7200
v 9.4000 -0.3000 -30.3200
v 10.4000 -0.3000 -30.7200
v 10.4000 -0.3000 -30.3200
v 9.4000 3.2000 -30.7200
v 9.4000 3.2000 -30.3200
v 10.4000 3.2000 -30.7200
v 10.4000 3.2000 -30.3200
f 869 871 867 865
f 866 868 872 870
f 865 866 870 869
f 871 872 868 867
f 867 868 866 865
f 869 870 872 871
f 877 879 875 873
f 874 876 880 878
f 873 874 878 877
f 879 880 876 875
f 875 876 874 873
f 877 878 880 879
f 885 887 883 881
f 882 884 888 886
f 881 882 886 885
f 887 888 884 883
f 883 884 882 881
f 885 886 888 887
f 893 895 891 889
f 890 892 896 894
f 889 890 894 893
f 895 896 892 891
f 891 892 890 889
f 893 894 896 895
f 901 903 899 897
f 898 900 904 902
f 897 898 902 901
f 903 904 900 899
f 899 900 898 897
f 901 902 904 903
f 909 911 907 905
f 906 908 912 910
f 905 906 910 909
f 911 912 908 907
f 907 908 906 905
f 909 910 912 911
f 917 919 915 913
f 914 916 920 918
f 913 914 918 917
f 919 920 916 915
f 915 916 914 913
f 917 918 920 919
f 925 927 923 921
f 922 924 928 926
f 921 922 926 925
f 927 928 924 923
f 923 924 922 921
f 925 926 928 927
f 933 935 931 929
f 930 932 936 934
f 929 930 934 933
f 935 936 932 931
f 931 932 930 929
f 933 934 936 935
f 941 943 939 937
f 938 940 944 942
f 937 938 942 941
f 943 944 940 939
f 939 940 938 937
f 941 942 944 943
o GROUND_MINE_T01R_Lights
usemtl Lights
v 4.9000 3.1200 -32.4200
v 4.9000 3.1200 -31.8200
v 9.9000 3.1200 -32.4200
v 9.9000 3.1200 -31.8200
v 4.9000 3.2000 -32.4200
v 4.9000 3.2000 -31.8200
v 9.9000 3.2000 -32.4200
v 9.9000 3.2000 -31.8200
f 949 951 947 945
f 946 948 952 950
f 945 946 950 949
f 951 952 948 947
f 947 948 946 945
f 949 950 952 951
o GROUND_MINE_T01R_Glass-col
usemtl Glass
v 5.4000 1.2000 -33.7200
v 5.4000 1.2000 -33.6700
v 9.4000 1.2000 -33.7200
v 9.4000 1.2000 -33.6700
v 5.4000 2.4000 -33.7200
v 5.4000 2.4000 -33.6700
v 9.4000 2.4000 -33.7200
v 9.4000 2.4000 -33.6700
v 5.4000 1.2000 -30.5700
v 5.4000 1.2000 -30.5200
v 9.4000 1.2000 -30.5700
v 9.4000 1.2000 -30.5200
v 5.4000 2.4000 -30.5700
v 5.4000 2.4000 -30.5200
v 9.4000 2.4000 -30.5700
v 9.4000 2.4000 -30.5200
f 957 959 955 953
f 954 956 960 958
f 953 954 958 957
f 959 960 956 955
f 955 956 954 953
f 957 958 960 959
f 965 967 963 961
f 962 964 968 966
f 961 962 966 965
f 967 968 964 963
f 963 964 962 961
f 965 966 968 967
o GROUND_MINE_M02DRL_Deck-col
usemtl Deck
v 10.8000 -0.3000 -40.6200
v 10.8000 -0.3000 -23.6200
v 24.8000 -0.3000 -40.6200
v 24.8000 -0.3000 -23.6200
v 10.8000 0.0000 -40.6200
v 10.8000 0.0000 -23.6200
v 24.8000 0.0000 -40.6200
v 24.8000 0.0000 -23.6200
f 973 975 971 969
f 970 972 976 974
f 969 970 974 973
f 975 976 972 971
f 971 972 970 969
f 973 974 976 975
o GROUND_MINE_M02DRL_Hull-col
usemtl Hull
v 10.4000 4.0000 -41.1200
v 10.4000 4.0000 -23.1200
v 25.2000 4.0000 -41.1200
v 25.2000 4.0000 -23.1200
v 10.4000 4.4000 -41.1200
v 10.4000 4.4000 -23.1200
v 25.2000 4.4000 -41.1200
v 25.2000 4.4000 -23.1200
v 10.4000 -0.7000 -41.1200
v 10.4000 -0.7000 -23.1200
v 25.2000 -0.7000 -41.1200
v 25.2000 -0.7000 -23.1200
v 10.4000 -0.3000 -41.1200
v 10.4000 -0.3000 -23.1200
v 25.2000 -0.3000 -41.1200
v 25.2000 -0.3000 -23.1200
v 10.8000 -0.3000 -41.1200
v 10.8000 -0.3000 -40.6200
v 13.3000 -0.3000 -41.1200
v 13.3000 -0.3000 -40.6200
v 10.8000 4.0000 -41.1200
v 10.8000 4.0000 -40.6200
v 13.3000 4.0000 -41.1200
v 13.3000 4.0000 -40.6200
v 13.3000 -0.3000 -41.1200
v 13.3000 -0.3000 -40.6200
v 15.3000 -0.3000 -41.1200
v 15.3000 -0.3000 -40.6200
v 13.3000 0.0000 -41.1200
v 13.3000 0.0000 -40.6200
v 15.3000 0.0000 -41.1200
v 15.3000 0.0000 -40.6200
v 13.3000 2.6000 -41.1200
v 13.3000 2.6000 -40.6200
v 15.3000 2.6000 -41.1200
v 15.3000 2.6000 -40.6200
v 13.3000 4.0000 -41.1200
v 13.3000 4.0000 -40.6200
v 15.3000 4.0000 -41.1200
v 15.3000 4.0000 -40.6200
v 15.3000 -0.3000 -41.1200
v 15.3000 -0.3000 -40.6200
v 24.8000 -0.3000 -41.1200
v 24.8000 -0.3000 -40.6200
v 15.3000 4.0000 -41.1200
v 15.3000 4.0000 -40.6200
v 24.8000 4.0000 -41.1200
v 24.8000 4.0000 -40.6200
v 10.8000 -0.3000 -23.6200
v 10.8000 -0.3000 -23.1200
v 13.3000 -0.3000 -23.6200
v 13.3000 -0.3000 -23.1200
v 10.8000 4.0000 -23.6200
v 10.8000 4.0000 -23.1200
v 13.3000 4.0000 -23.6200
v 13.3000 4.0000 -23.1200
v 13.3000 -0.3000 -23.6200
v 13.3000 -0.3000 -23.1200
v 15.3000 -0.3000 -23.6200
v 15.3000 -0.3000 -23.1200
v 13.3000 0.0000 -23.6200
v 13.3000 0.0000 -23.1200
v 15.3000 0.0000 -23.6200
v 15.3000 0.0000 -23.1200
v 13.3000 2.6000 -23.6200
v 13.3000 2.6000 -23.1200
v 15.3000 2.6000 -23.6200
v 15.3000 2.6000 -23.1200
v 13.3000 4.0000 -23.6200
v 13.3000 4.0000 -23.1200
v 15.3000 4.0000 -23.6200
v 15.3000 4.0000 -23.1200
v 15.3000 -0.3000 -23.6200
v 15.3000 -0.3000 -23.1200
v 24.8000 -0.3000 -23.6200
v 24.8000 -0.3000 -23.1200
v 15.3000 4.0000 -23.6200
v 15.3000 4.0000 -23.1200
v 24.8000 4.0000 -23.6200
v 24.8000 4.0000 -23.1200
v 10.4000 -0.3000 -41.1200
v 10.4000 -0.3000 -33.0200
v 10.8000 -0.3000 -41.1200
v 10.8000 -0.3000 -33.0200
v 10.4000 4.0000 -41.1200
v 10.4000 4.0000 -33.0200
v 10.8000 4.0000 -41.1200
v 10.8000 4.0000 -33.0200
v 10.4000 -0.3000 -33.0200
v 10.4000 -0.3000 -31.2200
v 10.8000 -0.3000 -33.0200
v 10.8000 -0.3000 -31.2200
v 10.4000 0.0000 -33.0200
v 10.4000 0.0000 -31.2200
v 10.8000 0.0000 -33.0200
v 10.8000 0.0000 -31.2200
v 10.4000 2.8000 -33.0200
v 10.4000 2.8000 -31.2200
v 10.8000 2.8000 -33.0200
v 10.8000 2.8000 -31.2200
v 10.4000 4.0000 -33.0200
v 10.4000 4.0000 -31.2200
v 10.8000 4.0000 -33.0200
v 10.8000 4.0000 -31.2200
v 10.4000 -0.3000 -31.2200
v 10.4000 -0.3000 -23.1200
v 10.8000 -0.3000 -31.2200
v 10.8000 -0.3000 -23.1200
v 10.4000 4.0000 -31.2200
v 10.4000 4.0000 -23.1200
v 10.8000 4.0000 -31.2200
v 10.8000 4.0000 -23.1200
v 24.8000 -0.3000 -41.1200
v 24.8000 -0.3000 -33.0200
v 25.2000 -0.3000 -41.1200
v 25.2000 -0.3000 -33.0200
v 24.8000 4.0000 -41.1200
v 24.8000 4.0000 -33.0200
v 25.2000 4.0000 -41.1200
v 25.2000 4.0000 -33.0200
v 24.8000 -0.3000 -33.0200
v 24.8000 -0.3000 -31.2200
v 25.2000 -0.3000 -33.0200
v 25.2000 -0.3000 -31.2200
v 24.8000 0.0000 -33.0200
v 24.8000 0.0000 -31.2200
v 25.2000 0.0000 -33.0200
v 25.2000 0.0000 -31.2200
v 24.8000 2.8000 -33.0200
v 24.8000 2.8000 -31.2200
v 25.2000 2.8000 -33.0200
v 25.2000 2.8000 -31.2200
v 24.8000 4.0000 -33.0200
v 24.8000 4.0000 -31.2200
v 25.2000 4.0000 -33.0200
v 25.2000 4.0000 -31.2200
v 24.8000 -0.3000 -31.2200
v 24.8000 -0.3000 -23.1200
v 25.2000 -0.3000 -31.2200
v 25.2000 -0.3000 -23.1200
v 24.8000 4.0000 -31.2200
v 24.8000 4.0000 -23.1200
v 25.2000 4.0000 -31.2200
v 25.2000 4.0000 -23.1200
f 981 983 979 977
f 978 980 984 982
f 977 978 982 981
f 983 984 980 979
f 979 980 978 977
f 981 982 984 983
f 989 991 987 985
f 986 988 992 990
f 985 986 990 989
f 991 992 988 987
f 987 988 986 985
f 989 990 992 991
f 997 999 995 993
f 994 996 1000 998
f 993 994 998 997
f 999 1000 996 995
f 995 996 994 993
f 997 998 1000 999
f 1005 1007 1003 1001
f 1002 1004 1008 1006
f 1001 1002 1006 1005
f 1007 1008 1004 1003
f 1003 1004 1002 1001
f 1005 1006 1008 1007
f 1013 1015 1011 1009
f 1010 1012 1016 1014
f 1009 1010 1014 1013
f 1015 1016 1012 1011
f 1011 1012 1010 1009
f 1013 1014 1016 1015
f 1021 1023 1019 1017
f 1018 1020 1024 1022
f 1017 1018 1022 1021
f 1023 1024 1020 1019
f 1019 1020 1018 1017
f 1021 1022 1024 1023
f 1029 1031 1027 1025
f 1026 1028 1032 1030
f 1025 1026 1030 1029
f 1031 1032 1028 1027
f 1027 1028 1026 1025
f 1029 1030 1032 1031
f 1037 1039 1035 1033
f 1034 1036 1040 1038
f 1033 1034 1038 1037
f 1039 1040 1036 1035
f 1035 1036 1034 1033
f 1037 1038 1040 1039
f 1045 1047 1043 1041
f 1042 1044 1048 1046
f 1041 1042 1046 1045
f 1047 1048 1044 1043
f 1043 1044 1042 1041
f 1045 1046 1048 1047
f 1053 1055 1051 1049
f 1050 1052 1056 1054
f 1049 1050 1054 1053
f 1055 1056 1052 1051
f 1051 1052 1050 1049
f 1053 1054 1056 1055
f 1061 1063 1059 1057
f 1058 1060 1064 1062
f 1057 1058 1062 1061
f 1063 1064 1060 1059
f 1059 1060 1058 1057
f 1061 1062 1064 1063
f 1069 1071 1067 1065
f 1066 1068 1072 1070
f 1065 1066 1070 1069
f 1071 1072 1068 1067
f 1067 1068 1066 1065
f 1069 1070 1072 1071
f 1077 1079 1075 1073
f 1074 1076 1080 1078
f 1073 1074 1078 1077
f 1079 1080 1076 1075
f 1075 1076 1074 1073
f 1077 1078 1080 1079
f 1085 1087 1083 1081
f 1082 1084 1088 1086
f 1081 1082 1086 1085
f 1087 1088 1084 1083
f 1083 1084 1082 1081
f 1085 1086 1088 1087
f 1093 1095 1091 1089
f 1090 1092 1096 1094
f 1089 1090 1094 1093
f 1095 1096 1092 1091
f 1091 1092 1090 1089
f 1093 1094 1096 1095
f 1101 1103 1099 1097
f 1098 1100 1104 1102
f 1097 1098 1102 1101
f 1103 1104 1100 1099
f 1099 1100 1098 1097
f 1101 1102 1104 1103
f 1109 1111 1107 1105
f 1106 1108 1112 1110
f 1105 1106 1110 1109
f 1111 1112 1108 1107
f 1107 1108 1106 1105
f 1109 1110 1112 1111
f 1117 1119 1115 1113
f 1114 1116 1120 1118
f 1113 1114 1118 1117
f 1119 1120 1116 1115
f 1115 1116 1114 1113
f 1117 1118 1120 1119
o GROUND_MINE_M02DRL_Interior-col
usemtl Interior
v 17.7000 0.0000 -40.6200
v 17.7000 0.0000 -33.3200
v 17.9000 0.0000 -40.6200
v 17.9000 0.0000 -33.3200
v 17.7000 4.0000 -40.6200
v 17.7000 4.0000 -33.3200
v 17.9000 4.0000 -40.6200
v 17.9000 4.0000 -33.3200
v 17.7000 3.0000 -33.3200
v 17.7000 3.0000 -30.9200
v 17.9000 3.0000 -33.3200
v 17.9000 3.0000 -30.9200
v 17.7000 4.0000 -33.3200
v 17.7000 4.0000 -30.9200
v 17.9000 4.0000 -33.3200
v 17.9000 4.0000 -30.9200
v 17.7000 0.0000 -30.9200
v 17.7000 0.0000 -23.6200
v 17.9000 0.0000 -30.9200
v 17.9000 0.0000 -23.6200
v 17.7000 4.0000 -30.9200
v 17.7000 4.0000 -23.6200
v 17.9000 4.0000 -30.9200
v 17.9000 4.0000 -23.6200
v 17.8000 0.0000 -33.5200
v 17.8000 0.0000 -33.3200
v 20.5000 0.0000 -33.5200
v 20.5000 0.0000 -33.3200
v 17.8000 4.0000 -33.5200
v 17.8000 4.0000 -33.3200
v 20.5000 4.0000 -33.5200
v 20.5000 4.0000 -33.3200
v 20.5000 2.6000 -33.5200
v 20.5000 2.6000 -33.3200
v 22.1000 2.6000 -33.5200
v 22.1000 2.6000 -33.3200
v 20.5000 4.0000 -33.5200
v 20.5000 4.0000 -33.3200
v 22.1000 4.0000 -33.5200
v 22.1000 4.0000 -33.3200
v 22.1000 0.0000 -33.5200
v 22.1000 0.0000 -33.3200
v 24.8000 0.0000 -33.5200
v 24.8000 0.0000 -33.3200
v 22.1000 4.0000 -33.5200
v 22.1000 4.0000 -33.3200
v 24.8000 4.0000 -33.5200
v 24.8000 4.0000 -33.3200
v 17.8000 0.0000 -30.9200
v 17.8000 0.0000 -30.7200
v 20.5000 0.0000 -30.9200
v 20.5000 0.0000 -30.7200
v 17.8000 4.0000 -30.9200
v 17.8000 4.0000 -30.7200
v 20.5000 4.0000 -30.9200
v 20.5000 4.0000 -30.7200
v 20.5000 2.6000 -30.9200
v 20.5000 2.6000 -30.7200
v 22.1000 2.6000 -30.9200
v 22.1000 2.6000 -30.7200
v 20.5000 4.0000 -30.9200
v 20.5000 4.0000 -30.7200
v 22.1000 4.0000 -30.9200
v 22.1000 4.0000 -30.7200
v 22.1000 0.0000 -30.9200
v 22.1000 0.0000 -30.7200
v 24.8000 0.0000 -30.9200
v 24.8000 0.0000 -30.7200
v 22.1000 4.0000 -30.9200
v 22.1000 4.0000 -30.7200
v 24.8000 4.0000 -30.9200
v 24.8000 4.0000 -30.7200
f 1125 1127 1123 1121
f 1122 1124 1128 1126
f 1121 1122 1126 1125
f 1127 1128 1124 1123
f 1123 1124 1122 1121
f 1125 1126 1128 1127
f 1133 1135 1131 1129
f 1130 1132 1136 1134
f 1129 1130 1134 1133
f 1135 1136 1132 1131
f 1131 1132 1130 1129
f 1133 1134 1136 1135
f 1141 1143 1139 1137
f 1138 1140 1144 1142
f 1137 1138 1142 1141
f 1143 1144 1140 1139
f 1139 1140 1138 1137
f 1141 1142 1144 1143
f 1149 1151 1147 1145
f 1146 1148 1152 1150
f 1145 1146 1150 1149
f 1151 1152 1148 1147
f 1147 1148 1146 1145
f 1149 1150 1152 1151
f 1157 1159 1155 1153
f 1154 1156 1160 1158
f 1153 1154 1158 1157
f 1159 1160 1156 1155
f 1155 1156 1154 1153
f 1157 1158 1160 1159
f 1165 1167 1163 1161
f 1162 1164 1168 1166
f 1161 1162 1166 1165
f 1167 1168 1164 1163
f 1163 1164 1162 1161
f 1165 1166 1168 1167
f 1173 1175 1171 1169
f 1170 1172 1176 1174
f 1169 1170 1174 1173
f 1175 1176 1172 1171
f 1171 1172 1170 1169
f 1173 1174 1176 1175
f 1181 1183 1179 1177
f 1178 1180 1184 1182
f 1177 1178 1182 1181
f 1183 1184 1180 1179
f 1179 1180 1178 1177
f 1181 1182 1184 1183
f 1189 1191 1187 1185
f 1186 1188 1192 1190
f 1185 1186 1190 1189
f 1191 1192 1188 1187
f 1187 1188 1186 1185
f 1189 1190 1192 1191
o GROUND_MINE_M02DRL_Furniture-col
usemtl Furniture
v 18.4000 0.0000 -24.4200
v 18.4000 0.0000 -23.7200
v 24.2000 0.0000 -24.4200
v 24.2000 0.0000 -23.7200
v 18.4000 1.1000 -24.4200
v 18.4000 1.1000 -23.7200
v 24.2000 1.1000 -24.4200
v 24.2000 1.1000 -23.7200
v 18.4000 0.0000 -40.5200
v 18.4000 0.0000 -40.0200
v 20.8000 0.0000 -40.5200
v 20.8000 0.0000 -40.0200
v 18.4000 2.0000 -40.5200
v 18.4000 2.0000 -40.0200
v 20.8000 2.0000 -40.5200
v 20.8000 2.0000 -40.0200
v 20.7000 0.0000 -36.1200
v 20.7000 0.0000 -34.7200
v 21.9000 0.0000 -36.1200
v 21.9000 0.0000 -34.7200
v 20.7000 0.7500 -36.1200
v 20.7000 0.7500 -34.7200
v 21.9000 0.7500 -36.1200
v 21.9000 0.7500 -34.7200
v 18.2000 0.0000 -31.2700
v 18.2000 0.0000 -30.9200
v 19.4000 0.0000 -31.2700
v 19.4000 0.0000 -30.9200
v 18.2000 2.0000 -31.2700
v 18.2000 2.0000 -30.9200
v 19.4000 2.0000 -31.2700
v 19.4000 2.0000 -30.9200
v 12.2000 0.0000 -38.6200
v 12.2000 0.0000 -34.9200
v 16.4000 0.0000 -38.6200
v 16.4000 0.0000 -34.9200
v 12.2000 1.0000 -38.6200
v 12.2000 1.0000 -34.9200
v 16.4000 1.0000 -38.6200
v 16.4000 1.0000 -34.9200
v 12.7667 0.6000 -40.5700
v 12.7667 0.6000 -40.1700
v 13.7667 0.6000 -40.5700
v 13.7667 0.6000 -40.1700
v 12.7667 2.0000 -40.5700
v 12.7667 2.0000 -40.1700
v 13.7667 2.0000 -40.5700
v 13.7667 2.0000 -40.1700
v 14.8333 0.6000 -24.0700
v 14.8333 0.6000 -23.6700
v 15.8333 0.6000 -24.0700
v 15.8333 0.6000 -23.6700
v 14.8333 2.0000 -24.0700
v 14.8333 2.0000 -23.6700
v 15.8333 2.0000 -24.0700
v 15.8333 2.0000 -23.6700
f 1197 1199 1195 1193
f 1194 1196 1200 1198
f 1193 1194 1198 1197
f 1199 1200 1196 1195
f 1195 1196 1194 1193
f 1197 1198 1200 1199
f 1205 1207 1203 1201
f 1202 1204 1208 1206
f 1201 1202 1206 1205
f 1207 1208 1204 1203
f 1203 1204 1202 1201
f 1205 1206 1208 1207
f 1213 1215 1211 1209
f 1210 1212 1216 1214
f 1209 1210 1214 1213
f 1215 1216 1212 1211
f 1211 1212 1210 1209
f 1213 1214 1216 1215
f 1221 1223 1219 1217
f 1218 1220 1224 1222
f 1217 1218 1222 1221
f 1223 1224 1220 1219
f 1219 1220 1218 1217
f 1221 1222 1224 1223
f 1229 1231 1227 1225
f 1226 1228 1232 1230
f 1225 1226 1230 1229
f 1231 1232 1228 1227
f 1227 1228 1226 1225
f 1229 1230 1232 1231
f 1237 1239 1235 1233
f 1234 1236 1240 1238
f 1233 1234 1238 1237
f 1239 1240 1236 1235
f 1235 1236 1234 1233
f 1237 1238 1240 1239
f 1245 1247 1243 1241
f 1242 1244 1248 1246
f 1241 1242 1246 1245
f 1247 1248 1244 1243
f 1243 1244 1242 1241
f 1245 1246 1248 1247
o GROUND_MINE_M02DRL_Cover-col
usemtl Cover
v 12.2500 0.0000 -35.7200
v 12.2500 0.0000 -34.7200
v 13.2500 0.0000 -35.7200
v 13.2500 0.0000 -34.7200
v 12.2500 1.1000 -35.7200
v 12.2500 1.1000 -34.7200
v 13.2500 1.1000 -35.7200
v 13.2500 1.1000 -34.7200
v 15.3500 0.0000 -35.7200
v 15.3500 0.0000 -34.7200
v 16.3500 0.0000 -35.7200
v 16.3500 0.0000 -34.7200
v 15.3500 1.1000 -35.7200
v 15.3500 1.1000 -34.7200
v 16.3500 1.1000 -35.7200
v 16.3500 1.1000 -34.7200
f 1253 1255 1251 1249
f 1250 1252 1256 1254
f 1249 1250 1254 1253
f 1255 1256 1252 1251
f 1251 1252 1250 1249
f 1253 1254 1256 1255
f 1261 1263 1259 1257
f 1258 1260 1264 1262
f 1257 1258 1262 1261
f 1263 1264 1260 1259
f 1259 1260 1258 1257
f 1261 1262 1264 1263
o GROUND_MINE_M02DRL_Hazard
usemtl Hazard
v 13.0000 0.0000 -41.2400
v 13.0000 0.0000 -41.1200
v 13.3000 0.0000 -41.2400
v 13.3000 0.0000 -41.1200
v 13.0000 2.9000 -41.2400
v 13.0000 2.9000 -41.1200
v 13.3000 2.9000 -41.2400
v 13.3000 2.9000 -41.1200
v 15.3000 0.0000 -41.2400
v 15.3000 0.0000 -41.1200
v 15.6000 0.0000 -41.2400
v 15.6000 0.0000 -41.1200
v 15.3000 2.9000 -41.2400
v 15.3000 2.9000 -41.1200
v 15.6000 2.9000 -41.2400
v 15.6000 2.9000 -41.1200
v 13.0000 0.0000 -23.1200
v 13.0000 0.0000 -23.0000
v 13.3000 0.0000 -23.1200
v 13.3000 0.0000 -23.0000
v 13.0000 2.9000 -23.1200
v 13.0000 2.9000 -23.0000
v 13.3000 2.9000 -23.1200
v 13.3000 2.9000 -23.0000
v 15.3000 0.0000 -23.1200
v 15.3000 0.0000 -23.0000
v 15.6000 0.0000 -23.1200
v 15.6000 0.0000 -23.0000
v 15.3000 2.9000 -23.1200
v 15.3000 2.9000 -23.0000
v 15.6000 2.9000 -23.1200
v 15.6000 2.9000 -23.0000
v 25.2000 2.8000 -33.3200
v 25.2000 2.8000 -30.9200
v 25.2400 2.8000 -33.3200
v 25.2400 2.8000 -30.9200
v 25.2000 3.0000 -33.3200
v 25.2000 3.0000 -30.9200
v 25.2400 3.0000 -33.3200
v 25.2400 3.0000 -30.9200
v 12.7667 1.8000 -40.1700
v 12.7667 1.8000 -40.1500
v 13.7667 1.8000 -40.1700
v 13.7667 1.8000 -40.1500
v 12.7667 2.0000 -40.1700
v 12.7667 2.0000 -40.1500
v 13.7667 2.0000 -40.1700
v 13.7667 2.0000 -40.1500
v 14.8333 1.8000 -24.0900
v 14.8333 1.8000 -24.0700
v 15.8333 1.8000 -24.0900
v 15.8333 1.8000 -24.0700
v 14.8333 2.0000 -24.0900
v 14.8333 2.0000 -24.0700
v 15.8333 2.0000 -24.0900
v 15.8333 2.0000 -24.0700
f 1269 1271 1267 1265
f 1266 1268 1272 1270
f 1265 1266 1270 1269
f 1271 1272 1268 1267
f 1267 1268 1266 1265
f 1269 1270 1272 1271
f 1277 1279 1275 1273
f 1274 1276 1280 1278
f 1273 1274 1278 1277
f 1279 1280 1276 1275
f 1275 1276 1274 1273
f 1277 1278 1280 1279
f 1285 1287 1283 1281
f 1282 1284 1288 1286
f 1281 1282 1286 1285
f 1287 1288 1284 1283
f 1283 1284 1282 1281
f 1285 1286 1288 1287
f 1293 1295 1291 1289
f 1290 1292 1296 1294
f 1289 1290 1294 1293
f 1295 1296 1292 1291
f 1291 1292 1290 1289
f 1293 1294 1296 1295
f 1301 1303 1299 1297
f 1298 1300 1304 1302
f 1297 1298 1302 1301
f 1303 1304 1300 1299
f 1299 1300 1298 1297
f 1301 1302 1304 1303
f 1309 1311 1307 1305
f 1306 1308 1312 1310
f 1305 1306 1310 1309
f 1311 1312 1308 1307
f 1307 1308 1306 1305
f 1309 1310 1312 1311
f 1317 1319 1315 1313
f 1314 1316 1320 1318
f 1313 1314 1318 1317
f 1319 1320 1316 1315
f 1315 1316 1314 1313
f 1317 1318 1320 1319
o GROUND_MINE_M02DRL_Lights
usemtl Lights
v 18.6000 0.8000 -24.4400
v 18.6000 0.8000 -24.4200
v 24.0000 0.8000 -24.4400
v 24.0000 0.8000 -24.4200
v 18.6000 1.0500 -24.4400
v 18.6000 1.0500 -24.4200
v 24.0000 1.0500 -24.4400
v 24.0000 1.0500 -24.4200
v 20.6000 1.0000 -29.4200
v 20.6000 1.0000 -28.4200
v 22.0000 1.0000 -29.4200
v 22.0000 1.0000 -28.4200
v 20.6000 1.0300 -29.4200
v 20.6000 1.0300 -28.4200
v 22.0000 1.0300 -29.4200
v 22.0000 1.0300 -28.4200
v 18.3000 3.6200 -32.4200
v 18.3000 3.6200 -31.8200
v 24.3000 3.6200 -32.4200
v 24.3000 3.6200 -31.8200
v 18.3000 3.7000 -32.4200
v 18.3000 3.7000 -31.8200
v 24.3000 3.7000 -32.4200
v 24.3000 3.7000 -31.8200
v 11.7000 3.8800 -32.5200
v 11.7000 3.8800 -31.7200
v 16.9000 3.8800 -32.5200
v 16.9000 3.8800 -31.7200
v 11.7000 3.9600 -32.5200
v 11.7000 3.9600 -31.7200
v 16.9000 3.9600 -32.5200
v 16.9000 3.9600 -31.7200
f 1325 1327 1323 1321
f 1322 1324 1328 1326
f 1321 1322 1326 1325
f 1327 1328 1324 1323
f 1323 1324 1322 1321
f 1325 1326 1328 1327
f 1333 1335 1331 1329
f 1330 1332 1336 1334
f 1329 1330 1334 1333
f 1335 1336 1332 1331
f 1331 1332 1330 1329
f 1333 1334 1336 1335
f 1341 1343 1339 1337
f 1338 1340 1344 1342
f 1337 1338 1342 1341
f 1343 1344 1340 1339
f 1339 1340 1338 1337
f 1341 1342 1344 1343
f 1349 1351 1347 1345
f 1346 1348 1352 1350
f 1345 1346 1350 1349
f 1351 1352 1348 1347
f 1347 1348 1346 1345
f 1349 1350 1352 1351
o GROUND_MINE_M02DRL_Trim
usemtl Trim
v 16.4000 4.4000 -32.9200
v 16.4000 4.4000 -31.3200
v 19.2000 4.4000 -32.9200
v 19.2000 4.4000 -31.3200
v 16.4000 14.4000 -32.9200
v 16.4000 14.4000 -31.3200
v 19.2000 14.4000 -32.9200
v 19.2000 14.4000 -31.3200
f 1357 1359 1355 1353
f 1354 1356 1360 1358
f 1353 1354 1358 1357
f 1359 1360 1356 1355
f 1355 1356 1354 1353
f 1357 1358 1360 1359
o GROUND_MINE_M02DRL_Machinery-col
usemtl Engine
v 12.2000 0.0000 -30.5200
v 12.2000 0.0000 -25.6200
v 16.4000 0.0000 -30.5200
v 16.4000 0.0000 -25.6200
v 12.2000 2.4000 -30.5200
v 12.2000 2.4000 -25.6200
v 16.4000 2.4000 -30.5200
v 16.4000 2.4000 -25.6200
v 15.7000 13.4000 -33.6200
v 15.7000 13.4000 -30.6200
v 19.9000 13.4000 -33.6200
v 19.9000 13.4000 -30.6200
v 15.7000 15.4000 -33.6200
v 15.7000 15.4000 -30.6200
v 19.9000 15.4000 -33.6200
v 19.9000 15.4000 -30.6200
f 1365 1367 1363 1361
f 1362 1364 1368 1366
f 1361 1362 1366 1365
f 1367 1368 1364 1363
f 1363 1364 1362 1361
f 1365 1366 1368 1367
f 1373 1375 1371 1369
f 1370 1372 1376 1374
f 1369 1370 1374 1373
f 1375 1376 1372 1371
f 1371 1372 1370 1369
f 1373 1374 1376 1375
o GROUND_MINE_M02DRL_AirlockPort_Door-col
usemtl Door
v 13.2500 0.0000 -40.9200
v 13.2500 0.0000 -40.8200
v 15.3500 0.0000 -40.9200
v 15.3500 0.0000 -40.8200
v 13.2500 2.6000 -40.9200
v 13.2500 2.6000 -40.8200
v 15.3500 2.6000 -40.9200
v 15.3500 2.6000 -40.8200
f 1381 1383 1379 1377
f 1378 1380 1384 1382
f 1377 1378 1382 1381
f 1383 1384 1380 1379
f 1379 1380 1378 1377
f 1381 1382 1384 1383
o GROUND_MINE_M02DRL_AirlockStbd_Door-col
usemtl Door
v 13.2500 0.0000 -23.4200
v 13.2500 0.0000 -23.3200
v 15.3500 0.0000 -23.4200
v 15.3500 0.0000 -23.3200
v 13.2500 2.6000 -23.4200
v 13.2500 2.6000 -23.3200
v 15.3500 2.6000 -23.4200
v 15.3500 2.6000 -23.3200
f 1389 1391 1387 1385
f 1386 1388 1392 1390
f 1385 1386 1390 1389
f 1391 1392 1388 1387
f 1387 1388 1386 1385
f 1389 1390 1392 1391
o GROUND_MINE_M02DRL_Connector_Back_Door-col
usemtl Door
v 10.5500 0.0000 -33.0700
v 10.5500 0.0000 -31.1700
v 10.6500 0.0000 -33.0700
v 10.6500 0.0000 -31.1700
v 10.5500 2.8000 -33.0700
v 10.5500 2.8000 -31.1700
v 10.6500 2.8000 -33.0700
v 10.6500 2.8000 -31.1700
f 1397 1399 1395 1393
f 1394 1396 1400 1398
f 1393 1394 1398 1397
f 1399 1400 1396 1395
f 1395 1396 1394 1393
f 1397 1398 1400 1399
o GROUND_MINE_M02DRL_Connector_Front_Door-col
usemtl Door
v 24.9500 0.0000 -33.0700
v 24.9500 0.0000 -31.1700
v 25.0500 0.0000 -33.0700
v 25.0500 0.0000 -31.1700
v 24.9500 2.8000 -33.0700
v 24.9500 2.8000 -31.1700
v 25.0500 2.8000 -33.0700
v 25.0500 2.8000 -31.1700
f 1405 1407 1403 1401
f 1402 1404 1408 1406
f 1401 1402 1406 1405
f 1407 1408 1404 1403
f 1403 1404 1402 1401
f 1405 1406 1408 1407
o GROUND_MINE_M02DRL_ControlConsole-col
usemtl Furniture
v 20.5000 0.0000 -29.5200
v 20.5000 0.0000 -28.3200
v 22.1000 0.0000 -29.5200
v 22.1000 0.0000 -28.3200
v 20.5000 1.0000 -29.5200
v 20.5000 1.0000 -28.3200
v 22.1000 1.0000 -29.5200
v 22.1000 1.0000 -28.3200
f 1413 1415 1411 1409
f 1410 1412 1416 1414
f 1409 1410 1414 1413
f 1415 1416 1412 1411
f 1411 1412 1410 1409
f 1413 1414 1416 1415
o GROUND_MINE_M02DRL_StatusLight
usemtl Lights
v 23.3000 4.4000 -32.6200
v 23.3000 4.4000 -31.6200
v 24.3000 4.4000 -32.6200
v 24.3000 4.4000 -31.6200
v 23.3000 4.7000 -32.6200
v 23.3000 4.7000 -31.6200
v 24.3000 4.7000 -32.6200
v 24.3000 4.7000 -31.6200
f 1421 1423 1419 1417
f 1418 1420 1424 1422
f 1417 1418 1422 1421
f 1423 1424 1420 1419
f 1419 1420 1418 1417
f 1421 1422 1424 1423
o GROUND_MINE_Asteroid-col
usemtl Rock
v -49.1200 -60.0000 40.4400
v 65.2400 -60.0000 40.4400
v -49.1200 -60.0000 -81.2400
v 65.2400 -60.0000 -81.2400
v -37.6840 -0.7500 28.2720
v 53.8040 -0.7500 28.2720
v -37.6840 -0.7500 -69.0720
v 53.8040 -0.7500 -69.0720
v -26.2480 -90.0000 16.1040
v 42.3680 -90.0000 16.1040
v -26.2480 -90.0000 -56.9040
v 42.3680 -90.0000 -56.9040
v -49.1200 -60.0000 40.4400
v 65.2400 -60.0000 40.4400
v -49.1200 -60.0000 -81.2400
v 65.2400 -60.0000 -81.2400
f 1429 1431 1427 1425
f 1426 1428 1432 1430
f 1425 1426 1430 1429
f 1431 1432 1428 1427
f 1427 1428 1426 1425
f 1429 1430 1432 1431
f 1437 1439 1435 1433
f 1434 1436 1440 1438
f 1433 1434 1438 1437
f 1439 1440 1436 1435
f 1435 1436 1434 1433
f 1437 1438 1440 1439
