mtllib materials_F1.mtl
o Item_F1_BreachCharge
usemtl WDark
v -0.1000 -0.0700 0.0200
v 0.1000 -0.0700 0.0200
v -0.1000 -0.0700 -0.0200
v 0.1000 -0.0700 -0.0200
v -0.1000 0.0700 0.0200
v 0.1000 0.0700 0.0200
v -0.1000 0.0700 -0.0200
v 0.1000 0.0700 -0.0200
f 5 7 3 1
f 2 4 8 6
f 1 2 6 5
f 7 8 4 3
f 3 4 2 1
f 5 6 8 7
o Item_F1_BreachCharge_Stripes
usemtl WAccent
v -0.1000 0.0500 0.0240
v 0.1000 0.0500 0.0240
v -0.1000 0.0500 0.0200
v 0.1000 0.0500 0.0200
v -0.1000 0.0650 0.0240
v 0.1000 0.0650 0.0240
v -0.1000 0.0650 0.0200
v 0.1000 0.0650 0.0200
f 13 15 11 9
f 10 12 16 14
f 9 10 14 13
f 15 16 12 11
f 11 12 10 9
f 13 14 16 15
o Item_F1_BreachCharge_Light
usemtl Light
v -0.0120 -0.0100 0.0260
v 0.0120 -0.0100 0.0260
v -0.0120 -0.0100 0.0200
v 0.0120 -0.0100 0.0200
v -0.0120 0.0100 0.0260
v 0.0120 0.0100 0.0260
v -0.0120 0.0100 0.0200
v 0.0120 0.0100 0.0200
f 21 23 19 17
f 18 20 24 22
f 17 18 22 21
f 23 24 20 19
f 19 20 18 17
f 21 22 24 23
