mtllib materials_F1.mtl
o Item_F1_FragGrenade
usemtl WBody
v 0.0320 -0.0450 -0.0000
v 0.0259 -0.0450 -0.0188
v 0.0099 -0.0450 -0.0304
v -0.0099 -0.0450 -0.0304
v -0.0259 -0.0450 -0.0188
v -0.0320 -0.0450 -0.0000
v -0.0259 -0.0450 0.0188
v -0.0099 -0.0450 0.0304
v 0.0099 -0.0450 0.0304
v 0.0259 -0.0450 0.0188
v 0.0320 0.0350 -0.0000
v 0.0259 0.0350 -0.0188
v 0.0099 0.0350 -0.0304
v -0.0099 0.0350 -0.0304
v -0.0259 0.0350 -0.0188
v -0.0320 0.0350 -0.0000
v -0.0259 0.0350 0.0188
v -0.0099 0.0350 0.0304
v 0.0099 0.0350 0.0304
v 0.0259 0.0350 0.0188
f 1 2 12 11
f 2 3 13 12
f 3 4 14 13
f 4 5 15 14
f 5 6 16 15
f 6 7 17 16
f 7 8 18 17
f 8 9 19 18
f 9 10 20 19
f 10 1 11 20
f 10 9 8 7 6 5 4 3 2 1
f 11 12 13 14 15 16 17 18 19 20
o Item_F1_FragGrenade_Band
usemtl WAccent
v 0.0340 -0.0100 -0.0000
v 0.0275 -0.0100 -0.0200
v 0.0105 -0.0100 -0.0323
v -0.0105 -0.0100 -0.0323
v -0.0275 -0.0100 -0.0200
v -0.0340 -0.0100 -0.0000
v -0.0275 -0.0100 0.0200
v -0.0105 -0.0100 0.0323
v 0.0105 -0.0100 0.0323
v 0.0275 -0.0100 0.0200
v 0.0340 0.0100 -0.0000
v 0.0275 0.0100 -0.0200
v 0.0105 0.0100 -0.0323
v -0.0105 0.0100 -0.0323
v -0.0275 0.0100 -0.0200
v -0.0340 0.0100 -0.0000
v -0.0275 0.0100 0.0200
v -0.0105 0.0100 0.0323
v 0.0105 0.0100 0.0323
v 0.0275 0.0100 0.0200
f 21 22 32 31
f 22 23 33 32
f 23 24 34 33
f 24 25 35 34
f 25 26 36 35
f 26 27 37 36
f 27 28 38 37
f 28 29 39 38
f 29 30 40 39
f 30 21 31 40
f 30 29 28 27 26 25 24 23 22 21
f 31 32 33 34 35 36 37 38 39 40
o Item_F1_FragGrenade_Fuse
usemtl WDark
v -0.0120 0.0350 0.0120
v 0.0120 0.0350 0.0120
v -0.0120 0.0350 -0.0120
v 0.0120 0.0350 -0.0120
v -0.0120 0.0550 0.0120
v 0.0120 0.0550 0.0120
v -0.0120 0.0550 -0.0120
v 0.0120 0.0550 -0.0120
f 45 47 43 41
f 42 44 48 46
f 41 42 46 45
f 47 48 44 43
f 43 44 42 41
f 45 46 48 47
