mtllib materials_F2.mtl
o Item_F2_Tool
usemtl WPanel
v -0.0120 -0.1000 0.0120
v 0.0120 -0.1000 0.0120
v -0.0120 -0.1000 -0.0120
v 0.0120 -0.1000 -0.0120
v -0.0120 0.0800 0.0120
v 0.0120 0.0800 0.0120
v -0.0120 0.0800 -0.0120
v 0.0120 0.0800 -0.0120
f 5 7 3 1
f 2 4 8 6
f 1 2 6 5
f 7 8 4 3
f 3 4 2 1
f 5 6 8 7
o Item_F2_Tool_Head
usemtl WAccent
v -0.0300 0.0800 0.0150
v 0.0300 0.0800 0.0150
v -0.0300 0.0800 -0.0150
v 0.0300 0.0800 -0.0150
v -0.0300 0.1200 0.0150
v 0.0300 0.1200 0.0150
v -0.0300 0.1200 -0.0150
v 0.0300 0.1200 -0.0150
f 13 15 11 9
f 10 12 16 14
f 9 10 14 13
f 15 16 12 11
f 11 12 10 9
f 13 14 16 15
