mtllib materials_F1.mtl
o Item_F1_PurgeEmitter
usemtl Science
v -0.0300 -0.0400 0.1000
v 0.0300 -0.0400 0.1000
v -0.0300 -0.0400 -0.1200
v 0.0300 -0.0400 -0.1200
v -0.0300 0.0400 0.1000
v 0.0300 0.0400 0.1000
v -0.0300 0.0400 -0.1200
v 0.0300 0.0400 -0.1200
f 5 7 3 1
f 2 4 8 6
f 1 2 6 5
f 7 8 4 3
f 3 4 2 1
f 5 6 8 7
v -0.0180 -0.1300 -0.0400
v 0.0180 -0.1300 -0.0400
v -0.0180 -0.1300 -0.0900
v 0.0180 -0.1300 -0.0900
v -0.0180 -0.0400 -0.0400
v 0.0180 -0.0400 -0.0400
v -0.0180 -0.0400 -0.0900
v 0.0180 -0.0400 -0.0900
f 13 15 11 9
f 10 12 16 14
f 9 10 14 13
f 15 16 12 11
f 11 12 10 9
f 13 14 16 15
o Item_F1_PurgeEmitter_Dish
usemtl WPanel
v 0.0600 0.0000 0.1600
v 0.0485 0.0353 0.1600
v 0.0185 0.0571 0.1600
v -0.0185 0.0571 0.1600
v -0.0485 0.0353 0.1600
v -0.0600 0.0000 0.1600
v -0.0485 -0.0353 0.1600
v -0.0185 -0.0571 0.1600
v 0.0185 -0.0571 0.1600
v 0.0485 -0.0353 0.1600
v 0.0600 0.0000 0.1000
v 0.0485 0.0353 0.1000
v 0.0185 0.0571 0.1000
v -0.0185 0.0571 0.1000
v -0.0485 0.0353 0.1000
v -0.0600 0.0000 0.1000
v -0.0485 -0.0353 0.1000
v -0.0185 -0.0571 0.1000
v 0.0185 -0.0571 0.1000
v 0.0485 -0.0353 0.1000
f 27 28 18 17
f 28 29 19 18
f 29 30 20 19
f 30 31 21 20
f 31 32 22 21
f 32 33 23 22
f 33 34 24 23
f 34 35 25 24
f 35 36 26 25
f 36 27 17 26
f 17 18 19 20 21 22 23 24 25 26
f 36 35 34 33 32 31 30 29 28 27
o Item_F1_PurgeEmitter_Field
usemtl Purge
v 0.0450 0.0000 0.1700
v 0.0364 0.0265 0.1700
v 0.0139 0.0428 0.1700
v -0.0139 0.0428 0.1700
v -0.0364 0.0265 0.1700
v -0.0450 0.0000 0.1700
v -0.0364 -0.0265 0.1700
v -0.0139 -0.0428 0.1700
v 0.0139 -0.0428 0.1700
v 0.0364 -0.0265 0.1700
v 0.0450 0.0000 0.1600
v 0.0364 0.0265 0.1600
v 0.0139 0.0428 0.1600
v -0.0139 0.0428 0.1600
v -0.0364 0.0265 0.1600
v -0.0450 0.0000 0.1600
v -0.0364 -0.0265 0.1600
v -0.0139 -0.0428 0.1600
v 0.0139 -0.0428 0.1600
v 0.0364 -0.0265 0.1600
f 47 48 38 37
f 48 49 39 38
f 49 50 40 39
f 50 51 41 40
f 51 52 42 41
f 52 53 43 42
f 53 54 44 43
f 54 55 45 44
f 55 56 46 45
f 56 47 37 46
f 37 38 39 40 41 42 43 44 45 46
f 56 55 54 53 52 51 50 49 48 47
