mtllib materials_F2.mtl
o Item_F2_PlasmaGrenade
usemtl WPanel
v 0.0350 -0.0300 -0.0000
v 0.0247 -0.0300 -0.0247
v 0.0000 -0.0300 -0.0350
v -0.0247 -0.0300 -0.0247
v -0.0350 -0.0300 -0.0000
v -0.0247 -0.0300 0.0247
v -0.0000 -0.0300 0.0350
v 0.0247 -0.0300 0.0247
v 0.0350 0.0300 -0.0000
v 0.0247 0.0300 -0.0247
v 0.0000 0.0300 -0.0350
v -0.0247 0.0300 -0.0247
v -0.0350 0.0300 -0.0000
v -0.0247 0.0300 0.0247
v -0.0000 0.0300 0.0350
v 0.0247 0.0300 0.0247
f 1 2 10 9
f 2 3 11 10
f 3 4 12 11
f 4 5 13 12
f 5 6 14 13
f 6 7 15 14
f 7 8 16 15
f 8 1 9 16
f 8 7 6 5 4 3 2 1
f 9 10 11 12 13 14 15 16
o Item_F2_PlasmaGrenade_Core
usemtl Energy
v 0.0220 0.0300 -0.0000
v 0.0156 0.0300 -0.0156
v 0.0000 0.0300 -0.0220
v -0.0156 0.0300 -0.0156
v -0.0220 0.0300 -0.0000
v -0.0156 0.0300 0.0156
v -0.0000 0.0300 0.0220
v 0.0156 0.0300 0.0156
v 0.0220 0.0450 -0.0000
v 0.0156 0.0450 -0.0156
v 0.0000 0.0450 -0.0220
v -0.0156 0.0450 -0.0156
v -0.0220 0.0450 -0.0000
v -0.0156 0.0450 0.0156
v -0.0000 0.0450 0.0220
v 0.0156 0.0450 0.0156
f 17 18 26 25
f 18 19 27 26
f 19 20 28 27
f 20 21 29 28
f 21 22 30 29
f 22 23 31 30
f 23 24 32 31
f 24 17 25 32
f 24 23 22 21 20 19 18 17
f 25 26 27 28 29 30 31 32
v 0.0220 -0.0450 -0.0000
v 0.0156 -0.0450 -0.0156
v 0.0000 -0.0450 -0.0220
v -0.0156 -0.0450 -0.0156
v -0.0220 -0.0450 -0.0000
v -0.0156 -0.0450 0.0156
v -0.0000 -0.0450 0.0220
v 0.0156 -0.0450 0.0156
v 0.0220 -0.0300 -0.0000
v 0.0156 -0.0300 -0.0156
v 0.0000 -0.0300 -0.0220
v -0.0156 -0.0300 -0.0156
v -0.0220 -0.0300 -0.0000
v -0.0156 -0.0300 0.0156
v -0.0000 -0.0300 0.0220
v 0.0156 -0.0300 0.0156
f 33 34 42 41
f 34 35 43 42
f 35 36 44 43
f 36 37 45 44
f 37 38 46 45
f 38 39 47 46
f 39 40 48 47
f 40 33 41 48
f 40 39 38 37 36 35 34 33
f 41 42 43 44 45 46 47 48
