mtllib materials_F2.mtl
o Chassis
usemtl Chassis
v -0.1320 0.8974 0.0792
v 0.1320 0.8974 0.0792
v -0.1320 0.8974 -0.0704
v 0.1320 0.8974 -0.0704
v -0.1320 1.0615 0.0792
v 0.1320 1.0615 0.0792
v -0.1320 1.0615 -0.0704
v 0.1320 1.0615 -0.0704
f 5 7 3 1
f 2 4 8 6
f 1 2 6 5
f 7 8 4 3
f 3 4 2 1
f 5 6 8 7
v -0.1320 1.1966 0.0792
v 0.1320 1.1966 0.0792
v -0.1320 1.1966 -0.0704
v 0.1320 1.1966 -0.0704
v -0.1496 1.3510 0.0880
v 0.1496 1.3510 0.0880
v -0.1496 1.3510 -0.0792
v 0.1496 1.3510 -0.0792
f 13 15 11 9
f 10 12 16 14
f 9 10 14 13
f 15 16 12 11
f 11 12 10 9
f 13 14 16 15
v -0.1584 1.3510 0.0968
v 0.1584 1.3510 0.0968
v -0.1584 1.3510 -0.0880
v 0.1584 1.3510 -0.0880
v -0.1760 1.5054 0.0880
v 0.1760 1.5054 0.0880
v -0.1760 1.5054 -0.0792
v 0.1760 1.5054 -0.0792
f 21 23 19 17
f 18 20 24 22
f 17 18 22 21
f 23 24 20 19
f 19 20 18 17
f 21 22 24 23
v -0.0572 1.6019 0.1056
v 0.0572 1.6019 0.1056
v -0.0572 1.6019 -0.0704
v 0.0572 1.6019 -0.0704
v -0.0616 1.8624 0.0704
v 0.0616 1.8624 0.0704
v -0.0616 1.8624 -0.0792
v 0.0616 1.8624 -0.0792
f 29 31 27 25
f 26 28 32 30
f 25 26 30 29
f 31 32 28 27
f 27 28 26 25
f 29 30 32 31
v 0.2200 1.4137 0.0484
v 0.4224 1.4137 0.0484
v 0.2200 1.4137 -0.0484
v 0.4224 1.4137 -0.0484
v 0.2200 1.5199 0.0484
v 0.4224 1.5199 0.0484
v 0.2200 1.5199 -0.0484
v 0.4224 1.5199 -0.0484
f 37 39 35 33
f 34 36 40 38
f 33 34 38 37
f 39 40 36 35
f 35 36 34 33
f 37 38 40 39
v -0.2200 1.4137 0.0484
v -0.4224 1.4137 0.0484
v -0.2200 1.4137 -0.0484
v -0.4224 1.4137 -0.0484
v -0.2200 1.5199 0.0484
v -0.4224 1.5199 0.0484
v -0.2200 1.5199 -0.0484
v -0.4224 1.5199 -0.0484
f 41 43 47 45
f 46 48 44 42
f 45 46 42 41
f 43 44 48 47
f 41 42 44 43
f 47 48 46 45
v 0.4576 1.4234 0.0422
v 0.6688 1.4234 0.0422
v 0.4576 1.4234 -0.0422
v 0.6688 1.4234 -0.0422
v 0.4576 1.5102 0.0422
v 0.6688 1.5102 0.0422
v 0.4576 1.5102 -0.0422
v 0.6688 1.5102 -0.0422
f 53 55 51 49
f 50 52 56 54
f 49 50 54 53
f 55 56 52 51
f 51 52 50 49
f 53 54 56 55
v -0.4576 1.4234 0.0422
v -0.6688 1.4234 0.0422
v -0.4576 1.4234 -0.0422
v -0.6688 1.4234 -0.0422
v -0.4576 1.5102 0.0422
v -0.6688 1.5102 0.0422
v -0.4576 1.5102 -0.0422
v -0.6688 1.5102 -0.0422
f 57 59 63 61
f 62 64 60 58
f 61 62 58 57
f 59 60 64 63
f 57 58 60 59
f 63 64 62 61
v 0.0528 0.5597 0.0616
v 0.1672 0.5597 0.0616
v 0.0528 0.5597 -0.0616
v 0.1672 0.5597 -0.0616
v 0.0528 0.9167 0.0616
v 0.1672 0.9167 0.0616
v 0.0528 0.9167 -0.0616
v 0.1672 0.9167 -0.0616
f 69 71 67 65
f 66 68 72 70
f 65 66 70 69
f 71 72 68 67
f 67 68 66 65
f 69 70 72 71
v -0.0528 0.5597 0.0616
v -0.1672 0.5597 0.0616
v -0.0528 0.5597 -0.0616
v -0.1672 0.5597 -0.0616
v -0.0528 0.9167 0.0616
v -0.1672 0.9167 0.0616
v -0.0528 0.9167 -0.0616
v -0.1672 0.9167 -0.0616
f 73 75 79 77
f 78 80 76 74
f 77 78 74 73
f 75 76 80 79
f 73 74 76 75
f 79 80 78 77
v 0.0616 0.1255 0.0528
v 0.1584 0.1255 0.0528
v 0.0616 0.1255 -0.0528
v 0.1584 0.1255 -0.0528
v 0.0616 0.4921 0.0528
v 0.1584 0.4921 0.0528
v 0.0616 0.4921 -0.0528
v 0.1584 0.4921 -0.0528
f 85 87 83 81
f 82 84 88 86
f 81 82 86 85
f 87 88 84 83
f 83 84 82 81
f 85 86 88 87
v -0.0616 0.1255 0.0528
v -0.1584 0.1255 0.0528
v -0.0616 0.1255 -0.0528
v -0.1584 0.1255 -0.0528
v -0.0616 0.4921 0.0528
v -0.1584 0.4921 0.0528
v -0.0616 0.4921 -0.0528
v -0.1584 0.4921 -0.0528
f 89 91 95 93
f 94 96 92 90
f 93 94 90 89
f 91 92 96 95
f 89 90 92 91
f 95 96 94 93
v 0.0572 0.0000 0.1320
v 0.1628 0.0000 0.1320
v 0.0572 0.0000 -0.0616
v 0.1628 0.0000 -0.0616
v 0.0572 0.0772 0.1320
v 0.1628 0.0772 0.1320
v 0.0572 0.0772 -0.0616
v 0.1628 0.0772 -0.0616
f 101 103 99 97
f 98 100 104 102
f 97 98 102 101
f 103 104 100 99
f 99 100 98 97
f 101 102 104 103
v -0.0572 0.0000 0.1320
v -0.1628 0.0000 0.1320
v -0.0572 0.0000 -0.0616
v -0.1628 0.0000 -0.0616
v -0.0572 0.0772 0.1320
v -0.1628 0.0772 0.1320
v -0.0572 0.0772 -0.0616
v -0.1628 0.0772 -0.0616
f 105 107 111 109
f 110 112 108 106
f 109 110 106 105
f 107 108 112 111
f 105 106 108 107
f 111 112 110 109
o ChassisJoints
usemtl Joint
v -0.0616 1.0422 0.0440
v 0.0616 1.0422 0.0440
v -0.0616 1.0422 -0.0440
v 0.0616 1.0422 -0.0440
v -0.0616 1.2159 0.0440
v 0.0616 1.2159 0.0440
v -0.0616 1.2159 -0.0440
v 0.0616 1.2159 -0.0440
f 117 119 115 113
f 114 116 120 118
f 113 114 118 117
f 119 120 116 115
f 115 116 114 113
f 117 118 120 119
v -0.1012 1.0422 0.0176
v -0.0792 1.0422 0.0176
v -0.1012 1.0422 -0.0176
v -0.0792 1.0422 -0.0176
v -0.1012 1.2159 0.0176
v -0.0792 1.2159 0.0176
v -0.1012 1.2159 -0.0176
v -0.0792 1.2159 -0.0176
f 125 127 123 121
f 122 124 128 126
f 121 122 126 125
f 127 128 124 123
f 123 124 122 121
f 125 126 128 127
v 0.0792 1.0422 0.0176
v 0.1012 1.0422 0.0176
v 0.0792 1.0422 -0.0176
v 0.1012 1.0422 -0.0176
v 0.0792 1.2159 0.0176
v 0.1012 1.2159 0.0176
v 0.0792 1.2159 -0.0176
v 0.1012 1.2159 -0.0176
f 133 135 131 129
f 130 132 136 134
f 129 130 134 133
f 135 136 132 131
f 131 132 130 129
f 133 134 136 135
v 0.0396 1.4957 -0.0000
v 0.0320 1.4957 -0.0233
v 0.0122 1.4957 -0.0377
v -0.0122 1.4957 -0.0377
v -0.0320 1.4957 -0.0233
v -0.0396 1.4957 -0.0000
v -0.0320 1.4957 0.0233
v -0.0122 1.4957 0.0377
v 0.0122 1.4957 0.0377
v 0.0320 1.4957 0.0233
v 0.0396 1.6115 -0.0000
v 0.0320 1.6115 -0.0233
v 0.0122 1.6115 -0.0377
v -0.0122 1.6115 -0.0377
v -0.0320 1.6115 -0.0233
v -0.0396 1.6115 -0.0000
v -0.0320 1.6115 0.0233
v -0.0122 1.6115 0.0377
v 0.0122 1.6115 0.0377
v 0.0320 1.6115 0.0233
f 137 138 148 147
f 138 139 149 148
f 139 140 150 149
f 140 141 151 150
f 141 142 152 151
f 142 143 153 152
f 143 144 154 153
f 144 145 155 154
f 145 146 156 155
f 146 137 147 156
f 146 145 144 143 142 141 140 139 138 137
f 147 148 149 150 151 152 153 154 155 156
v 0.1672 1.4668 -0.0528
v 0.1672 1.4957 -0.0457
v 0.1672 1.5169 -0.0264
v 0.1672 1.5247 -0.0000
v 0.1672 1.5169 0.0264
v 0.1672 1.4957 0.0457
v 0.1672 1.4668 0.0528
v 0.1672 1.4378 0.0457
v 0.1672 1.4167 0.0264
v 0.1672 1.4089 0.0000
v 0.1672 1.4167 -0.0264
v 0.1672 1.4378 -0.0457
v 0.2288 1.4668 -0.0528
v 0.2288 1.4957 -0.0457
v 0.2288 1.5169 -0.0264
v 0.2288 1.5247 -0.0000
v 0.2288 1.5169 0.0264
v 0.2288 1.4957 0.0457
v 0.2288 1.4668 0.0528
v 0.2288 1.4378 0.0457
v 0.2288 1.4167 0.0264
v 0.2288 1.4089 0.0000
v 0.2288 1.4167 -0.0264
v 0.2288 1.4378 -0.0457
f 157 158 170 169
f 158 159 171 170
f 159 160 172 171
f 160 161 173 172
f 161 162 174 173
f 162 163 175 174
f 163 164 176 175
f 164 165 177 176
f 165 166 178 177
f 166 167 179 178
f 167 168 180 179
f 168 157 169 180
f 168 167 166 165 164 163 162 161 160 159 158 157
f 169 170 171 172 173 174 175 176 177 178 179 180
v -0.1672 1.4668 -0.0528
v -0.1672 1.4957 -0.0457
v -0.1672 1.5169 -0.0264
v -0.1672 1.5247 -0.0000
v -0.1672 1.5169 0.0264
v -0.1672 1.4957 0.0457
v -0.1672 1.4668 0.0528
v -0.1672 1.4378 0.0457
v -0.1672 1.4167 0.0264
v -0.1672 1.4089 0.0000
v -0.1672 1.4167 -0.0264
v -0.1672 1.4378 -0.0457
v -0.2288 1.4668 -0.0528
v -0.2288 1.4957 -0.0457
v -0.2288 1.5169 -0.0264
v -0.2288 1.5247 -0.0000
v -0.2288 1.5169 0.0264
v -0.2288 1.4957 0.0457
v -0.2288 1.4668 0.0528
v -0.2288 1.4378 0.0457
v -0.2288 1.4167 0.0264
v -0.2288 1.4089 0.0000
v -0.2288 1.4167 -0.0264
v -0.2288 1.4378 -0.0457
f 193 194 182 181
f 194 195 183 182
f 195 196 184 183
f 196 197 185 184
f 197 198 186 185
f 198 199 187 186
f 199 200 188 187
f 200 201 189 188
f 201 202 190 189
f 202 203 191 190
f 203 204 192 191
f 204 193 181 192
f 181 182 183 184 185 186 187 188 189 190 191 192
f 204 203 202 201 200 199 198 197 196 195 194 193
v 0.4796 1.4668 0.0440
v 0.4743 1.4885 0.0440
v 0.4598 1.5044 0.0440
v 0.4400 1.5102 0.0440
v 0.4202 1.5044 0.0440
v 0.4057 1.4885 0.0440
v 0.4004 1.4668 0.0440
v 0.4057 1.4451 0.0440
v 0.4202 1.4292 0.0440
v 0.4400 1.4234 0.0440
v 0.4598 1.4292 0.0440
v 0.4743 1.4451 0.0440
v 0.4796 1.4668 -0.0440
v 0.4743 1.4885 -0.0440
v 0.4598 1.5044 -0.0440
v 0.4400 1.5102 -0.0440
v 0.4202 1.5044 -0.0440
v 0.4057 1.4885 -0.0440
v 0.4004 1.4668 -0.0440
v 0.4057 1.4451 -0.0440
v 0.4202 1.4292 -0.0440
v 0.4400 1.4234 -0.0440
v 0.4598 1.4292 -0.0440
v 0.4743 1.4451 -0.0440
f 217 218 206 205
f 218 219 207 206
f 219 220 208 207
f 220 221 209 208
f 221 222 210 209
f 222 223 211 210
f 223 224 212 211
f 224 225 213 212
f 225 226 214 213
f 226 227 215 214
f 227 228 216 215
f 228 217 205 216
f 205 206 207 208 209 210 211 212 213 214 215 216
f 228 227 226 225 224 223 222 221 220 219 218 217
v -0.4796 1.4668 0.0440
v -0.4743 1.4885 0.0440
v -0.4598 1.5044 0.0440
v -0.4400 1.5102 0.0440
v -0.4202 1.5044 0.0440
v -0.4057 1.4885 0.0440
v -0.4004 1.4668 0.0440
v -0.4057 1.4451 0.0440
v -0.4202 1.4292 0.0440
v -0.4400 1.4234 0.0440
v -0.4598 1.4292 0.0440
v -0.4743 1.4451 0.0440
v -0.4796 1.4668 -0.0440
v -0.4743 1.4885 -0.0440
v -0.4598 1.5044 -0.0440
v -0.4400 1.5102 -0.0440
v -0.4202 1.5044 -0.0440
v -0.4057 1.4885 -0.0440
v -0.4004 1.4668 -0.0440
v -0.4057 1.4451 -0.0440
v -0.4202 1.4292 -0.0440
v -0.4400 1.4234 -0.0440
v -0.4598 1.4292 -0.0440
v -0.4743 1.4451 -0.0440
f 229 230 242 241
f 230 231 243 242
f 231 232 244 243
f 232 233 245 244
f 233 234 246 245
f 234 235 247 246
f 235 236 248 247
f 236 237 249 248
f 237 238 250 249
f 238 239 251 250
f 239 240 252 251
f 240 229 241 252
f 240 239 238 237 236 235 234 233 232 231 230 229
f 241 242 243 244 245 246 247 248 249 250 251 252
v 0.6864 1.4330 0.0396
v 0.7832 1.4330 0.0396
v 0.6864 1.4330 -0.0396
v 0.7832 1.4330 -0.0396
v 0.6864 1.5006 0.0396
v 0.7832 1.5006 0.0396
v 0.6864 1.5006 -0.0396
v 0.7832 1.5006 -0.0396
f 257 259 255 253
f 254 256 260 258
f 253 254 258 257
f 259 260 256 255
f 255 256 254 253
f 257 258 260 259
v -0.6864 1.4330 0.0396
v -0.7832 1.4330 0.0396
v -0.6864 1.4330 -0.0396
v -0.7832 1.4330 -0.0396
v -0.6864 1.5006 0.0396
v -0.7832 1.5006 0.0396
v -0.6864 1.5006 -0.0396
v -0.7832 1.5006 -0.0396
f 261 263 267 265
f 266 268 264 262
f 265 266 262 261
f 263 264 268 267
f 261 262 264 263
f 267 268 266 265
v 0.7832 1.4475 0.0352
v 0.8448 1.4475 0.0352
v 0.7832 1.4475 -0.0352
v 0.8448 1.4475 -0.0352
v 0.7832 1.4861 0.0352
v 0.8448 1.4861 0.0352
v 0.7832 1.4861 -0.0352
v 0.8448 1.4861 -0.0352
f 273 275 271 269
f 270 272 276 274
f 269 270 274 273
f 275 276 272 271
f 271 272 270 269
f 273 274 276 275
v -0.7832 1.4475 0.0352
v -0.8448 1.4475 0.0352
v -0.7832 1.4475 -0.0352
v -0.8448 1.4475 -0.0352
v -0.7832 1.4861 0.0352
v -0.8448 1.4861 0.0352
v -0.7832 1.4861 -0.0352
v -0.8448 1.4861 -0.0352
f 277 279 283 281
f 282 284 280 278
f 281 282 278 277
f 279 280 284 283
f 277 278 280 279
f 283 284 282 281
v 0.7040 1.4475 0.0704
v 0.7568 1.4475 0.0704
v 0.7040 1.4475 0.0396
v 0.7568 1.4475 0.0396
v 0.7040 1.4861 0.0704
v 0.7568 1.4861 0.0704
v 0.7040 1.4861 0.0396
v 0.7568 1.4861 0.0396
f 289 291 287 285
f 286 288 292 290
f 285 286 290 289
f 291 292 288 287
f 287 288 286 285
f 289 290 292 291
v -0.7040 1.4475 0.0704
v -0.7568 1.4475 0.0704
v -0.7040 1.4475 0.0396
v -0.7568 1.4475 0.0396
v -0.7040 1.4861 0.0704
v -0.7568 1.4861 0.0704
v -0.7040 1.4861 0.0396
v -0.7568 1.4861 0.0396
f 293 295 299 297
f 298 300 296 294
f 297 298 294 293
f 295 296 300 299
f 293 294 296 295
f 299 300 298 297
v 0.0528 0.9360 -0.0528
v 0.0528 0.9650 -0.0457
v 0.0528 0.9862 -0.0264
v 0.0528 0.9940 -0.0000
v 0.0528 0.9862 0.0264
v 0.0528 0.9650 0.0457
v 0.0528 0.9360 0.0528
v 0.0528 0.9071 0.0457
v 0.0528 0.8859 0.0264
v 0.0528 0.8781 0.0000
v 0.0528 0.8859 -0.0264
v 0.0528 0.9071 -0.0457
v 0.1672 0.9360 -0.0528
v 0.1672 0.9650 -0.0457
v 0.1672 0.9862 -0.0264
v 0.1672 0.9940 -0.0000
v 0.1672 0.9862 0.0264
v 0.1672 0.9650 0.0457
v 0.1672 0.9360 0.0528
v 0.1672 0.9071 0.0457
v 0.1672 0.8859 0.0264
v 0.1672 0.8781 0.0000
v 0.1672 0.8859 -0.0264
v 0.1672 0.9071 -0.0457
f 301 302 314 313
f 302 303 315 314
f 303 304 316 315
f 304 305 317 316
f 305 306 318 317
f 306 307 319 318
f 307 308 320 319
f 308 309 321 320
f 309 310 322 321
f 310 311 323 322
f 311 312 324 323
f 312 301 313 324
f 312 311 310 309 308 307 306 305 304 303 302 301
f 313 314 315 316 317 318 319 320 321 322 323 324
v -0.0528 0.9360 -0.0528
v -0.0528 0.9650 -0.0457
v -0.0528 0.9862 -0.0264
v -0.0528 0.9940 -0.0000
v -0.0528 0.9862 0.0264
v -0.0528 0.9650 0.0457
v -0.0528 0.9360 0.0528
v -0.0528 0.9071 0.0457
v -0.0528 0.8859 0.0264
v -0.0528 0.8781 0.0000
v -0.0528 0.8859 -0.0264
v -0.0528 0.9071 -0.0457
v -0.1672 0.9360 -0.0528
v -0.1672 0.9650 -0.0457
v -0.1672 0.9862 -0.0264
v -0.1672 0.9940 -0.0000
v -0.1672 0.9862 0.0264
v -0.1672 0.9650 0.0457
v -0.1672 0.9360 0.0528
v -0.1672 0.9071 0.0457
v -0.1672 0.8859 0.0264
v -0.1672 0.8781 0.0000
v -0.1672 0.8859 -0.0264
v -0.1672 0.9071 -0.0457
f 337 338 326 325
f 338 339 327 326
f 339 340 328 327
f 340 341 329 328
f 341 342 330 329
f 342 343 331 330
f 343 344 332 331
f 344 345 333 332
f 345 346 334 333
f 346 347 335 334
f 347 348 336 335
f 348 337 325 336
f 325 326 327 328 329 330 331 332 333 334 335 336
f 348 347 346 345 344 343 342 341 340 339 338 337
v 0.0616 0.5211 -0.0484
v 0.0616 0.5476 -0.0419
v 0.0616 0.5671 -0.0242
v 0.0616 0.5742 -0.0000
v 0.0616 0.5671 0.0242
v 0.0616 0.5476 0.0419
v 0.0616 0.5211 0.0484
v 0.0616 0.4946 0.0419
v 0.0616 0.4751 0.0242
v 0.0616 0.4680 0.0000
v 0.0616 0.4751 -0.0242
v 0.0616 0.4946 -0.0419
v 0.1584 0.5211 -0.0484
v 0.1584 0.5476 -0.0419
v 0.1584 0.5671 -0.0242
v 0.1584 0.5742 -0.0000
v 0.1584 0.5671 0.0242
v 0.1584 0.5476 0.0419
v 0.1584 0.5211 0.0484
v 0.1584 0.4946 0.0419
v 0.1584 0.4751 0.0242
v 0.1584 0.4680 0.0000
v 0.1584 0.4751 -0.0242
v 0.1584 0.4946 -0.0419
f 349 350 362 361
f 350 351 363 362
f 351 352 364 363
f 352 353 365 364
f 353 354 366 365
f 354 355 367 366
f 355 356 368 367
f 356 357 369 368
f 357 358 370 369
f 358 359 371 370
f 359 360 372 371
f 360 349 361 372
f 360 359 358 357 356 355 354 353 352 351 350 349
f 361 362 363 364 365 366 367 368 369 370 371 372
v -0.0616 0.5211 -0.0484
v -0.0616 0.5476 -0.0419
v -0.0616 0.5671 -0.0242
v -0.0616 0.5742 -0.0000
v -0.0616 0.5671 0.0242
v -0.0616 0.5476 0.0419
v -0.0616 0.5211 0.0484
v -0.0616 0.4946 0.0419
v -0.0616 0.4751 0.0242
v -0.0616 0.4680 0.0000
v -0.0616 0.4751 -0.0242
v -0.0616 0.4946 -0.0419
v -0.1584 0.5211 -0.0484
v -0.1584 0.5476 -0.0419
v -0.1584 0.5671 -0.0242
v -0.1584 0.5742 -0.0000
v -0.1584 0.5671 0.0242
v -0.1584 0.5476 0.0419
v -0.1584 0.5211 0.0484
v -0.1584 0.4946 0.0419
v -0.1584 0.4751 0.0242
v -0.1584 0.4680 0.0000
v -0.1584 0.4751 -0.0242
v -0.1584 0.4946 -0.0419
f 385 386 374 373
f 386 387 375 374
f 387 388 376 375
f 388 389 377 376
f 389 390 378 377
f 390 391 379 378
f 391 392 380 379
f 392 393 381 380
f 393 394 382 381
f 394 395 383 382
f 395 396 384 383
f 396 385 373 384
f 373 374 375 376 377 378 379 380 381 382 383 384
f 396 395 394 393 392 391 390 389 388 387 386 385
v 0.0704 0.0965 -0.0352
v 0.0704 0.1158 -0.0305
v 0.0704 0.1299 -0.0176
v 0.0704 0.1351 -0.0000
v 0.0704 0.1299 0.0176
v 0.0704 0.1158 0.0305
v 0.0704 0.0965 0.0352
v 0.0704 0.0772 0.0305
v 0.0704 0.0631 0.0176
v 0.0704 0.0579 0.0000
v 0.0704 0.0631 -0.0176
v 0.0704 0.0772 -0.0305
v 0.1496 0.0965 -0.0352
v 0.1496 0.1158 -0.0305
v 0.1496 0.1299 -0.0176
v 0.1496 0.1351 -0.0000
v 0.1496 0.1299 0.0176
v 0.1496 0.1158 0.0305
v 0.1496 0.0965 0.0352
v 0.1496 0.0772 0.0305
v 0.1496 0.0631 0.0176
v 0.1496 0.0579 0.0000
v 0.1496 0.0631 -0.0176
v 0.1496 0.0772 -0.0305
f 397 398 410 409
f 398 399 411 410
f 399 400 412 411
f 400 401 413 412
f 401 402 414 413
f 402 403 415 414
f 403 404 416 415
f 404 405 417 416
f 405 406 418 417
f 406 407 419 418
f 407 408 420 419
f 408 397 409 420
f 408 407 406 405 404 403 402 401 400 399 398 397
f 409 410 411 412 413 414 415 416 417 418 419 420
v -0.0704 0.0965 -0.0352
v -0.0704 0.1158 -0.0305
v -0.0704 0.1299 -0.0176
v -0.0704 0.1351 -0.0000
v -0.0704 0.1299 0.0176
v -0.0704 0.1158 0.0305
v -0.0704 0.0965 0.0352
v -0.0704 0.0772 0.0305
v -0.0704 0.0631 0.0176
v -0.0704 0.0579 0.0000
v -0.0704 0.0631 -0.0176
v -0.0704 0.0772 -0.0305
v -0.1496 0.0965 -0.0352
v -0.1496 0.1158 -0.0305
v -0.1496 0.1299 -0.0176
v -0.1496 0.1351 -0.0000
v -0.1496 0.1299 0.0176
v -0.1496 0.1158 0.0305
v -0.1496 0.0965 0.0352
v -0.1496 0.0772 0.0305
v -0.1496 0.0631 0.0176
v -0.1496 0.0579 0.0000
v -0.1496 0.0631 -0.0176
v -0.1496 0.0772 -0.0305
f 433 434 422 421
f 434 435 423 422
f 435 436 424 423
f 436 437 425 424
f 437 438 426 425
f 438 439 427 426
f 439 440 428 427
f 440 441 429 428
f 441 442 430 429
f 442 443 431 430
f 443 444 432 431
f 444 433 421 432
f 421 422 423 424 425 426 427 428 429 430 431 432
f 444 443 442 441 440 439 438 437 436 435 434 433
v 0.0616 0.0000 0.2024
v 0.1584 0.0000 0.2024
v 0.0616 0.0000 0.1320
v 0.1584 0.0000 0.1320
v 0.0616 0.0579 0.2024
v 0.1584 0.0579 0.2024
v 0.0616 0.0579 0.1320
v 0.1584 0.0579 0.1320
f 449 451 447 445
f 446 448 452 450
f 445 446 450 449
f 451 452 448 447
f 447 448 446 445
f 449 450 452 451
v -0.0616 0.0000 0.2024
v -0.1584 0.0000 0.2024
v -0.0616 0.0000 0.1320
v -0.1584 0.0000 0.1320
v -0.0616 0.0579 0.2024
v -0.1584 0.0579 0.2024
v -0.0616 0.0579 0.1320
v -0.1584 0.0579 0.1320
f 453 455 459 457
f 458 460 456 454
f 457 458 454 453
f 455 456 460 459
f 453 454 456 455
f 459 460 458 457
o Eyes
usemtl Eye
v -0.0106 1.6598 0.1091
v 0.0106 1.6598 0.1091
v -0.0106 1.6598 0.1003
v 0.0106 1.6598 0.1003
v -0.0106 1.7949 0.1091
v 0.0106 1.7949 0.1091
v -0.0106 1.7949 0.1003
v 0.0106 1.7949 0.1003
f 465 467 463 461
f 462 464 468 466
f 461 462 466 465
f 467 468 464 463
f 463 464 462 461
f 465 466 468 467
v -0.0634 1.7370 0.0528
v -0.0581 1.7370 0.0528
v -0.0634 1.7370 0.0176
v -0.0581 1.7370 0.0176
v -0.0634 1.7563 0.0528
v -0.0581 1.7563 0.0528
v -0.0634 1.7563 0.0176
v -0.0581 1.7563 0.0176
f 473 475 471 469
f 470 472 476 474
f 469 470 474 473
f 475 476 472 471
f 471 472 470 469
f 473 474 476 475
v 0.0581 1.7370 0.0528
v 0.0634 1.7370 0.0528
v 0.0581 1.7370 0.0176
v 0.0634 1.7370 0.0176
v 0.0581 1.7563 0.0528
v 0.0634 1.7563 0.0528
v 0.0581 1.7563 0.0176
v 0.0634 1.7563 0.0176
f 481 483 479 477
f 478 480 484 482
f 477 478 482 481
f 483 484 480 479
f 479 480 478 477
f 481 482 484 483
o Helmet_Combat
usemtl Armor
v -0.0880 1.5826 0.1320
v 0.0880 1.5826 0.1320
v -0.0880 1.5826 -0.0968
v 0.0880 1.5826 -0.0968
v -0.0748 1.8817 0.0880
v 0.0748 1.8817 0.0880
v -0.0748 1.8817 -0.0880
v 0.0748 1.8817 -0.0880
f 489 491 487 485
f 486 488 492 490
f 485 486 490 489
f 491 492 488 487
f 487 488 486 485
f 489 490 492 491
v -0.0528 1.5826 0.1496
v 0.0528 1.5826 0.1496
v -0.0264 1.5922 0.1056
v 0.0264 1.5922 0.1056
v -0.0528 1.6598 0.1496
v 0.0528 1.6598 0.1496
v -0.0264 1.6405 0.1056
v 0.0264 1.6405 0.1056
f 497 499 495 493
f 494 496 500 498
f 493 494 498 497
f 499 500 496 495
f 495 496 494 493
f 497 498 500 499
v -0.1012 1.7370 0.0440
v -0.0880 1.7370 0.0440
v -0.1012 1.7370 -0.0704
v -0.0880 1.7370 -0.0704
v -0.1012 1.8335 0.0440
v -0.0880 1.8335 0.0440
v -0.1012 1.8335 -0.0704
v -0.0880 1.8335 -0.0704
f 505 507 503 501
f 502 504 508 506
f 501 502 506 505
f 507 508 504 503
f 503 504 502 501
f 505 506 508 507
v 0.0880 1.7370 0.0440
v 0.1012 1.7370 0.0440
v 0.0880 1.7370 -0.0704
v 0.1012 1.7370 -0.0704
v 0.0880 1.8335 0.0440
v 0.1012 1.8335 0.0440
v 0.0880 1.8335 -0.0704
v 0.1012 1.8335 -0.0704
f 513 515 511 509
f 510 512 516 514
f 509 510 514 513
f 515 516 512 511
f 511 512 510 509
f 513 514 516 515
o Helmet_Combat_Visor
usemtl Light
v -0.0704 1.7177 0.1390
v 0.0704 1.7177 0.1390
v -0.0704 1.7177 0.1320
v 0.0704 1.7177 0.1320
v -0.0704 1.7370 0.1390
v 0.0704 1.7370 0.1390
v -0.0704 1.7370 0.1320
v 0.0704 1.7370 0.1320
f 521 523 519 517
f 518 520 524 522
f 517 518 522 521
f 523 524 520 519
f 519 520 518 517
f 521 522 524 523
o Chest_Heavy
usemtl Armor
v -0.1839 1.3317 0.1214
v 0.1839 1.3317 0.1214
v -0.1839 1.3317 0.0880
v 0.1839 1.3317 0.0880
v -0.1927 1.5247 0.1126
v 0.1927 1.5247 0.1126
v -0.1927 1.5247 0.0880
v 0.1927 1.5247 0.0880
f 529 531 527 525
f 526 528 532 530
f 525 526 530 529
f 531 532 528 527
f 527 528 526 525
f 529 530 532 531
v -0.1839 1.3317 -0.0792
v 0.1839 1.3317 -0.0792
v -0.1839 1.3317 -0.1214
v 0.1839 1.3317 -0.1214
v -0.1839 1.5151 -0.0792
v 0.1839 1.5151 -0.0792
v -0.1839 1.5151 -0.1214
v 0.1839 1.5151 -0.1214
f 537 539 535 533
f 534 536 540 538
f 533 534 538 537
f 539 540 536 535
f 535 536 534 533
f 537 538 540 539
v -0.2015 1.3317 0.0880
v -0.1672 1.3317 0.0880
v -0.2015 1.3317 -0.0792
v -0.1672 1.3317 -0.0792
v -0.2015 1.4861 0.0880
v -0.1672 1.4861 0.0880
v -0.2015 1.4861 -0.0792
v -0.1672 1.4861 -0.0792
f 545 547 543 541
f 542 544 548 546
f 541 542 546 545
f 547 548 544 543
f 543 544 542 541
f 545 546 548 547
v 0.1672 1.3317 0.0880
v 0.2015 1.3317 0.0880
v 0.1672 1.3317 -0.0792
v 0.2015 1.3317 -0.0792
v 0.1672 1.4861 0.0880
v 0.2015 1.4861 0.0880
v 0.1672 1.4861 -0.0792
v 0.2015 1.4861 -0.0792
f 553 555 551 549
f 550 552 556 554
f 549 550 554 553
f 555 556 552 551
f 551 552 550 549
f 553 554 556 555
v -0.1056 1.5054 0.1056
v 0.1056 1.5054 0.1056
v -0.1056 1.5054 -0.0968
v 0.1056 1.5054 -0.0968
v -0.1056 1.5633 0.1056
v 0.1056 1.5633 0.1056
v -0.1056 1.5633 -0.0968
v 0.1056 1.5633 -0.0968
f 561 563 559 557
f 558 560 564 562
f 557 558 562 561
f 563 564 560 559
f 559 560 558 557
f 561 562 564 563
v -0.1487 1.1966 0.1038
v 0.1487 1.1966 0.1038
v -0.1487 1.1966 0.0792
v 0.1487 1.1966 0.0792
v -0.1487 1.3317 0.1038
v 0.1487 1.3317 0.1038
v -0.1487 1.3317 0.0792
v 0.1487 1.3317 0.0792
f 569 571 567 565
f 566 568 572 570
f 565 566 570 569
f 571 572 568 567
f 567 568 566 565
f 569 570 572 571
v -0.1408 1.1966 -0.0704
v 0.1408 1.1966 -0.0704
v -0.1408 1.1966 -0.1038
v 0.1408 1.1966 -0.1038
v -0.1408 1.3317 -0.0704
v 0.1408 1.3317 -0.0704
v -0.1408 1.3317 -0.1038
v 0.1408 1.3317 -0.1038
f 577 579 575 573
f 574 576 580 578
f 573 574 578 577
f 579 580 576 575
f 575 576 574 573
f 577 578 580 579
o Chest_Heavy_Light
usemtl Light
v -0.0880 1.4475 0.1250
v 0.0880 1.4475 0.1250
v -0.0880 1.4475 0.1214
v 0.0880 1.4475 0.1214
v -0.0880 1.4571 0.1250
v 0.0880 1.4571 0.1250
v -0.0880 1.4571 0.1214
v 0.0880 1.4571 0.1214
f 585 587 583 581
f 582 584 588 586
f 581 582 586 585
f 587 588 584 583
f 583 584 582 581
f 585 586 588 587
o Pauldrons_Heavy
usemtl Armor
v 0.1848 1.4668 0.0792
v 0.3256 1.4668 0.0792
v 0.1848 1.4668 -0.0792
v 0.3256 1.4668 -0.0792
v 0.2024 1.5633 0.0616
v 0.3080 1.5633 0.0616
v 0.2024 1.5633 -0.0616
v 0.3080 1.5633 -0.0616
f 593 595 591 589
f 590 592 596 594
f 589 590 594 593
f 595 596 592 591
f 591 592 590 589
f 593 594 596 595
v -0.1848 1.4668 0.0792
v -0.3256 1.4668 0.0792
v -0.1848 1.4668 -0.0792
v -0.3256 1.4668 -0.0792
v -0.2024 1.5633 0.0616
v -0.3080 1.5633 0.0616
v -0.2024 1.5633 -0.0616
v -0.3080 1.5633 -0.0616
f 597 599 603 601
f 602 604 600 598
f 601 602 598 597
f 599 600 604 603
f 597 598 600 599
f 603 604 602 601
o Bracers
usemtl Armor
v 0.4752 1.4060 0.0581
v 0.6512 1.4060 0.0581
v 0.4752 1.4060 -0.0581
v 0.6512 1.4060 -0.0581
v 0.4752 1.5276 0.0581
v 0.6512 1.5276 0.0581
v 0.4752 1.5276 -0.0581
v 0.6512 1.5276 -0.0581
f 609 611 607 605
f 606 608 612 610
f 605 606 610 609
f 611 612 608 607
f 607 608 606 605
f 609 610 612 611
v -0.4752 1.4060 0.0581
v -0.6512 1.4060 0.0581
v -0.4752 1.4060 -0.0581
v -0.6512 1.4060 -0.0581
v -0.4752 1.5276 0.0581
v -0.6512 1.5276 0.0581
v -0.4752 1.5276 -0.0581
v -0.6512 1.5276 -0.0581
f 613 615 619 617
f 618 620 616 614
f 617 618 614 613
f 615 616 620 619
f 613 614 616 615
f 619 620 618 617
o Thigh_Plates
usemtl Armor
v 0.0440 0.5983 0.0950
v 0.1760 0.5983 0.0950
v 0.0440 0.5983 0.0616
v 0.1760 0.5983 0.0616
v 0.0440 0.8878 0.0950
v 0.1760 0.8878 0.0950
v 0.0440 0.8878 0.0616
v 0.1760 0.8878 0.0616
f 625 627 623 621
f 622 624 628 626
f 621 622 626 625
f 627 628 624 623
f 623 624 622 621
f 625 626 628 627
v -0.0440 0.5983 0.0950
v -0.1760 0.5983 0.0950
v -0.0440 0.5983 0.0616
v -0.1760 0.5983 0.0616
v -0.0440 0.8878 0.0950
v -0.1760 0.8878 0.0950
v -0.0440 0.8878 0.0616
v -0.1760 0.8878 0.0616
f 629 631 635 633
f 634 636 632 630
f 633 634 630 629
f 631 632 636 635
f 629 630 632 631
f 635 636 634 633
v 0.1672 0.6176 0.0528
v 0.1962 0.6176 0.0528
v 0.1672 0.6176 -0.0528
v 0.1962 0.6176 -0.0528
v 0.1672 0.8685 0.0528
v 0.1962 0.8685 0.0528
v 0.1672 0.8685 -0.0528
v 0.1962 0.8685 -0.0528
f 641 643 639 637
f 638 640 644 642
f 637 638 642 641
f 643 644 640 639
f 639 640 638 637
f 641 642 644 643
v -0.1672 0.6176 0.0528
v -0.1962 0.6176 0.0528
v -0.1672 0.6176 -0.0528
v -0.1962 0.6176 -0.0528
v -0.1672 0.8685 0.0528
v -0.1962 0.8685 0.0528
v -0.1672 0.8685 -0.0528
v -0.1962 0.8685 -0.0528
f 645 647 651 649
f 650 652 648 646
f 649 650 646 645
f 647 648 652 651
f 645 646 648 647
f 651 652 650 649
o Shin_Plates
usemtl Armor
v 0.0528 0.1447 0.0862
v 0.1672 0.1447 0.0862
v 0.0528 0.1447 0.0528
v 0.1672 0.1447 0.0528
v 0.0528 0.4632 0.0862
v 0.1672 0.4632 0.0862
v 0.0528 0.4632 0.0528
v 0.1672 0.4632 0.0528
f 657 659 655 653
f 654 656 660 658
f 653 654 658 657
f 659 660 656 655
f 655 656 654 653
f 657 658 660 659
v -0.0528 0.1447 0.0862
v -0.1672 0.1447 0.0862
v -0.0528 0.1447 0.0528
v -0.1672 0.1447 0.0528
v -0.0528 0.4632 0.0862
v -0.1672 0.4632 0.0862
v -0.0528 0.4632 0.0528
v -0.1672 0.4632 0.0528
f 661 663 667 665
f 666 668 664 662
f 665 666 662 661
f 663 664 668 667
f 661 662 664 663
f 667 668 666 665
v 0.0616 0.4535 0.1038
v 0.1584 0.4535 0.1038
v 0.0616 0.4535 0.0352
v 0.1584 0.4535 0.0352
v 0.0616 0.5790 0.1038
v 0.1584 0.5790 0.1038
v 0.0616 0.5790 0.0352
v 0.1584 0.5790 0.0352
f 673 675 671 669
f 670 672 676 674
f 669 670 674 673
f 675 676 672 671
f 671 672 670 669
f 673 674 676 675
v -0.0616 0.4535 0.1038
v -0.1584 0.4535 0.1038
v -0.0616 0.4535 0.0352
v -0.1584 0.4535 0.0352
v -0.0616 0.5790 0.1038
v -0.1584 0.5790 0.1038
v -0.0616 0.5790 0.0352
v -0.1584 0.5790 0.0352
f 677 679 683 681
f 682 684 680 678
f 681 682 678 677
f 679 680 684 683
f 677 678 680 679
f 683 684 682 681
v 0.0528 0.0000 0.1408
v 0.1672 0.0000 0.1408
v 0.0528 0.0000 -0.0704
v 0.1672 0.0000 -0.0704
v 0.0528 0.0965 0.1408
v 0.1672 0.0965 0.1408
v 0.0528 0.0965 -0.0704
v 0.1672 0.0965 -0.0704
f 689 691 687 685
f 686 688 692 690
f 685 686 690 689
f 691 692 688 687
f 687 688 686 685
f 689 690 692 691
v -0.0528 0.0000 0.1408
v -0.1672 0.0000 0.1408
v -0.0528 0.0000 -0.0704
v -0.1672 0.0000 -0.0704
v -0.0528 0.0965 0.1408
v -0.1672 0.0965 0.1408
v -0.0528 0.0965 -0.0704
v -0.1672 0.0965 -0.0704
f 693 695 699 697
f 698 700 696 694
f 697 698 694 693
f 695 696 700 699
f 693 694 696 695
f 699 700 698 697
o Belt_Combat
usemtl Trim
v -0.1496 0.9553 0.0968
v 0.1496 0.9553 0.0968
v -0.1496 0.9553 -0.0880
v 0.1496 0.9553 -0.0880
v -0.1496 1.0132 0.0968
v 0.1496 1.0132 0.0968
v -0.1496 1.0132 -0.0880
v 0.1496 1.0132 -0.0880
f 705 707 703 701
f 702 704 708 706
f 701 702 706 705
f 707 708 704 703
f 703 704 702 701
f 705 706 708 707
v -0.1408 0.9360 0.1320
v -0.0880 0.9360 0.1320
v -0.1408 0.9360 0.0968
v -0.0880 0.9360 0.0968
v -0.1408 1.0229 0.1320
v -0.0880 1.0229 0.1320
v -0.1408 1.0229 0.0968
v -0.0880 1.0229 0.0968
f 713 715 711 709
f 710 712 716 714
f 709 710 714 713
f 715 716 712 711
f 711 712 710 709
f 713 714 716 715
v -0.1760 0.9360 0.0352
v -0.1364 0.9360 0.0352
v -0.1760 0.9360 -0.0088
v -0.1364 0.9360 -0.0088
v -0.1760 1.0132 0.0352
v -0.1364 1.0132 0.0352
v -0.1760 1.0132 -0.0088
v -0.1364 1.0132 -0.0088
f 721 723 719 717
f 718 720 724 722
f 717 718 722 721
f 723 724 720 719
f 719 720 718 717
f 721 722 724 723
v 0.0880 0.9360 0.1320
v 0.1408 0.9360 0.1320
v 0.0880 0.9360 0.0968
v 0.1408 0.9360 0.0968
v 0.0880 1.0229 0.1320
v 0.1408 1.0229 0.1320
v 0.0880 1.0229 0.0968
v 0.1408 1.0229 0.0968
f 729 731 727 725
f 726 728 732 730
f 725 726 730 729
f 731 732 728 727
f 727 728 726 725
f 729 730 732 731
v 0.1364 0.9360 0.0352
v 0.1760 0.9360 0.0352
v 0.1364 0.9360 -0.0088
v 0.1760 0.9360 -0.0088
v 0.1364 1.0132 0.0352
v 0.1760 1.0132 0.0352
v 0.1364 1.0132 -0.0088
v 0.1760 1.0132 -0.0088
f 737 739 735 733
f 734 736 740 738
f 733 734 738 737
f 739 740 736 735
f 735 736 734 733
f 737 738 740 739
o Rig_Mags
usemtl Trim
v -0.1021 1.2834 0.1654
v -0.0563 1.2834 0.1654
v -0.1021 1.2834 0.1214
v -0.0563 1.2834 0.1214
v -0.1021 1.3703 0.1654
v -0.0563 1.3703 0.1654
v -0.1021 1.3703 0.1214
v -0.0563 1.3703 0.1214
f 745 747 743 741
f 742 744 748 746
f 741 742 746 745
f 747 748 744 743
f 743 744 742 741
f 745 746 748 747
v -0.0493 1.2834 0.1654
v -0.0035 1.2834 0.1654
v -0.0493 1.2834 0.1214
v -0.0035 1.2834 0.1214
v -0.0493 1.3703 0.1654
v -0.0035 1.3703 0.1654
v -0.0493 1.3703 0.1214
v -0.0035 1.3703 0.1214
f 753 755 751 749
f 750 752 756 754
f 749 750 754 753
f 755 756 752 751
f 751 752 750 749
f 753 754 756 755
v 0.0035 1.2834 0.1654
v 0.0493 1.2834 0.1654
v 0.0035 1.2834 0.1214
v 0.0493 1.2834 0.1214
v 0.0035 1.3703 0.1654
v 0.0493 1.3703 0.1654
v 0.0035 1.3703 0.1214
v 0.0493 1.3703 0.1214
f 761 763 759 757
f 758 760 764 762
f 757 758 762 761
f 763 764 760 759
f 759 760 758 757
f 761 762 764 763
v 0.0563 1.2834 0.1654
v 0.1021 1.2834 0.1654
v 0.0563 1.2834 0.1214
v 0.1021 1.2834 0.1214
v 0.0563 1.3703 0.1654
v 0.1021 1.3703 0.1654
v 0.0563 1.3703 0.1214
v 0.1021 1.3703 0.1214
f 769 771 767 765
f 766 768 772 770
f 765 766 770 769
f 771 772 768 767
f 767 768 766 765
f 769 770 772 771
v 0.1056 1.3703 0.1478
v 0.1408 1.3703 0.1478
v 0.1056 1.3703 0.1214
v 0.1408 1.3703 0.1214
v 0.1056 1.5054 0.1478
v 0.1408 1.5054 0.1478
v 0.1056 1.5054 0.1214
v 0.1408 1.5054 0.1214
f 777 779 775 773
f 774 776 780 778
f 773 774 778 777
f 779 780 776 775
f 775 776 774 773
f 777 778 780 779
v -0.1408 1.3703 0.1478
v -0.1056 1.3703 0.1478
v -0.1408 1.3703 0.1214
v -0.1056 1.3703 0.1214
v -0.1408 1.5054 0.1478
v -0.1056 1.5054 0.1478
v -0.1408 1.5054 0.1214
v -0.1056 1.5054 0.1214
f 785 787 783 781
f 782 784 788 786
f 781 782 786 785
f 787 788 784 783
f 783 784 782 781
f 785 786 788 787
o Pack_Breacher
usemtl Armor
v -0.1056 1.2159 -0.1038
v 0.1056 1.2159 -0.1038
v -0.1056 1.2159 -0.1742
v 0.1056 1.2159 -0.1742
v -0.1056 1.4475 -0.1038
v 0.1056 1.4475 -0.1038
v -0.1056 1.4475 -0.1742
v 0.1056 1.4475 -0.1742
f 793 795 791 789
f 790 792 796 794
f 789 790 794 793
f 795 796 792 791
f 791 792 790 789
f 793 794 796 795
o Pack_Breacher_Rails
usemtl Trim
v -0.1496 1.2545 -0.1742
v 0.1496 1.2545 -0.1742
v -0.1496 1.2545 -0.1918
v 0.1496 1.2545 -0.1918
v -0.1496 1.4089 -0.1742
v 0.1496 1.4089 -0.1742
v -0.1496 1.4089 -0.1918
v 0.1496 1.4089 -0.1918
f 801 803 799 797
f 798 800 804 802
f 797 798 802 801
f 803 804 800 799
f 799 800 798 797
f 801 802 804 803
