mtllib materials_F1.mtl
o Chassis
usemtl Chassis
v -0.1500 0.9300 0.0900
v 0.1500 0.9300 0.0900
v -0.1500 0.9300 -0.0800
v 0.1500 0.9300 -0.0800
v -0.1500 1.1000 0.0900
v 0.1500 1.1000 0.0900
v -0.1500 1.1000 -0.0800
v 0.1500 1.1000 -0.0800
f 5 7 3 1
f 2 4 8 6
f 1 2 6 5
f 7 8 4 3
f 3 4 2 1
f 5 6 8 7
v -0.1500 1.2400 0.0900
v 0.1500 1.2400 0.0900
v -0.1500 1.2400 -0.0800
v 0.1500 1.2400 -0.0800
v -0.1700 1.4000 0.1000
v 0.1700 1.4000 0.1000
v -0.1700 1.4000 -0.0900
v 0.1700 1.4000 -0.0900
f 13 15 11 9
f 10 12 16 14
f 9 10 14 13
f 15 16 12 11
f 11 12 10 9
f 13 14 16 15
v -0.1800 1.4000 0.1100
v 0.1800 1.4000 0.1100
v -0.1800 1.4000 -0.1000
v 0.1800 1.4000 -0.1000
v -0.2000 1.5600 0.1000
v 0.2000 1.5600 0.1000
v -0.2000 1.5600 -0.0900
v 0.2000 1.5600 -0.0900
f 21 23 19 17
f 18 20 24 22
f 17 18 22 21
f 23 24 20 19
f 19 20 18 17
f 21 22 24 23
v -0.0850 1.6600 0.1100
v 0.0850 1.6600 0.1100
v -0.0850 1.6600 -0.0900
v 0.0850 1.6600 -0.0900
v -0.0750 1.9000 0.0900
v 0.0750 1.9000 0.0900
v -0.0750 1.9000 -0.0800
v 0.0750 1.9000 -0.0800
f 29 31 27 25
f 26 28 32 30
f 25 26 30 29
f 31 32 28 27
f 27 28 26 25
f 29 30 32 31
v 0.2500 1.4650 0.0550
v 0.4800 1.4650 0.0550
v 0.2500 1.4650 -0.0550
v 0.4800 1.4650 -0.0550
v 0.2500 1.5750 0.0550
v 0.4800 1.5750 0.0550
v 0.2500 1.5750 -0.0550
v 0.4800 1.5750 -0.0550
f 37 39 35 33
f 34 36 40 38
f 33 34 38 37
f 39 40 36 35
f 35 36 34 33
f 37 38 40 39
v -0.2500 1.4650 0.0550
v -0.4800 1.4650 0.0550
v -0.2500 1.4650 -0.0550
v -0.4800 1.4650 -0.0550
v -0.2500 1.5750 0.0550
v -0.4800 1.5750 0.0550
v -0.2500 1.5750 -0.0550
v -0.4800 1.5750 -0.0550
f 41 43 47 45
f 46 48 44 42
f 45 46 42 41
f 43 44 48 47
f 41 42 44 43
f 47 48 46 45
v 0.5200 1.4750 0.0480
v 0.7600 1.4750 0.0480
v 0.5200 1.4750 -0.0480
v 0.7600 1.4750 -0.0480
v 0.5200 1.5650 0.0480
v 0.7600 1.5650 0.0480
v 0.5200 1.5650 -0.0480
v 0.7600 1.5650 -0.0480
f 53 55 51 49
f 50 52 56 54
f 49 50 54 53
f 55 56 52 51
f 51 52 50 49
f 53 54 56 55
v -0.5200 1.4750 0.0480
v -0.7600 1.4750 0.0480
v -0.5200 1.4750 -0.0480
v -0.7600 1.4750 -0.0480
v -0.5200 1.5650 0.0480
v -0.7600 1.5650 0.0480
v -0.5200 1.5650 -0.0480
v -0.7600 1.5650 -0.0480
f 57 59 63 61
f 62 64 60 58
f 61 62 58 57
f 59 60 64 63
f 57 58 60 59
f 63 64 62 61
v 0.0600 0.5800 0.0700
v 0.1900 0.5800 0.0700
v 0.0600 0.5800 -0.0700
v 0.1900 0.5800 -0.0700
v 0.0600 0.9500 0.0700
v 0.1900 0.9500 0.0700
v 0.0600 0.9500 -0.0700
v 0.1900 0.9500 -0.0700
f 69 71 67 65
f 66 68 72 70
f 65 66 70 69
f 71 72 68 67
f 67 68 66 65
f 69 70 72 71
v -0.0600 0.5800 0.0700
v -0.1900 0.5800 0.0700
v -0.0600 0.5800 -0.0700
v -0.1900 0.5800 -0.0700
v -0.0600 0.9500 0.0700
v -0.1900 0.9500 0.0700
v -0.0600 0.9500 -0.0700
v -0.1900 0.9500 -0.0700
f 73 75 79 77
f 78 80 76 74
f 77 78 74 73
f 75 76 80 79
f 73 74 76 75
f 79 80 78 77
v 0.0700 0.1300 0.0600
v 0.1800 0.1300 0.0600
v 0.0700 0.1300 -0.0600
v 0.1800 0.1300 -0.0600
v 0.0700 0.5100 0.0600
v 0.1800 0.5100 0.0600
v 0.0700 0.5100 -0.0600
v 0.1800 0.5100 -0.0600
f 85 87 83 81
f 82 84 88 86
f 81 82 86 85
f 87 88 84 83
f 83 84 82 81
f 85 86 88 87
v -0.0700 0.1300 0.0600
v -0.1800 0.1300 0.0600
v -0.0700 0.1300 -0.0600
v -0.1800 0.1300 -0.0600
v -0.0700 0.5100 0.0600
v -0.1800 0.5100 0.0600
v -0.0700 0.5100 -0.0600
v -0.1800 0.5100 -0.0600
f 89 91 95 93
f 94 96 92 90
f 93 94 90 89
f 91 92 96 95
f 89 90 92 91
f 95 96 94 93
v 0.0650 0.0000 0.1500
v 0.1850 0.0000 0.1500
v 0.0650 0.0000 -0.0700
v 0.1850 0.0000 -0.0700
v 0.0650 0.0800 0.1500
v 0.1850 0.0800 0.1500
v 0.0650 0.0800 -0.0700
v 0.1850 0.0800 -0.0700
f 101 103 99 97
f 98 100 104 102
f 97 98 102 101
f 103 104 100 99
f 99 100 98 97
f 101 102 104 103
v -0.0650 0.0000 0.1500
v -0.1850 0.0000 0.1500
v -0.0650 0.0000 -0.0700
v -0.1850 0.0000 -0.0700
v -0.0650 0.0800 0.1500
v -0.1850 0.0800 0.1500
v -0.0650 0.0800 -0.0700
v -0.1850 0.0800 -0.0700
f 105 107 111 109
f 110 112 108 106
f 109 110 106 105
f 107 108 112 111
f 105 106 108 107
f 111 112 110 109
o ChassisJoints
usemtl Joint
v -0.0700 1.0800 0.0500
v 0.0700 1.0800 0.0500
v -0.0700 1.0800 -0.0500
v 0.0700 1.0800 -0.0500
v -0.0700 1.2600 0.0500
v 0.0700 1.2600 0.0500
v -0.0700 1.2600 -0.0500
v 0.0700 1.2600 -0.0500
f 117 119 115 113
f 114 116 120 118
f 113 114 118 117
f 119 120 116 115
f 115 116 114 113
f 117 118 120 119
v -0.1150 1.0800 0.0200
v -0.0900 1.0800 0.0200
v -0.1150 1.0800 -0.0200
v -0.0900 1.0800 -0.0200
v -0.1150 1.2600 0.0200
v -0.0900 1.2600 0.0200
v -0.1150 1.2600 -0.0200
v -0.0900 1.2600 -0.0200
f 125 127 123 121
f 122 124 128 126
f 121 122 126 125
f 127 128 124 123
f 123 124 122 121
f 125 126 128 127
v 0.0900 1.0800 0.0200
v 0.1150 1.0800 0.0200
v 0.0900 1.0800 -0.0200
v 0.1150 1.0800 -0.0200
v 0.0900 1.2600 0.0200
v 0.1150 1.2600 0.0200
v 0.0900 1.2600 -0.0200
v 0.1150 1.2600 -0.0200
f 133 135 131 129
f 130 132 136 134
f 129 130 134 133
f 135 136 132 131
f 131 132 130 129
f 133 134 136 135
v 0.0450 1.5500 -0.0000
v 0.0364 1.5500 -0.0265
v 0.0139 1.5500 -0.0428
v -0.0139 1.5500 -0.0428
v -0.0364 1.5500 -0.0265
v -0.0450 1.5500 -0.0000
v -0.0364 1.5500 0.0265
v -0.0139 1.5500 0.0428
v 0.0139 1.5500 0.0428
v 0.0364 1.5500 0.0265
v 0.0450 1.6700 -0.0000
v 0.0364 1.6700 -0.0265
v 0.0139 1.6700 -0.0428
v -0.0139 1.6700 -0.0428
v -0.0364 1.6700 -0.0265
v -0.0450 1.6700 -0.0000
v -0.0364 1.6700 0.0265
v -0.0139 1.6700 0.0428
v 0.0139 1.6700 0.0428
v 0.0364 1.6700 0.0265
f 137 138 148 147
f 138 139 149 148
f 139 140 150 149
f 140 141 151 150
f 141 142 152 151
f 142 143 153 152
f 143 144 154 153
f 144 145 155 154
f 145 146 156 155
f 146 137 147 156
f 146 145 144 143 142 141 140 139 138 137
f 147 148 149 150 151 152 153 154 155 156
v -0.0500 1.6900 0.1150
v 0.0500 1.6900 0.1150
v -0.0500 1.6900 0.1000
v 0.0500 1.6900 0.1000
v -0.0500 1.7300 0.1150
v 0.0500 1.7300 0.1150
v -0.0500 1.7300 0.1000
v 0.0500 1.7300 0.1000
f 161 163 159 157
f 158 160 164 162
f 157 158 162 161
f 163 164 160 159
f 159 160 158 157
f 161 162 164 163
v 0.1900 1.5200 -0.0600
v 0.1900 1.5500 -0.0520
v 0.1900 1.5720 -0.0300
v 0.1900 1.5800 -0.0000
v 0.1900 1.5720 0.0300
v 0.1900 1.5500 0.0520
v 0.1900 1.5200 0.0600
v 0.1900 1.4900 0.0520
v 0.1900 1.4680 0.0300
v 0.1900 1.4600 0.0000
v 0.1900 1.4680 -0.0300
v 0.1900 1.4900 -0.0520
v 0.2600 1.5200 -0.0600
v 0.2600 1.5500 -0.0520
v 0.2600 1.5720 -0.0300
v 0.2600 1.5800 -0.0000
v 0.2600 1.5720 0.0300
v 0.2600 1.5500 0.0520
v 0.2600 1.5200 0.0600
v 0.2600 1.4900 0.0520
v 0.2600 1.4680 0.0300
v 0.2600 1.4600 0.0000
v 0.2600 1.4680 -0.0300
v 0.2600 1.4900 -0.0520
f 165 166 178 177
f 166 167 179 178
f 167 168 180 179
f 168 169 181 180
f 169 170 182 181
f 170 171 183 182
f 171 172 184 183
f 172 173 185 184
f 173 174 186 185
f 174 175 187 186
f 175 176 188 187
f 176 165 177 188
f 176 175 174 173 172 171 170 169 168 167 166 165
f 177 178 179 180 181 182 183 184 185 186 187 188
v -0.1900 1.5200 -0.0600
v -0.1900 1.5500 -0.0520
v -0.1900 1.5720 -0.0300
v -0.1900 1.5800 -0.0000
v -0.1900 1.5720 0.0300
v -0.1900 1.5500 0.0520
v -0.1900 1.5200 0.0600
v -0.1900 1.4900 0.0520
v -0.1900 1.4680 0.0300
v -0.1900 1.4600 0.0000
v -0.1900 1.4680 -0.0300
v -0.1900 1.4900 -0.0520
v -0.2600 1.5200 -0.0600
v -0.2600 1.5500 -0.0520
v -0.2600 1.5720 -0.0300
v -0.2600 1.5800 -0.0000
v -0.2600 1.5720 0.0300
v -0.2600 1.5500 0.0520
v -0.2600 1.5200 0.0600
v -0.2600 1.4900 0.0520
v -0.2600 1.4680 0.0300
v -0.2600 1.4600 0.0000
v -0.2600 1.4680 -0.0300
v -0.2600 1.4900 -0.0520
f 201 202 190 189
f 202 203 191 190
f 203 204 192 191
f 204 205 193 192
f 205 206 194 193
f 206 207 195 194
f 207 208 196 195
f 208 209 197 196
f 209 210 198 197
f 210 211 199 198
f 211 212 200 199
f 212 201 189 200
f 189 190 191 192 193 194 195 196 197 198 199 200
f 212 211 210 209 208 207 206 205 204 203 202 201
v 0.5450 1.5200 0.0500
v 0.5390 1.5425 0.0500
v 0.5225 1.5590 0.0500
v 0.5000 1.5650 0.0500
v 0.4775 1.5590 0.0500
v 0.4610 1.5425 0.0500
v 0.4550 1.5200 0.0500
v 0.4610 1.4975 0.0500
v 0.4775 1.4810 0.0500
v 0.5000 1.4750 0.0500
v 0.5225 1.4810 0.0500
v 0.5390 1.4975 0.0500
v 0.5450 1.5200 -0.0500
v 0.5390 1.5425 -0.0500
v 0.5225 1.5590 -0.0500
v 0.5000 1.5650 -0.0500
v 0.4775 1.5590 -0.0500
v 0.4610 1.5425 -0.0500
v 0.4550 1.5200 -0.0500
v 0.4610 1.4975 -0.0500
v 0.4775 1.4810 -0.0500
v 0.5000 1.4750 -0.0500
v 0.5225 1.4810 -0.0500
v 0.5390 1.4975 -0.0500
f 225 226 214 213
f 226 227 215 214
f 227 228 216 215
f 228 229 217 216
f 229 230 218 217
f 230 231 219 218
f 231 232 220 219
f 232 233 221 220
f 233 234 222 221
f 234 235 223 222
f 235 236 224 223
f 236 225 213 224
f 213 214 215 216 217 218 219 220 221 222 223 224
f 236 235 234 233 232 231 230 229 228 227 226 225
v -0.5450 1.5200 0.0500
v -0.5390 1.5425 0.0500
v -0.5225 1.5590 0.0500
v -0.5000 1.5650 0.0500
v -0.4775 1.5590 0.0500
v -0.4610 1.5425 0.0500
v -0.4550 1.5200 0.0500
v -0.4610 1.4975 0.0500
v -0.4775 1.4810 0.0500
v -0.5000 1.4750 0.0500
v -0.5225 1.4810 0.0500
v -0.5390 1.4975 0.0500
v -0.5450 1.5200 -0.0500
v -0.5390 1.5425 -0.0500
v -0.5225 1.5590 -0.0500
v -0.5000 1.5650 -0.0500
v -0.4775 1.5590 -0.0500
v -0.4610 1.5425 -0.0500
v -0.4550 1.5200 -0.0500
v -0.4610 1.4975 -0.0500
v -0.4775 1.4810 -0.0500
v -0.5000 1.4750 -0.0500
v -0.5225 1.4810 -0.0500
v -0.5390 1.4975 -0.0500
f 237 238 250 249
f 238 239 251 250
f 239 240 252 251
f 240 241 253 252
f 241 242 254 253
f 242 243 255 254
f 243 244 256 255
f 244 245 257 256
f 245 246 258 257
f 246 247 259 258
f 247 248 260 259
f 248 237 249 260
f 248 247 246 245 244 243 242 241 240 239 238 237
f 249 250 251 252 253 254 255 256 257 258 259 260
v 0.7800 1.4850 0.0450
v 0.8900 1.4850 0.0450
v 0.7800 1.4850 -0.0450
v 0.8900 1.4850 -0.0450
v 0.7800 1.5550 0.0450
v 0.8900 1.5550 0.0450
v 0.7800 1.5550 -0.0450
v 0.8900 1.5550 -0.0450
f 265 267 263 261
f 262 264 268 266
f 261 262 266 265
f 267 268 264 263
f 263 264 262 261
f 265 266 268 267
v -0.7800 1.4850 0.0450
v -0.8900 1.4850 0.0450
v -0.7800 1.4850 -0.0450
v -0.8900 1.4850 -0.0450
v -0.7800 1.5550 0.0450
v -0.8900 1.5550 0.0450
v -0.7800 1.5550 -0.0450
v -0.8900 1.5550 -0.0450
f 269 271 275 273
f 274 276 272 270
f 273 274 270 269
f 271 272 276 275
f 269 270 272 271
f 275 276 274 273
v 0.8900 1.5000 0.0400
v 0.9600 1.5000 0.0400
v 0.8900 1.5000 -0.0400
v 0.9600 1.5000 -0.0400
v 0.8900 1.5400 0.0400
v 0.9600 1.5400 0.0400
v 0.8900 1.5400 -0.0400
v 0.9600 1.5400 -0.0400
f 281 283 279 277
f 278 280 284 282
f 277 278 282 281
f 283 284 280 279
f 279 280 278 277
f 281 282 284 283
v -0.8900 1.5000 0.0400
v -0.9600 1.5000 0.0400
v -0.8900 1.5000 -0.0400
v -0.9600 1.5000 -0.0400
v -0.8900 1.5400 0.0400
v -0.9600 1.5400 0.0400
v -0.8900 1.5400 -0.0400
v -0.9600 1.5400 -0.0400
f 285 287 291 289
f 290 292 288 286
f 289 290 286 285
f 287 288 292 291
f 285 286 288 287
f 291 292 290 289
v 0.8000 1.5000 0.0800
v 0.8600 1.5000 0.0800
v 0.8000 1.5000 0.0450
v 0.8600 1.5000 0.0450
v 0.8000 1.5400 0.0800
v 0.8600 1.5400 0.0800
v 0.8000 1.5400 0.0450
v 0.8600 1.5400 0.0450
f 297 299 295 293
f 294 296 300 298
f 293 294 298 297
f 299 300 296 295
f 295 296 294 293
f 297 298 300 299
v -0.8000 1.5000 0.0800
v -0.8600 1.5000 0.0800
v -0.8000 1.5000 0.0450
v -0.8600 1.5000 0.0450
v -0.8000 1.5400 0.0800
v -0.8600 1.5400 0.0800
v -0.8000 1.5400 0.0450
v -0.8600 1.5400 0.0450
f 301 303 307 305
f 306 308 304 302
f 305 306 302 301
f 303 304 308 307
f 301 302 304 303
f 307 308 306 305
v 0.0600 0.9700 -0.0600
v 0.0600 1.0000 -0.0520
v 0.0600 1.0220 -0.0300
v 0.0600 1.0300 -0.0000
v 0.0600 1.0220 0.0300
v 0.0600 1.0000 0.0520
v 0.0600 0.9700 0.0600
v 0.0600 0.9400 0.0520
v 0.0600 0.9180 0.0300
v 0.0600 0.9100 0.0000
v 0.0600 0.9180 -0.0300
v 0.0600 0.9400 -0.0520
v 0.1900 0.9700 -0.0600
v 0.1900 1.0000 -0.0520
v 0.1900 1.0220 -0.0300
v 0.1900 1.0300 -0.0000
v 0.1900 1.0220 0.0300
v 0.1900 1.0000 0.0520
v 0.1900 0.9700 0.0600
v 0.1900 0.9400 0.0520
v 0.1900 0.9180 0.0300
v 0.1900 0.9100 0.0000
v 0.1900 0.9180 -0.0300
v 0.1900 0.9400 -0.0520
f 309 310 322 321
f 310 311 323 322
f 311 312 324 323
f 312 313 325 324
f 313 314 326 325
f 314 315 327 326
f 315 316 328 327
f 316 317 329 328
f 317 318 330 329
f 318 319 331 330
f 319 320 332 331
f 320 309 321 332
f 320 319 318 317 316 315 314 313 312 311 310 309
f 321 322 323 324 325 326 327 328 329 330 331 332
v -0.0600 0.9700 -0.0600
v -0.0600 1.0000 -0.0520
v -0.0600 1.0220 -0.0300
v -0.0600 1.0300 -0.0000
v -0.0600 1.0220 0.0300
v -0.0600 1.0000 0.0520
v -0.0600 0.9700 0.0600
v -0.0600 0.9400 0.0520
v -0.0600 0.9180 0.0300
v -0.0600 0.9100 0.0000
v -0.0600 0.9180 -0.0300
v -0.0600 0.9400 -0.0520
v -0.1900 0.9700 -0.0600
v -0.1900 1.0000 -0.0520
v -0.1900 1.0220 -0.0300
v -0.1900 1.0300 -0.0000
v -0.1900 1.0220 0.0300
v -0.1900 1.0000 0.0520
v -0.1900 0.9700 0.0600
v -0.1900 0.9400 0.0520
v -0.1900 0.9180 0.0300
v -0.1900 0.9100 0.0000
v -0.1900 0.9180 -0.0300
v -0.1900 0.9400 -0.0520
f 345 346 334 333
f 346 347 335 334
f 347 348 336 335
f 348 349 337 336
f 349 350 338 337
f 350 351 339 338
f 351 352 340 339
f 352 353 341 340
f 353 354 342 341
f 354 355 343 342
f 355 356 344 343
f 356 345 333 344
f 333 334 335 336 337 338 339 340 341 342 343 344
f 356 355 354 353 352 351 350 349 348 347 346 345
v 0.0700 0.5400 -0.0550
v 0.0700 0.5675 -0.0476
v 0.0700 0.5876 -0.0275
v 0.0700 0.5950 -0.0000
v 0.0700 0.5876 0.0275
v 0.0700 0.5675 0.0476
v 0.0700 0.5400 0.0550
v 0.0700 0.5125 0.0476
v 0.0700 0.4924 0.0275
v 0.0700 0.4850 0.0000
v 0.0700 0.4924 -0.0275
v 0.0700 0.5125 -0.0476
v 0.1800 0.5400 -0.0550
v 0.1800 0.5675 -0.0476
v 0.1800 0.5876 -0.0275
v 0.1800 0.5950 -0.0000
v 0.1800 0.5876 0.0275
v 0.1800 0.5675 0.0476
v 0.1800 0.5400 0.0550
v 0.1800 0.5125 0.0476
v 0.1800 0.4924 0.0275
v 0.1800 0.4850 0.0000
v 0.1800 0.4924 -0.0275
v 0.1800 0.5125 -0.0476
f 357 358 370 369
f 358 359 371 370
f 359 360 372 371
f 360 361 373 372
f 361 362 374 373
f 362 363 375 374
f 363 364 376 375
f 364 365 377 376
f 365 366 378 377
f 366 367 379 378
f 367 368 380 379
f 368 357 369 380
f 368 367 366 365 364 363 362 361 360 359 358 357
f 369 370 371 372 373 374 375 376 377 378 379 380
v -0.0700 0.5400 -0.0550
v -0.0700 0.5675 -0.0476
v -0.0700 0.5876 -0.0275
v -0.0700 0.5950 -0.0000
v -0.0700 0.5876 0.0275
v -0.0700 0.5675 0.0476
v -0.0700 0.5400 0.0550
v -0.0700 0.5125 0.0476
v -0.0700 0.4924 0.0275
v -0.0700 0.4850 0.0000
v -0.0700 0.4924 -0.0275
v -0.0700 0.5125 -0.0476
v -0.1800 0.5400 -0.0550
v -0.1800 0.5675 -0.0476
v -0.1800 0.5876 -0.0275
v -0.1800 0.5950 -0.0000
v -0.1800 0.5876 0.0275
v -0.1800 0.5675 0.0476
v -0.1800 0.5400 0.0550
v -0.1800 0.5125 0.0476
v -0.1800 0.4924 0.0275
v -0.1800 0.4850 0.0000
v -0.1800 0.4924 -0.0275
v -0.1800 0.5125 -0.0476
f 393 394 382 381
f 394 395 383 382
f 395 396 384 383
f 396 397 385 384
f 397 398 386 385
f 398 399 387 386
f 399 400 388 387
f 400 401 389 388
f 401 402 390 389
f 402 403 391 390
f 403 404 392 391
f 404 393 381 392
f 381 382 383 384 385 386 387 388 389 390 391 392
f 404 403 402 401 400 399 398 397 396 395 394 393
v 0.0800 0.1000 -0.0400
v 0.0800 0.1200 -0.0346
v 0.0800 0.1346 -0.0200
v 0.0800 0.1400 -0.0000
v 0.0800 0.1346 0.0200
v 0.0800 0.1200 0.0346
v 0.0800 0.1000 0.0400
v 0.0800 0.0800 0.0346
v 0.0800 0.0654 0.0200
v 0.0800 0.0600 0.0000
v 0.0800 0.0654 -0.0200
v 0.0800 0.0800 -0.0346
v 0.1700 0.1000 -0.0400
v 0.1700 0.1200 -0.0346
v 0.1700 0.1346 -0.0200
v 0.1700 0.1400 -0.0000
v 0.1700 0.1346 0.0200
v 0.1700 0.1200 0.0346
v 0.1700 0.1000 0.0400
v 0.1700 0.0800 0.0346
v 0.1700 0.0654 0.0200
v 0.1700 0.0600 0.0000
v 0.1700 0.0654 -0.0200
v 0.1700 0.0800 -0.0346
f 405 406 418 417
f 406 407 419 418
f 407 408 420 419
f 408 409 421 420
f 409 410 422 421
f 410 411 423 422
f 411 412 424 423
f 412 413 425 424
f 413 414 426 425
f 414 415 427 426
f 415 416 428 427
f 416 405 417 428
f 416 415 414 413 412 411 410 409 408 407 406 405
f 417 418 419 420 421 422 423 424 425 426 427 428
v -0.0800 0.1000 -0.0400
v -0.0800 0.1200 -0.0346
v -0.0800 0.1346 -0.0200
v -0.0800 0.1400 -0.0000
v -0.0800 0.1346 0.0200
v -0.0800 0.1200 0.0346
v -0.0800 0.1000 0.0400
v -0.0800 0.0800 0.0346
v -0.0800 0.0654 0.0200
v -0.0800 0.0600 0.0000
v -0.0800 0.0654 -0.0200
v -0.0800 0.0800 -0.0346
v -0.1700 0.1000 -0.0400
v -0.1700 0.1200 -0.0346
v -0.1700 0.1346 -0.0200
v -0.1700 0.1400 -0.0000
v -0.1700 0.1346 0.0200
v -0.1700 0.1200 0.0346
v -0.1700 0.1000 0.0400
v -0.1700 0.0800 0.0346
v -0.1700 0.0654 0.0200
v -0.1700 0.0600 0.0000
v -0.1700 0.0654 -0.0200
v -0.1700 0.0800 -0.0346
f 441 442 430 429
f 442 443 431 430
f 443 444 432 431
f 444 445 433 432
f 445 446 434 433
f 446 447 435 434
f 447 448 436 435
f 448 449 437 436
f 449 450 438 437
f 450 451 439 438
f 451 452 440 439
f 452 441 429 440
f 429 430 431 432 433 434 435 436 437 438 439 440
f 452 451 450 449 448 447 446 445 444 443 442 441
v 0.0700 0.0000 0.2300
v 0.1800 0.0000 0.2300
v 0.0700 0.0000 0.1500
v 0.1800 0.0000 0.1500
v 0.0700 0.0600 0.2300
v 0.1800 0.0600 0.2300
v 0.0700 0.0600 0.1500
v 0.1800 0.0600 0.1500
f 457 459 455 453
f 454 456 460 458
f 453 454 458 457
f 459 460 456 455
f 455 456 454 453
f 457 458 460 459
v -0.0700 0.0000 0.2300
v -0.1800 0.0000 0.2300
v -0.0700 0.0000 0.1500
v -0.1800 0.0000 0.1500
v -0.0700 0.0600 0.2300
v -0.1800 0.0600 0.2300
v -0.0700 0.0600 0.1500
v -0.1800 0.0600 0.1500
f 461 463 467 465
f 466 468 464 462
f 465 466 462 461
f 463 464 468 467
f 461 462 464 463
f 467 468 466 465
o Eyes
usemtl Eye
v -0.0700 1.7700 0.1160
v 0.0700 1.7700 0.1160
v -0.0700 1.7700 0.1040
v 0.0700 1.7700 0.1040
v -0.0700 1.8000 0.1160
v 0.0700 1.8000 0.1160
v -0.0700 1.8000 0.1040
v 0.0700 1.8000 0.1040
f 473 475 471 469
f 470 472 476 474
f 469 470 474 473
f 475 476 472 471
f 471 472 470 469
f 473 474 476 475
o Helmet_Combat
usemtl Armor
v -0.1250 1.6300 0.1450
v 0.1250 1.6300 0.1450
v -0.1250 1.6300 -0.1300
v 0.1250 1.6300 -0.1300
v -0.1050 1.9500 0.1100
v 0.1050 1.9500 0.1100
v -0.1050 1.9500 -0.1100
v 0.1050 1.9500 -0.1100
f 481 483 479 477
f 478 480 484 482
f 477 478 482 481
f 483 484 480 479
f 479 480 478 477
f 481 482 484 483
v -0.0200 1.9500 0.0800
v 0.0200 1.9500 0.0800
v -0.0200 1.9500 -0.1000
v 0.0200 1.9500 -0.1000
v -0.0200 1.9750 0.0800
v 0.0200 1.9750 0.0800
v -0.0200 1.9750 -0.1000
v 0.0200 1.9750 -0.1000
f 489 491 487 485
f 486 488 492 490
f 485 486 490 489
f 491 492 488 487
f 487 488 486 485
f 489 490 492 491
v -0.1200 1.6300 0.1500
v 0.1200 1.6300 0.1500
v -0.1200 1.6300 0.0800
v 0.1200 1.6300 0.0800
v -0.1200 1.7100 0.1500
v 0.1200 1.7100 0.1500
v -0.1200 1.7100 0.0800
v 0.1200 1.7100 0.0800
f 497 499 495 493
f 494 496 500 498
f 493 494 498 497
f 499 500 496 495
f 495 496 494 493
f 497 498 500 499
o Helmet_Combat_Visor
usemtl Visor
v -0.1050 1.7200 0.1580
v 0.1050 1.7200 0.1580
v -0.1050 1.7200 0.1450
v 0.1050 1.7200 0.1450
v -0.1050 1.8400 0.1580
v 0.1050 1.8400 0.1580
v -0.1050 1.8400 0.1450
v 0.1050 1.8400 0.1450
f 505 507 503 501
f 502 504 508 506
f 501 502 506 505
f 507 508 504 503
f 503 504 502 501
f 505 506 508 507
o Chest_Heavy
usemtl Armor
v -0.2175 1.3800 0.1550
v 0.2175 1.3800 0.1550
v -0.2175 1.3800 0.1000
v 0.2175 1.3800 0.1000
v -0.2275 1.5800 0.1450
v 0.2275 1.5800 0.1450
v -0.2275 1.5800 0.1000
v 0.2275 1.5800 0.1000
f 513 515 511 509
f 510 512 516 514
f 509 510 514 513
f 515 516 512 511
f 511 512 510 509
f 513 514 516 515
v -0.2175 1.3800 -0.0900
v 0.2175 1.3800 -0.0900
v -0.2175 1.3800 -0.1550
v 0.2175 1.3800 -0.1550
v -0.2175 1.5700 -0.0900
v 0.2175 1.5700 -0.0900
v -0.2175 1.5700 -0.1550
v 0.2175 1.5700 -0.1550
f 521 523 519 517
f 518 520 524 522
f 517 518 522 521
f 523 524 520 519
f 519 520 518 517
f 521 522 524 523
v -0.2375 1.3800 0.1000
v -0.1900 1.3800 0.1000
v -0.2375 1.3800 -0.0900
v -0.1900 1.3800 -0.0900
v -0.2375 1.5400 0.1000
v -0.1900 1.5400 0.1000
v -0.2375 1.5400 -0.0900
v -0.1900 1.5400 -0.0900
f 529 531 527 525
f 526 528 532 530
f 525 526 530 529
f 531 532 528 527
f 527 528 526 525
f 529 530 532 531
v 0.1900 1.3800 0.1000
v 0.2375 1.3800 0.1000
v 0.1900 1.3800 -0.0900
v 0.2375 1.3800 -0.0900
v 0.1900 1.5400 0.1000
v 0.2375 1.5400 0.1000
v 0.1900 1.5400 -0.0900
v 0.2375 1.5400 -0.0900
f 537 539 535 533
f 534 536 540 538
f 533 534 538 537
f 539 540 536 535
f 535 536 534 533
f 537 538 540 539
v -0.1200 1.5600 0.1200
v 0.1200 1.5600 0.1200
v -0.1200 1.5600 -0.1100
v 0.1200 1.5600 -0.1100
v -0.1200 1.6200 0.1200
v 0.1200 1.6200 0.1200
v -0.1200 1.6200 -0.1100
v 0.1200 1.6200 -0.1100
f 545 547 543 541
f 542 544 548 546
f 541 542 546 545
f 547 548 544 543
f 543 544 542 541
f 545 546 548 547
v -0.1775 1.2400 0.1350
v 0.1775 1.2400 0.1350
v -0.1775 1.2400 0.0900
v 0.1775 1.2400 0.0900
v -0.1775 1.3800 0.1350
v 0.1775 1.3800 0.1350
v -0.1775 1.3800 0.0900
v 0.1775 1.3800 0.0900
f 553 555 551 549
f 550 552 556 554
f 549 550 554 553
f 555 556 552 551
f 551 552 550 549
f 553 554 556 555
v -0.1600 1.2400 -0.0800
v 0.1600 1.2400 -0.0800
v -0.1600 1.2400 -0.1350
v 0.1600 1.2400 -0.1350
v -0.1600 1.3800 -0.0800
v 0.1600 1.3800 -0.0800
v -0.1600 1.3800 -0.1350
v 0.1600 1.3800 -0.1350
f 561 563 559 557
f 558 560 564 562
f 557 558 562 561
f 563 564 560 559
f 559 560 558 557
f 561 562 564 563
o Pauldrons_Heavy
usemtl Armor
v 0.2000 1.5300 0.1175
v 0.3700 1.5300 0.1175
v 0.2000 1.5300 -0.1175
v 0.3700 1.5300 -0.1175
v 0.2000 1.6400 0.1175
v 0.3700 1.6400 0.1175
v 0.2000 1.6400 -0.1175
v 0.3700 1.6400 -0.1175
f 569 571 567 565
f 566 568 572 570
f 565 566 570 569
f 571 572 568 567
f 567 568 566 565
f 569 570 572 571
v -0.2000 1.5300 0.1175
v -0.3700 1.5300 0.1175
v -0.2000 1.5300 -0.1175
v -0.3700 1.5300 -0.1175
v -0.2000 1.6400 0.1175
v -0.3700 1.6400 0.1175
v -0.2000 1.6400 -0.1175
v -0.3700 1.6400 -0.1175
f 573 575 579 577
f 578 580 576 574
f 577 578 574 573
f 575 576 580 579
f 573 574 576 575
f 579 580 578 577
v 0.3000 1.4600 0.1000
v 0.3800 1.4600 0.1000
v 0.3000 1.4600 -0.1000
v 0.3800 1.4600 -0.1000
v 0.3000 1.5300 0.1000
v 0.3800 1.5300 0.1000
v 0.3000 1.5300 -0.1000
v 0.3800 1.5300 -0.1000
f 585 587 583 581
f 582 584 588 586
f 581 582 586 585
f 587 588 584 583
f 583 584 582 581
f 585 586 588 587
v -0.3000 1.4600 0.1000
v -0.3800 1.4600 0.1000
v -0.3000 1.4600 -0.1000
v -0.3800 1.4600 -0.1000
v -0.3000 1.5300 0.1000
v -0.3800 1.5300 0.1000
v -0.3000 1.5300 -0.1000
v -0.3800 1.5300 -0.1000
f 589 591 595 593
f 594 596 592 590
f 593 594 590 589
f 591 592 596 595
f 589 590 592 591
f 595 596 594 593
o Bracers
usemtl Armor
v 0.5400 1.4400 0.0830
v 0.7400 1.4400 0.0830
v 0.5400 1.4400 -0.0830
v 0.7400 1.4400 -0.0830
v 0.5400 1.6000 0.0830
v 0.7400 1.6000 0.0830
v 0.5400 1.6000 -0.0830
v 0.7400 1.6000 -0.0830
f 601 603 599 597
f 598 600 604 602
f 597 598 602 601
f 603 604 600 599
f 599 600 598 597
f 601 602 604 603
v -0.5400 1.4400 0.0830
v -0.7400 1.4400 0.0830
v -0.5400 1.4400 -0.0830
v -0.7400 1.4400 -0.0830
v -0.5400 1.6000 0.0830
v -0.7400 1.6000 0.0830
v -0.5400 1.6000 -0.0830
v -0.7400 1.6000 -0.0830
f 605 607 611 609
f 610 612 608 606
f 609 610 606 605
f 607 608 612 611
f 605 606 608 607
f 611 612 610 609
o Thigh_Plates
usemtl Armor
v 0.0500 0.6200 0.1250
v 0.2000 0.6200 0.1250
v 0.0500 0.6200 0.0700
v 0.2000 0.6200 0.0700
v 0.0500 0.9200 0.1250
v 0.2000 0.9200 0.1250
v 0.0500 0.9200 0.0700
v 0.2000 0.9200 0.0700
f 617 619 615 613
f 614 616 620 618
f 613 614 618 617
f 619 620 616 615
f 615 616 614 613
f 617 618 620 619
v -0.0500 0.6200 0.1250
v -0.2000 0.6200 0.1250
v -0.0500 0.6200 0.0700
v -0.2000 0.6200 0.0700
v -0.0500 0.9200 0.1250
v -0.2000 0.9200 0.1250
v -0.0500 0.9200 0.0700
v -0.2000 0.9200 0.0700
f 621 623 627 625
f 626 628 624 622
f 625 626 622 621
f 623 624 628 627
f 621 622 624 623
f 627 628 626 625
v 0.1900 0.6400 0.0600
v 0.2400 0.6400 0.0600
v 0.1900 0.6400 -0.0600
v 0.2400 0.6400 -0.0600
v 0.1900 0.9000 0.0600
v 0.2400 0.9000 0.0600
v 0.1900 0.9000 -0.0600
v 0.2400 0.9000 -0.0600
f 633 635 631 629
f 630 632 636 634
f 629 630 634 633
f 635 636 632 631
f 631 632 630 629
f 633 634 636 635
v -0.1900 0.6400 0.0600
v -0.2400 0.6400 0.0600
v -0.1900 0.6400 -0.0600
v -0.2400 0.6400 -0.0600
v -0.1900 0.9000 0.0600
v -0.2400 0.9000 0.0600
v -0.1900 0.9000 -0.0600
v -0.2400 0.9000 -0.0600
f 637 639 643 641
f 642 644 640 638
f 641 642 638 637
f 639 640 644 643
f 637 638 640 639
f 643 644 642 641
o Shin_Plates
usemtl Armor
v 0.0600 0.1500 0.1150
v 0.1900 0.1500 0.1150
v 0.0600 0.1500 0.0600
v 0.1900 0.1500 0.0600
v 0.0600 0.4800 0.1150
v 0.1900 0.4800 0.1150
v 0.0600 0.4800 0.0600
v 0.1900 0.4800 0.0600
f 649 651 647 645
f 646 648 652 650
f 645 646 650 649
f 651 652 648 647
f 647 648 646 645
f 649 650 652 651
v -0.0600 0.1500 0.1150
v -0.1900 0.1500 0.1150
v -0.0600 0.1500 0.0600
v -0.1900 0.1500 0.0600
v -0.0600 0.4800 0.1150
v -0.1900 0.4800 0.1150
v -0.0600 0.4800 0.0600
v -0.1900 0.4800 0.0600
f 653 655 659 657
f 658 660 656 654
f 657 658 654 653
f 655 656 660 659
f 653 654 656 655
f 659 660 658 657
v 0.0700 0.4700 0.1350
v 0.1800 0.4700 0.1350
v 0.0700 0.4700 0.0400
v 0.1800 0.4700 0.0400
v 0.0700 0.6000 0.1350
v 0.1800 0.6000 0.1350
v 0.0700 0.6000 0.0400
v 0.1800 0.6000 0.0400
f 665 667 663 661
f 662 664 668 666
f 661 662 666 665
f 667 668 664 663
f 663 664 662 661
f 665 666 668 667
v -0.0700 0.4700 0.1350
v -0.1800 0.4700 0.1350
v -0.0700 0.4700 0.0400
v -0.1800 0.4700 0.0400
v -0.0700 0.6000 0.1350
v -0.1800 0.6000 0.1350
v -0.0700 0.6000 0.0400
v -0.1800 0.6000 0.0400
f 669 671 675 673
f 674 676 672 670
f 673 674 670 669
f 671 672 676 675
f 669 670 672 671
f 675 676 674 673
v 0.0600 0.0000 0.1600
v 0.1900 0.0000 0.1600
v 0.0600 0.0000 -0.0800
v 0.1900 0.0000 -0.0800
v 0.0600 0.1000 0.1600
v 0.1900 0.1000 0.1600
v 0.0600 0.1000 -0.0800
v 0.1900 0.1000 -0.0800
f 681 683 679 677
f 678 680 684 682
f 677 678 682 681
f 683 684 680 679
f 679 680 678 677
f 681 682 684 683
v -0.0600 0.0000 0.1600
v -0.1900 0.0000 0.1600
v -0.0600 0.0000 -0.0800
v -0.1900 0.0000 -0.0800
v -0.0600 0.1000 0.1600
v -0.1900 0.1000 0.1600
v -0.0600 0.1000 -0.0800
v -0.1900 0.1000 -0.0800
f 685 687 691 689
f 690 692 688 686
f 689 690 686 685
f 687 688 692 691
f 685 686 688 687
f 691 692 690 689
o Belt_Combat
usemtl Trim
v -0.1700 0.9900 0.1100
v 0.1700 0.9900 0.1100
v -0.1700 0.9900 -0.1000
v 0.1700 0.9900 -0.1000
v -0.1700 1.0500 0.1100
v 0.1700 1.0500 0.1100
v -0.1700 1.0500 -0.1000
v 0.1700 1.0500 -0.1000
f 697 699 695 693
f 694 696 700 698
f 693 694 698 697
f 699 700 696 695
f 695 696 694 693
f 697 698 700 699
v -0.1600 0.9700 0.1500
v -0.1000 0.9700 0.1500
v -0.1600 0.9700 0.1100
v -0.1000 0.9700 0.1100
v -0.1600 1.0600 0.1500
v -0.1000 1.0600 0.1500
v -0.1600 1.0600 0.1100
v -0.1000 1.0600 0.1100
f 705 707 703 701
f 702 704 708 706
f 701 702 706 705
f 707 708 704 703
f 703 704 702 701
f 705 706 708 707
v -0.2000 0.9700 0.0400
v -0.1550 0.9700 0.0400
v -0.2000 0.9700 -0.0100
v -0.1550 0.9700 -0.0100
v -0.2000 1.0500 0.0400
v -0.1550 1.0500 0.0400
v -0.2000 1.0500 -0.0100
v -0.1550 1.0500 -0.0100
f 713 715 711 709
f 710 712 716 714
f 709 710 714 713
f 715 716 712 711
f 711 712 710 709
f 713 714 716 715
v 0.1000 0.9700 0.1500
v 0.1600 0.9700 0.1500
v 0.1000 0.9700 0.1100
v 0.1600 0.9700 0.1100
v 0.1000 1.0600 0.1500
v 0.1600 1.0600 0.1500
v 0.1000 1.0600 0.1100
v 0.1600 1.0600 0.1100
f 721 723 719 717
f 718 720 724 722
f 717 718 722 721
f 723 724 720 719
f 719 720 718 717
f 721 722 724 723
v 0.1550 0.9700 0.0400
v 0.2000 0.9700 0.0400
v 0.1550 0.9700 -0.0100
v 0.2000 0.9700 -0.0100
v 0.1550 1.0500 0.0400
v 0.2000 1.0500 0.0400
v 0.1550 1.0500 -0.0100
v 0.2000 1.0500 -0.0100
f 729 731 727 725
f 726 728 732 730
f 725 726 730 729
f 731 732 728 727
f 727 728 726 725
f 729 730 732 731
o Rig_Mags
usemtl Trim
v -0.1160 1.3300 0.2050
v -0.0640 1.3300 0.2050
v -0.1160 1.3300 0.1550
v -0.0640 1.3300 0.1550
v -0.1160 1.4200 0.2050
v -0.0640 1.4200 0.2050
v -0.1160 1.4200 0.1550
v -0.0640 1.4200 0.1550
f 737 739 735 733
f 734 736 740 738
f 733 734 738 737
f 739 740 736 735
f 735 736 734 733
f 737 738 740 739
v -0.0560 1.3300 0.2050
v -0.0040 1.3300 0.2050
v -0.0560 1.3300 0.1550
v -0.0040 1.3300 0.1550
v -0.0560 1.4200 0.2050
v -0.0040 1.4200 0.2050
v -0.0560 1.4200 0.1550
v -0.0040 1.4200 0.1550
f 745 747 743 741
f 742 744 748 746
f 741 742 746 745
f 747 748 744 743
f 743 744 742 741
f 745 746 748 747
v 0.0040 1.3300 0.2050
v 0.0560 1.3300 0.2050
v 0.0040 1.3300 0.1550
v 0.0560 1.3300 0.1550
v 0.0040 1.4200 0.2050
v 0.0560 1.4200 0.2050
v 0.0040 1.4200 0.1550
v 0.0560 1.4200 0.1550
f 753 755 751 749
f 750 752 756 754
f 749 750 754 753
f 755 756 752 751
f 751 752 750 749
f 753 754 756 755
v 0.0640 1.3300 0.2050
v 0.1160 1.3300 0.2050
v 0.0640 1.3300 0.1550
v 0.1160 1.3300 0.1550
v 0.0640 1.4200 0.2050
v 0.1160 1.4200 0.2050
v 0.0640 1.4200 0.1550
v 0.1160 1.4200 0.1550
f 761 763 759 757
f 758 760 764 762
f 757 758 762 761
f 763 764 760 759
f 759 760 758 757
f 761 762 764 763
v 0.1200 1.4200 0.1850
v 0.1600 1.4200 0.1850
v 0.1200 1.4200 0.1550
v 0.1600 1.4200 0.1550
v 0.1200 1.5600 0.1850
v 0.1600 1.5600 0.1850
v 0.1200 1.5600 0.1550
v 0.1600 1.5600 0.1550
f 769 771 767 765
f 766 768 772 770
f 765 766 770 769
f 771 772 768 767
f 767 768 766 765
f 769 770 772 771
v -0.1600 1.4200 0.1850
v -0.1200 1.4200 0.1850
v -0.1600 1.4200 0.1550
v -0.1200 1.4200 0.1550
v -0.1600 1.5600 0.1850
v -0.1200 1.5600 0.1850
v -0.1600 1.5600 0.1550
v -0.1200 1.5600 0.1550
f 777 779 775 773
f 774 776 780 778
f 773 774 778 777
f 779 780 776 775
f 775 776 774 773
f 777 778 780 779
o Pack_Radio
usemtl Armor
v -0.1200 1.2600 -0.1350
v 0.1200 1.2600 -0.1350
v -0.1200 1.2600 -0.2350
v 0.1200 1.2600 -0.2350
v -0.1200 1.5200 -0.1350
v 0.1200 1.5200 -0.1350
v -0.1200 1.5200 -0.2350
v 0.1200 1.5200 -0.2350
f 785 787 783 781
f 782 784 788 786
f 781 782 786 785
f 787 788 784 783
f 783 784 782 781
f 785 786 788 787
o Pack_Radio_Antenna
usemtl Trim
v 0.0860 1.5200 -0.1850
v 0.0830 1.5200 -0.1902
v 0.0770 1.5200 -0.1902
v 0.0740 1.5200 -0.1850
v 0.0770 1.5200 -0.1798
v 0.0830 1.5200 -0.1798
v 0.0860 1.9500 -0.1850
v 0.0830 1.9500 -0.1902
v 0.0770 1.9500 -0.1902
v 0.0740 1.9500 -0.1850
v 0.0770 1.9500 -0.1798
v 0.0830 1.9500 -0.1798
f 789 790 796 795
f 790 791 797 796
f 791 792 798 797
f 792 793 799 798
f 793 794 800 799
f 794 789 795 800
f 794 793 792 791 790 789
f 795 796 797 798 799 800
