mtllib ship_XS_DARTER.mtl
o XS_DARTER_Hull-col
usemtl Hull
v -1.6000 -0.1500 4.6000
v 1.6000 -0.1500 4.6000
v -1.6000 -0.1500 -1.4000
v 1.6000 -0.1500 -1.4000
v -1.6000 0.0000 4.6000
v 1.6000 0.0000 4.6000
v -1.6000 0.0000 -1.4000
v 1.6000 0.0000 -1.4000
v -1.6000 2.1000 4.6000
v 1.6000 2.1000 4.6000
v -1.6000 2.1000 -1.4000
v 1.6000 2.1000 -1.4000
v -1.6000 2.3000 4.6000
v 1.6000 2.3000 4.6000
v -1.6000 2.3000 -1.4000
v 1.6000 2.3000 -1.4000
v -1.6000 0.0000 -1.4000
v 1.6000 0.0000 -1.4000
v -1.6000 0.0000 -1.5500
v 1.6000 0.0000 -1.5500
v -1.6000 2.1000 -1.4000
v 1.6000 2.1000 -1.4000
v -1.6000 2.1000 -1.5500
v 1.6000 2.1000 -1.5500
v -1.6000 0.0000 4.6000
v -1.4500 0.0000 4.6000
v -1.6000 0.0000 -1.4000
v -1.4500 0.0000 -1.4000
v -1.6000 2.1000 4.6000
v -1.4500 2.1000 4.6000
v -1.6000 2.1000 -1.4000
v -1.4500 2.1000 -1.4000
v 1.4500 0.0000 4.6000
v 1.6000 0.0000 4.6000
v 1.4500 0.0000 -1.4000
v 1.6000 0.0000 -1.4000
v 1.4500 2.1000 4.6000
v 1.6000 2.1000 4.6000
v 1.4500 2.1000 -1.4000
v 1.6000 2.1000 -1.4000
v -1.7500 -0.4000 -1.5500
v 1.7500 -0.4000 -1.5500
v -0.9000 -0.2000 -5.0000
v 0.9000 -0.2000 -5.0000
v -1.7500 2.6500 -1.5500
v 1.7500 2.6500 -1.5500
v -0.9000 1.3000 -5.0000
v 0.9000 1.3000 -5.0000
f 5 7 3 1
f 2 4 8 6
f 1 2 6 5
f 7 8 4 3
f 3 4 2 1
f 5 6 8 7
f 13 15 11 9
f 10 12 16 14
f 9 10 14 13
f 15 16 12 11
f 11 12 10 9
f 13 14 16 15
f 21 23 19 17
f 18 20 24 22
f 17 18 22 21
f 23 24 20 19
f 19 20 18 17
f 21 22 24 23
f 29 31 27 25
f 26 28 32 30
f 25 26 30 29
f 31 32 28 27
f 27 28 26 25
f 29 30 32 31
f 37 39 35 33
f 34 36 40 38
f 33 34 38 37
f 39 40 36 35
f 35 36 34 33
f 37 38 40 39
f 45 47 43 41
f 42 44 48 46
f 41 42 46 45
f 47 48 44 43
f 43 44 42 41
f 45 46 48 47
o XS_DARTER_Armor
usemtl Armor
v -1.7500 2.3000 4.6000
v 1.7500 2.3000 4.6000
v -1.7500 2.3000 -1.5500
v 1.7500 2.3000 -1.5500
v -1.3000 2.6500 4.6000
v 1.3000 2.6500 4.6000
v -1.3000 2.6500 -1.5500
v 1.3000 2.6500 -1.5500
v -1.3000 -0.4000 4.6000
v 1.3000 -0.4000 4.6000
v -1.3000 -0.4000 -1.5500
v 1.3000 -0.4000 -1.5500
v -1.7500 -0.1500 4.6000
v 1.7500 -0.1500 4.6000
v -1.7500 -0.1500 -1.5500
v 1.7500 -0.1500 -1.5500
v -1.8000 1.0500 3.7500
v -1.6000 1.0500 3.7500
v -1.8000 1.0500 3.0500
v -1.6000 1.0500 3.0500
v -1.8000 1.5500 3.7500
v -1.6000 1.5500 3.7500
v -1.8000 1.5500 3.0500
v -1.6000 1.5500 3.0500
v -1.8000 1.0500 -0.2500
v -1.6000 1.0500 -0.2500
v -1.8000 1.0500 -0.9500
v -1.6000 1.0500 -0.9500
v -1.8000 1.5500 -0.2500
v -1.6000 1.5500 -0.2500
v -1.8000 1.5500 -0.9500
v -1.6000 1.5500 -0.9500
v 1.6000 1.0500 3.7500
v 1.8000 1.0500 3.7500
v 1.6000 1.0500 3.0500
v 1.8000 1.0500 3.0500
v 1.6000 1.5500 3.7500
v 1.8000 1.5500 3.7500
v 1.6000 1.5500 3.0500
v 1.8000 1.5500 3.0500
v 1.6000 1.0500 -0.2500
v 1.8000 1.0500 -0.2500
v 1.6000 1.0500 -0.9500
v 1.8000 1.0500 -0.9500
v 1.6000 1.5500 -0.2500
v 1.8000 1.5500 -0.2500
v 1.6000 1.5500 -0.9500
v 1.8000 1.5500 -0.9500
f 53 55 51 49
f 50 52 56 54
f 49 50 54 53
f 55 56 52 51
f 51 52 50 49
f 53 54 56 55
f 61 63 59 57
f 58 60 64 62
f 57 58 62 61
f 63 64 60 59
f 59 60 58 57
f 61 62 64 63
f 69 71 67 65
f 66 68 72 70
f 65 66 70 69
f 71 72 68 67
f 67 68 66 65
f 69 70 72 71
f 77 79 75 73
f 74 76 80 78
f 73 74 78 77
f 79 80 76 75
f 75 76 74 73
f 77 78 80 79
f 85 87 83 81
f 82 84 88 86
f 81 82 86 85
f 87 88 84 83
f 83 84 82 81
f 85 86 88 87
f 93 95 91 89
f 90 92 96 94
f 89 90 94 93
f 95 96 92 91
f 91 92 90 89
f 93 94 96 95
o XS_DARTER_Trim
usemtl Trim
v -1.2500 -0.5500 4.0000
v -1.0000 -0.5500 4.0000
v -1.2500 -0.5500 -1.6000
v -1.0000 -0.5500 -1.6000
v -1.2500 -0.4000 4.0000
v -1.0000 -0.4000 4.0000
v -1.2500 -0.4000 -1.6000
v -1.0000 -0.4000 -1.6000
v 1.0000 -0.5500 4.0000
v 1.2500 -0.5500 4.0000
v 1.0000 -0.5500 -1.6000
v 1.2500 -0.5500 -1.6000
v 1.0000 -0.4000 4.0000
v 1.2500 -0.4000 4.0000
v 1.0000 -0.4000 -1.6000
v 1.2500 -0.4000 -1.6000
f 101 103 99 97
f 98 100 104 102
f 97 98 102 101
f 103 104 100 99
f 99 100 98 97
f 101 102 104 103
f 109 111 107 105
f 106 108 112 110
f 105 106 110 109
f 111 112 108 107
f 107 108 106 105
f 109 110 112 111
o XS_DARTER_Engines
usemtl Engine
v -1.7300 1.3000 4.3000
v -1.7772 1.5373 4.3000
v -1.9116 1.7384 4.3000
v -2.1127 1.8728 4.3000
v -2.3500 1.9200 4.3000
v -2.5873 1.8728 4.3000
v -2.7884 1.7384 4.3000
v -2.9228 1.5373 4.3000
v -2.9700 1.3000 4.3000
v -2.9228 1.0627 4.3000
v -2.7884 0.8616 4.3000
v -2.5873 0.7272 4.3000
v -2.3500 0.6800 4.3000
v -2.1127 0.7272 4.3000
v -1.9116 0.8616 4.3000
v -1.7772 1.0627 4.3000
v -1.7300 1.3000 2.5000
v -1.7772 1.5373 2.5000
v -1.9116 1.7384 2.5000
v -2.1127 1.8728 2.5000
v -2.3500 1.9200 2.5000
v -2.5873 1.8728 2.5000
v -2.7884 1.7384 2.5000
v -2.9228 1.5373 2.5000
v -2.9700 1.3000 2.5000
v -2.9228 1.0627 2.5000
v -2.7884 0.8616 2.5000
v -2.5873 0.7272 2.5000
v -2.3500 0.6800 2.5000
v -2.1127 0.7272 2.5000
v -1.9116 0.8616 2.5000
v -1.7772 1.0627 2.5000
v -1.7300 1.3000 0.3000
v -1.7772 1.5373 0.3000
v -1.9116 1.7384 0.3000
v -2.1127 1.8728 0.3000
v -2.3500 1.9200 0.3000
v -2.5873 1.8728 0.3000
v -2.7884 1.7384 0.3000
v -2.9228 1.5373 0.3000
v -2.9700 1.3000 0.3000
v -2.9228 1.0627 0.3000
v -2.7884 0.8616 0.3000
v -2.5873 0.7272 0.3000
v -2.3500 0.6800 0.3000
v -2.1127 0.7272 0.3000
v -1.9116 0.8616 0.3000
v -1.7772 1.0627 0.3000
v -1.7300 1.3000 -1.5000
v -1.7772 1.5373 -1.5000
v -1.9116 1.7384 -1.5000
v -2.1127 1.8728 -1.5000
v -2.3500 1.9200 -1.5000
v -2.5873 1.8728 -1.5000
v -2.7884 1.7384 -1.5000
v -2.9228 1.5373 -1.5000
v -2.9700 1.3000 -1.5000
v -2.9228 1.0627 -1.5000
v -2.7884 0.8616 -1.5000
v -2.5873 0.7272 -1.5000
v -2.3500 0.6800 -1.5000
v -2.1127 0.7272 -1.5000
v -1.9116 0.8616 -1.5000
v -1.7772 1.0627 -1.5000
v 2.9700 1.3000 4.3000
v 2.9228 1.5373 4.3000
v 2.7884 1.7384 4.3000
v 2.5873 1.8728 4.3000
v 2.3500 1.9200 4.3000
v 2.1127 1.8728 4.3000
v 1.9116 1.7384 4.3000
v 1.7772 1.5373 4.3000
v 1.7300 1.3000 4.3000
v 1.7772 1.0627 4.3000
v 1.9116 0.8616 4.3000
v 2.1127 0.7272 4.3000
v 2.3500 0.6800 4.3000
v 2.5873 0.7272 4.3000
v 2.7884 0.8616 4.3000
v 2.9228 1.0627 4.3000
v 2.9700 1.3000 2.5000
v 2.9228 1.5373 2.5000
v 2.7884 1.7384 2.5000
v 2.5873 1.8728 2.5000
v 2.3500 1.9200 2.5000
v 2.1127 1.8728 2.5000
v 1.9116 1.7384 2.5000
v 1.7772 1.5373 2.5000
v 1.7300 1.3000 2.5000
v 1.7772 1.0627 2.5000
v 1.9116 0.8616 2.5000
v 2.1127 0.7272 2.5000
v 2.3500 0.6800 2.5000
v 2.5873 0.7272 2.5000
v 2.7884 0.8616 2.5000
v 2.9228 1.0627 2.5000
v 2.9700 1.3000 0.3000
v 2.9228 1.5373 0.3000
v 2.7884 1.7384 0.3000
v 2.5873 1.8728 0.3000
v 2.3500 1.9200 0.3000
v 2.1127 1.8728 0.3000
v 1.9116 1.7384 0.3000
v 1.7772 1.5373 0.3000
v 1.7300 1.3000 0.3000
v 1.7772 1.0627 0.3000
v 1.9116 0.8616 0.3000
v 2.1127 0.7272 0.3000
v 2.3500 0.6800 0.3000
v 2.5873 0.7272 0.3000
v 2.7884 0.8616 0.3000
v 2.9228 1.0627 0.3000
v 2.9700 1.3000 -1.5000
v 2.9228 1.5373 -1.5000
v 2.7884 1.7384 -1.5000
v 2.5873 1.8728 -1.5000
v 2.3500 1.9200 -1.5000
v 2.1127 1.8728 -1.5000
v 1.9116 1.7384 -1.5000
v 1.7772 1.5373 -1.5000
v 1.7300 1.3000 -1.5000
v 1.7772 1.0627 -1.5000
v 1.9116 0.8616 -1.5000
v 2.1127 0.7272 -1.5000
v 2.3500 0.6800 -1.5000
v 2.5873 0.7272 -1.5000
v 2.7884 0.8616 -1.5000
v 2.9228 1.0627 -1.5000
f 129 130 114 113
f 130 131 115 114
f 131 132 116 115
f 132 133 117 116
f 133 134 118 117
f 134 135 119 118
f 135 136 120 119
f 136 137 121 120
f 137 138 122 121
f 138 139 123 122
f 139 140 124 123
f 140 141 125 124
f 141 142 126 125
f 142 143 127 126
f 143 144 128 127
f 144 129 113 128
f 113 114 115 116 117 118 119 120 121 122 123 124 125 126 127 128
f 144 143 142 141 140 139 138 137 136 135 134 133 132 131 130 129
f 161 162 146 145
f 162 163 147 146
f 163 164 148 147
f 164 165 149 148
f 165 166 150 149
f 166 167 151 150
f 167 168 152 151
f 168 169 153 152
f 169 170 154 153
f 170 171 155 154
f 171 172 156 155
f 172 173 157 156
f 173 174 158 157
f 174 175 159 158
f 175 176 160 159
f 176 161 145 160
f 145 146 147 148 149 150 151 152 153 154 155 156 157 158 159 160
f 176 175 174 173 172 171 170 169 168 167 166 165 164 163 162 161
f 193 194 178 177
f 194 195 179 178
f 195 196 180 179
f 196 197 181 180
f 197 198 182 181
f 198 199 183 182
f 199 200 184 183
f 200 201 185 184
f 201 202 186 185
f 202 203 187 186
f 203 204 188 187
f 204 205 189 188
f 205 206 190 189
f 206 207 191 190
f 207 208 192 191
f 208 193 177 192
f 177 178 179 180 181 182 183 184 185 186 187 188 189 190 191 192
f 208 207 206 205 204 203 202 201 200 199 198 197 196 195 194 193
f 225 226 210 209
f 226 227 211 210
f 227 228 212 211
f 228 229 213 212
f 229 230 214 213
f 230 231 215 214
f 231 232 216 215
f 232 233 217 216
f 233 234 218 217
f 234 235 219 218
f 235 236 220 219
f 236 237 221 220
f 237 238 222 221
f 238 239 223 222
f 239 240 224 223
f 240 225 209 224
f 209 210 211 212 213 214 215 216 217 218 219 220 221 222 223 224
f 240 239 238 237 236 235 234 233 232 231 230 229 228 227 226 225
o XS_DARTER_EngineGlow
usemtl EngineGlow
v -1.8700 1.3000 4.3500
v -1.9065 1.4837 4.3500
v -2.0106 1.6394 4.3500
v -2.1663 1.7435 4.3500
v -2.3500 1.7800 4.3500
v -2.5337 1.7435 4.3500
v -2.6894 1.6394 4.3500
v -2.7935 1.4837 4.3500
v -2.8300 1.3000 4.3500
v -2.7935 1.1163 4.3500
v -2.6894 0.9606 4.3500
v -2.5337 0.8565 4.3500
v -2.3500 0.8200 4.3500
v -2.1663 0.8565 4.3500
v -2.0106 0.9606 4.3500
v -1.9065 1.1163 4.3500
v -1.8700 1.3000 4.3000
v -1.9065 1.4837 4.3000
v -2.0106 1.6394 4.3000
v -2.1663 1.7435 4.3000
v -2.3500 1.7800 4.3000
v -2.5337 1.7435 4.3000
v -2.6894 1.6394 4.3000
v -2.7935 1.4837 4.3000
v -2.8300 1.3000 4.3000
v -2.7935 1.1163 4.3000
v -2.6894 0.9606 4.3000
v -2.5337 0.8565 4.3000
v -2.3500 0.8200 4.3000
v -2.1663 0.8565 4.3000
v -2.0106 0.9606 4.3000
v -1.9065 1.1163 4.3000
v -2.7000 0.6400 3.9000
v -2.0000 0.6400 3.9000
v -2.7000 0.6400 2.9000
v -2.0000 0.6400 2.9000
v -2.7000 0.6800 3.9000
v -2.0000 0.6800 3.9000
v -2.7000 0.6800 2.9000
v -2.0000 0.6800 2.9000
v -1.8700 1.3000 0.3500
v -1.9065 1.4837 0.3500
v -2.0106 1.6394 0.3500
v -2.1663 1.7435 0.3500
v -2.3500 1.7800 0.3500
v -2.5337 1.7435 0.3500
v -2.6894 1.6394 0.3500
v -2.7935 1.4837 0.3500
v -2.8300 1.3000 0.3500
v -2.7935 1.1163 0.3500
v -2.6894 0.9606 0.3500
v -2.5337 0.8565 0.3500
v -2.3500 0.8200 0.3500
v -2.1663 0.8565 0.3500
v -2.0106 0.9606 0.3500
v -1.9065 1.1163 0.3500
v -1.8700 1.3000 0.3000
v -1.9065 1.4837 0.3000
v -2.0106 1.6394 0.3000
v -2.1663 1.7435 0.3000
v -2.3500 1.7800 0.3000
v -2.5337 1.7435 0.3000
v -2.6894 1.6394 0.3000
v -2.7935 1.4837 0.3000
v -2.8300 1.3000 0.3000
v -2.7935 1.1163 0.3000
v -2.6894 0.9606 0.3000
v -2.5337 0.8565 0.3000
v -2.3500 0.8200 0.3000
v -2.1663 0.8565 0.3000
v -2.0106 0.9606 0.3000
v -1.9065 1.1163 0.3000
v -2.7000 0.6400 -0.1000
v -2.0000 0.6400 -0.1000
v -2.7000 0.6400 -1.1000
v -2.0000 0.6400 -1.1000
v -2.7000 0.6800 -0.1000
v -2.0000 0.6800 -0.1000
v -2.7000 0.6800 -1.1000
v -2.0000 0.6800 -1.1000
v 2.8300 1.3000 4.3500
v 2.7935 1.4837 4.3500
v 2.6894 1.6394 4.3500
v 2.5337 1.7435 4.3500
v 2.3500 1.7800 4.3500
v 2.1663 1.7435 4.3500
v 2.0106 1.6394 4.3500
v 1.9065 1.4837 4.3500
v 1.8700 1.3000 4.3500
v 1.9065 1.1163 4.3500
v 2.0106 0.9606 4.3500
v 2.1663 0.8565 4.3500
v 2.3500 0.8200 4.3500
v 2.5337 0.8565 4.3500
v 2.6894 0.9606 4.3500
v 2.7935 1.1163 4.3500
v 2.8300 1.3000 4.3000
v 2.7935 1.4837 4.3000
v 2.6894 1.6394 4.3000
v 2.5337 1.7435 4.3000
v 2.3500 1.7800 4.3000
v 2.1663 1.7435 4.3000
v 2.0106 1.6394 4.3000
v 1.9065 1.4837 4.3000
v 1.8700 1.3000 4.3000
v 1.9065 1.1163 4.3000
v 2.0106 0.9606 4.3000
v 2.1663 0.8565 4.3000
v 2.3500 0.8200 4.3000
v 2.5337 0.8565 4.3000
v 2.6894 0.9606 4.3000
v 2.7935 1.1163 4.3000
v 2.0000 0.6400 3.9000
v 2.7000 0.6400 3.9000
v 2.0000 0.6400 2.9000
v 2.7000 0.6400 2.9000
v 2.0000 0.6800 3.9000
v 2.7000 0.6800 3.9000
v 2.0000 0.6800 2.9000
v 2.7000 0.6800 2.9000
v 2.8300 1.3000 0.3500
v 2.7935 1.4837 0.3500
v 2.6894 1.6394 0.3500
v 2.5337 1.7435 0.3500
v 2.3500 1.7800 0.3500
v 2.1663 1.7435 0.3500
v 2.0106 1.6394 0.3500
v 1.9065 1.4837 0.3500
v 1.8700 1.3000 0.3500
v 1.9065 1.1163 0.3500
v 2.0106 0.9606 0.3500
v 2.1663 0.8565 0.3500
v 2.3500 0.8200 0.3500
v 2.5337 0.8565 0.3500
v 2.6894 0.9606 0.3500
v 2.7935 1.1163 0.3500
v 2.8300 1.3000 0.3000
v 2.7935 1.4837 0.3000
v 2.6894 1.6394 0.3000
v 2.5337 1.7435 0.3000
v 2.3500 1.7800 0.3000
v 2.1663 1.7435 0.3000
v 2.0106 1.6394 0.3000
v 1.9065 1.4837 0.3000
v 1.8700 1.3000 0.3000
v 1.9065 1.1163 0.3000
v 2.0106 0.9606 0.3000
v 2.1663 0.8565 0.3000
v 2.3500 0.8200 0.3000
v 2.5337 0.8565 0.3000
v 2.6894 0.9606 0.3000
v 2.7935 1.1163 0.3000
v 2.0000 0.6400 -0.1000
v 2.7000 0.6400 -0.1000
v 2.0000 0.6400 -1.1000
v 2.7000 0.6400 -1.1000
v 2.0000 0.6800 -0.1000
v 2.7000 0.6800 -0.1000
v 2.0000 0.6800 -1.1000
v 2.7000 0.6800 -1.1000
f 257 258 242 241
f 258 259 243 242
f 259 260 244 243
f 260 261 245 244
f 261 262 246 245
f 262 263 247 246
f 263 264 248 247
f 264 265 249 248
f 265 266 250 249
f 266 267 251 250
f 267 268 252 251
f 268 269 253 252
f 269 270 254 253
f 270 271 255 254
f 271 272 256 255
f 272 257 241 256
f 241 242 243 244 245 246 247 248 249 250 251 252 253 254 255 256
f 272 271 270 269 268 267 266 265 264 263 262 261 260 259 258 257
f 277 279 275 273
f 274 276 280 278
f 273 274 278 277
f 279 280 276 275
f 275 276 274 273
f 277 278 280 279
f 297 298 282 281
f 298 299 283 282
f 299 300 284 283
f 300 301 285 284
f 301 302 286 285
f 302 303 287 286
f 303 304 288 287
f 304 305 289 288
f 305 306 290 289
f 306 307 291 290
f 307 308 292 291
f 308 309 293 292
f 309 310 294 293
f 310 311 295 294
f 311 312 296 295
f 312 297 281 296
f 281 282 283 284 285 286 287 288 289 290 291 292 293 294 295 296
f 312 311 310 309 308 307 306 305 304 303 302 301 300 299 298 297
f 317 319 315 313
f 314 316 320 318
f 313 314 318 317
f 319 320 316 315
f 315 316 314 313
f 317 318 320 319
f 337 338 322 321
f 338 339 323 322
f 339 340 324 323
f 340 341 325 324
f 341 342 326 325
f 342 343 327 326
f 343 344 328 327
f 344 345 329 328
f 345 346 330 329
f 346 347 331 330
f 347 348 332 331
f 348 349 333 332
f 349 350 334 333
f 350 351 335 334
f 351 352 336 335
f 352 337 321 336
f 321 322 323 324 325 326 327 328 329 330 331 332 333 334 335 336
f 352 351 350 349 348 347 346 345 344 343 342 341 340 339 338 337
f 357 359 355 353
f 354 356 360 358
f 353 354 358 357
f 359 360 356 355
f 355 356 354 353
f 357 358 360 359
f 377 378 362 361
f 378 379 363 362
f 379 380 364 363
f 380 381 365 364
f 381 382 366 365
f 382 383 367 366
f 383 384 368 367
f 384 385 369 368
f 385 386 370 369
f 386 387 371 370
f 387 388 372 371
f 388 389 373 372
f 389 390 374 373
f 390 391 375 374
f 391 392 376 375
f 392 377 361 376
f 361 362 363 364 365 366 367 368 369 370 371 372 373 374 375 376
f 392 391 390 389 388 387 386 385 384 383 382 381 380 379 378 377
f 397 399 395 393
f 394 396 400 398
f 393 394 398 397
f 399 400 396 395
f 395 396 394 393
f 397 398 400 399
o XS_DARTER_Glass-col
usemtl Glass
v -1.3000 1.9000 -2.0000
v 1.3000 1.9000 -2.0000
v -0.7500 1.3000 -3.9000
v 0.7500 1.3000 -3.9000
v -1.3000 2.6000 -2.0000
v 1.3000 2.6000 -2.0000
v -0.7500 1.7500 -3.9000
v 0.7500 1.7500 -3.9000
f 405 407 403 401
f 402 404 408 406
f 401 402 406 405
f 407 408 404 403
f 403 404 402 401
f 405 406 408 407
o XS_DARTER_Lights
usemtl Lights
v -1.6300 0.3000 4.4000
v -1.6000 0.3000 4.4000
v -1.6300 0.3000 4.2000
v -1.6000 0.3000 4.2000
v -1.6300 1.8000 4.4000
v -1.6000 1.8000 4.4000
v -1.6300 1.8000 4.2000
v -1.6000 1.8000 4.2000
v 1.6000 0.3000 4.4000
v 1.6300 0.3000 4.4000
v 1.6000 0.3000 4.2000
v 1.6300 0.3000 4.2000
v 1.6000 1.8000 4.4000
v 1.6300 1.8000 4.4000
v 1.6000 1.8000 4.2000
v 1.6300 1.8000 4.2000
f 413 415 411 409
f 410 412 416 414
f 409 410 414 413
f 415 416 412 411
f 411 412 410 409
f 413 414 416 415
f 421 423 419 417
f 418 420 424 422
f 417 418 422 421
f 423 424 420 419
f 419 420 418 417
f 421 422 424 423
o XS_DARTER_Interior-col
usemtl Cover
v -1.4500 0.0000 4.2000
v -1.0000 0.0000 4.2000
v -1.4500 0.0000 1.6000
v -1.0000 0.0000 1.6000
v -1.4500 0.4500 4.2000
v -1.0000 0.4500 4.2000
v -1.4500 0.4500 1.6000
v -1.0000 0.4500 1.6000
v 1.0000 0.0000 4.2000
v 1.4500 0.0000 4.2000
v 1.0000 0.0000 1.6000
v 1.4500 0.0000 1.6000
v 1.0000 0.4500 4.2000
v 1.4500 0.4500 4.2000
v 1.0000 0.4500 1.6000
v 1.4500 0.4500 1.6000
f 429 431 427 425
f 426 428 432 430
f 425 426 430 429
f 431 432 428 427
f 427 428 426 425
f 429 430 432 431
f 437 439 435 433
f 434 436 440 438
f 433 434 438 437
f 439 440 436 435
f 435 436 434 433
f 437 438 440 439
o XS_DARTER_Hazard
usemtl Hazard
v -1.1000 0.0000 1.2200
v -0.1000 0.0000 1.2200
v -1.1000 0.0000 1.2000
v -0.1000 0.0000 1.2000
v -1.1000 0.0200 1.2200
v -0.1000 0.0200 1.2200
v -1.1000 0.0200 1.2000
v -0.1000 0.0200 1.2000
v 0.1000 0.0000 1.2200
v 1.1000 0.0000 1.2200
v 0.1000 0.0000 1.2000
v 1.1000 0.0000 1.2000
v 0.1000 0.0200 1.2200
v 1.1000 0.0200 1.2200
v 0.1000 0.0200 1.2000
v 1.1000 0.0200 1.2000
v -1.1000 0.0000 0.0200
v -0.1000 0.0000 0.0200
v -1.1000 0.0000 -0.0000
v -0.1000 0.0000 -0.0000
v -1.1000 0.0200 0.0200
v -0.1000 0.0200 0.0200
v -1.1000 0.0200 -0.0000
v -0.1000 0.0200 -0.0000
v 0.1000 0.0000 0.0200
v 1.1000 0.0000 0.0200
v 0.1000 0.0000 -0.0000
v 1.1000 0.0000 -0.0000
v 0.1000 0.0200 0.0200
v 1.1000 0.0200 0.0200
v 0.1000 0.0200 -0.0000
v 1.1000 0.0200 -0.0000
f 445 447 443 441
f 442 444 448 446
f 441 442 446 445
f 447 448 444 443
f 443 444 442 441
f 445 446 448 447
f 453 455 451 449
f 450 452 456 454
f 449 450 454 453
f 455 456 452 451
f 451 452 450 449
f 453 454 456 455
f 461 463 459 457
f 458 460 464 462
f 457 458 462 461
f 463 464 460 459
f 459 460 458 457
f 461 462 464 463
f 469 471 467 465
f 466 468 472 470
f 465 466 470 469
f 471 472 468 467
f 467 468 466 465
f 469 470 472 471
o XS_DARTER_Ramp-col
usemtl Hull
v -1.4500 0.0000 4.7200
v 1.4500 0.0000 4.7200
v -1.4500 0.0000 4.6000
v 1.4500 0.0000 4.6000
v -1.4500 2.1000 4.7200
v 1.4500 2.1000 4.7200
v -1.4500 2.1000 4.6000
v 1.4500 2.1000 4.6000
f 477 479 475 473
f 474 476 480 478
f 473 474 478 477
f 479 480 476 475
f 475 476 474 473
f 477 478 480 479
