mtllib ship_XS_MINING_DRONE.mtl
o XS_MINING_DRONE_Hull-col
usemtl Armor
v -0.5000 -0.2500 0.6000
v 0.5000 -0.2500 0.6000
v -0.5000 -0.2500 -0.6000
v 0.5000 -0.2500 -0.6000
v -0.5000 0.2500 0.6000
v 0.5000 0.2500 0.6000
v -0.5000 0.2500 -0.6000
v 0.5000 0.2500 -0.6000
f 5 7 3 1
f 2 4 8 6
f 1 2 6 5
f 7 8 4 3
f 3 4 2 1
f 5 6 8 7
o XS_MINING_DRONE_Trim
usemtl Trim
v -0.3500 -0.5500 0.5000
v 0.3500 -0.5500 0.5000
v -0.3500 -0.5500 -0.0000
v 0.3500 -0.5500 -0.0000
v -0.3500 -0.2500 0.5000
v 0.3500 -0.2500 0.5000
v -0.3500 -0.2500 -0.0000
v 0.3500 -0.2500 -0.0000
v -0.8500 -0.0500 0.8500
v -0.4500 -0.0500 0.8500
v -0.8500 -0.0500 0.4500
v -0.4500 -0.0500 0.4500
v -0.8500 0.0500 0.8500
v -0.4500 0.0500 0.8500
v -0.8500 0.0500 0.4500
v -0.4500 0.0500 0.4500
v -0.8500 -0.0500 -0.4500
v -0.4500 -0.0500 -0.4500
v -0.8500 -0.0500 -0.8500
v -0.4500 -0.0500 -0.8500
v -0.8500 0.0500 -0.4500
v -0.4500 0.0500 -0.4500
v -0.8500 0.0500 -0.8500
v -0.4500 0.0500 -0.8500
v 0.4500 -0.0500 0.8500
v 0.8500 -0.0500 0.8500
v 0.4500 -0.0500 0.4500
v 0.8500 -0.0500 0.4500
v 0.4500 0.0500 0.8500
v 0.8500 0.0500 0.8500
v 0.4500 0.0500 0.4500
v 0.8500 0.0500 0.4500
v 0.4500 -0.0500 -0.4500
v 0.8500 -0.0500 -0.4500
v 0.4500 -0.0500 -0.8500
v 0.8500 -0.0500 -0.8500
v 0.4500 0.0500 -0.4500
v 0.8500 0.0500 -0.4500
v 0.4500 0.0500 -0.8500
v 0.8500 0.0500 -0.8500
f 13 15 11 9
f 10 12 16 14
f 9 10 14 13
f 15 16 12 11
f 11 12 10 9
f 13 14 16 15
f 21 23 19 17
f 18 20 24 22
f 17 18 22 21
f 23 24 20 19
f 19 20 18 17
f 21 22 24 23
f 29 31 27 25
f 26 28 32 30
f 25 26 30 29
f 31 32 28 27
f 27 28 26 25
f 29 30 32 31
f 37 39 35 33
f 34 36 40 38
f 33 34 38 37
f 39 40 36 35
f 35 36 34 33
f 37 38 40 39
f 45 47 43 41
f 42 44 48 46
f 41 42 46 45
f 47 48 44 43
f 43 44 42 41
f 45 46 48 47
o XS_MINING_DRONE_Engine
usemtl Engine
v -0.0600 -0.4500 -0.2000
v 0.0600 -0.4500 -0.2000
v -0.0600 -0.4500 -0.9000
v 0.0600 -0.4500 -0.9000
v -0.0600 -0.3000 -0.2000
v 0.0600 -0.3000 -0.2000
v -0.0600 -0.3000 -0.9000
v 0.0600 -0.3000 -0.9000
v -0.5700 -0.1500 0.8500
v -0.6235 -0.1500 0.6854
v -0.7635 -0.1500 0.5837
v -0.9365 -0.1500 0.5837
v -1.0765 -0.1500 0.6854
v -1.1300 -0.1500 0.8500
v -1.0765 -0.1500 1.0146
v -0.9365 -0.1500 1.1163
v -0.7635 -0.1500 1.1163
v -0.6235 -0.1500 1.0146
v -0.5700 0.1500 0.8500
v -0.6235 0.1500 0.6854
v -0.7635 0.1500 0.5837
v -0.9365 0.1500 0.5837
v -1.0765 0.1500 0.6854
v -1.1300 0.1500 0.8500
v -1.0765 0.1500 1.0146
v -0.9365 0.1500 1.1163
v -0.7635 0.1500 1.1163
v -0.6235 0.1500 1.0146
v -0.5700 -0.1500 -0.8500
v -0.6235 -0.1500 -1.0146
v -0.7635 -0.1500 -1.1163
v -0.9365 -0.1500 -1.1163
v -1.0765 -0.1500 -1.0146
v -1.1300 -0.1500 -0.8500
v -1.0765 -0.1500 -0.6854
v -0.9365 -0.1500 -0.5837
v -0.7635 -0.1500 -0.5837
v -0.6235 -0.1500 -0.6854
v -0.5700 0.1500 -0.8500
v -0.6235 0.1500 -1.0146
v -0.7635 0.1500 -1.1163
v -0.9365 0.1500 -1.1163
v -1.0765 0.1500 -1.0146
v -1.1300 0.1500 -0.8500
v -1.0765 0.1500 -0.6854
v -0.9365 0.1500 -0.5837
v -0.7635 0.1500 -0.5837
v -0.6235 0.1500 -0.6854
v 1.1300 -0.1500 0.8500
v 1.0765 -0.1500 0.6854
v 0.9365 -0.1500 0.5837
v 0.7635 -0.1500 0.5837
v 0.6235 -0.1500 0.6854
v 0.5700 -0.1500 0.8500
v 0.6235 -0.1500 1.0146
v 0.7635 -0.1500 1.1163
v 0.9365 -0.1500 1.1163
v 1.0765 -0.1500 1.0146
v 1.1300 0.1500 0.8500
v 1.0765 0.1500 0.6854
v 0.9365 0.1500 0.5837
v 0.7635 0.1500 0.5837
v 0.6235 0.1500 0.6854
v 0.5700 0.1500 0.8500
v 0.6235 0.1500 1.0146
v 0.7635 0.1500 1.1163
v 0.9365 0.1500 1.1163
v 1.0765 0.1500 1.0146
v 1.1300 -0.1500 -0.8500
v 1.0765 -0.1500 -1.0146
v 0.9365 -0.1500 -1.1163
v 0.7635 -0.1500 -1.1163
v 0.6235 -0.1500 -1.0146
v 0.5700 -0.1500 -0.8500
v 0.6235 -0.1500 -0.6854
v 0.7635 -0.1500 -0.5837
v 0.9365 -0.1500 -0.5837
v 1.0765 -0.1500 -0.6854
v 1.1300 0.1500 -0.8500
v 1.0765 0.1500 -1.0146
v 0.9365 0.1500 -1.1163
v 0.7635 0.1500 -1.1163
v 0.6235 0.1500 -1.0146
v 0.5700 0.1500 -0.8500
v 0.6235 0.1500 -0.6854
v 0.7635 0.1500 -0.5837
v 0.9365 0.1500 -0.5837
v 1.0765 0.1500 -0.6854
f 53 55 51 49
f 50 52 56 54
f 49 50 54 53
f 55 56 52 51
f 51 52 50 49
f 53 54 56 55
f 57 58 68 67
f 58 59 69 68
f 59 60 70 69
f 60 61 71 70
f 61 62 72 71
f 62 63 73 72
f 63 64 74 73
f 64 65 75 74
f 65 66 76 75
f 66 57 67 76
f 66 65 64 63 62 61 60 59 58 57
f 67 68 69 70 71 72 73 74 75 76
f 77 78 88 87
f 78 79 89 88
f 79 80 90 89
f 80 81 91 90
f 81 82 92 91
f 82 83 93 92
f 83 84 94 93
f 84 85 95 94
f 85 86 96 95
f 86 77 87 96
f 86 85 84 83 82 81 80 79 78 77
f 87 88 89 90 91 92 93 94 95 96
f 97 98 108 107
f 98 99 109 108
f 99 100 110 109
f 100 101 111 110
f 101 102 112 111
f 102 103 113 112
f 103 104 114 113
f 104 105 115 114
f 105 106 116 115
f 106 97 107 116
f 106 105 104 103 102 101 100 99 98 97
f 107 108 109 110 111 112 113 114 115 116
f 117 118 128 127
f 118 119 129 128
f 119 120 130 129
f 120 121 131 130
f 121 122 132 131
f 122 123 133 132
f 123 124 134 133
f 124 125 135 134
f 125 126 136 135
f 126 117 127 136
f 126 125 124 123 122 121 120 119 118 117
f 127 128 129 130 131 132 133 134 135 136
o XS_MINING_DRONE_EngineGlow
usemtl EngineGlow
v -0.0500 -0.4400 -0.9000
v 0.0500 -0.4400 -0.9000
v -0.0500 -0.4400 -0.9500
v 0.0500 -0.4400 -0.9500
v -0.0500 -0.3100 -0.9000
v 0.0500 -0.3100 -0.9000
v -0.0500 -0.3100 -0.9500
v 0.0500 -0.3100 -0.9500
v -0.6500 -0.2000 0.8500
v -0.6882 -0.2000 0.7324
v -0.7882 -0.2000 0.6598
v -0.9118 -0.2000 0.6598
v -1.0118 -0.2000 0.7324
v -1.0500 -0.2000 0.8500
v -1.0118 -0.2000 0.9676
v -0.9118 -0.2000 1.0402
v -0.7882 -0.2000 1.0402
v -0.6882 -0.2000 0.9676
v -0.6500 -0.1500 0.8500
v -0.6882 -0.1500 0.7324
v -0.7882 -0.1500 0.6598
v -0.9118 -0.1500 0.6598
v -1.0118 -0.1500 0.7324
v -1.0500 -0.1500 0.8500
v -1.0118 -0.1500 0.9676
v -0.9118 -0.1500 1.0402
v -0.7882 -0.1500 1.0402
v -0.6882 -0.1500 0.9676
v -0.6500 -0.2000 -0.8500
v -0.6882 -0.2000 -0.9676
v -0.7882 -0.2000 -1.0402
v -0.9118 -0.2000 -1.0402
v -1.0118 -0.2000 -0.9676
v -1.0500 -0.2000 -0.8500
v -1.0118 -0.2000 -0.7324
v -0.9118 -0.2000 -0.6598
v -0.7882 -0.2000 -0.6598
v -0.6882 -0.2000 -0.7324
v -0.6500 -0.1500 -0.8500
v -0.6882 -0.1500 -0.9676
v -0.7882 -0.1500 -1.0402
v -0.9118 -0.1500 -1.0402
v -1.0118 -0.1500 -0.9676
v -1.0500 -0.1500 -0.8500
v -1.0118 -0.1500 -0.7324
v -0.9118 -0.1500 -0.6598
v -0.7882 -0.1500 -0.6598
v -0.6882 -0.1500 -0.7324
v 1.0500 -0.2000 0.8500
v 1.0118 -0.2000 0.7324
v 0.9118 -0.2000 0.6598
v 0.7882 -0.2000 0.6598
v 0.6882 -0.2000 0.7324
v 0.6500 -0.2000 0.8500
v 0.6882 -0.2000 0.9676
v 0.7882 -0.2000 1.0402
v 0.9118 -0.2000 1.0402
v 1.0118 -0.2000 0.9676
v 1.0500 -0.1500 0.8500
v 1.0118 -0.1500 0.7324
v 0.9118 -0.1500 0.6598
v 0.7882 -0.1500 0.6598
v 0.6882 -0.1500 0.7324
v 0.6500 -0.1500 0.8500
v 0.6882 -0.1500 0.9676
v 0.7882 -0.1500 1.0402
v 0.9118 -0.1500 1.0402
v 1.0118 -0.1500 0.9676
v 1.0500 -0.2000 -0.8500
v 1.0118 -0.2000 -0.9676
v 0.9118 -0.2000 -1.0402
v 0.7882 -0.2000 -1.0402
v 0.6882 -0.2000 -0.9676
v 0.6500 -0.2000 -0.8500
v 0.6882 -0.2000 -0.7324
v 0.7882 -0.2000 -0.6598
v 0.9118 -0.2000 -0.6598
v 1.0118 -0.2000 -0.7324
v 1.0500 -0.1500 -0.8500
v 1.0118 -0.1500 -0.9676
v 0.9118 -0.1500 -1.0402
v 0.7882 -0.1500 -1.0402
v 0.6882 -0.1500 -0.9676
v 0.6500 -0.1500 -0.8500
v 0.6882 -0.1500 -0.7324
v 0.7882 -0.1500 -0.6598
v 0.9118 -0.1500 -0.6598
v 1.0118 -0.1500 -0.7324
f 141 143 139 137
f 138 140 144 142
f 137 138 142 141
f 143 144 140 139
f 139 140 138 137
f 141 142 144 143
f 145 146 156 155
f 146 147 157 156
f 147 148 158 157
f 148 149 159 158
f 149 150 160 159
f 150 151 161 160
f 151 152 162 161
f 152 153 163 162
f 153 154 164 163
f 154 145 155 164
f 154 153 152 151 150 149 148 147 146 145
f 155 156 157 158 159 160 161 162 163 164
f 165 166 176 175
f 166 167 177 176
f 167 168 178 177
f 168 169 179 178
f 169 170 180 179
f 170 171 181 180
f 171 172 182 181
f 172 173 183 182
f 173 174 184 183
f 174 165 175 184
f 174 173 172 171 170 169 168 167 166 165
f 175 176 177 178 179 180 181 182 183 184
f 185 186 196 195
f 186 187 197 196
f 187 188 198 197
f 188 189 199 198
f 189 190 200 199
f 190 191 201 200
f 191 192 202 201
f 192 193 203 202
f 193 194 204 203
f 194 185 195 204
f 194 193 192 191 190 189 188 187 186 185
f 195 196 197 198 199 200 201 202 203 204
f 205 206 216 215
f 206 207 217 216
f 207 208 218 217
f 208 209 219 218
f 209 210 220 219
f 210 211 221 220
f 211 212 222 221
f 212 213 223 222
f 213 214 224 223
f 214 205 215 224
f 214 213 212 211 210 209 208 207 206 205
f 215 216 217 218 219 220 221 222 223 224
o XS_MINING_DRONE_Lights
usemtl Lights
v -0.1500 0.0000 -0.6000
v 0.1500 0.0000 -0.6000
v -0.1500 0.0000 -0.6200
v 0.1500 0.0000 -0.6200
v -0.1500 0.1000 -0.6000
v 0.1500 0.1000 -0.6000
v -0.1500 0.1000 -0.6200
v 0.1500 0.1000 -0.6200
f 229 231 227 225
f 226 228 232 230
f 225 226 230 229
f 231 232 228 227
f 227 228 226 225
f 229 230 232 231
