mtllib ship_XS_MINER.mtl
o XS_MINER_Hull-col
usemtl Hull
v -2.4000 -1.6000 6.0000
v 2.4000 -1.6000 6.0000
v -2.4000 -1.6000 -3.0000
v 2.4000 -1.6000 -3.0000
v -2.4000 1.6000 6.0000
v 2.4000 1.6000 6.0000
v -2.4000 1.6000 -3.0000
v 2.4000 1.6000 -3.0000
v -1.8000 -1.2000 -3.0000
v 1.8000 -1.2000 -3.0000
v -0.8000 -0.6000 -7.5000
v 0.8000 -0.6000 -7.5000
v -1.8000 1.4000 -3.0000
v 1.8000 1.4000 -3.0000
v -0.8000 0.6000 -7.5000
v 0.8000 0.6000 -7.5000
f 5 7 3 1
f 2 4 8 6
f 1 2 6 5
f 7 8 4 3
f 3 4 2 1
f 5 6 8 7
f 13 15 11 9
f 10 12 16 14
f 9 10 14 13
f 15 16 12 11
f 11 12 10 9
f 13 14 16 15
o XS_MINER_Armor
usemtl Armor
v -2.6000 -1.3000 5.6000
v -2.4000 -1.3000 5.6000
v -2.6000 -1.3000 -2.6000
v -2.4000 -1.3000 -2.6000
v -2.6000 -0.2000 5.6000
v -2.4000 -0.2000 5.6000
v -2.6000 -0.2000 -2.6000
v -2.4000 -0.2000 -2.6000
v 2.4000 -1.3000 5.6000
v 2.6000 -1.3000 5.6000
v 2.4000 -1.3000 -2.6000
v 2.6000 -1.3000 -2.6000
v 2.4000 -0.2000 5.6000
v 2.6000 -0.2000 5.6000
v 2.4000 -0.2000 -2.6000
v 2.6000 -0.2000 -2.6000
f 21 23 19 17
f 18 20 24 22
f 17 18 22 21
f 23 24 20 19
f 19 20 18 17
f 21 22 24 23
f 29 31 27 25
f 26 28 32 30
f 25 26 30 29
f 31 32 28 27
f 27 28 26 25
f 29 30 32 31
o XS_MINER_Trim
usemtl Trim
v -3.5400 0.2500 5.0000
v -2.4000 0.2500 5.0000
v -3.5400 0.2500 3.0000
v -2.4000 0.2500 3.0000
v -3.5400 0.4500 5.0000
v -2.4000 0.4500 5.0000
v -3.5400 0.4500 3.0000
v -2.4000 0.4500 3.0000
v -2.5000 -0.6000 5.0000
v -2.4000 -0.6000 5.0000
v -2.5000 -0.6000 3.0000
v -2.4000 -0.6000 3.0000
v -2.5000 0.4500 5.0000
v -2.4000 0.4500 5.0000
v -2.5000 0.4500 3.0000
v -2.4000 0.4500 3.0000
v -3.5400 0.2500 1.8000
v -2.4000 0.2500 1.8000
v -3.5400 0.2500 -0.2000
v -2.4000 0.2500 -0.2000
v -3.5400 0.4500 1.8000
v -2.4000 0.4500 1.8000
v -3.5400 0.4500 -0.2000
v -2.4000 0.4500 -0.2000
v -2.5000 -0.6000 1.8000
v -2.4000 -0.6000 1.8000
v -2.5000 -0.6000 -0.2000
v -2.4000 -0.6000 -0.2000
v -2.5000 0.4500 1.8000
v -2.4000 0.4500 1.8000
v -2.5000 0.4500 -0.2000
v -2.4000 0.4500 -0.2000
v 2.4000 0.2500 5.0000
v 3.5400 0.2500 5.0000
v 2.4000 0.2500 3.0000
v 3.5400 0.2500 3.0000
v 2.4000 0.4500 5.0000
v 3.5400 0.4500 5.0000
v 2.4000 0.4500 3.0000
v 3.5400 0.4500 3.0000
v 2.4000 -0.6000 5.0000
v 2.5000 -0.6000 5.0000
v 2.4000 -0.6000 3.0000
v 2.5000 -0.6000 3.0000
v 2.4000 0.4500 5.0000
v 2.5000 0.4500 5.0000
v 2.4000 0.4500 3.0000
v 2.5000 0.4500 3.0000
v 2.4000 0.2500 1.8000
v 3.5400 0.2500 1.8000
v 2.4000 0.2500 -0.2000
v 3.5400 0.2500 -0.2000
v 2.4000 0.4500 1.8000
v 3.5400 0.4500 1.8000
v 2.4000 0.4500 -0.2000
v 3.5400 0.4500 -0.2000
v 2.4000 -0.6000 1.8000
v 2.5000 -0.6000 1.8000
v 2.4000 -0.6000 -0.2000
v 2.5000 -0.6000 -0.2000
v 2.4000 0.4500 1.8000
v 2.5000 0.4500 1.8000
v 2.4000 0.4500 -0.2000
v 2.5000 0.4500 -0.2000
f 37 39 35 33
f 34 36 40 38
f 33 34 38 37
f 39 40 36 35
f 35 36 34 33
f 37 38 40 39
f 45 47 43 41
f 42 44 48 46
f 41 42 46 45
f 47 48 44 43
f 43 44 42 41
f 45 46 48 47
f 53 55 51 49
f 50 52 56 54
f 49 50 54 53
f 55 56 52 51
f 51 52 50 49
f 53 54 56 55
f 61 63 59 57
f 58 60 64 62
f 57 58 62 61
f 63 64 60 59
f 59 60 58 57
f 61 62 64 63
f 69 71 67 65
f 66 68 72 70
f 65 66 70 69
f 71 72 68 67
f 67 68 66 65
f 69 70 72 71
f 77 79 75 73
f 74 76 80 78
f 73 74 78 77
f 79 80 76 75
f 75 76 74 73
f 77 78 80 79
f 85 87 83 81
f 82 84 88 86
f 81 82 86 85
f 87 88 84 83
f 83 84 82 81
f 85 86 88 87
f 93 95 91 89
f 90 92 96 94
f 89 90 94 93
f 95 96 92 91
f 91 92 90 89
f 93 94 96 95
o XS_MINER_Engines
usemtl Engine
v -0.6000 -2.0000 2.0000
v 0.6000 -2.0000 2.0000
v -0.6000 -2.0000 -0.0000
v 0.6000 -2.0000 -0.0000
v -0.6000 -1.6000 2.0000
v 0.6000 -1.6000 2.0000
v -0.6000 -1.6000 -0.0000
v 0.6000 -1.6000 -0.0000
v -2.0000 -1.2000 7.0000
v 2.0000 -1.2000 7.0000
v -2.0000 -1.2000 6.0000
v 2.0000 -1.2000 6.0000
v -2.0000 1.2000 7.0000
v 2.0000 1.2000 7.0000
v -2.0000 1.2000 6.0000
v 2.0000 1.2000 6.0000
v -0.2000 0.0000 7.8000
v -0.2609 0.3061 7.8000
v -0.4343 0.5657 7.8000
v -0.6939 0.7391 7.8000
v -1.0000 0.8000 7.8000
v -1.3061 0.7391 7.8000
v -1.5657 0.5657 7.8000
v -1.7391 0.3061 7.8000
v -1.8000 0.0000 7.8000
v -1.7391 -0.3061 7.8000
v -1.5657 -0.5657 7.8000
v -1.3061 -0.7391 7.8000
v -1.0000 -0.8000 7.8000
v -0.6939 -0.7391 7.8000
v -0.4343 -0.5657 7.8000
v -0.2609 -0.3061 7.8000
v -0.2000 0.0000 7.0000
v -0.2609 0.3061 7.0000
v -0.4343 0.5657 7.0000
v -0.6939 0.7391 7.0000
v -1.0000 0.8000 7.0000
v -1.3061 0.7391 7.0000
v -1.5657 0.5657 7.0000
v -1.7391 0.3061 7.0000
v -1.8000 0.0000 7.0000
v -1.7391 -0.3061 7.0000
v -1.5657 -0.5657 7.0000
v -1.3061 -0.7391 7.0000
v -1.0000 -0.8000 7.0000
v -0.6939 -0.7391 7.0000
v -0.4343 -0.5657 7.0000
v -0.2609 -0.3061 7.0000
v 1.8000 0.0000 7.8000
v 1.7391 0.3061 7.8000
v 1.5657 0.5657 7.8000
v 1.3061 0.7391 7.8000
v 1.0000 0.8000 7.8000
v 0.6939 0.7391 7.8000
v 0.4343 0.5657 7.8000
v 0.2609 0.3061 7.8000
v 0.2000 0.0000 7.8000
v 0.2609 -0.3061 7.8000
v 0.4343 -0.5657 7.8000
v 0.6939 -0.7391 7.8000
v 1.0000 -0.8000 7.8000
v 1.3061 -0.7391 7.8000
v 1.5657 -0.5657 7.8000
v 1.7391 -0.3061 7.8000
v 1.8000 0.0000 7.0000
v 1.7391 0.3061 7.0000
v 1.5657 0.5657 7.0000
v 1.3061 0.7391 7.0000
v 1.0000 0.8000 7.0000
v 0.6939 0.7391 7.0000
v 0.4343 0.5657 7.0000
v 0.2609 0.3061 7.0000
v 0.2000 0.0000 7.0000
v 0.2609 -0.3061 7.0000
v 0.4343 -0.5657 7.0000
v 0.6939 -0.7391 7.0000
v 1.0000 -0.8000 7.0000
v 1.3061 -0.7391 7.0000
v 1.5657 -0.5657 7.0000
v 1.7391 -0.3061 7.0000
f 101 103 99 97
f 98 100 104 102
f 97 98 102 101
f 103 104 100 99
f 99 100 98 97
f 101 102 104 103
f 109 111 107 105
f 106 108 112 110
f 105 106 110 109
f 111 112 108 107
f 107 108 106 105
f 109 110 112 111
f 129 130 114 113
f 130 131 115 114
f 131 132 116 115
f 132 133 117 116
f 133 134 118 117
f 134 135 119 118
f 135 136 120 119
f 136 137 121 120
f 137 138 122 121
f 138 139 123 122
f 139 140 124 123
f 140 141 125 124
f 141 142 126 125
f 142 143 127 126
f 143 144 128 127
f 144 129 113 128
f 113 114 115 116 117 118 119 120 121 122 123 124 125 126 127 128
f 144 143 142 141 140 139 138 137 136 135 134 133 132 131 130 129
f 161 162 146 145
f 162 163 147 146
f 163 164 148 147
f 164 165 149 148
f 165 166 150 149
f 166 167 151 150
f 167 168 152 151
f 168 169 153 152
f 169 170 154 153
f 170 171 155 154
f 171 172 156 155
f 172 173 157 156
f 173 174 158 157
f 174 175 159 158
f 175 176 160 159
f 176 161 145 160
f 145 146 147 148 149 150 151 152 153 154 155 156 157 158 159 160
f 176 175 174 173 172 171 170 169 168 167 166 165 164 163 162 161
o XS_MINER_EngineGlow
usemtl EngineGlow
v -0.4000 0.0000 7.9000
v -0.4457 0.2296 7.9000
v -0.5757 0.4243 7.9000
v -0.7704 0.5543 7.9000
v -1.0000 0.6000 7.9000
v -1.2296 0.5543 7.9000
v -1.4243 0.4243 7.9000
v -1.5543 0.2296 7.9000
v -1.6000 0.0000 7.9000
v -1.5543 -0.2296 7.9000
v -1.4243 -0.4243 7.9000
v -1.2296 -0.5543 7.9000
v -1.0000 -0.6000 7.9000
v -0.7704 -0.5543 7.9000
v -0.5757 -0.4243 7.9000
v -0.4457 -0.2296 7.9000
v -0.4000 0.0000 7.8000
v -0.4457 0.2296 7.8000
v -0.5757 0.4243 7.8000
v -0.7704 0.5543 7.8000
v -1.0000 0.6000 7.8000
v -1.2296 0.5543 7.8000
v -1.4243 0.4243 7.8000
v -1.5543 0.2296 7.8000
v -1.6000 0.0000 7.8000
v -1.5543 -0.2296 7.8000
v -1.4243 -0.4243 7.8000
v -1.2296 -0.5543 7.8000
v -1.0000 -0.6000 7.8000
v -0.7704 -0.5543 7.8000
v -0.5757 -0.4243 7.8000
v -0.4457 -0.2296 7.8000
v 1.6000 0.0000 7.9000
v 1.5543 0.2296 7.9000
v 1.4243 0.4243 7.9000
v 1.2296 0.5543 7.9000
v 1.0000 0.6000 7.9000
v 0.7704 0.5543 7.9000
v 0.5757 0.4243 7.9000
v 0.4457 0.2296 7.9000
v 0.4000 0.0000 7.9000
v 0.4457 -0.2296 7.9000
v 0.5757 -0.4243 7.9000
v 0.7704 -0.5543 7.9000
v 1.0000 -0.6000 7.9000
v 1.2296 -0.5543 7.9000
v 1.4243 -0.4243 7.9000
v 1.5543 -0.2296 7.9000
v 1.6000 0.0000 7.8000
v 1.5543 0.2296 7.8000
v 1.4243 0.4243 7.8000
v 1.2296 0.5543 7.8000
v 1.0000 0.6000 7.8000
v 0.7704 0.5543 7.8000
v 0.5757 0.4243 7.8000
v 0.4457 0.2296 7.8000
v 0.4000 0.0000 7.8000
v 0.4457 -0.2296 7.8000
v 0.5757 -0.4243 7.8000
v 0.7704 -0.5543 7.8000
v 1.0000 -0.6000 7.8000
v 1.2296 -0.5543 7.8000
v 1.4243 -0.4243 7.8000
v 1.5543 -0.2296 7.8000
f 193 194 178 177
f 194 195 179 178
f 195 196 180 179
f 196 197 181 180
f 197 198 182 181
f 198 199 183 182
f 199 200 184 183
f 200 201 185 184
f 201 202 186 185
f 202 203 187 186
f 203 204 188 187
f 204 205 189 188
f 205 206 190 189
f 206 207 191 190
f 207 208 192 191
f 208 193 177 192
f 177 178 179 180 181 182 183 184 185 186 187 188 189 190 191 192
f 208 207 206 205 204 203 202 201 200 199 198 197 196 195 194 193
f 225 226 210 209
f 226 227 211 210
f 227 228 212 211
f 228 229 213 212
f 229 230 214 213
f 230 231 215 214
f 231 232 216 215
f 232 233 217 216
f 233 234 218 217
f 234 235 219 218
f 235 236 220 219
f 236 237 221 220
f 237 238 222 221
f 238 239 223 222
f 239 240 224 223
f 240 225 209 224
f 209 210 211 212 213 214 215 216 217 218 219 220 221 222 223 224
f 240 239 238 237 236 235 234 233 232 231 230 229 228 227 226 225
o XS_MINER_Glass-col
usemtl Glass
v -1.2000 1.0000 -3.4000
v 1.2000 1.0000 -3.4000
v -0.6000 0.4000 -6.2000
v 0.6000 0.4000 -6.2000
v -1.2000 1.7500 -3.4000
v 1.2000 1.7500 -3.4000
v -0.6000 0.9500 -6.2000
v 0.6000 0.9500 -6.2000
f 245 247 243 241
f 242 244 248 246
f 241 242 246 245
f 247 248 244 243
f 243 244 242 241
f 245 246 248 247
o XS_MINER_Lights
usemtl Lights
v -2.6200 0.6000 -2.0000
v -2.6000 0.6000 -2.0000
v -2.6200 0.6000 -2.3000
v -2.6000 0.6000 -2.3000
v -2.6200 0.9000 -2.0000
v -2.6000 0.9000 -2.0000
v -2.6200 0.9000 -2.3000
v -2.6000 0.9000 -2.3000
v 2.6000 0.6000 -2.0000
v 2.6200 0.6000 -2.0000
v 2.6000 0.6000 -2.3000
v 2.6200 0.6000 -2.3000
v 2.6000 0.9000 -2.0000
v 2.6200 0.9000 -2.0000
v 2.6000 0.9000 -2.3000
v 2.6200 0.9000 -2.3000
f 253 255 251 249
f 250 252 256 254
f 249 250 254 253
f 255 256 252 251
f 251 252 250 249
f 253 254 256 255
f 261 263 259 257
f 258 260 264 262
f 257 258 262 261
f 263 264 260 259
f 259 260 258 257
f 261 262 264 263
o XS_MINER_Hazard
usemtl Hazard
v -0.7000 -2.0000 2.1000
v 0.7000 -2.0000 2.1000
v -0.7000 -2.0000 2.0000
v 0.7000 -2.0000 2.0000
v -0.7000 -1.6000 2.1000
v 0.7000 -1.6000 2.1000
v -0.7000 -1.6000 2.0000
v 0.7000 -1.6000 2.0000
v -0.7000 -2.0000 -0.0000
v 0.7000 -2.0000 -0.0000
v -0.7000 -2.0000 -0.1000
v 0.7000 -2.0000 -0.1000
v -0.7000 -1.6000 -0.0000
v 0.7000 -1.6000 -0.0000
v -0.7000 -1.6000 -0.1000
v 0.7000 -1.6000 -0.1000
f 269 271 267 265
f 266 268 272 270
f 265 266 270 269
f 271 272 268 267
f 267 268 266 265
f 269 270 272 271
f 277 279 275 273
f 274 276 280 278
f 273 274 278 277
f 279 280 276 275
f 275 276 274 273
f 277 278 280 279
o XS_MINER_HoldHatch-col
usemtl Trim
v -2.0000 1.6000 5.5000
v 2.0000 1.6000 5.5000
v -2.0000 1.6000 -2.5000
v 2.0000 1.6000 -2.5000
v -2.0000 1.7500 5.5000
v 2.0000 1.7500 5.5000
v -2.0000 1.7500 -2.5000
v 2.0000 1.7500 -2.5000
f 285 287 283 281
f 282 284 288 286
f 281 282 286 285
f 287 288 284 283
f 283 284 282 281
f 285 286 288 287
o XS_MINER_MiningLaser
usemtl Engine
v 0.5000 -1.4500 -5.0000
v 0.4619 -1.4500 -5.1913
v 0.3536 -1.4500 -5.3536
v 0.1913 -1.4500 -5.4619
v 0.0000 -1.4500 -5.5000
v -0.1913 -1.4500 -5.4619
v -0.3536 -1.4500 -5.3536
v -0.4619 -1.4500 -5.1913
v -0.5000 -1.4500 -5.0000
v -0.4619 -1.4500 -4.8087
v -0.3536 -1.4500 -4.6464
v -0.1913 -1.4500 -4.5381
v -0.0000 -1.4500 -4.5000
v 0.1913 -1.4500 -4.5381
v 0.3536 -1.4500 -4.6464
v 0.4619 -1.4500 -4.8087
v 0.5000 -1.0000 -5.0000
v 0.4619 -1.0000 -5.1913
v 0.3536 -1.0000 -5.3536
v 0.1913 -1.0000 -5.4619
v 0.0000 -1.0000 -5.5000
v -0.1913 -1.0000 -5.4619
v -0.3536 -1.0000 -5.3536
v -0.4619 -1.0000 -5.1913
v -0.5000 -1.0000 -5.0000
v -0.4619 -1.0000 -4.8087
v -0.3536 -1.0000 -4.6464
v -0.1913 -1.0000 -4.5381
v -0.0000 -1.0000 -4.5000
v 0.1913 -1.0000 -4.5381
v 0.3536 -1.0000 -4.6464
v 0.4619 -1.0000 -4.8087
v -0.1500 -1.6000 -5.0000
v 0.1500 -1.6000 -5.0000
v -0.1500 -1.6000 -7.6000
v 0.1500 -1.6000 -7.6000
v -0.1500 -1.3000 -5.0000
v 0.1500 -1.3000 -5.0000
v -0.1500 -1.3000 -7.6000
v 0.1500 -1.3000 -7.6000
f 289 290 306 305
f 290 291 307 306
f 291 292 308 307
f 292 293 309 308
f 293 294 310 309
f 294 295 311 310
f 295 296 312 311
f 296 297 313 312
f 297 298 314 313
f 298 299 315 314
f 299 300 316 315
f 300 301 317 316
f 301 302 318 317
f 302 303 319 318
f 303 304 320 319
f 304 289 305 320
f 304 303 302 301 300 299 298 297 296 295 294 293 292 291 290 289
f 305 306 307 308 309 310 311 312 313 314 315 316 317 318 319 320
f 325 327 323 321
f 322 324 328 326
f 321 322 326 325
f 327 328 324 323
f 323 324 322 321
f 325 326 328 327
o XS_MINER_MiningLaser_Tip
usemtl EngineGlow
v 0.1200 -1.4500 -7.6000
v 0.0971 -1.3795 -7.6000
v 0.0371 -1.3359 -7.6000
v -0.0371 -1.3359 -7.6000
v -0.0971 -1.3795 -7.6000
v -0.1200 -1.4500 -7.6000
v -0.0971 -1.5205 -7.6000
v -0.0371 -1.5641 -7.6000
v 0.0371 -1.5641 -7.6000
v 0.0971 -1.5205 -7.6000
v 0.1200 -1.4500 -7.7000
v 0.0971 -1.3795 -7.7000
v 0.0371 -1.3359 -7.7000
v -0.0371 -1.3359 -7.7000
v -0.0971 -1.3795 -7.7000
v -0.1200 -1.4500 -7.7000
v -0.0971 -1.5205 -7.7000
v -0.0371 -1.5641 -7.7000
v 0.0371 -1.5641 -7.7000
v 0.0971 -1.5205 -7.7000
f 339 340 330 329
f 340 341 331 330
f 341 342 332 331
f 342 343 333 332
f 343 344 334 333
f 344 345 335 334
f 345 346 336 335
f 346 347 337 336
f 347 348 338 337
f 348 339 329 338
f 329 330 331 332 333 334 335 336 337 338
f 348 347 346 345 344 343 342 341 340 339
o XS_MINER_Drone_1
usemtl Armor
v -3.5000 0.7000 4.6000
v -2.5000 0.7000 4.6000
v -3.5000 0.7000 3.4000
v -2.5000 0.7000 3.4000
v -3.5000 1.2000 4.6000
v -2.5000 1.2000 4.6000
v -3.5000 1.2000 3.4000
v -2.5000 1.2000 3.4000
v -3.3500 0.4000 4.5000
v -2.6500 0.4000 4.5000
v -3.3500 0.4000 4.0000
v -2.6500 0.4000 4.0000
v -3.3500 0.7000 4.5000
v -2.6500 0.7000 4.5000
v -3.3500 0.7000 4.0000
v -2.6500 0.7000 4.0000
v -3.0600 0.5000 3.8000
v -2.9400 0.5000 3.8000
v -3.0600 0.5000 3.1000
v -2.9400 0.5000 3.1000
v -3.0600 0.6500 3.8000
v -2.9400 0.6500 3.8000
v -3.0600 0.6500 3.1000
v -2.9400 0.6500 3.1000
v -3.0500 0.5100 3.1000
v -2.9500 0.5100 3.1000
v -3.0500 0.5100 3.0500
v -2.9500 0.5100 3.0500
v -3.0500 0.6400 3.1000
v -2.9500 0.6400 3.1000
v -3.0500 0.6400 3.0500
v -2.9500 0.6400 3.0500
v -3.8500 0.9000 4.8500
v -3.4500 0.9000 4.8500
v -3.8500 0.9000 4.4500
v -3.4500 0.9000 4.4500
v -3.8500 1.0000 4.8500
v -3.4500 1.0000 4.8500
v -3.8500 1.0000 4.4500
v -3.4500 1.0000 4.4500
v -3.5700 0.8000 4.8500
v -3.6235 0.8000 4.6854
v -3.7635 0.8000 4.5837
v -3.9365 0.8000 4.5837
v -4.0765 0.8000 4.6854
v -4.1300 0.8000 4.8500
v -4.0765 0.8000 5.0146
v -3.9365 0.8000 5.1163
v -3.7635 0.8000 5.1163
v -3.6235 0.8000 5.0146
v -3.5700 1.1000 4.8500
v -3.6235 1.1000 4.6854
v -3.7635 1.1000 4.5837
v -3.9365 1.1000 4.5837
v -4.0765 1.1000 4.6854
v -4.1300 1.1000 4.8500
v -4.0765 1.1000 5.0146
v -3.9365 1.1000 5.1163
v -3.7635 1.1000 5.1163
v -3.6235 1.1000 5.0146
v -3.6500 0.7500 4.8500
v -3.6882 0.7500 4.7324
v -3.7882 0.7500 4.6598
v -3.9118 0.7500 4.6598
v -4.0118 0.7500 4.7324
v -4.0500 0.7500 4.8500
v -4.0118 0.7500 4.9676
v -3.9118 0.7500 5.0402
v -3.7882 0.7500 5.0402
v -3.6882 0.7500 4.9676
v -3.6500 0.8000 4.8500
v -3.6882 0.8000 4.7324
v -3.7882 0.8000 4.6598
v -3.9118 0.8000 4.6598
v -4.0118 0.8000 4.7324
v -4.0500 0.8000 4.8500
v -4.0118 0.8000 4.9676
v -3.9118 0.8000 5.0402
v -3.7882 0.8000 5.0402
v -3.6882 0.8000 4.9676
v -3.8500 0.9000 3.5500
v -3.4500 0.9000 3.5500
v -3.8500 0.9000 3.1500
v -3.4500 0.9000 3.1500
v -3.8500 1.0000 3.5500
v -3.4500 1.0000 3.5500
v -3.8500 1.0000 3.1500
v -3.4500 1.0000 3.1500
v -3.5700 0.8000 3.1500
v -3.6235 0.8000 2.9854
v -3.7635 0.8000 2.8837
v -3.9365 0.8000 2.8837
v -4.0765 0.8000 2.9854
v -4.1300 0.8000 3.1500
v -4.0765 0.8000 3.3146
v -3.9365 0.8000 3.4163
v -3.7635 0.8000 3.4163
v -3.6235 0.8000 3.3146
v -3.5700 1.1000 3.1500
v -3.6235 1.1000 2.9854
v -3.7635 1.1000 2.8837
v -3.9365 1.1000 2.8837
v -4.0765 1.1000 2.9854
v -4.1300 1.1000 3.1500
v -4.0765 1.1000 3.3146
v -3.9365 1.1000 3.4163
v -3.7635 1.1000 3.4163
v -3.6235 1.1000 3.3146
v -3.6500 0.7500 3.1500
v -3.6882 0.7500 3.0324
v -3.7882 0.7500 2.9598
v -3.9118 0.7500 2.9598
v -4.0118 0.7500 3.0324
v -4.0500 0.7500 3.1500
v -4.0118 0.7500 3.2676
v -3.9118 0.7500 3.3402
v -3.7882 0.7500 3.3402
v -3.6882 0.7500 3.2676
v -3.6500 0.8000 3.1500
v -3.6882 0.8000 3.0324
v -3.7882 0.8000 2.9598
v -3.9118 0.8000 2.9598
v -4.0118 0.8000 3.0324
v -4.0500 0.8000 3.1500
v -4.0118 0.8000 3.2676
v -3.9118 0.8000 3.3402
v -3.7882 0.8000 3.3402
v -3.6882 0.8000 3.2676
v -2.5500 0.9000 4.8500
v -2.1500 0.9000 4.8500
v -2.5500 0.9000 4.4500
v -2.1500 0.9000 4.4500
v -2.5500 1.0000 4.8500
v -2.1500 1.0000 4.8500
v -2.5500 1.0000 4.4500
v -2.1500 1.0000 4.4500
v -1.8700 0.8000 4.8500
v -1.9235 0.8000 4.6854
v -2.0635 0.8000 4.5837
v -2.2365 0.8000 4.5837
v -2.3765 0.8000 4.6854
v -2.4300 0.8000 4.8500
v -2.3765 0.8000 5.0146
v -2.2365 0.8000 5.1163
v -2.0635 0.8000 5.1163
v -1.9235 0.8000 5.0146
v -1.8700 1.1000 4.8500
v -1.9235 1.1000 4.6854
v -2.0635 1.1000 4.5837
v -2.2365 1.1000 4.5837
v -2.3765 1.1000 4.6854
v -2.4300 1.1000 4.8500
v -2.3765 1.1000 5.0146
v -2.2365 1.1000 5.1163
v -2.0635 1.1000 5.1163
v -1.9235 1.1000 5.0146
v -1.9500 0.7500 4.8500
v -1.9882 0.7500 4.7324
v -2.0882 0.7500 4.6598
v -2.2118 0.7500 4.6598
v -2.3118 0.7500 4.7324
v -2.3500 0.7500 4.8500
v -2.3118 0.7500 4.9676
v -2.2118 0.7500 5.0402
v -2.0882 0.7500 5.0402
v -1.9882 0.7500 4.9676
v -1.9500 0.8000 4.8500
v -1.9882 0.8000 4.7324
v -2.0882 0.8000 4.6598
v -2.2118 0.8000 4.6598
v -2.3118 0.8000 4.7324
v -2.3500 0.8000 4.8500
v -2.3118 0.8000 4.9676
v -2.2118 0.8000 5.0402
v -2.0882 0.8000 5.0402
v -1.9882 0.8000 4.9676
v -2.5500 0.9000 3.5500
v -2.1500 0.9000 3.5500
v -2.5500 0.9000 3.1500
v -2.1500 0.9000 3.1500
v -2.5500 1.0000 3.5500
v -2.1500 1.0000 3.5500
v -2.5500 1.0000 3.1500
v -2.1500 1.0000 3.1500
v -1.8700 0.8000 3.1500
v -1.9235 0.8000 2.9854
v -2.0635 0.8000 2.8837
v -2.2365 0.8000 2.8837
v -2.3765 0.8000 2.9854
v -2.4300 0.8000 3.1500
v -2.3765 0.8000 3.3146
v -2.2365 0.8000 3.4163
v -2.0635 0.8000 3.4163
v -1.9235 0.8000 3.3146
v -1.8700 1.1000 3.1500
v -1.9235 1.1000 2.9854
v -2.0635 1.1000 2.8837
v -2.2365 1.1000 2.8837
v -2.3765 1.1000 2.9854
v -2.4300 1.1000 3.1500
v -2.3765 1.1000 3.3146
v -2.2365 1.1000 3.4163
v -2.0635 1.1000 3.4163
v -1.9235 1.1000 3.3146
v -1.9500 0.7500 3.1500
v -1.9882 0.7500 3.0324
v -2.0882 0.7500 2.9598
v -2.2118 0.7500 2.9598
v -2.3118 0.7500 3.0324
v -2.3500 0.7500 3.1500
v -2.3118 0.7500 3.2676
v -2.2118 0.7500 3.3402
v -2.0882 0.7500 3.3402
v -1.9882 0.7500 3.2676
v -1.9500 0.8000 3.1500
v -1.9882 0.8000 3.0324
v -2.0882 0.8000 2.9598
v -2.2118 0.8000 2.9598
v -2.3118 0.8000 3.0324
v -2.3500 0.8000 3.1500
v -2.3118 0.8000 3.2676
v -2.2118 0.8000 3.3402
v -2.0882 0.8000 3.3402
v -1.9882 0.8000 3.2676
v -3.1500 0.9500 3.4000
v -2.8500 0.9500 3.4000
v -3.1500 0.9500 3.3800
v -2.8500 0.9500 3.3800
v -3.1500 1.0500 3.4000
v -2.8500 1.0500 3.4000
v -3.1500 1.0500 3.3800
v -2.8500 1.0500 3.3800
f 353 355 351 349
f 350 352 356 354
f 349 350 354 353
f 355 356 352 351
f 351 352 350 349
f 353 354 356 355
f 361 363 359 357
f 358 360 364 362
f 357 358 362 361
f 363 364 360 359
f 359 360 358 357
f 361 362 364 363
f 369 371 367 365
f 366 368 372 370
f 365 366 370 369
f 371 372 368 367
f 367 368 366 365
f 369 370 372 371
f 377 379 375 373
f 374 376 380 378
f 373 374 378 377
f 379 380 376 375
f 375 376 374 373
f 377 378 380 379
f 385 387 383 381
f 382 384 388 386
f 381 382 386 385
f 387 388 384 383
f 383 384 382 381
f 385 386 388 387
f 389 390 400 399
f 390 391 401 400
f 391 392 402 401
f 392 393 403 402
f 393 394 404 403
f 394 395 405 404
f 395 396 406 405
f 396 397 407 406
f 397 398 408 407
f 398 389 399 408
f 398 397 396 395 394 393 392 391 390 389
f 399 400 401 402 403 404 405 406 407 408
f 409 410 420 419
f 410 411 421 420
f 411 412 422 421
f 412 413 423 422
f 413 414 424 423
f 414 415 425 424
f 415 416 426 425
f 416 417 427 426
f 417 418 428 427
f 418 409 419 428
f 418 417 416 415 414 413 412 411 410 409
f 419 420 421 422 423 424 425 426 427 428
f 433 435 431 429
f 430 432 436 434
f 429 430 434 433
f 435 436 432 431
f 431 432 430 429
f 433 434 436 435
f 437 438 448 447
f 438 439 449 448
f 439 440 450 449
f 440 441 451 450
f 441 442 452 451
f 442 443 453 452
f 443 444 454 453
f 444 445 455 454
f 445 446 456 455
f 446 437 447 456
f 446 445 444 443 442 441 440 439 438 437
f 447 448 449 450 451 452 453 454 455 456
f 457 458 468 467
f 458 459 469 468
f 459 460 470 469
f 460 461 471 470
f 461 462 472 471
f 462 463 473 472
f 463 464 474 473
f 464 465 475 474
f 465 466 476 475
f 466 457 467 476
f 466 465 464 463 462 461 460 459 458 457
f 467 468 469 470 471 472 473 474 475 476
f 481 483 479 477
f 478 480 484 482
f 477 478 482 481
f 483 484 480 479
f 479 480 478 477
f 481 482 484 483
f 485 486 496 495
f 486 487 497 496
f 487 488 498 497
f 488 489 499 498
f 489 490 500 499
f 490 491 501 500
f 491 492 502 501
f 492 493 503 502
f 493 494 504 503
f 494 485 495 504
f 494 493 492 491 490 489 488 487 486 485
f 495 496 497 498 499 500 501 502 503 504
f 505 506 516 515
f 506 507 517 516
f 507 508 518 517
f 508 509 519 518
f 509 510 520 519
f 510 511 521 520
f 511 512 522 521
f 512 513 523 522
f 513 514 524 523
f 514 505 515 524
f 514 513 512 511 510 509 508 507 506 505
f 515 516 517 518 519 520 521 522 523 524
f 529 531 527 525
f 526 528 532 530
f 525 526 530 529
f 531 532 528 527
f 527 528 526 525
f 529 530 532 531
f 533 534 544 543
f 534 535 545 544
f 535 536 546 545
f 536 537 547 546
f 537 538 548 547
f 538 539 549 548
f 539 540 550 549
f 540 541 551 550
f 541 542 552 551
f 542 533 543 552
f 542 541 540 539 538 537 536 535 534 533
f 543 544 545 546 547 548 549 550 551 552
f 553 554 564 563
f 554 555 565 564
f 555 556 566 565
f 556 557 567 566
f 557 558 568 567
f 558 559 569 568
f 559 560 570 569
f 560 561 571 570
f 561 562 572 571
f 562 553 563 572
f 562 561 560 559 558 557 556 555 554 553
f 563 564 565 566 567 568 569 570 571 572
f 577 579 575 573
f 574 576 580 578
f 573 574 578 577
f 579 580 576 575
f 575 576 574 573
f 577 578 580 579
o XS_MINER_Drone_2
usemtl Armor
v -3.5000 0.7000 1.4000
v -2.5000 0.7000 1.4000
v -3.5000 0.7000 0.2000
v -2.5000 0.7000 0.2000
v -3.5000 1.2000 1.4000
v -2.5000 1.2000 1.4000
v -3.5000 1.2000 0.2000
v -2.5000 1.2000 0.2000
v -3.3500 0.4000 1.3000
v -2.6500 0.4000 1.3000
v -3.3500 0.4000 0.8000
v -2.6500 0.4000 0.8000
v -3.3500 0.7000 1.3000
v -2.6500 0.7000 1.3000
v -3.3500 0.7000 0.8000
v -2.6500 0.7000 0.8000
v -3.0600 0.5000 0.6000
v -2.9400 0.5000 0.6000
v -3.0600 0.5000 -0.1000
v -2.9400 0.5000 -0.1000
v -3.0600 0.6500 0.6000
v -2.9400 0.6500 0.6000
v -3.0600 0.6500 -0.1000
v -2.9400 0.6500 -0.1000
v -3.0500 0.5100 -0.1000
v -2.9500 0.5100 -0.1000
v -3.0500 0.5100 -0.1500
v -2.9500 0.5100 -0.1500
v -3.0500 0.6400 -0.1000
v -2.9500 0.6400 -0.1000
v -3.0500 0.6400 -0.1500
v -2.9500 0.6400 -0.1500
v -3.8500 0.9000 1.6500
v -3.4500 0.9000 1.6500
v -3.8500 0.9000 1.2500
v -3.4500 0.9000 1.2500
v -3.8500 1.0000 1.6500
v -3.4500 1.0000 1.6500
v -3.8500 1.0000 1.2500
v -3.4500 1.0000 1.2500
v -3.5700 0.8000 1.6500
v -3.6235 0.8000 1.4854
v -3.7635 0.8000 1.3837
v -3.9365 0.8000 1.3837
v -4.0765 0.8000 1.4854
v -4.1300 0.8000 1.6500
v -4.0765 0.8000 1.8146
v -3.9365 0.8000 1.9163
v -3.7635 0.8000 1.9163
v -3.6235 0.8000 1.8146
v -3.5700 1.1000 1.6500
v -3.6235 1.1000 1.4854
v -3.7635 1.1000 1.3837
v -3.9365 1.1000 1.3837
v -4.0765 1.1000 1.4854
v -4.1300 1.1000 1.6500
v -4.0765 1.1000 1.8146
v -3.9365 1.1000 1.9163
v -3.7635 1.1000 1.9163
v -3.6235 1.1000 1.8146
v -3.6500 0.7500 1.6500
v -3.6882 0.7500 1.5324
v -3.7882 0.7500 1.4598
v -3.9118 0.7500 1.4598
v -4.0118 0.7500 1.5324
v -4.0500 0.7500 1.6500
v -4.0118 0.7500 1.7676
v -3.9118 0.7500 1.8402
v -3.7882 0.7500 1.8402
v -3.6882 0.7500 1.7676
v -3.6500 0.8000 1.6500
v -3.6882 0.8000 1.5324
v -3.7882 0.8000 1.4598
v -3.9118 0.8000 1.4598
v -4.0118 0.8000 1.5324
v -4.0500 0.8000 1.6500
v -4.0118 0.8000 1.7676
v -3.9118 0.8000 1.8402
v -3.7882 0.8000 1.8402
v -3.6882 0.8000 1.7676
v -3.8500 0.9000 0.3500
v -3.4500 0.9000 0.3500
v -3.8500 0.9000 -0.0500
v -3.4500 0.9000 -0.0500
v -3.8500 1.0000 0.3500
v -3.4500 1.0000 0.3500
v -3.8500 1.0000 -0.0500
v -3.4500 1.0000 -0.0500
v -3.5700 0.8000 -0.0500
v -3.6235 0.8000 -0.2146
v -3.7635 0.8000 -0.3163
v -3.9365 0.8000 -0.3163
v -4.0765 0.8000 -0.2146
v -4.1300 0.8000 -0.0500
v -4.0765 0.8000 0.1146
v -3.9365 0.8000 0.2163
v -3.7635 0.8000 0.2163
v -3.6235 0.8000 0.1146
v -3.5700 1.1000 -0.0500
v -3.6235 1.1000 -0.2146
v -3.7635 1.1000 -0.3163
v -3.9365 1.1000 -0.3163
v -4.0765 1.1000 -0.2146
v -4.1300 1.1000 -0.0500
v -4.0765 1.1000 0.1146
v -3.9365 1.1000 0.2163
v -3.7635 1.1000 0.2163
v -3.6235 1.1000 0.1146
v -3.6500 0.7500 -0.0500
v -3.6882 0.7500 -0.1676
v -3.7882 0.7500 -0.2402
v -3.9118 0.7500 -0.2402
v -4.0118 0.7500 -0.1676
v -4.0500 0.7500 -0.0500
v -4.0118 0.7500 0.0676
v -3.9118 0.7500 0.1402
v -3.7882 0.7500 0.1402
v -3.6882 0.7500 0.0676
v -3.6500 0.8000 -0.0500
v -3.6882 0.8000 -0.1676
v -3.7882 0.8000 -0.2402
v -3.9118 0.8000 -0.2402
v -4.0118 0.8000 -0.1676
v -4.0500 0.8000 -0.0500
v -4.0118 0.8000 0.0676
v -3.9118 0.8000 0.1402
v -3.7882 0.8000 0.1402
v -3.6882 0.8000 0.0676
v -2.5500 0.9000 1.6500
v -2.1500 0.9000 1.6500
v -2.5500 0.9000 1.2500
v -2.1500 0.9000 1.2500
v -2.5500 1.0000 1.6500
v -2.1500 1.0000 1.6500
v -2.5500 1.0000 1.2500
v -2.1500 1.0000 1.2500
v -1.8700 0.8000 1.6500
v -1.9235 0.8000 1.4854
v -2.0635 0.8000 1.3837
v -2.2365 0.8000 1.3837
v -2.3765 0.8000 1.4854
v -2.4300 0.8000 1.6500
v -2.3765 0.8000 1.8146
v -2.2365 0.8000 1.9163
v -2.0635 0.8000 1.9163
v -1.9235 0.8000 1.8146
v -1.8700 1.1000 1.6500
v -1.9235 1.1000 1.4854
v -2.0635 1.1000 1.3837
v -2.2365 1.1000 1.3837
v -2.3765 1.1000 1.4854
v -2.4300 1.1000 1.6500
v -2.3765 1.1000 1.8146
v -2.2365 1.1000 1.9163
v -2.0635 1.1000 1.9163
v -1.9235 1.1000 1.8146
v -1.9500 0.7500 1.6500
v -1.9882 0.7500 1.5324
v -2.0882 0.7500 1.4598
v -2.2118 0.7500 1.4598
v -2.3118 0.7500 1.5324
v -2.3500 0.7500 1.6500
v -2.3118 0.7500 1.7676
v -2.2118 0.7500 1.8402
v -2.0882 0.7500 1.8402
v -1.9882 0.7500 1.7676
v -1.9500 0.8000 1.6500
v -1.9882 0.8000 1.5324
v -2.0882 0.8000 1.4598
v -2.2118 0.8000 1.4598
v -2.3118 0.8000 1.5324
v -2.3500 0.8000 1.6500
v -2.3118 0.8000 1.7676
v -2.2118 0.8000 1.8402
v -2.0882 0.8000 1.8402
v -1.9882 0.8000 1.7676
v -2.5500 0.9000 0.3500
v -2.1500 0.9000 0.3500
v -2.5500 0.9000 -0.0500
v -2.1500 0.9000 -0.0500
v -2.5500 1.0000 0.3500
v -2.1500 1.0000 0.3500
v -2.5500 1.0000 -0.0500
v -2.1500 1.0000 -0.0500
v -1.8700 0.8000 -0.0500
v -1.9235 0.8000 -0.2146
v -2.0635 0.8000 -0.3163
v -2.2365 0.8000 -0.3163
v -2.3765 0.8000 -0.2146
v -2.4300 0.8000 -0.0500
v -2.3765 0.8000 0.1146
v -2.2365 0.8000 0.2163
v -2.0635 0.8000 0.2163
v -1.9235 0.8000 0.1146
v -1.8700 1.1000 -0.0500
v -1.9235 1.1000 -0.2146
v -2.0635 1.1000 -0.3163
v -2.2365 1.1000 -0.3163
v -2.3765 1.1000 -0.2146
v -2.4300 1.1000 -0.0500
v -2.3765 1.1000 0.1146
v -2.2365 1.1000 0.2163
v -2.0635 1.1000 0.2163
v -1.9235 1.1000 0.1146
v -1.9500 0.7500 -0.0500
v -1.9882 0.7500 -0.1676
v -2.0882 0.7500 -0.2402
v -2.2118 0.7500 -0.2402
v -2.3118 0.7500 -0.1676
v -2.3500 0.7500 -0.0500
v -2.3118 0.7500 0.0676
v -2.2118 0.7500 0.1402
v -2.0882 0.7500 0.1402
v -1.9882 0.7500 0.0676
v -1.9500 0.8000 -0.0500
v -1.9882 0.8000 -0.1676
v -2.0882 0.8000 -0.2402
v -2.2118 0.8000 -0.2402
v -2.3118 0.8000 -0.1676
v -2.3500 0.8000 -0.0500
v -2.3118 0.8000 0.0676
v -2.2118 0.8000 0.1402
v -2.0882 0.8000 0.1402
v -1.9882 0.8000 0.0676
v -3.1500 0.9500 0.2000
v -2.8500 0.9500 0.2000
v -3.1500 0.9500 0.1800
v -2.8500 0.9500 0.1800
v -3.1500 1.0500 0.2000
v -2.8500 1.0500 0.2000
v -3.1500 1.0500 0.1800
v -2.8500 1.0500 0.1800
f 585 587 583 581
f 582 584 588 586
f 581 582 586 585
f 587 588 584 583
f 583 584 582 581
f 585 586 588 587
f 593 595 591 589
f 590 592 596 594
f 589 590 594 593
f 595 596 592 591
f 591 592 590 589
f 593 594 596 595
f 601 603 599 597
f 598 600 604 602
f 597 598 602 601
f 603 604 600 599
f 599 600 598 597
f 601 602 604 603
f 609 611 607 605
f 606 608 612 610
f 605 606 610 609
f 611 612 608 607
f 607 608 606 605
f 609 610 612 611
f 617 619 615 613
f 614 616 620 618
f 613 614 618 617
f 619 620 616 615
f 615 616 614 613
f 617 618 620 619
f 621 622 632 631
f 622 623 633 632
f 623 624 634 633
f 624 625 635 634
f 625 626 636 635
f 626 627 637 636
f 627 628 638 637
f 628 629 639 638
f 629 630 640 639
f 630 621 631 640
f 630 629 628 627 626 625 624 623 622 621
f 631 632 633 634 635 636 637 638 639 640
f 641 642 652 651
f 642 643 653 652
f 643 644 654 653
f 644 645 655 654
f 645 646 656 655
f 646 647 657 656
f 647 648 658 657
f 648 649 659 658
f 649 650 660 659
f 650 641 651 660
f 650 649 648 647 646 645 644 643 642 641
f 651 652 653 654 655 656 657 658 659 660
f 665 667 663 661
f 662 664 668 666
f 661 662 666 665
f 667 668 664 663
f 663 664 662 661
f 665 666 668 667
f 669 670 680 679
f 670 671 681 680
f 671 672 682 681
f 672 673 683 682
f 673 674 684 683
f 674 675 685 684
f 675 676 686 685
f 676 677 687 686
f 677 678 688 687
f 678 669 679 688
f 678 677 676 675 674 673 672 671 670 669
f 679 680 681 682 683 684 685 686 687 688
f 689 690 700 699
f 690 691 701 700
f 691 692 702 701
f 692 693 703 702
f 693 694 704 703
f 694 695 705 704
f 695 696 706 705
f 696 697 707 706
f 697 698 708 707
f 698 689 699 708
f 698 697 696 695 694 693 692 691 690 689
f 699 700 701 702 703 704 705 706 707 708
f 713 715 711 709
f 710 712 716 714
f 709 710 714 713
f 715 716 712 711
f 711 712 710 709
f 713 714 716 715
f 717 718 728 727
f 718 719 729 728
f 719 720 730 729
f 720 721 731 730
f 721 722 732 731
f 722 723 733 732
f 723 724 734 733
f 724 725 735 734
f 725 726 736 735
f 726 717 727 736
f 726 725 724 723 722 721 720 719 718 717
f 727 728 729 730 731 732 733 734 735 736
f 737 738 748 747
f 738 739 749 748
f 739 740 750 749
f 740 741 751 750
f 741 742 752 751
f 742 743 753 752
f 743 744 754 753
f 744 745 755 754
f 745 746 756 755
f 746 737 747 756
f 746 745 744 743 742 741 740 739 738 737
f 747 748 749 750 751 752 753 754 755 756
f 761 763 759 757
f 758 760 764 762
f 757 758 762 761
f 763 764 760 759
f 759 760 758 757
f 761 762 764 763
f 765 766 776 775
f 766 767 777 776
f 767 768 778 777
f 768 769 779 778
f 769 770 780 779
f 770 771 781 780
f 771 772 782 781
f 772 773 783 782
f 773 774 784 783
f 774 765 775 784
f 774 773 772 771 770 769 768 767 766 765
f 775 776 777 778 779 780 781 782 783 784
f 785 786 796 795
f 786 787 797 796
f 787 788 798 797
f 788 789 799 798
f 789 790 800 799
f 790 791 801 800
f 791 792 802 801
f 792 793 803 802
f 793 794 804 803
f 794 785 795 804
f 794 793 792 791 790 789 788 787 786 785
f 795 796 797 798 799 800 801 802 803 804
f 809 811 807 805
f 806 808 812 810
f 805 806 810 809
f 811 812 808 807
f 807 808 806 805
f 809 810 812 811
o XS_MINER_Drone_3
usemtl Armor
v 2.5000 0.7000 4.6000
v 3.5000 0.7000 4.6000
v 2.5000 0.7000 3.4000
v 3.5000 0.7000 3.4000
v 2.5000 1.2000 4.6000
v 3.5000 1.2000 4.6000
v 2.5000 1.2000 3.4000
v 3.5000 1.2000 3.4000
v 2.6500 0.4000 4.5000
v 3.3500 0.4000 4.5000
v 2.6500 0.4000 4.0000
v 3.3500 0.4000 4.0000
v 2.6500 0.7000 4.5000
v 3.3500 0.7000 4.5000
v 2.6500 0.7000 4.0000
v 3.3500 0.7000 4.0000
v 2.9400 0.5000 3.8000
v 3.0600 0.5000 3.8000
v 2.9400 0.5000 3.1000
v 3.0600 0.5000 3.1000
v 2.9400 0.6500 3.8000
v 3.0600 0.6500 3.8000
v 2.9400 0.6500 3.1000
v 3.0600 0.6500 3.1000
v 2.9500 0.5100 3.1000
v 3.0500 0.5100 3.1000
v 2.9500 0.5100 3.0500
v 3.0500 0.5100 3.0500
v 2.9500 0.6400 3.1000
v 3.0500 0.6400 3.1000
v 2.9500 0.6400 3.0500
v 3.0500 0.6400 3.0500
v 2.1500 0.9000 4.8500
v 2.5500 0.9000 4.8500
v 2.1500 0.9000 4.4500
v 2.5500 0.9000 4.4500
v 2.1500 1.0000 4.8500
v 2.5500 1.0000 4.8500
v 2.1500 1.0000 4.4500
v 2.5500 1.0000 4.4500
v 2.4300 0.8000 4.8500
v 2.3765 0.8000 4.6854
v 2.2365 0.8000 4.5837
v 2.0635 0.8000 4.5837
v 1.9235 0.8000 4.6854
v 1.8700 0.8000 4.8500
v 1.9235 0.8000 5.0146
v 2.0635 0.8000 5.1163
v 2.2365 0.8000 5.1163
v 2.3765 0.8000 5.0146
v 2.4300 1.1000 4.8500
v 2.3765 1.1000 4.6854
v 2.2365 1.1000 4.5837
v 2.0635 1.1000 4.5837
v 1.9235 1.1000 4.6854
v 1.8700 1.1000 4.8500
v 1.9235 1.1000 5.0146
v 2.0635 1.1000 5.1163
v 2.2365 1.1000 5.1163
v 2.3765 1.1000 5.0146
v 2.3500 0.7500 4.8500
v 2.3118 0.7500 4.7324
v 2.2118 0.7500 4.6598
v 2.0882 0.7500 4.6598
v 1.9882 0.7500 4.7324
v 1.9500 0.7500 4.8500
v 1.9882 0.7500 4.9676
v 2.0882 0.7500 5.0402
v 2.2118 0.7500 5.0402
v 2.3118 0.7500 4.9676
v 2.3500 0.8000 4.8500
v 2.3118 0.8000 4.7324
v 2.2118 0.8000 4.6598
v 2.0882 0.8000 4.6598
v 1.9882 0.8000 4.7324
v 1.9500 0.8000 4.8500
v 1.9882 0.8000 4.9676
v 2.0882 0.8000 5.0402
v 2.2118 0.8000 5.0402
v 2.3118 0.8000 4.9676
v 2.1500 0.9000 3.5500
v 2.5500 0.9000 3.5500
v 2.1500 0.9000 3.1500
v 2.5500 0.9000 3.1500
v 2.1500 1.0000 3.5500
v 2.5500 1.0000 3.5500
v 2.1500 1.0000 3.1500
v 2.5500 1.0000 3.1500
v 2.4300 0.8000 3.1500
v 2.3765 0.8000 2.9854
v 2.2365 0.8000 2.8837
v 2.0635 0.8000 2.8837
v 1.9235 0.8000 2.9854
v 1.8700 0.8000 3.1500
v 1.9235 0.8000 3.3146
v 2.0635 0.8000 3.4163
v 2.2365 0.8000 3.4163
v 2.3765 0.8000 3.3146
v 2.4300 1.1000 3.1500
v 2.3765 1.1000 2.9854
v 2.2365 1.1000 2.8837
v 2.0635 1.1000 2.8837
v 1.9235 1.1000 2.9854
v 1.8700 1.1000 3.1500
v 1.9235 1.1000 3.3146
v 2.0635 1.1000 3.4163
v 2.2365 1.1000 3.4163
v 2.3765 1.1000 3.3146
v 2.3500 0.7500 3.1500
v 2.3118 0.7500 3.0324
v 2.2118 0.7500 2.9598
v 2.0882 0.7500 2.9598
v 1.9882 0.7500 3.0324
v 1.9500 0.7500 3.1500
v 1.9882 0.7500 3.2676
v 2.0882 0.7500 3.3402
v 2.2118 0.7500 3.3402
v 2.3118 0.7500 3.2676
v 2.3500 0.8000 3.1500
v 2.3118 0.8000 3.0324
v 2.2118 0.8000 2.9598
v 2.0882 0.8000 2.9598
v 1.9882 0.8000 3.0324
v 1.9500 0.8000 3.1500
v 1.9882 0.8000 3.2676
v 2.0882 0.8000 3.3402
v 2.2118 0.8000 3.3402
v 2.3118 0.8000 3.2676
v 3.4500 0.9000 4.8500
v 3.8500 0.9000 4.8500
v 3.4500 0.9000 4.4500
v 3.8500 0.9000 4.4500
v 3.4500 1.0000 4.8500
v 3.8500 1.0000 4.8500
v 3.4500 1.0000 4.4500
v 3.8500 1.0000 4.4500
v 4.1300 0.8000 4.8500
v 4.0765 0.8000 4.6854
v 3.9365 0.8000 4.5837
v 3.7635 0.8000 4.5837
v 3.6235 0.8000 4.6854
v 3.5700 0.8000 4.8500
v 3.6235 0.8000 5.0146
v 3.7635 0.8000 5.1163
v 3.9365 0.8000 5.1163
v 4.0765 0.8000 5.0146
v 4.1300 1.1000 4.8500
v 4.0765 1.1000 4.6854
v 3.9365 1.1000 4.5837
v 3.7635 1.1000 4.5837
v 3.6235 1.1000 4.6854
v 3.5700 1.1000 4.8500
v 3.6235 1.1000 5.0146
v 3.7635 1.1000 5.1163
v 3.9365 1.1000 5.1163
v 4.0765 1.1000 5.0146
v 4.0500 0.7500 4.8500
v 4.0118 0.7500 4.7324
v 3.9118 0.7500 4.6598
v 3.7882 0.7500 4.6598
v 3.6882 0.7500 4.7324
v 3.6500 0.7500 4.8500
v 3.6882 0.7500 4.9676
v 3.7882 0.7500 5.0402
v 3.9118 0.7500 5.0402
v 4.0118 0.7500 4.9676
v 4.0500 0.8000 4.8500
v 4.0118 0.8000 4.7324
v 3.9118 0.8000 4.6598
v 3.7882 0.8000 4.6598
v 3.6882 0.8000 4.7324
v 3.6500 0.8000 4.8500
v 3.6882 0.8000 4.9676
v 3.7882 0.8000 5.0402
v 3.9118 0.8000 5.0402
v 4.0118 0.8000 4.9676
v 3.4500 0.9000 3.5500
v 3.8500 0.9000 3.5500
v 3.4500 0.9000 3.1500
v 3.8500 0.9000 3.1500
v 3.4500 1.0000 3.5500
v 3.8500 1.0000 3.5500
v 3.4500 1.0000 3.1500
v 3.8500 1.0000 3.1500
v 4.1300 0.8000 3.1500
v 4.0765 0.8000 2.9854
v 3.9365 0.8000 2.8837
v 3.7635 0.8000 2.8837
v 3.6235 0.8000 2.9854
v 3.5700 0.8000 3.1500
v 3.6235 0.8000 3.3146
v 3.7635 0.8000 3.4163
v 3.9365 0.8000 3.4163
v 4.0765 0.8000 3.3146
v 4.1300 1.1000 3.1500
v 4.0765 1.1000 2.9854
v 3.9365 1.1000 2.8837
v 3.7635 1.1000 2.8837
v 3.6235 1.1000 2.9854
v 3.5700 1.1000 3.1500
v 3.6235 1.1000 3.3146
v 3.7635 1.1000 3.4163
v 3.9365 1.1000 3.4163
v 4.0765 1.1000 3.3146
v 4.0500 0.7500 3.1500
v 4.0118 0.7500 3.0324
v 3.9118 0.7500 2.9598
v 3.7882 0.7500 2.9598
v 3.6882 0.7500 3.0324
v 3.6500 0.7500 3.1500
v 3.6882 0.7500 3.2676
v 3.7882 0.7500 3.3402
v 3.9118 0.7500 3.3402
v 4.0118 0.7500 3.2676
v 4.0500 0.8000 3.1500
v 4.0118 0.8000 3.0324
v 3.9118 0.8000 2.9598
v 3.7882 0.8000 2.9598
v 3.6882 0.8000 3.0324
v 3.6500 0.8000 3.1500
v 3.6882 0.8000 3.2676
v 3.7882 0.8000 3.3402
v 3.9118 0.8000 3.3402
v 4.0118 0.8000 3.2676
v 2.8500 0.9500 3.4000
v 3.1500 0.9500 3.4000
v 2.8500 0.9500 3.3800
v 3.1500 0.9500 3.3800
v 2.8500 1.0500 3.4000
v 3.1500 1.0500 3.4000
v 2.8500 1.0500 3.3800
v 3.1500 1.0500 3.3800
f 817 819 815 813
f 814 816 820 818
f 813 814 818 817
f 819 820 816 815
f 815 816 814 813
f 817 818 820 819
f 825 827 823 821
f 822 824 828 826
f 821 822 826 825
f 827 828 824 823
f 823 824 822 821
f 825 826 828 827
f 833 835 831 829
f 830 832 836 834
f 829 830 834 833
f 835 836 832 831
f 831 832 830 829
f 833 834 836 835
f 841 843 839 837
f 838 840 844 842
f 837 838 842 841
f 843 844 840 839
f 839 840 838 837
f 841 842 844 843
f 849 851 847 845
f 846 848 852 850
f 845 846 850 849
f 851 852 848 847
f 847 848 846 845
f 849 850 852 851
f 853 854 864 863
f 854 855 865 864
f 855 856 866 865
f 856 857 867 866
f 857 858 868 867
f 858 859 869 868
f 859 860 870 869
f 860 861 871 870
f 861 862 872 871
f 862 853 863 872
f 862 861 860 859 858 857 856 855 854 853
f 863 864 865 866 867 868 869 870 871 872
f 873 874 884 883
f 874 875 885 884
f 875 876 886 885
f 876 877 887 886
f 877 878 888 887
f 878 879 889 888
f 879 880 890 889
f 880 881 891 890
f 881 882 892 891
f 882 873 883 892
f 882 881 880 879 878 877 876 875 874 873
f 883 884 885 886 887 888 889 890 891 892
f 897 899 895 893
f 894 896 900 898
f 893 894 898 897
f 899 900 896 895
f 895 896 894 893
f 897 898 900 899
f 901 902 912 911
f 902 903 913 912
f 903 904 914 913
f 904 905 915 914
f 905 906 916 915
f 906 907 917 916
f 907 908 918 917
f 908 909 919 918
f 909 910 920 919
f 910 901 911 920
f 910 909 908 907 906 905 904 903 902 901
f 911 912 913 914 915 916 917 918 919 920
f 921 922 932 931
f 922 923 933 932
f 923 924 934 933
f 924 925 935 934
f 925 926 936 935
f 926 927 937 936
f 927 928 938 937
f 928 929 939 938
f 929 930 940 939
f 930 921 931 940
f 930 929 928 927 926 925 924 923 922 921
f 931 932 933 934 935 936 937 938 939 940
f 945 947 943 941
f 942 944 948 946
f 941 942 946 945
f 947 948 944 943
f 943 944 942 941
f 945 946 948 947
f 949 950 960 959
f 950 951 961 960
f 951 952 962 961
f 952 953 963 962
f 953 954 964 963
f 954 955 965 964
f 955 956 966 965
f 956 957 967 966
f 957 958 968 967
f 958 949 959 968
f 958 957 956 955 954 953 952 951 950 949
f 959 960 961 962 963 964 965 966 967 968
f 969 970 980 979
f 970 971 981 980
f 971 972 982 981
f 972 973 983 982
f 973 974 984 983
f 974 975 985 984
f 975 976 986 985
f 976 977 987 986
f 977 978 988 987
f 978 969 979 988
f 978 977 976 975 974 973 972 971 970 969
f 979 980 981 982 983 984 985 986 987 988
f 993 995 991 989
f 990 992 996 994
f 989 990 994 993
f 995 996 992 991
f 991 992 990 989
f 993 994 996 995
f 997 998 1008 1007
f 998 999 1009 1008
f 999 1000 1010 1009
f 1000 1001 1011 1010
f 1001 1002 1012 1011
f 1002 1003 1013 1012
f 1003 1004 1014 1013
f 1004 1005 1015 1014
f 1005 1006 1016 1015
f 1006 997 1007 1016
f 1006 1005 1004 1003 1002 1001 1000 999 998 997
f 1007 1008 1009 1010 1011 1012 1013 1014 1015 1016
f 1017 1018 1028 1027
f 1018 1019 1029 1028
f 1019 1020 1030 1029
f 1020 1021 1031 1030
f 1021 1022 1032 1031
f 1022 1023 1033 1032
f 1023 1024 1034 1033
f 1024 1025 1035 1034
f 1025 1026 1036 1035
f 1026 1017 1027 1036
f 1026 1025 1024 1023 1022 1021 1020 1019 1018 1017
f 1027 1028 1029 1030 1031 1032 1033 1034 1035 1036
f 1041 1043 1039 1037
f 1038 1040 1044 1042
f 1037 1038 1042 1041
f 1043 1044 1040 1039
f 1039 1040 1038 1037
f 1041 1042 1044 1043
o XS_MINER_Drone_4
usemtl Armor
v 2.5000 0.7000 1.4000
v 3.5000 0.7000 1.4000
v 2.5000 0.7000 0.2000
v 3.5000 0.7000 0.2000
v 2.5000 1.2000 1.4000
v 3.5000 1.2000 1.4000
v 2.5000 1.2000 0.2000
v 3.5000 1.2000 0.2000
v 2.6500 0.4000 1.3000
v 3.3500 0.4000 1.3000
v 2.6500 0.4000 0.8000
v 3.3500 0.4000 0.8000
v 2.6500 0.7000 1.3000
v 3.3500 0.7000 1.3000
v 2.6500 0.7000 0.8000
v 3.3500 0.7000 0.8000
v 2.9400 0.5000 0.6000
v 3.0600 0.5000 0.6000
v 2.9400 0.5000 -0.1000
v 3.0600 0.5000 -0.1000
v 2.9400 0.6500 0.6000
v 3.0600 0.6500 0.6000
v 2.9400 0.6500 -0.1000
v 3.0600 0.6500 -0.1000
v 2.9500 0.5100 -0.1000
v 3.0500 0.5100 -0.1000
v 2.9500 0.5100 -0.1500
v 3.0500 0.5100 -0.1500
v 2.9500 0.6400 -0.1000
v 3.0500 0.6400 -0.1000
v 2.9500 0.6400 -0.1500
v 3.0500 0.6400 -0.1500
v 2.1500 0.9000 1.6500
v 2.5500 0.9000 1.6500
v 2.1500 0.9000 1.2500
v 2.5500 0.9000 1.2500
v 2.1500 1.0000 1.6500
v 2.5500 1.0000 1.6500
v 2.1500 1.0000 1.2500
v 2.5500 1.0000 1.2500
v 2.4300 0.8000 1.6500
v 2.3765 0.8000 1.4854
v 2.2365 0.8000 1.3837
v 2.0635 0.8000 1.3837
v 1.9235 0.8000 1.4854
v 1.8700 0.8000 1.6500
v 1.9235 0.8000 1.8146
v 2.0635 0.8000 1.9163
v 2.2365 0.8000 1.9163
v 2.3765 0.8000 1.8146
v 2.4300 1.1000 1.6500
v 2.3765 1.1000 1.4854
v 2.2365 1.1000 1.3837
v 2.0635 1.1000 1.3837
v 1.9235 1.1000 1.4854
v 1.8700 1.1000 1.6500
v 1.9235 1.1000 1.8146
v 2.0635 1.1000 1.9163
v 2.2365 1.1000 1.9163
v 2.3765 1.1000 1.8146
v 2.3500 0.7500 1.6500
v 2.3118 0.7500 1.5324
v 2.2118 0.7500 1.4598
v 2.0882 0.7500 1.4598
v 1.9882 0.7500 1.5324
v 1.9500 0.7500 1.6500
v 1.9882 0.7500 1.7676
v 2.0882 0.7500 1.8402
v 2.2118 0.7500 1.8402
v 2.3118 0.7500 1.7676
v 2.3500 0.8000 1.6500
v 2.3118 0.8000 1.5324
v 2.2118 0.8000 1.4598
v 2.0882 0.8000 1.4598
v 1.9882 0.8000 1.5324
v 1.9500 0.8000 1.6500
v 1.9882 0.8000 1.7676
v 2.0882 0.8000 1.8402
v 2.2118 0.8000 1.8402
v 2.3118 0.8000 1.7676
v 2.1500 0.9000 0.3500
v 2.5500 0.9000 0.3500
v 2.1500 0.9000 -0.0500
v 2.5500 0.9000 -0.0500
v 2.1500 1.0000 0.3500
v 2.5500 1.0000 0.3500
v 2.1500 1.0000 -0.0500
v 2.5500 1.0000 -0.0500
v 2.4300 0.8000 -0.0500
v 2.3765 0.8000 -0.2146
v 2.2365 0.8000 -0.3163
v 2.0635 0.8000 -0.3163
v 1.9235 0.8000 -0.2146
v 1.8700 0.8000 -0.0500
v 1.9235 0.8000 0.1146
v 2.0635 0.8000 0.2163
v 2.2365 0.8000 0.2163
v 2.3765 0.8000 0.1146
v 2.4300 1.1000 -0.0500
v 2.3765 1.1000 -0.2146
v 2.2365 1.1000 -0.3163
v 2.0635 1.1000 -0.3163
v 1.9235 1.1000 -0.2146
v 1.8700 1.1000 -0.0500
v 1.9235 1.1000 0.1146
v 2.0635 1.1000 0.2163
v 2.2365 1.1000 0.2163
v 2.3765 1.1000 0.1146
v 2.3500 0.7500 -0.0500
v 2.3118 0.7500 -0.1676
v 2.2118 0.7500 -0.2402
v 2.0882 0.7500 -0.2402
v 1.9882 0.7500 -0.1676
v 1.9500 0.7500 -0.0500
v 1.9882 0.7500 0.0676
v 2.0882 0.7500 0.1402
v 2.2118 0.7500 0.1402
v 2.3118 0.7500 0.0676
v 2.3500 0.8000 -0.0500
v 2.3118 0.8000 -0.1676
v 2.2118 0.8000 -0.2402
v 2.0882 0.8000 -0.2402
v 1.9882 0.8000 -0.1676
v 1.9500 0.8000 -0.0500
v 1.9882 0.8000 0.0676
v 2.0882 0.8000 0.1402
v 2.2118 0.8000 0.1402
v 2.3118 0.8000 0.0676
v 3.4500 0.9000 1.6500
v 3.8500 0.9000 1.6500
v 3.4500 0.9000 1.2500
v 3.8500 0.9000 1.2500
v 3.4500 1.0000 1.6500
v 3.8500 1.0000 1.6500
v 3.4500 1.0000 1.2500
v 3.8500 1.0000 1.2500
v 4.1300 0.8000 1.6500
v 4.0765 0.8000 1.4854
v 3.9365 0.8000 1.3837
v 3.7635 0.8000 1.3837
v 3.6235 0.8000 1.4854
v 3.5700 0.8000 1.6500
v 3.6235 0.8000 1.8146
v 3.7635 0.8000 1.9163
v 3.9365 0.8000 1.9163
v 4.0765 0.8000 1.8146
v 4.1300 1.1000 1.6500
v 4.0765 1.1000 1.4854
v 3.9365 1.1000 1.3837
v 3.7635 1.1000 1.3837
v 3.6235 1.1000 1.4854
v 3.5700 1.1000 1.6500
v 3.6235 1.1000 1.8146
v 3.7635 1.1000 1.9163
v 3.9365 1.1000 1.9163
v 4.0765 1.1000 1.8146
v 4.0500 0.7500 1.6500
v 4.0118 0.7500 1.5324
v 3.9118 0.7500 1.4598
v 3.7882 0.7500 1.4598
v 3.6882 0.7500 1.5324
v 3.6500 0.7500 1.6500
v 3.6882 0.7500 1.7676
v 3.7882 0.7500 1.8402
v 3.9118 0.7500 1.8402
v 4.0118 0.7500 1.7676
v 4.0500 0.8000 1.6500
v 4.0118 0.8000 1.5324
v 3.9118 0.8000 1.4598
v 3.7882 0.8000 1.4598
v 3.6882 0.8000 1.5324
v 3.6500 0.8000 1.6500
v 3.6882 0.8000 1.7676
v 3.7882 0.8000 1.8402
v 3.9118 0.8000 1.8402
v 4.0118 0.8000 1.7676
v 3.4500 0.9000 0.3500
v 3.8500 0.9000 0.3500
v 3.4500 0.9000 -0.0500
v 3.8500 0.9000 -0.0500
v 3.4500 1.0000 0.3500
v 3.8500 1.0000 0.3500
v 3.4500 1.0000 -0.0500
v 3.8500 1.0000 -0.0500
v 4.1300 0.8000 -0.0500
v 4.0765 0.8000 -0.2146
v 3.9365 0.8000 -0.3163
v 3.7635 0.8000 -0.3163
v 3.6235 0.8000 -0.2146
v 3.5700 0.8000 -0.0500
v 3.6235 0.8000 0.1146
v 3.7635 0.8000 0.2163
v 3.9365 0.8000 0.2163
v 4.0765 0.8000 0.1146
v 4.1300 1.1000 -0.0500
v 4.0765 1.1000 -0.2146
v 3.9365 1.1000 -0.3163
v 3.7635 1.1000 -0.3163
v 3.6235 1.1000 -0.2146
v 3.5700 1.1000 -0.0500
v 3.6235 1.1000 0.1146
v 3.7635 1.1000 0.2163
v 3.9365 1.1000 0.2163
v 4.0765 1.1000 0.1146
v 4.0500 0.7500 -0.0500
v 4.0118 0.7500 -0.1676
v 3.9118 0.7500 -0.2402
v 3.7882 0.7500 -0.2402
v 3.6882 0.7500 -0.1676
v 3.6500 0.7500 -0.0500
v 3.6882 0.7500 0.0676
v 3.7882 0.7500 0.1402
v 3.9118 0.7500 0.1402
v 4.0118 0.7500 0.0676
v 4.0500 0.8000 -0.0500
v 4.0118 0.8000 -0.1676
v 3.9118 0.8000 -0.2402
v 3.7882 0.8000 -0.2402
v 3.6882 0.8000 -0.1676
v 3.6500 0.8000 -0.0500
v 3.6882 0.8000 0.0676
v 3.7882 0.8000 0.1402
v 3.9118 0.8000 0.1402
v 4.0118 0.8000 0.0676
v 2.8500 0.9500 0.2000
v 3.1500 0.9500 0.2000
v 2.8500 0.9500 0.1800
v 3.1500 0.9500 0.1800
v 2.8500 1.0500 0.2000
v 3.1500 1.0500 0.2000
v 2.8500 1.0500 0.1800
v 3.1500 1.0500 0.1800
f 1049 1051 1047 1045
f 1046 1048 1052 1050
f 1045 1046 1050 1049
f 1051 1052 1048 1047
f 1047 1048 1046 1045
f 1049 1050 1052 1051
f 1057 1059 1055 1053
f 1054 1056 1060 1058
f 1053 1054 1058 1057
f 1059 1060 1056 1055
f 1055 1056 1054 1053
f 1057 1058 1060 1059
f 1065 1067 1063 1061
f 1062 1064 1068 1066
f 1061 1062 1066 1065
f 1067 1068 1064 1063
f 1063 1064 1062 1061
f 1065 1066 1068 1067
f 1073 1075 1071 1069
f 1070 1072 1076 1074
f 1069 1070 1074 1073
f 1075 1076 1072 1071
f 1071 1072 1070 1069
f 1073 1074 1076 1075
f 1081 1083 1079 1077
f 1078 1080 1084 1082
f 1077 1078 1082 1081
f 1083 1084 1080 1079
f 1079 1080 1078 1077
f 1081 1082 1084 1083
f 1085 1086 1096 1095
f 1086 1087 1097 1096
f 1087 1088 1098 1097
f 1088 1089 1099 1098
f 1089 1090 1100 1099
f 1090 1091 1101 1100
f 1091 1092 1102 1101
f 1092 1093 1103 1102
f 1093 1094 1104 1103
f 1094 1085 1095 1104
f 1094 1093 1092 1091 1090 1089 1088 1087 1086 1085
f 1095 1096 1097 1098 1099 1100 1101 1102 1103 1104
f 1105 1106 1116 1115
f 1106 1107 1117 1116
f 1107 1108 1118 1117
f 1108 1109 1119 1118
f 1109 1110 1120 1119
f 1110 1111 1121 1120
f 1111 1112 1122 1121
f 1112 1113 1123 1122
f 1113 1114 1124 1123
f 1114 1105 1115 1124
f 1114 1113 1112 1111 1110 1109 1108 1107 1106 1105
f 1115 1116 1117 1118 1119 1120 1121 1122 1123 1124
f 1129 1131 1127 1125
f 1126 1128 1132 1130
f 1125 1126 1130 1129
f 1131 1132 1128 1127
f 1127 1128 1126 1125
f 1129 1130 1132 1131
f 1133 1134 1144 1143
f 1134 1135 1145 1144
f 1135 1136 1146 1145
f 1136 1137 1147 1146
f 1137 1138 1148 1147
f 1138 1139 1149 1148
f 1139 1140 1150 1149
f 1140 1141 1151 1150
f 1141 1142 1152 1151
f 1142 1133 1143 1152
f 1142 1141 1140 1139 1138 1137 1136 1135 1134 1133
f 1143 1144 1145 1146 1147 1148 1149 1150 1151 1152
f 1153 1154 1164 1163
f 1154 1155 1165 1164
f 1155 1156 1166 1165
f 1156 1157 1167 1166
f 1157 1158 1168 1167
f 1158 1159 1169 1168
f 1159 1160 1170 1169
f 1160 1161 1171 1170
f 1161 1162 1172 1171
f 1162 1153 1163 1172
f 1162 1161 1160 1159 1158 1157 1156 1155 1154 1153
f 1163 1164 1165 1166 1167 1168 1169 1170 1171 1172
f 1177 1179 1175 1173
f 1174 1176 1180 1178
f 1173 1174 1178 1177
f 1179 1180 1176 1175
f 1175 1176 1174 1173
f 1177 1178 1180 1179
f 1181 1182 1192 1191
f 1182 1183 1193 1192
f 1183 1184 1194 1193
f 1184 1185 1195 1194
f 1185 1186 1196 1195
f 1186 1187 1197 1196
f 1187 1188 1198 1197
f 1188 1189 1199 1198
f 1189 1190 1200 1199
f 1190 1181 1191 1200
f 1190 1189 1188 1187 1186 1185 1184 1183 1182 1181
f 1191 1192 1193 1194 1195 1196 1197 1198 1199 1200
f 1201 1202 1212 1211
f 1202 1203 1213 1212
f 1203 1204 1214 1213
f 1204 1205 1215 1214
f 1205 1206 1216 1215
f 1206 1207 1217 1216
f 1207 1208 1218 1217
f 1208 1209 1219 1218
f 1209 1210 1220 1219
f 1210 1201 1211 1220
f 1210 1209 1208 1207 1206 1205 1204 1203 1202 1201
f 1211 1212 1213 1214 1215 1216 1217 1218 1219 1220
f 1225 1227 1223 1221
f 1222 1224 1228 1226
f 1221 1222 1226 1225
f 1227 1228 1224 1223
f 1223 1224 1222 1221
f 1225 1226 1228 1227
f 1229 1230 1240 1239
f 1230 1231 1241 1240
f 1231 1232 1242 1241
f 1232 1233 1243 1242
f 1233 1234 1244 1243
f 1234 1235 1245 1244
f 1235 1236 1246 1245
f 1236 1237 1247 1246
f 1237 1238 1248 1247
f 1238 1229 1239 1248
f 1238 1237 1236 1235 1234 1233 1232 1231 1230 1229
f 1239 1240 1241 1242 1243 1244 1245 1246 1247 1248
f 1249 1250 1260 1259
f 1250 1251 1261 1260
f 1251 1252 1262 1261
f 1252 1253 1263 1262
f 1253 1254 1264 1263
f 1254 1255 1265 1264
f 1255 1256 1266 1265
f 1256 1257 1267 1266
f 1257 1258 1268 1267
f 1258 1249 1259 1268
f 1258 1257 1256 1255 1254 1253 1252 1251 1250 1249
f 1259 1260 1261 1262 1263 1264 1265 1266 1267 1268
f 1273 1275 1271 1269
f 1270 1272 1276 1274
f 1269 1270 1274 1273
f 1275 1276 1272 1271
f 1271 1272 1270 1269
f 1273 1274 1276 1275
