mtllib ship_XS_POD.mtl
o XS_POD_Hull-col
usemtl Hull
v 1.2288 1.7377 3.0000
v 0.5090 2.4575 3.0000
v 1.2288 1.7377 -2.6000
v 0.5090 2.4575 -2.6000
v 1.3396 1.7837 3.0000
v 0.5549 2.5684 3.0000
v 1.3396 1.7837 -2.6000
v 0.5549 2.5684 -2.6000
v 0.5090 2.4575 3.0000
v -0.5090 2.4575 3.0000
v 0.5090 2.4575 -2.6000
v -0.5090 2.4575 -2.6000
v 0.5549 2.5684 3.0000
v -0.5549 2.5684 3.0000
v 0.5549 2.5684 -2.6000
v -0.5549 2.5684 -2.6000
v -0.5090 2.4575 3.0000
v -1.2288 1.7377 3.0000
v -0.5090 2.4575 -2.6000
v -1.2288 1.7377 -2.6000
v -0.5549 2.5684 3.0000
v -1.3396 1.7837 3.0000
v -0.5549 2.5684 -2.6000
v -1.3396 1.7837 -2.6000
v -1.2288 1.7377 3.0000
v -1.2288 0.7198 3.0000
v -1.2288 1.7377 -2.6000
v -1.2288 0.7198 -2.6000
v -1.3396 1.7837 3.0000
v -1.3396 0.6739 3.0000
v -1.3396 1.7837 -2.6000
v -1.3396 0.6739 -2.6000
v -1.2288 0.7198 3.0000
v -0.5090 0.0000 3.0000
v -1.2288 0.7198 -2.6000
v -0.5090 0.0000 -2.6000
v -1.3396 0.6739 3.0000
v -0.5549 -0.1109 3.0000
v -1.3396 0.6739 -2.6000
v -0.5549 -0.1109 -2.6000
v -0.5090 0.0000 3.0000
v 0.5090 -0.0000 3.0000
v -0.5090 0.0000 -2.6000
v 0.5090 -0.0000 -2.6000
v -0.5549 -0.1109 3.0000
v 0.5549 -0.1109 3.0000
v -0.5549 -0.1109 -2.6000
v 0.5549 -0.1109 -2.6000
v 0.5090 0.0000 3.0000
v 1.2288 0.7198 3.0000
v 0.5090 0.0000 -2.6000
v 1.2288 0.7198 -2.6000
v 0.5549 -0.1109 3.0000
v 1.3396 0.6739 3.0000
v 0.5549 -0.1109 -2.6000
v 1.3396 0.6739 -2.6000
v 1.2288 0.7198 3.0000
v 1.2288 1.7377 3.0000
v 1.2288 0.7198 -2.6000
v 1.2288 1.7377 -2.6000
v 1.3396 0.6739 3.0000
v 1.3396 1.7837 3.0000
v 1.3396 0.6739 -2.6000
v 1.3396 1.7837 -2.6000
v 1.3396 1.7837 3.3000
v 0.5549 2.5684 3.3000
v -0.5549 2.5684 3.3000
v -1.3396 1.7837 3.3000
v -1.3396 0.6739 3.3000
v -0.5549 -0.1109 3.3000
v 0.5549 -0.1109 3.3000
v 1.3396 0.6739 3.3000
v 1.3396 1.7837 3.0000
v 0.5549 2.5684 3.0000
v -0.5549 2.5684 3.0000
v -1.3396 1.7837 3.0000
v -1.3396 0.6739 3.0000
v -0.5549 -0.1109 3.0000
v 0.5549 -0.1109 3.0000
v 1.3396 0.6739 3.0000
f 1 3 7 5
f 6 8 4 2
f 5 6 2 1
f 3 4 8 7
f 1 2 4 3
f 7 8 6 5
f 9 11 15 13
f 14 16 12 10
f 13 14 10 9
f 11 12 16 15
f 9 10 12 11
f 15 16 14 13
f 17 19 23 21
f 22 24 20 18
f 21 22 18 17
f 19 20 24 23
f 17 18 20 19
f 23 24 22 21
f 25 27 31 29
f 30 32 28 26
f 29 30 26 25
f 27 28 32 31
f 25 26 28 27
f 31 32 30 29
f 33 35 39 37
f 38 40 36 34
f 37 38 34 33
f 35 36 40 39
f 33 34 36 35
f 39 40 38 37
f 41 43 47 45
f 46 48 44 42
f 45 46 42 41
f 43 44 48 47
f 41 42 44 43
f 47 48 46 45
f 49 51 55 53
f 54 56 52 50
f 53 54 50 49
f 51 52 56 55
f 49 50 52 51
f 55 56 54 53
f 57 59 63 61
f 62 64 60 58
f 61 62 58 57
f 59 60 64 63
f 57 58 60 59
f 63 64 62 61
f 73 74 66 65
f 74 75 67 66
f 75 76 68 67
f 76 77 69 68
f 77 78 70 69
f 78 79 71 70
f 79 80 72 71
f 80 73 65 72
f 65 66 67 68 69 70 71 72
f 80 79 78 77 76 75 74 73
o XS_POD_Trim
usemtl Trim
v -1.5500 1.1888 4.1000
v -0.9000 1.1888 4.1000
v -1.5500 1.1888 2.6000
v -0.9000 1.1888 2.6000
v -1.5500 1.2688 4.1000
v -0.9000 1.2688 4.1000
v -1.5500 1.2688 2.6000
v -0.9000 1.2688 2.6000
v -0.0400 -0.3212 4.1000
v 0.0400 -0.3212 4.1000
v -0.0400 -0.3212 2.6000
v 0.0400 -0.3212 2.6000
v -0.0400 0.3288 4.1000
v 0.0400 0.3288 4.1000
v -0.0400 0.3288 2.6000
v 0.0400 0.3288 2.6000
v 0.9000 1.1888 4.1000
v 1.5500 1.1888 4.1000
v 0.9000 1.1888 2.6000
v 1.5500 1.1888 2.6000
v 0.9000 1.2688 4.1000
v 1.5500 1.2688 4.1000
v 0.9000 1.2688 2.6000
v 1.5500 1.2688 2.6000
v -0.0400 2.1288 4.1000
v 0.0400 2.1288 4.1000
v -0.0400 2.1288 2.6000
v 0.0400 2.1288 2.6000
v -0.0400 2.7788 4.1000
v 0.0400 2.7788 4.1000
v -0.0400 2.7788 2.6000
v 0.0400 2.7788 2.6000
f 85 87 83 81
f 82 84 88 86
f 81 82 86 85
f 87 88 84 83
f 83 84 82 81
f 85 86 88 87
f 93 95 91 89
f 90 92 96 94
f 89 90 94 93
f 95 96 92 91
f 91 92 90 89
f 93 94 96 95
f 101 103 99 97
f 98 100 104 102
f 97 98 102 101
f 103 104 100 99
f 99 100 98 97
f 101 102 104 103
f 109 111 107 105
f 106 108 112 110
f 105 106 110 109
f 111 112 108 107
f 107 108 106 105
f 109 110 112 111
o XS_POD_Engines
usemtl Engine
v 1.0000 1.2288 4.2000
v 0.9239 1.6114 4.2000
v 0.7071 1.9359 4.2000
v 0.3827 2.1526 4.2000
v 0.0000 2.2288 4.2000
v -0.3827 2.1526 4.2000
v -0.7071 1.9359 4.2000
v -0.9239 1.6114 4.2000
v -1.0000 1.2288 4.2000
v -0.9239 0.8461 4.2000
v -0.7071 0.5217 4.2000
v -0.3827 0.3049 4.2000
v -0.0000 0.2288 4.2000
v 0.3827 0.3049 4.2000
v 0.7071 0.5217 4.2000
v 0.9239 0.8461 4.2000
v 1.0000 1.2288 3.3000
v 0.9239 1.6114 3.3000
v 0.7071 1.9359 3.3000
v 0.3827 2.1526 3.3000
v 0.0000 2.2288 3.3000
v -0.3827 2.1526 3.3000
v -0.7071 1.9359 3.3000
v -0.9239 1.6114 3.3000
v -1.0000 1.2288 3.3000
v -0.9239 0.8461 3.3000
v -0.7071 0.5217 3.3000
v -0.3827 0.3049 3.3000
v -0.0000 0.2288 3.3000
v 0.3827 0.3049 3.3000
v 0.7071 0.5217 3.3000
v 0.9239 0.8461 3.3000
f 129 130 114 113
f 130 131 115 114
f 131 132 116 115
f 132 133 117 116
f 133 134 118 117
f 134 135 119 118
f 135 136 120 119
f 136 137 121 120
f 137 138 122 121
f 138 139 123 122
f 139 140 124 123
f 140 141 125 124
f 141 142 126 125
f 142 143 127 126
f 143 144 128 127
f 144 129 113 128
f 113 114 115 116 117 118 119 120 121 122 123 124 125 126 127 128
f 144 143 142 141 140 139 138 137 136 135 134 133 132 131 130 129
o XS_POD_EngineGlow
usemtl EngineGlow
v 0.7500 1.2288 4.3000
v 0.6929 1.5158 4.3000
v 0.5303 1.7591 4.3000
v 0.2870 1.9217 4.3000
v 0.0000 1.9788 4.3000
v -0.2870 1.9217 4.3000
v -0.5303 1.7591 4.3000
v -0.6929 1.5158 4.3000
v -0.7500 1.2288 4.3000
v -0.6929 0.9417 4.3000
v -0.5303 0.6984 4.3000
v -0.2870 0.5359 4.3000
v -0.0000 0.4788 4.3000
v 0.2870 0.5359 4.3000
v 0.5303 0.6984 4.3000
v 0.6929 0.9417 4.3000
v 0.7500 1.2288 4.2000
v 0.6929 1.5158 4.2000
v 0.5303 1.7591 4.2000
v 0.2870 1.9217 4.2000
v 0.0000 1.9788 4.2000
v -0.2870 1.9217 4.2000
v -0.5303 1.7591 4.2000
v -0.6929 1.5158 4.2000
v -0.7500 1.2288 4.2000
v -0.6929 0.9417 4.2000
v -0.5303 0.6984 4.2000
v -0.2870 0.5359 4.2000
v -0.0000 0.4788 4.2000
v 0.2870 0.5359 4.2000
v 0.5303 0.6984 4.2000
v 0.6929 0.9417 4.2000
f 161 162 146 145
f 162 163 147 146
f 163 164 148 147
f 164 165 149 148
f 165 166 150 149
f 166 167 151 150
f 167 168 152 151
f 168 169 153 152
f 169 170 154 153
f 170 171 155 154
f 171 172 156 155
f 172 173 157 156
f 173 174 158 157
f 174 175 159 158
f 175 176 160 159
f 176 161 145 160
f 145 146 147 148 149 150 151 152 153 154 155 156 157 158 159 160
f 176 175 174 173 172 171 170 169 168 167 166 165 164 163 162 161
o XS_POD_Hazard
usemtl Hazard
v 1.2195 1.7339 -2.2000
v 0.5051 2.4483 -2.2000
v 1.2195 1.7339 -2.9000
v 0.5051 2.4483 -2.9000
v 1.4505 1.8296 -2.2000
v 0.6008 2.6793 -2.2000
v 1.4505 1.8296 -2.9000
v 0.6008 2.6793 -2.9000
v 0.5051 2.4483 -2.2000
v -0.5051 2.4483 -2.2000
v 0.5051 2.4483 -2.9000
v -0.5051 2.4483 -2.9000
v 0.6008 2.6793 -2.2000
v -0.6008 2.6793 -2.2000
v 0.6008 2.6793 -2.9000
v -0.6008 2.6793 -2.9000
v -0.5051 2.4483 -2.2000
v -1.2195 1.7339 -2.2000
v -0.5051 2.4483 -2.9000
v -1.2195 1.7339 -2.9000
v -0.6008 2.6793 -2.2000
v -1.4505 1.8296 -2.2000
v -0.6008 2.6793 -2.9000
v -1.4505 1.8296 -2.9000
v -1.2195 1.7339 -2.2000
v -1.2195 0.7236 -2.2000
v -1.2195 1.7339 -2.9000
v -1.2195 0.7236 -2.9000
v -1.4505 1.8296 -2.2000
v -1.4505 0.6279 -2.2000
v -1.4505 1.8296 -2.9000
v -1.4505 0.6279 -2.9000
v -1.2195 0.7236 -2.2000
v -0.5051 0.0092 -2.2000
v -1.2195 0.7236 -2.9000
v -0.5051 0.0092 -2.9000
v -1.4505 0.6279 -2.2000
v -0.6008 -0.2217 -2.2000
v -1.4505 0.6279 -2.9000
v -0.6008 -0.2217 -2.9000
v -0.5051 0.0092 -2.2000
v 0.5051 0.0092 -2.2000
v -0.5051 0.0092 -2.9000
v 0.5051 0.0092 -2.9000
v -0.6008 -0.2217 -2.2000
v 0.6008 -0.2217 -2.2000
v -0.6008 -0.2217 -2.9000
v 0.6008 -0.2217 -2.9000
v 0.5051 0.0092 -2.2000
v 1.2195 0.7236 -2.2000
v 0.5051 0.0092 -2.9000
v 1.2195 0.7236 -2.9000
v 0.6008 -0.2217 -2.2000
v 1.4505 0.6279 -2.2000
v 0.6008 -0.2217 -2.9000
v 1.4505 0.6279 -2.9000
v 1.2195 0.7236 -2.2000
v 1.2195 1.7339 -2.2000
v 1.2195 0.7236 -2.9000
v 1.2195 1.7339 -2.9000
v 1.4505 0.6279 -2.2000
v 1.4505 1.8296 -2.2000
v 1.4505 0.6279 -2.9000
v 1.4505 1.8296 -2.9000
v 0.7592 1.9880 -2.9000
v 1.0792 1.9880 -2.9000
v 0.8792 2.1080 -3.6000
v 0.9592 2.1080 -3.6000
v 0.7592 2.3080 -2.9000
v 1.0792 2.3080 -2.9000
v 0.8792 2.1880 -3.6000
v 0.9592 2.1880 -3.6000
v -1.0792 1.9880 -2.9000
v -0.7592 1.9880 -2.9000
v -0.9592 2.1080 -3.6000
v -0.8792 2.1080 -3.6000
v -1.0792 2.3080 -2.9000
v -0.7592 2.3080 -2.9000
v -0.9592 2.1880 -3.6000
v -0.8792 2.1880 -3.6000
v -1.0792 0.1495 -2.9000
v -0.7592 0.1495 -2.9000
v -0.9592 0.2695 -3.6000
v -0.8792 0.2695 -3.6000
v -1.0792 0.4695 -2.9000
v -0.7592 0.4695 -2.9000
v -0.9592 0.3495 -3.6000
v -0.8792 0.3495 -3.6000
v 0.7592 0.1495 -2.9000
v 1.0792 0.1495 -2.9000
v 0.8792 0.2695 -3.6000
v 0.9592 0.2695 -3.6000
v 0.7592 0.4695 -2.9000
v 1.0792 0.4695 -2.9000
v 0.8792 0.3495 -3.6000
v 0.9592 0.3495 -3.6000
f 177 179 183 181
f 182 184 180 178
f 181 182 178 177
f 179 180 184 183
f 177 178 180 179
f 183 184 182 181
f 185 187 191 189
f 190 192 188 186
f 189 190 186 185
f 187 188 192 191
f 185 186 188 187
f 191 192 190 189
f 193 195 199 197
f 198 200 196 194
f 197 198 194 193
f 195 196 200 199
f 193 194 196 195
f 199 200 198 197
f 201 203 207 205
f 206 208 204 202
f 205 206 202 201
f 203 204 208 207
f 201 202 204 203
f 207 208 206 205
f 209 211 215 213
f 214 216 212 210
f 213 214 210 209
f 211 212 216 215
f 209 210 212 211
f 215 216 214 213
f 217 219 223 221
f 222 224 220 218
f 221 222 218 217
f 219 220 224 223
f 217 218 220 219
f 223 224 222 221
f 225 227 231 229
f 230 232 228 226
f 229 230 226 225
f 227 228 232 231
f 225 226 228 227
f 231 232 230 229
f 233 235 239 237
f 238 240 236 234
f 237 238 234 233
f 235 236 240 239
f 233 234 236 235
f 239 240 238 237
f 245 247 243 241
f 242 244 248 246
f 241 242 246 245
f 247 248 244 243
f 243 244 242 241
f 245 246 248 247
f 253 255 251 249
f 250 252 256 254
f 249 250 254 253
f 255 256 252 251
f 251 252 250 249
f 253 254 256 255
f 261 263 259 257
f 258 260 264 262
f 257 258 262 261
f 263 264 260 259
f 259 260 258 257
f 261 262 264 263
f 269 271 267 265
f 266 268 272 270
f 265 266 270 269
f 271 272 268 267
f 267 268 266 265
f 269 270 272 271
o XS_POD_Interior-col
usemtl Cover
v -1.1000 0.0000 2.8000
v -0.7000 0.0000 2.8000
v -1.1000 0.0000 -2.0000
v -0.7000 0.0000 -2.0000
v -1.1000 0.5000 2.8000
v -0.7000 0.5000 2.8000
v -1.1000 0.5000 -2.0000
v -0.7000 0.5000 -2.0000
v 0.7000 0.0000 2.8000
v 1.1000 0.0000 2.8000
v 0.7000 0.0000 -2.0000
v 1.1000 0.0000 -2.0000
v 0.7000 0.5000 2.8000
v 1.1000 0.5000 2.8000
v 0.7000 0.5000 -2.0000
v 1.1000 0.5000 -2.0000
f 277 279 275 273
f 274 276 280 278
f 273 274 278 277
f 279 280 276 275
f 275 276 274 273
f 277 278 280 279
f 285 287 283 281
f 282 284 288 286
f 281 282 286 285
f 287 288 284 283
f 283 284 282 281
f 285 286 288 287
o XS_POD_Lights
usemtl Lights
v -0.6000 2.3800 2.7000
v -0.3000 2.3800 2.7000
v -0.6000 2.3800 -2.3000
v -0.3000 2.3800 -2.3000
v -0.6000 2.4200 2.7000
v -0.3000 2.4200 2.7000
v -0.6000 2.4200 -2.3000
v -0.3000 2.4200 -2.3000
v 0.3000 2.3800 2.7000
v 0.6000 2.3800 2.7000
v 0.3000 2.3800 -2.3000
v 0.6000 2.3800 -2.3000
v 0.3000 2.4200 2.7000
v 0.6000 2.4200 2.7000
v 0.3000 2.4200 -2.3000
v 0.6000 2.4200 -2.3000
f 293 295 291 289
f 290 292 296 294
f 289 290 294 293
f 295 296 292 291
f 291 292 290 289
f 293 294 296 295
f 301 303 299 297
f 298 300 304 302
f 297 298 302 301
f 303 304 300 299
f 299 300 298 297
f 301 302 304 303
o XS_POD_Hatch-col
usemtl BreachPanel
v 1.3396 1.7837 -2.6000
v 0.5549 2.5684 -2.6000
v -0.5549 2.5684 -2.6000
v -1.3396 1.7837 -2.6000
v -1.3396 0.6739 -2.6000
v -0.5549 -0.1109 -2.6000
v 0.5549 -0.1109 -2.6000
v 1.3396 0.6739 -2.6000
v 1.3396 1.7837 -2.8500
v 0.5549 2.5684 -2.8500
v -0.5549 2.5684 -2.8500
v -1.3396 1.7837 -2.8500
v -1.3396 0.6739 -2.8500
v -0.5549 -0.1109 -2.8500
v 0.5549 -0.1109 -2.8500
v 1.3396 0.6739 -2.8500
f 313 314 306 305
f 314 315 307 306
f 315 316 308 307
f 316 317 309 308
f 317 318 310 309
f 318 319 311 310
f 319 320 312 311
f 320 313 305 312
f 305 306 307 308 309 310 311 312
f 320 319 318 317 316 315 314 313
