mtllib ship_XS_DROPSHIP.mtl
o XS_DROPSHIP_Hull-col
usemtl Hull
v -1.7500 -0.2000 5.0000
v 1.7500 -0.2000 5.0000
v -1.7500 -0.2000 -3.0000
v 1.7500 -0.2000 -3.0000
v -1.7500 0.0000 5.0000
v 1.7500 0.0000 5.0000
v -1.7500 0.0000 -3.0000
v 1.7500 0.0000 -3.0000
v -1.7500 2.4000 5.0000
v 1.7500 2.4000 5.0000
v -1.7500 2.4000 -3.0000
v 1.7500 2.4000 -3.0000
v -1.7500 2.6000 5.0000
v 1.7500 2.6000 5.0000
v -1.7500 2.6000 -3.0000
v 1.7500 2.6000 -3.0000
v -1.7500 0.0000 -3.0000
v 1.7500 0.0000 -3.0000
v -1.7500 0.0000 -3.1500
v 1.7500 0.0000 -3.1500
v -1.7500 2.4000 -3.0000
v 1.7500 2.4000 -3.0000
v -1.7500 2.4000 -3.1500
v 1.7500 2.4000 -3.1500
v -1.7500 0.0000 5.0000
v -1.6000 0.0000 5.0000
v -1.7500 0.0000 -3.0000
v -1.6000 0.0000 -3.0000
v -1.7500 2.4000 5.0000
v -1.6000 2.4000 5.0000
v -1.7500 2.4000 -3.0000
v -1.6000 2.4000 -3.0000
v 1.6000 0.0000 5.0000
v 1.7500 0.0000 5.0000
v 1.6000 0.0000 -3.0000
v 1.7500 0.0000 -3.0000
v 1.6000 2.4000 5.0000
v 1.7500 2.4000 5.0000
v 1.6000 2.4000 -3.0000
v 1.7500 2.4000 -3.0000
v -1.9000 -0.8000 -3.0000
v 1.9000 -0.8000 -3.0000
v -0.7000 -0.3000 -8.0000
v 0.7000 -0.3000 -8.0000
v -1.9000 3.2000 -3.0000
v 1.9000 3.2000 -3.0000
v -0.7000 1.6000 -8.0000
v 0.7000 1.6000 -8.0000
v -1.9000 1.2250 2.5000
v -4.2000 1.4750 2.2000
v -1.9000 1.2250 -1.0000
v -4.2000 1.4750 -0.4000
v -1.9000 1.5750 2.5000
v -4.2000 1.7250 2.2000
v -1.9000 1.5750 -1.0000
v -4.2000 1.7250 -0.4000
v 1.9000 1.2250 2.5000
v 4.2000 1.4750 2.2000
v 1.9000 1.2250 -1.0000
v 4.2000 1.4750 -0.4000
v 1.9000 1.5750 2.5000
v 4.2000 1.7250 2.2000
v 1.9000 1.5750 -1.0000
v 4.2000 1.7250 -0.4000
f 5 7 3 1
f 2 4 8 6
f 1 2 6 5
f 7 8 4 3
f 3 4 2 1
f 5 6 8 7
f 13 15 11 9
f 10 12 16 14
f 9 10 14 13
f 15 16 12 11
f 11 12 10 9
f 13 14 16 15
f 21 23 19 17
f 18 20 24 22
f 17 18 22 21
f 23 24 20 19
f 19 20 18 17
f 21 22 24 23
f 29 31 27 25
f 26 28 32 30
f 25 26 30 29
f 31 32 28 27
f 27 28 26 25
f 29 30 32 31
f 37 39 35 33
f 34 36 40 38
f 33 34 38 37
f 39 40 36 35
f 35 36 34 33
f 37 38 40 39
f 45 47 43 41
f 42 44 48 46
f 41 42 46 45
f 47 48 44 43
f 43 44 42 41
f 45 46 48 47
f 49 51 55 53
f 54 56 52 50
f 53 54 50 49
f 51 52 56 55
f 49 50 52 51
f 55 56 54 53
f 61 63 59 57
f 58 60 64 62
f 57 58 62 61
f 63 64 60 59
f 59 60 58 57
f 61 62 64 63
o XS_DROPSHIP_Armor
usemtl Armor
v -1.9000 2.6000 5.0000
v 1.9000 2.6000 5.0000
v -1.9000 2.6000 -3.0000
v 1.9000 2.6000 -3.0000
v -1.4000 3.2000 5.0000
v 1.4000 3.2000 5.0000
v -1.4000 3.2000 -3.0000
v 1.4000 3.2000 -3.0000
v -1.4000 -0.8000 5.0000
v 1.4000 -0.8000 5.0000
v -1.4000 -0.8000 -3.0000
v 1.4000 -0.8000 -3.0000
v -1.9000 -0.2000 5.0000
v 1.9000 -0.2000 5.0000
v -1.9000 -0.2000 -3.0000
v 1.9000 -0.2000 -3.0000
v -1.3000 3.2000 5.0000
v -1.1000 3.2000 5.0000
v -1.3000 3.2000 3.2000
v -1.1000 3.2000 3.2000
v -1.3000 4.4000 5.0000
v -1.1000 4.4000 5.0000
v -1.3000 4.4000 3.2000
v -1.1000 4.4000 3.2000
v 1.1000 3.2000 5.0000
v 1.3000 3.2000 5.0000
v 1.1000 3.2000 3.2000
v 1.3000 3.2000 3.2000
v 1.1000 4.4000 5.0000
v 1.3000 4.4000 5.0000
v 1.1000 4.4000 3.2000
v 1.3000 4.4000 3.2000
f 69 71 67 65
f 66 68 72 70
f 65 66 70 69
f 71 72 68 67
f 67 68 66 65
f 69 70 72 71
f 77 79 75 73
f 74 76 80 78
f 73 74 78 77
f 79 80 76 75
f 75 76 74 73
f 77 78 80 79
f 85 87 83 81
f 82 84 88 86
f 81 82 86 85
f 87 88 84 83
f 83 84 82 81
f 85 86 88 87
f 93 95 91 89
f 90 92 96 94
f 89 90 94 93
f 95 96 92 91
f 91 92 90 89
f 93 94 96 95
o XS_DROPSHIP_Trim
usemtl Trim
v -1.5000 -1.2000 4.0000
v -1.2000 -1.2000 4.0000
v -1.5000 -1.2000 -2.0000
v -1.2000 -1.2000 -2.0000
v -1.5000 -1.0000 4.0000
v -1.2000 -1.0000 4.0000
v -1.5000 -1.0000 -2.0000
v -1.2000 -1.0000 -2.0000
v -1.5000 -1.0000 3.2000
v -1.2000 -1.0000 3.2000
v -1.5000 -1.0000 2.8000
v -1.2000 -1.0000 2.8000
v -1.5000 -0.8000 3.2000
v -1.2000 -0.8000 3.2000
v -1.5000 -0.8000 2.8000
v -1.2000 -0.8000 2.8000
v -1.5000 -1.0000 -1.0000
v -1.2000 -1.0000 -1.0000
v -1.5000 -1.0000 -1.4000
v -1.2000 -1.0000 -1.4000
v -1.5000 -0.8000 -1.0000
v -1.2000 -0.8000 -1.0000
v -1.5000 -0.8000 -1.4000
v -1.2000 -0.8000 -1.4000
v 1.2000 -1.2000 4.0000
v 1.5000 -1.2000 4.0000
v 1.2000 -1.2000 -2.0000
v 1.5000 -1.2000 -2.0000
v 1.2000 -1.0000 4.0000
v 1.5000 -1.0000 4.0000
v 1.2000 -1.0000 -2.0000
v 1.5000 -1.0000 -2.0000
v 1.2000 -1.0000 3.2000
v 1.5000 -1.0000 3.2000
v 1.2000 -1.0000 2.8000
v 1.5000 -1.0000 2.8000
v 1.2000 -0.8000 3.2000
v 1.5000 -0.8000 3.2000
v 1.2000 -0.8000 2.8000
v 1.5000 -0.8000 2.8000
v 1.2000 -1.0000 -1.0000
v 1.5000 -1.0000 -1.0000
v 1.2000 -1.0000 -1.4000
v 1.5000 -1.0000 -1.4000
v 1.2000 -0.8000 -1.0000
v 1.5000 -0.8000 -1.0000
v 1.2000 -0.8000 -1.4000
v 1.5000 -0.8000 -1.4000
f 101 103 99 97
f 98 100 104 102
f 97 98 102 101
f 103 104 100 99
f 99 100 98 97
f 101 102 104 103
f 109 111 107 105
f 106 108 112 110
f 105 106 110 109
f 111 112 108 107
f 107 108 106 105
f 109 110 112 111
f 117 119 115 113
f 114 116 120 118
f 113 114 118 117
f 119 120 116 115
f 115 116 114 113
f 117 118 120 119
f 125 127 123 121
f 122 124 128 126
f 121 122 126 125
f 127 128 124 123
f 123 124 122 121
f 125 126 128 127
f 133 135 131 129
f 130 132 136 134
f 129 130 134 133
f 135 136 132 131
f 131 132 130 129
f 133 134 136 135
f 141 143 139 137
f 138 140 144 142
f 137 138 142 141
f 143 144 140 139
f 139 140 138 137
f 141 142 144 143
o XS_DROPSHIP_Engines
usemtl Engine
v -4.7000 0.9000 3.0000
v -3.7000 0.9000 3.0000
v -4.7000 0.9000 -1.5000
v -3.7000 0.9000 -1.5000
v -4.7000 2.2000 3.0000
v -3.7000 2.2000 3.0000
v -4.7000 2.2000 -1.5000
v -3.7000 2.2000 -1.5000
v -0.3500 -0.1500 -7.5000
v -0.1500 -0.1500 -7.5000
v -0.3500 -0.1500 -9.0000
v -0.1500 -0.1500 -9.0000
v -0.3500 0.0500 -7.5000
v -0.1500 0.0500 -7.5000
v -0.3500 0.0500 -9.0000
v -0.1500 0.0500 -9.0000
v 3.7000 0.9000 3.0000
v 4.7000 0.9000 3.0000
v 3.7000 0.9000 -1.5000
v 4.7000 0.9000 -1.5000
v 3.7000 2.2000 3.0000
v 4.7000 2.2000 3.0000
v 3.7000 2.2000 -1.5000
v 4.7000 2.2000 -1.5000
v 0.1500 -0.1500 -7.5000
v 0.3500 -0.1500 -7.5000
v 0.1500 -0.1500 -9.0000
v 0.3500 -0.1500 -9.0000
v 0.1500 0.0500 -7.5000
v 0.3500 0.0500 -7.5000
v 0.1500 0.0500 -9.0000
v 0.3500 0.0500 -9.0000
f 149 151 147 145
f 146 148 152 150
f 145 146 150 149
f 151 152 148 147
f 147 148 146 145
f 149 150 152 151
f 157 159 155 153
f 154 156 160 158
f 153 154 158 157
f 159 160 156 155
f 155 156 154 153
f 157 158 160 159
f 165 167 163 161
f 162 164 168 166
f 161 162 166 165
f 167 168 164 163
f 163 164 162 161
f 165 166 168 167
f 173 175 171 169
f 170 172 176 174
f 169 170 174 173
f 175 176 172 171
f 171 172 170 169
f 173 174 176 175
o XS_DROPSHIP_EngineGlow
usemtl EngineGlow
v -4.5500 1.0500 3.0500
v -3.8500 1.0500 3.0500
v -4.5500 1.0500 3.0000
v -3.8500 1.0500 3.0000
v -4.5500 2.0500 3.0500
v -3.8500 2.0500 3.0500
v -4.5500 2.0500 3.0000
v -3.8500 2.0500 3.0000
v -4.5500 0.8500 2.6000
v -3.8500 0.8500 2.6000
v -4.5500 0.8500 -1.1000
v -3.8500 0.8500 -1.1000
v -4.5500 0.9000 2.6000
v -3.8500 0.9000 2.6000
v -4.5500 0.9000 -1.1000
v -3.8500 0.9000 -1.1000
v 3.8500 1.0500 3.0500
v 4.5500 1.0500 3.0500
v 3.8500 1.0500 3.0000
v 4.5500 1.0500 3.0000
v 3.8500 2.0500 3.0500
v 4.5500 2.0500 3.0500
v 3.8500 2.0500 3.0000
v 4.5500 2.0500 3.0000
v 3.8500 0.8500 2.6000
v 4.5500 0.8500 2.6000
v 3.8500 0.8500 -1.1000
v 4.5500 0.8500 -1.1000
v 3.8500 0.9000 2.6000
v 4.5500 0.9000 2.6000
v 3.8500 0.9000 -1.1000
v 4.5500 0.9000 -1.1000
f 181 183 179 177
f 178 180 184 182
f 177 178 182 181
f 183 184 180 179
f 179 180 178 177
f 181 182 184 183
f 189 191 187 185
f 186 188 192 190
f 185 186 190 189
f 191 192 188 187
f 187 188 186 185
f 189 190 192 191
f 197 199 195 193
f 194 196 200 198
f 193 194 198 197
f 199 200 196 195
f 195 196 194 193
f 197 198 200 199
f 205 207 203 201
f 202 204 208 206
f 201 202 206 205
f 207 208 204 203
f 203 204 202 201
f 205 206 208 207
o XS_DROPSHIP_Glass-col
usemtl Glass
v -1.4000 2.8000 -3.5000
v 1.4000 2.8000 -3.5000
v -0.6000 1.8000 -6.8000
v 0.6000 1.8000 -6.8000
v -1.4000 3.4000 -3.5000
v 1.4000 3.4000 -3.5000
v -0.6000 2.1500 -6.8000
v 0.6000 2.1500 -6.8000
f 213 215 211 209
f 210 212 216 214
f 209 210 214 213
f 215 216 212 211
f 211 212 210 209
f 213 214 216 215
o XS_DROPSHIP_Lights
usemtl Lights
v -1.8000 0.2000 4.7000
v -1.7500 0.2000 4.7000
v -1.8000 0.2000 4.5000
v -1.7500 0.2000 4.5000
v -1.8000 2.2000 4.7000
v -1.7500 2.2000 4.7000
v -1.8000 2.2000 4.5000
v -1.7500 2.2000 4.5000
v 1.7500 0.2000 4.7000
v 1.8000 0.2000 4.7000
v 1.7500 0.2000 4.5000
v 1.8000 0.2000 4.5000
v 1.7500 2.2000 4.7000
v 1.8000 2.2000 4.7000
v 1.7500 2.2000 4.5000
v 1.8000 2.2000 4.5000
f 221 223 219 217
f 218 220 224 222
f 217 218 222 221
f 223 224 220 219
f 219 220 218 217
f 221 222 224 223
f 229 231 227 225
f 226 228 232 230
f 225 226 230 229
f 231 232 228 227
f 227 228 226 225
f 229 230 232 231
o XS_DROPSHIP_Interior-col
usemtl Cover
v -1.6000 0.0000 4.0000
v -1.1000 0.0000 4.0000
v -1.6000 0.0000 -2.5000
v -1.1000 0.0000 -2.5000
v -1.6000 0.5000 4.0000
v -1.1000 0.5000 4.0000
v -1.6000 0.5000 -2.5000
v -1.1000 0.5000 -2.5000
v 1.1000 0.0000 4.0000
v 1.6000 0.0000 4.0000
v 1.1000 0.0000 -2.5000
v 1.6000 0.0000 -2.5000
v 1.1000 0.5000 4.0000
v 1.6000 0.5000 4.0000
v 1.1000 0.5000 -2.5000
v 1.6000 0.5000 -2.5000
f 237 239 235 233
f 234 236 240 238
f 233 234 238 237
f 239 240 236 235
f 235 236 234 233
f 237 238 240 239
f 245 247 243 241
f 242 244 248 246
f 241 242 246 245
f 247 248 244 243
f 243 244 242 241
f 245 246 248 247
o XS_DROPSHIP_Ramp-col
usemtl Hull
v -1.6000 0.0000 5.1500
v 1.6000 0.0000 5.1500
v -1.6000 0.0000 5.0000
v 1.6000 0.0000 5.0000
v -1.6000 2.4000 5.1500
v 1.6000 2.4000 5.1500
v -1.6000 2.4000 5.0000
v 1.6000 2.4000 5.0000
f 253 255 251 249
f 250 252 256 254
f 249 250 254 253
f 255 256 252 251
f 251 252 250 249
f 253 254 256 255
