mtllib ship_XS_BOMBER.mtl
o XS_BOMBER_Hull-col
usemtl Hull
v -1.8000 -0.9000 6.0000
v 1.8000 -0.9000 6.0000
v -0.6000 -0.4000 -6.5000
v 0.6000 -0.4000 -6.5000
v -1.8000 1.1000 6.0000
v 1.8000 1.1000 6.0000
v -0.6000 0.4000 -6.5000
v 0.6000 0.4000 -6.5000
v -1.5000 -0.4250 5.0000
v -6.4000 -0.4400 5.6000
v -1.5000 -0.4250 -1.2000
v -6.4000 -0.4400 3.2000
v -1.5000 0.0250 5.0000
v -6.4000 -0.2600 5.6000
v -1.5000 0.0250 -1.2000
v -6.4000 -0.2600 3.2000
v 1.5000 -0.4250 5.0000
v 6.4000 -0.4400 5.6000
v 1.5000 -0.4250 -1.2000
v 6.4000 -0.4400 3.2000
v 1.5000 0.0250 5.0000
v 6.4000 -0.2600 5.6000
v 1.5000 0.0250 -1.2000
v 6.4000 -0.2600 3.2000
f 5 7 3 1
f 2 4 8 6
f 1 2 6 5
f 7 8 4 3
f 3 4 2 1
f 5 6 8 7
f 9 11 15 13
f 14 16 12 10
f 13 14 10 9
f 11 12 16 15
f 9 10 12 11
f 15 16 14 13
f 21 23 19 17
f 18 20 24 22
f 17 18 22 21
f 23 24 20 19
f 19 20 18 17
f 21 22 24 23
o XS_BOMBER_Armor
usemtl Armor
v -1.3000 1.1000 6.0000
v 1.3000 1.1000 6.0000
v -1.3000 1.1000 -1.0000
v 1.3000 1.1000 -1.0000
v -0.8000 1.6000 6.0000
v 0.8000 1.6000 6.0000
v -0.8000 1.6000 -1.0000
v 0.8000 1.6000 -1.0000
v -0.9000 1.3100 7.0000
v -2.2000 2.5500 7.6000
v -0.9000 1.3100 5.0000
v -2.2000 2.5500 6.6000
v -0.9000 1.4900 7.0000
v -2.2000 2.6500 7.6000
v -0.9000 1.4900 5.0000
v -2.2000 2.6500 6.6000
v 0.9000 1.3100 7.0000
v 2.2000 2.5500 7.6000
v 0.9000 1.3100 5.0000
v 2.2000 2.5500 6.6000
v 0.9000 1.4900 7.0000
v 2.2000 2.6500 7.6000
v 0.9000 1.4900 5.0000
v 2.2000 2.6500 6.6000
f 29 31 27 25
f 26 28 32 30
f 25 26 30 29
f 31 32 28 27
f 27 28 26 25
f 29 30 32 31
f 33 35 39 37
f 38 40 36 34
f 37 38 34 33
f 35 36 40 39
f 33 34 36 35
f 39 40 38 37
f 45 47 43 41
f 42 44 48 46
f 41 42 46 45
f 47 48 44 43
f 43 44 42 41
f 45 46 48 47
o XS_BOMBER_Trim
usemtl Trim
v -3.9200 -0.7500 4.4000
v -3.6800 -0.7500 4.4000
v -3.9200 -0.7500 1.6000
v -3.6800 -0.7500 1.6000
v -3.9200 -0.4500 4.4000
v -3.6800 -0.4500 4.4000
v -3.9200 -0.4500 1.6000
v -3.6800 -0.4500 1.6000
v -5.1200 -0.7500 4.4000
v -4.8800 -0.7500 4.4000
v -5.1200 -0.7500 1.6000
v -4.8800 -0.7500 1.6000
v -5.1200 -0.4500 4.4000
v -4.8800 -0.4500 4.4000
v -5.1200 -0.4500 1.6000
v -4.8800 -0.4500 1.6000
v 3.6800 -0.7500 4.4000
v 3.9200 -0.7500 4.4000
v 3.6800 -0.7500 1.6000
v 3.9200 -0.7500 1.6000
v 3.6800 -0.4500 4.4000
v 3.9200 -0.4500 4.4000
v 3.6800 -0.4500 1.6000
v 3.9200 -0.4500 1.6000
v 4.8800 -0.7500 4.4000
v 5.1200 -0.7500 4.4000
v 4.8800 -0.7500 1.6000
v 5.1200 -0.7500 1.6000
v 4.8800 -0.4500 4.4000
v 5.1200 -0.4500 4.4000
v 4.8800 -0.4500 1.6000
v 5.1200 -0.4500 1.6000
f 53 55 51 49
f 50 52 56 54
f 49 50 54 53
f 55 56 52 51
f 51 52 50 49
f 53 54 56 55
f 61 63 59 57
f 58 60 64 62
f 57 58 62 61
f 63 64 60 59
f 59 60 58 57
f 61 62 64 63
f 69 71 67 65
f 66 68 72 70
f 65 66 70 69
f 71 72 68 67
f 67 68 66 65
f 69 70 72 71
f 77 79 75 73
f 74 76 80 78
f 73 74 78 77
f 79 80 76 75
f 75 76 74 73
f 77 78 80 79
o XS_BOMBER_Engines
usemtl Engine
v -1.3000 -0.7000 7.0000
v 1.3000 -0.7000 7.0000
v -1.3000 -0.7000 5.5000
v 1.3000 -0.7000 5.5000
v -1.3000 1.0000 7.0000
v 1.3000 1.0000 7.0000
v -1.3000 1.0000 5.5000
v 1.3000 1.0000 5.5000
v -1.8500 -0.5500 6.6000
v -1.9147 -0.2247 6.6000
v -2.0990 0.0510 6.6000
v -2.3747 0.2353 6.6000
v -2.7000 0.3000 6.6000
v -3.0253 0.2353 6.6000
v -3.3010 0.0510 6.6000
v -3.4853 -0.2247 6.6000
v -3.5500 -0.5500 6.6000
v -3.4853 -0.8753 6.6000
v -3.3010 -1.1510 6.6000
v -3.0253 -1.3353 6.6000
v -2.7000 -1.4000 6.6000
v -2.3747 -1.3353 6.6000
v -2.0990 -1.1510 6.6000
v -1.9147 -0.8753 6.6000
v -1.8500 -0.5500 0.8000
v -1.9147 -0.2247 0.8000
v -2.0990 0.0510 0.8000
v -2.3747 0.2353 0.8000
v -2.7000 0.3000 0.8000
v -3.0253 0.2353 0.8000
v -3.3010 0.0510 0.8000
v -3.4853 -0.2247 0.8000
v -3.5500 -0.5500 0.8000
v -3.4853 -0.8753 0.8000
v -3.3010 -1.1510 0.8000
v -3.0253 -1.3353 0.8000
v -2.7000 -1.4000 0.8000
v -2.3747 -1.3353 0.8000
v -2.0990 -1.1510 0.8000
v -1.9147 -0.8753 0.8000
v -0.6500 -0.5500 -5.0000
v -0.4500 -0.5500 -5.0000
v -0.6500 -0.5500 -7.4000
v -0.4500 -0.5500 -7.4000
v -0.6500 -0.3500 -5.0000
v -0.4500 -0.3500 -5.0000
v -0.6500 -0.3500 -7.4000
v -0.4500 -0.3500 -7.4000
v 3.5500 -0.5500 6.6000
v 3.4853 -0.2247 6.6000
v 3.3010 0.0510 6.6000
v 3.0253 0.2353 6.6000
v 2.7000 0.3000 6.6000
v 2.3747 0.2353 6.6000
v 2.0990 0.0510 6.6000
v 1.9147 -0.2247 6.6000
v 1.8500 -0.5500 6.6000
v 1.9147 -0.8753 6.6000
v 2.0990 -1.1510 6.6000
v 2.3747 -1.3353 6.6000
v 2.7000 -1.4000 6.6000
v 3.0253 -1.3353 6.6000
v 3.3010 -1.1510 6.6000
v 3.4853 -0.8753 6.6000
v 3.5500 -0.5500 0.8000
v 3.4853 -0.2247 0.8000
v 3.3010 0.0510 0.8000
v 3.0253 0.2353 0.8000
v 2.7000 0.3000 0.8000
v 2.3747 0.2353 0.8000
v 2.0990 0.0510 0.8000
v 1.9147 -0.2247 0.8000
v 1.8500 -0.5500 0.8000
v 1.9147 -0.8753 0.8000
v 2.0990 -1.1510 0.8000
v 2.3747 -1.3353 0.8000
v 2.7000 -1.4000 0.8000
v 3.0253 -1.3353 0.8000
v 3.3010 -1.1510 0.8000
v 3.4853 -0.8753 0.8000
v 0.4500 -0.5500 -5.0000
v 0.6500 -0.5500 -5.0000
v 0.4500 -0.5500 -7.4000
v 0.6500 -0.5500 -7.4000
v 0.4500 -0.3500 -5.0000
v 0.6500 -0.3500 -5.0000
v 0.4500 -0.3500 -7.4000
v 0.6500 -0.3500 -7.4000
f 85 87 83 81
f 82 84 88 86
f 81 82 86 85
f 87 88 84 83
f 83 84 82 81
f 85 86 88 87
f 105 106 90 89
f 106 107 91 90
f 107 108 92 91
f 108 109 93 92
f 109 110 94 93
f 110 111 95 94
f 111 112 96 95
f 112 113 97 96
f 113 114 98 97
f 114 115 99 98
f 115 116 100 99
f 116 117 101 100
f 117 118 102 101
f 118 119 103 102
f 119 120 104 103
f 120 105 89 104
f 89 90 91 92 93 94 95 96 97 98 99 100 101 102 103 104
f 120 119 118 117 116 115 114 113 112 111 110 109 108 107 106 105
f 125 127 123 121
f 122 124 128 126
f 121 122 126 125
f 127 128 124 123
f 123 124 122 121
f 125 126 128 127
f 145 146 130 129
f 146 147 131 130
f 147 148 132 131
f 148 149 133 132
f 149 150 134 133
f 150 151 135 134
f 151 152 136 135
f 152 153 137 136
f 153 154 138 137
f 154 155 139 138
f 155 156 140 139
f 156 157 141 140
f 157 158 142 141
f 158 159 143 142
f 159 160 144 143
f 160 145 129 144
f 129 130 131 132 133 134 135 136 137 138 139 140 141 142 143 144
f 160 159 158 157 156 155 154 153 152 151 150 149 148 147 146 145
f 165 167 163 161
f 162 164 168 166
f 161 162 166 165
f 167 168 164 163
f 163 164 162 161
f 165 166 168 167
o XS_BOMBER_EngineGlow
usemtl EngineGlow
v -2.0500 -0.5500 6.7000
v -2.0995 -0.3013 6.7000
v -2.2404 -0.0904 6.7000
v -2.4513 0.0505 6.7000
v -2.7000 0.1000 6.7000
v -2.9487 0.0505 6.7000
v -3.1596 -0.0904 6.7000
v -3.3005 -0.3013 6.7000
v -3.3500 -0.5500 6.7000
v -3.3005 -0.7987 6.7000
v -3.1596 -1.0096 6.7000
v -2.9487 -1.1505 6.7000
v -2.7000 -1.2000 6.7000
v -2.4513 -1.1505 6.7000
v -2.2404 -1.0096 6.7000
v -2.0995 -0.7987 6.7000
v -2.0500 -0.5500 6.6000
v -2.0995 -0.3013 6.6000
v -2.2404 -0.0904 6.6000
v -2.4513 0.0505 6.6000
v -2.7000 0.1000 6.6000
v -2.9487 0.0505 6.6000
v -3.1596 -0.0904 6.6000
v -3.3005 -0.3013 6.6000
v -3.3500 -0.5500 6.6000
v -3.3005 -0.7987 6.6000
v -3.1596 -1.0096 6.6000
v -2.9487 -1.1505 6.6000
v -2.7000 -1.2000 6.6000
v -2.4513 -1.1505 6.6000
v -2.2404 -1.0096 6.6000
v -2.0995 -0.7987 6.6000
v 3.3500 -0.5500 6.7000
v 3.3005 -0.3013 6.7000
v 3.1596 -0.0904 6.7000
v 2.9487 0.0505 6.7000
v 2.7000 0.1000 6.7000
v 2.4513 0.0505 6.7000
v 2.2404 -0.0904 6.7000
v 2.0995 -0.3013 6.7000
v 2.0500 -0.5500 6.7000
v 2.0995 -0.7987 6.7000
v 2.2404 -1.0096 6.7000
v 2.4513 -1.1505 6.7000
v 2.7000 -1.2000 6.7000
v 2.9487 -1.1505 6.7000
v 3.1596 -1.0096 6.7000
v 3.3005 -0.7987 6.7000
v 3.3500 -0.5500 6.6000
v 3.3005 -0.3013 6.6000
v 3.1596 -0.0904 6.6000
v 2.9487 0.0505 6.6000
v 2.7000 0.1000 6.6000
v 2.4513 0.0505 6.6000
v 2.2404 -0.0904 6.6000
v 2.0995 -0.3013 6.6000
v 2.0500 -0.5500 6.6000
v 2.0995 -0.7987 6.6000
v 2.2404 -1.0096 6.6000
v 2.4513 -1.1505 6.6000
v 2.7000 -1.2000 6.6000
v 2.9487 -1.1505 6.6000
v 3.1596 -1.0096 6.6000
v 3.3005 -0.7987 6.6000
f 185 186 170 169
f 186 187 171 170
f 187 188 172 171
f 188 189 173 172
f 189 190 174 173
f 190 191 175 174
f 191 192 176 175
f 192 193 177 176
f 193 194 178 177
f 194 195 179 178
f 195 196 180 179
f 196 197 181 180
f 197 198 182 181
f 198 199 183 182
f 199 200 184 183
f 200 185 169 184
f 169 170 171 172 173 174 175 176 177 178 179 180 181 182 183 184
f 200 199 198 197 196 195 194 193 192 191 190 189 188 187 186 185
f 217 218 202 201
f 218 219 203 202
f 219 220 204 203
f 220 221 205 204
f 221 222 206 205
f 222 223 207 206
f 223 224 208 207
f 224 225 209 208
f 225 226 210 209
f 226 227 211 210
f 227 228 212 211
f 228 229 213 212
f 229 230 214 213
f 230 231 215 214
f 231 232 216 215
f 232 217 201 216
f 201 202 203 204 205 206 207 208 209 210 211 212 213 214 215 216
f 232 231 230 229 228 227 226 225 224 223 222 221 220 219 218 217
o XS_BOMBER_Glass-col
usemtl Glass
v -0.7500 0.6500 -1.0000
v 0.7500 0.6500 -1.0000
v -0.4500 0.4500 -4.6000
v 0.4500 0.4500 -4.6000
v -0.7500 1.4500 -1.0000
v 0.7500 1.4500 -1.0000
v -0.4500 0.7500 -4.6000
v 0.4500 0.7500 -4.6000
f 237 239 235 233
f 234 236 240 238
f 233 234 238 237
f 239 240 236 235
f 235 236 234 233
f 237 238 240 239
o XS_BOMBER_Lights
usemtl Lights
v -6.5000 -0.4500 5.4500
v -6.3000 -0.4500 5.4500
v -6.5000 -0.4500 5.3000
v -6.3000 -0.4500 5.3000
v -6.5000 -0.3000 5.4500
v -6.3000 -0.3000 5.4500
v -6.5000 -0.3000 5.3000
v -6.3000 -0.3000 5.3000
v 6.3000 -0.4500 5.4500
v 6.5000 -0.4500 5.4500
v 6.3000 -0.4500 5.3000
v 6.5000 -0.4500 5.3000
v 6.3000 -0.3000 5.4500
v 6.5000 -0.3000 5.4500
v 6.3000 -0.3000 5.3000
v 6.5000 -0.3000 5.3000
f 245 247 243 241
f 242 244 248 246
f 241 242 246 245
f 247 248 244 243
f 243 244 242 241
f 245 246 248 247
f 253 255 251 249
f 250 252 256 254
f 249 250 254 253
f 255 256 252 251
f 251 252 250 249
f 253 254 256 255
o XS_BOMBER_BombBayDoors
usemtl Trim
v -0.9500 -1.0000 3.2000
v 0.9500 -1.0000 3.2000
v -0.9500 -1.0000 -2.2000
v 0.9500 -1.0000 -2.2000
v -0.9500 -0.9000 3.2000
v 0.9500 -0.9000 3.2000
v -0.9500 -0.9000 -2.2000
v 0.9500 -0.9000 -2.2000
f 261 263 259 257
f 258 260 264 262
f 257 258 262 261
f 263 264 260 259
f 259 260 258 257
f 261 262 264 263
