mtllib ship_XS_DROPPOD.mtl
o XS_DROPPOD_Hull-col
usemtl Hull
v 0.7576 0.9000 -0.3138
v 0.3138 0.9000 -0.7576
v 0.7576 3.0000 -0.3138
v 0.3138 3.0000 -0.7576
v 0.8315 0.9000 -0.3444
v 0.3444 0.9000 -0.8315
v 0.8315 3.0000 -0.3444
v 0.3444 3.0000 -0.8315
v -0.3138 0.9000 -0.7576
v -0.7576 0.9000 -0.3138
v -0.3138 3.0000 -0.7576
v -0.7576 3.0000 -0.3138
v -0.3444 0.9000 -0.8315
v -0.8315 0.9000 -0.3444
v -0.3444 3.0000 -0.8315
v -0.8315 3.0000 -0.3444
v -0.7576 0.9000 -0.3138
v -0.7576 0.9000 0.3138
v -0.7576 3.0000 -0.3138
v -0.7576 3.0000 0.3138
v -0.8315 0.9000 -0.3444
v -0.8315 0.9000 0.3444
v -0.8315 3.0000 -0.3444
v -0.8315 3.0000 0.3444
v -0.7576 0.9000 0.3138
v -0.3138 0.9000 0.7576
v -0.7576 3.0000 0.3138
v -0.3138 3.0000 0.7576
v -0.8315 0.9000 0.3444
v -0.3444 0.9000 0.8315
v -0.8315 3.0000 0.3444
v -0.3444 3.0000 0.8315
v -0.3138 0.9000 0.7576
v 0.3138 0.9000 0.7576
v -0.3138 3.0000 0.7576
v 0.3138 3.0000 0.7576
v -0.3444 0.9000 0.8315
v 0.3444 0.9000 0.8315
v -0.3444 3.0000 0.8315
v 0.3444 3.0000 0.8315
v 0.3138 0.9000 0.7576
v 0.7576 0.9000 0.3138
v 0.3138 3.0000 0.7576
v 0.7576 3.0000 0.3138
v 0.3444 0.9000 0.8315
v 0.8315 0.9000 0.3444
v 0.3444 3.0000 0.8315
v 0.8315 3.0000 0.3444
v 0.7576 0.9000 0.3138
v 0.7576 0.9000 -0.3138
v 0.7576 3.0000 0.3138
v 0.7576 3.0000 -0.3138
v 0.8315 0.9000 0.3444
v 0.8315 0.9000 -0.3444
v 0.8315 3.0000 0.3444
v 0.8315 3.0000 -0.3444
v 0.8315 0.8000 -0.3444
v 0.3444 0.8000 -0.8315
v -0.3444 0.8000 -0.8315
v -0.8315 0.8000 -0.3444
v -0.8315 0.8000 0.3444
v -0.3444 0.8000 0.8315
v 0.3444 0.8000 0.8315
v 0.8315 0.8000 0.3444
v 0.8315 0.9000 -0.3444
v 0.3444 0.9000 -0.8315
v -0.3444 0.9000 -0.8315
v -0.8315 0.9000 -0.3444
v -0.8315 0.9000 0.3444
v -0.3444 0.9000 0.8315
v 0.3444 0.9000 0.8315
v 0.8315 0.9000 0.3444
v 0.8315 3.0000 -0.3444
v 0.3444 3.0000 -0.8315
v -0.3444 3.0000 -0.8315
v -0.8315 3.0000 -0.3444
v -0.8315 3.0000 0.3444
v -0.3444 3.0000 0.8315
v 0.3444 3.0000 0.8315
v 0.8315 3.0000 0.3444
v 0.8315 3.1500 -0.3444
v 0.3444 3.1500 -0.8315
v -0.3444 3.1500 -0.8315
v -0.8315 3.1500 -0.3444
v -0.8315 3.1500 0.3444
v -0.3444 3.1500 0.8315
v 0.3444 3.1500 0.8315
v 0.8315 3.1500 0.3444
f 5 7 3 1
f 2 4 8 6
f 1 2 6 5
f 7 8 4 3
f 3 4 2 1
f 5 6 8 7
f 13 15 11 9
f 10 12 16 14
f 9 10 14 13
f 15 16 12 11
f 11 12 10 9
f 13 14 16 15
f 21 23 19 17
f 18 20 24 22
f 17 18 22 21
f 23 24 20 19
f 19 20 18 17
f 21 22 24 23
f 29 31 27 25
f 26 28 32 30
f 25 26 30 29
f 31 32 28 27
f 27 28 26 25
f 29 30 32 31
f 37 39 35 33
f 34 36 40 38
f 33 34 38 37
f 39 40 36 35
f 35 36 34 33
f 37 38 40 39
f 45 47 43 41
f 42 44 48 46
f 41 42 46 45
f 47 48 44 43
f 43 44 42 41
f 45 46 48 47
f 53 55 51 49
f 50 52 56 54
f 49 50 54 53
f 55 56 52 51
f 51 52 50 49
f 53 54 56 55
f 57 58 66 65
f 58 59 67 66
f 59 60 68 67
f 60 61 69 68
f 61 62 70 69
f 62 63 71 70
f 63 64 72 71
f 64 57 65 72
f 64 63 62 61 60 59 58 57
f 65 66 67 68 69 70 71 72
f 73 74 82 81
f 74 75 83 82
f 75 76 84 83
f 76 77 85 84
f 77 78 86 85
f 78 79 87 86
f 79 80 88 87
f 80 73 81 88
f 80 79 78 77 76 75 74 73
f 81 82 83 84 85 86 87 88
o XS_DROPPOD_Armor
usemtl Armor
v 0.3234 0.0000 -0.1339
v 0.1339 0.0000 -0.3234
v -0.1339 0.0000 -0.3234
v -0.3234 0.0000 -0.1339
v -0.3234 0.0000 0.1339
v -0.1339 0.0000 0.3234
v 0.1339 0.0000 0.3234
v 0.3234 0.0000 0.1339
v 0.8315 0.8000 -0.3444
v 0.3444 0.8000 -0.8315
v -0.3444 0.8000 -0.8315
v -0.8315 0.8000 -0.3444
v -0.8315 0.8000 0.3444
v -0.3444 0.8000 0.8315
v 0.3444 0.8000 0.8315
v 0.8315 0.8000 0.3444
f 89 90 98 97
f 90 91 99 98
f 91 92 100 99
f 92 93 101 100
f 93 94 102 101
f 94 95 103 102
f 95 96 104 103
f 96 89 97 104
f 96 95 94 93 92 91 90 89
f 97 98 99 100 101 102 103 104
o XS_DROPPOD_Trim
usemtl Trim
v -0.9000 2.3000 0.0400
v -0.6500 2.3000 0.0400
v -0.9000 2.3000 -0.0400
v -0.6500 2.3000 -0.0400
v -0.9000 3.3000 0.0400
v -0.6500 3.3000 0.0400
v -0.9000 3.3000 -0.0400
v -0.6500 3.3000 -0.0400
v -0.0400 2.3000 0.9000
v 0.0400 2.3000 0.9000
v -0.0400 2.3000 0.6500
v 0.0400 2.3000 0.6500
v -0.0400 3.3000 0.9000
v 0.0400 3.3000 0.9000
v -0.0400 3.3000 0.6500
v 0.0400 3.3000 0.6500
v 0.6500 2.3000 0.0400
v 0.9000 2.3000 0.0400
v 0.6500 2.3000 -0.0400
v 0.9000 2.3000 -0.0400
v 0.6500 3.3000 0.0400
v 0.9000 3.3000 0.0400
v 0.6500 3.3000 -0.0400
v 0.9000 3.3000 -0.0400
v -0.0400 2.3000 -0.6500
v 0.0400 2.3000 -0.6500
v -0.0400 2.3000 -0.9000
v 0.0400 2.3000 -0.9000
v -0.0400 3.3000 -0.6500
v 0.0400 3.3000 -0.6500
v -0.0400 3.3000 -0.9000
v 0.0400 3.3000 -0.9000
f 109 111 107 105
f 106 108 112 110
f 105 106 110 109
f 111 112 108 107
f 107 108 106 105
f 109 110 112 111
f 117 119 115 113
f 114 116 120 118
f 113 114 118 117
f 119 120 116 115
f 115 116 114 113
f 117 118 120 119
f 125 127 123 121
f 122 124 128 126
f 121 122 126 125
f 127 128 124 123
f 123 124 122 121
f 125 126 128 127
f 133 135 131 129
f 130 132 136 134
f 129 130 134 133
f 135 136 132 131
f 131 132 130 129
f 133 134 136 135
o XS_DROPPOD_Engines
usemtl Engine
v 0.3000 -0.0500 -0.0000
v 0.2121 -0.0500 -0.2121
v 0.0000 -0.0500 -0.3000
v -0.2121 -0.0500 -0.2121
v -0.3000 -0.0500 -0.0000
v -0.2121 -0.0500 0.2121
v -0.0000 -0.0500 0.3000
v 0.2121 -0.0500 0.2121
v 0.3000 0.0000 -0.0000
v 0.2121 0.0000 -0.2121
v 0.0000 0.0000 -0.3000
v -0.2121 0.0000 -0.2121
v -0.3000 0.0000 -0.0000
v -0.2121 0.0000 0.2121
v -0.0000 0.0000 0.3000
v 0.2121 0.0000 0.2121
v 0.6400 3.1500 -0.0000
v 0.5990 3.1500 -0.0990
v 0.5000 3.1500 -0.1400
v 0.4010 3.1500 -0.0990
v 0.3600 3.1500 -0.0000
v 0.4010 3.1500 0.0990
v 0.5000 3.1500 0.1400
v 0.5990 3.1500 0.0990
v 0.6400 3.4500 -0.0000
v 0.5990 3.4500 -0.0990
v 0.5000 3.4500 -0.1400
v 0.4010 3.4500 -0.0990
v 0.3600 3.4500 -0.0000
v 0.4010 3.4500 0.0990
v 0.5000 3.4500 0.1400
v 0.5990 3.4500 0.0990
v 0.1400 3.1500 -0.5000
v 0.0990 3.1500 -0.5990
v 0.0000 3.1500 -0.6400
v -0.0990 3.1500 -0.5990
v -0.1400 3.1500 -0.5000
v -0.0990 3.1500 -0.4010
v 0.0000 3.1500 -0.3600
v 0.0990 3.1500 -0.4010
v 0.1400 3.4500 -0.5000
v 0.0990 3.4500 -0.5990
v 0.0000 3.4500 -0.6400
v -0.0990 3.4500 -0.5990
v -0.1400 3.4500 -0.5000
v -0.0990 3.4500 -0.4010
v 0.0000 3.4500 -0.3600
v 0.0990 3.4500 -0.4010
v -0.3600 3.1500 -0.0000
v -0.4010 3.1500 -0.0990
v -0.5000 3.1500 -0.1400
v -0.5990 3.1500 -0.0990
v -0.6400 3.1500 -0.0000
v -0.5990 3.1500 0.0990
v -0.5000 3.1500 0.1400
v -0.4010 3.1500 0.0990
v -0.3600 3.4500 -0.0000
v -0.4010 3.4500 -0.0990
v -0.5000 3.4500 -0.1400
v -0.5990 3.4500 -0.0990
v -0.6400 3.4500 -0.0000
v -0.5990 3.4500 0.0990
v -0.5000 3.4500 0.1400
v -0.4010 3.4500 0.0990
v 0.1400 3.1500 0.5000
v 0.0990 3.1500 0.4010
v -0.0000 3.1500 0.3600
v -0.0990 3.1500 0.4010
v -0.1400 3.1500 0.5000
v -0.0990 3.1500 0.5990
v -0.0000 3.1500 0.6400
v 0.0990 3.1500 0.5990
v 0.1400 3.4500 0.5000
v 0.0990 3.4500 0.4010
v -0.0000 3.4500 0.3600
v -0.0990 3.4500 0.4010
v -0.1400 3.4500 0.5000
v -0.0990 3.4500 0.5990
v -0.0000 3.4500 0.6400
v 0.0990 3.4500 0.5990
f 137 138 146 145
f 138 139 147 146
f 139 140 148 147
f 140 141 149 148
f 141 142 150 149
f 142 143 151 150
f 143 144 152 151
f 144 137 145 152
f 144 143 142 141 140 139 138 137
f 145 146 147 148 149 150 151 152
f 153 154 162 161
f 154 155 163 162
f 155 156 164 163
f 156 157 165 164
f 157 158 166 165
f 158 159 167 166
f 159 160 168 167
f 160 153 161 168
f 160 159 158 157 156 155 154 153
f 161 162 163 164 165 166 167 168
f 169 170 178 177
f 170 171 179 178
f 171 172 180 179
f 172 173 181 180
f 173 174 182 181
f 174 175 183 182
f 175 176 184 183
f 176 169 177 184
f 176 175 174 173 172 171 170 169
f 177 178 179 180 181 182 183 184
f 185 186 194 193
f 186 187 195 194
f 187 188 196 195
f 188 189 197 196
f 189 190 198 197
f 190 191 199 198
f 191 192 200 199
f 192 185 193 200
f 192 191 190 189 188 187 186 185
f 193 194 195 196 197 198 199 200
f 201 202 210 209
f 202 203 211 210
f 203 204 212 211
f 204 205 213 212
f 205 206 214 213
f 206 207 215 214
f 207 208 216 215
f 208 201 209 216
f 208 207 206 205 204 203 202 201
f 209 210 211 212 213 214 215 216
o XS_DROPPOD_EngineGlow
usemtl EngineGlow
v 0.6000 3.4500 -0.0000
v 0.5707 3.4500 -0.0707
v 0.5000 3.4500 -0.1000
v 0.4293 3.4500 -0.0707
v 0.4000 3.4500 -0.0000
v 0.4293 3.4500 0.0707
v 0.5000 3.4500 0.1000
v 0.5707 3.4500 0.0707
v 0.6000 3.4800 -0.0000
v 0.5707 3.4800 -0.0707
v 0.5000 3.4800 -0.1000
v 0.4293 3.4800 -0.0707
v 0.4000 3.4800 -0.0000
v 0.4293 3.4800 0.0707
v 0.5000 3.4800 0.1000
v 0.5707 3.4800 0.0707
v 0.1000 3.4500 -0.5000
v 0.0707 3.4500 -0.5707
v 0.0000 3.4500 -0.6000
v -0.0707 3.4500 -0.5707
v -0.1000 3.4500 -0.5000
v -0.0707 3.4500 -0.4293
v 0.0000 3.4500 -0.4000
v 0.0707 3.4500 -0.4293
v 0.1000 3.4800 -0.5000
v 0.0707 3.4800 -0.5707
v 0.0000 3.4800 -0.6000
v -0.0707 3.4800 -0.5707
v -0.1000 3.4800 -0.5000
v -0.0707 3.4800 -0.4293
v 0.0000 3.4800 -0.4000
v 0.0707 3.4800 -0.4293
v -0.4000 3.4500 -0.0000
v -0.4293 3.4500 -0.0707
v -0.5000 3.4500 -0.1000
v -0.5707 3.4500 -0.0707
v -0.6000 3.4500 -0.0000
v -0.5707 3.4500 0.0707
v -0.5000 3.4500 0.1000
v -0.4293 3.4500 0.0707
v -0.4000 3.4800 -0.0000
v -0.4293 3.4800 -0.0707
v -0.5000 3.4800 -0.1000
v -0.5707 3.4800 -0.0707
v -0.6000 3.4800 -0.0000
v -0.5707 3.4800 0.0707
v -0.5000 3.4800 0.1000
v -0.4293 3.4800 0.0707
v 0.1000 3.4500 0.5000
v 0.0707 3.4500 0.4293
v -0.0000 3.4500 0.4000
v -0.0707 3.4500 0.4293
v -0.1000 3.4500 0.5000
v -0.0707 3.4500 0.5707
v -0.0000 3.4500 0.6000
v 0.0707 3.4500 0.5707
v 0.1000 3.4800 0.5000
v 0.0707 3.4800 0.4293
v -0.0000 3.4800 0.4000
v -0.0707 3.4800 0.4293
v -0.1000 3.4800 0.5000
v -0.0707 3.4800 0.5707
v -0.0000 3.4800 0.6000
v 0.0707 3.4800 0.5707
f 217 218 226 225
f 218 219 227 226
f 219 220 228 227
f 220 221 229 228
f 221 222 230 229
f 222 223 231 230
f 223 224 232 231
f 224 217 225 232
f 224 223 222 221 220 219 218 217
f 225 226 227 228 229 230 231 232
f 233 234 242 241
f 234 235 243 242
f 235 236 244 243
f 236 237 245 244
f 237 238 246 245
f 238 239 247 246
f 239 240 248 247
f 240 233 241 248
f 240 239 238 237 236 235 234 233
f 241 242 243 244 245 246 247 248
f 249 250 258 257
f 250 251 259 258
f 251 252 260 259
f 252 253 261 260
f 253 254 262 261
f 254 255 263 262
f 255 256 264 263
f 256 249 257 264
f 256 255 254 253 252 251 250 249
f 257 258 259 260 261 262 263 264
f 265 266 274 273
f 266 267 275 274
f 267 268 276 275
f 268 269 277 276
f 269 270 278 277
f 270 271 279 278
f 271 272 280 279
f 272 265 273 280
f 272 271 270 269 268 267 266 265
f 273 274 275 276 277 278 279 280
o XS_DROPPOD_Hazard
usemtl Hazard
v 0.8869 1.0000 -0.3674
v 0.3674 1.0000 -0.8869
v -0.3674 1.0000 -0.8869
v -0.8869 1.0000 -0.3674
v -0.8869 1.0000 0.3674
v -0.3674 1.0000 0.8869
v 0.3674 1.0000 0.8869
v 0.8869 1.0000 0.3674
v 0.8869 1.1500 -0.3674
v 0.3674 1.1500 -0.8869
v -0.3674 1.1500 -0.8869
v -0.8869 1.1500 -0.3674
v -0.8869 1.1500 0.3674
v -0.3674 1.1500 0.8869
v 0.3674 1.1500 0.8869
v 0.8869 1.1500 0.3674
f 281 282 290 289
f 282 283 291 290
f 283 284 292 291
f 284 285 293 292
f 285 286 294 293
f 286 287 295 294
f 287 288 296 295
f 288 281 289 296
f 288 287 286 285 284 283 282 281
f 289 290 291 292 293 294 295 296
o XS_DROPPOD_Lights
usemtl Lights
v -0.3000 2.9000 0.0500
v 0.3000 2.9000 0.0500
v -0.3000 2.9000 -0.0500
v 0.3000 2.9000 -0.0500
v -0.3000 2.9500 0.0500
v 0.3000 2.9500 0.0500
v -0.3000 2.9500 -0.0500
v 0.3000 2.9500 -0.0500
f 301 303 299 297
f 298 300 304 302
f 297 298 302 301
f 303 304 300 299
f 299 300 298 297
f 301 302 304 303
o XS_DROPPOD_Door-col
usemtl Armor
v 0.3138 0.9000 -0.7576
v -0.3138 0.9000 -0.7576
v 0.3138 3.0000 -0.7576
v -0.3138 3.0000 -0.7576
v 0.3444 0.9000 -0.8315
v -0.3444 0.9000 -0.8315
v 0.3444 3.0000 -0.8315
v -0.3444 3.0000 -0.8315
f 309 311 307 305
f 306 308 312 310
f 305 306 310 309
f 311 312 308 307
f 307 308 306 305
f 309 310 312 311
