mtllib materials_F1.mtl
o F1_LMG_WBody
usemtl WBody
v -0.0450 -0.0300 0.3600
v 0.0450 -0.0300 0.3600
v -0.0450 -0.0300 -0.2000
v 0.0450 -0.0300 -0.2000
v -0.0450 0.1300 0.3600
v 0.0450 0.1300 0.3600
v -0.0450 0.1300 -0.2000
v 0.0450 0.1300 -0.2000
f 5 7 3 1
f 2 4 8 6
f 1 2 6 5
f 7 8 4 3
f 3 4 2 1
f 5 6 8 7
v -0.0350 0.0000 0.7000
v 0.0350 0.0000 0.7000
v -0.0350 0.0000 0.3600
v 0.0350 0.0000 0.3600
v -0.0350 0.1000 0.7000
v 0.0350 0.1000 0.7000
v -0.0350 0.1000 0.3600
v 0.0350 0.1000 0.3600
f 13 15 11 9
f 10 12 16 14
f 9 10 14 13
f 15 16 12 11
f 11 12 10 9
f 13 14 16 15
v -0.0400 -0.0100 -0.2000
v 0.0400 -0.0100 -0.2000
v -0.0400 -0.0100 -0.4800
v 0.0400 -0.0100 -0.4800
v -0.0400 0.1100 -0.2000
v 0.0400 0.1100 -0.2000
v -0.0400 0.1100 -0.4800
v 0.0400 0.1100 -0.4800
f 21 23 19 17
f 18 20 24 22
f 17 18 22 21
f 23 24 20 19
f 19 20 18 17
f 21 22 24 23
o F1_LMG_WAccent
usemtl WAccent
v -0.0380 0.0300 0.6800
v -0.0350 0.0300 0.6800
v -0.0380 0.0300 0.6450
v -0.0350 0.0300 0.6450
v -0.0380 0.0700 0.6800
v -0.0350 0.0700 0.6800
v -0.0380 0.0700 0.6450
v -0.0350 0.0700 0.6450
f 29 31 27 25
f 26 28 32 30
f 25 26 30 29
f 31 32 28 27
f 27 28 26 25
f 29 30 32 31
v 0.0350 0.0300 0.6800
v 0.0380 0.0300 0.6800
v 0.0350 0.0300 0.6450
v 0.0380 0.0300 0.6450
v 0.0350 0.0700 0.6800
v 0.0380 0.0700 0.6800
v 0.0350 0.0700 0.6450
v 0.0380 0.0700 0.6450
f 37 39 35 33
f 34 36 40 38
f 33 34 38 37
f 39 40 36 35
f 35 36 34 33
f 37 38 40 39
v -0.0380 0.0300 0.6150
v -0.0350 0.0300 0.6150
v -0.0380 0.0300 0.5800
v -0.0350 0.0300 0.5800
v -0.0380 0.0700 0.6150
v -0.0350 0.0700 0.6150
v -0.0380 0.0700 0.5800
v -0.0350 0.0700 0.5800
f 45 47 43 41
f 42 44 48 46
f 41 42 46 45
f 47 48 44 43
f 43 44 42 41
f 45 46 48 47
v 0.0350 0.0300 0.6150
v 0.0380 0.0300 0.6150
v 0.0350 0.0300 0.5800
v 0.0380 0.0300 0.5800
v 0.0350 0.0700 0.6150
v 0.0380 0.0700 0.6150
v 0.0350 0.0700 0.5800
v 0.0380 0.0700 0.5800
f 53 55 51 49
f 50 52 56 54
f 49 50 54 53
f 55 56 52 51
f 51 52 50 49
f 53 54 56 55
v -0.0380 0.0300 0.5500
v -0.0350 0.0300 0.5500
v -0.0380 0.0300 0.5150
v -0.0350 0.0300 0.5150
v -0.0380 0.0700 0.5500
v -0.0350 0.0700 0.5500
v -0.0380 0.0700 0.5150
v -0.0350 0.0700 0.5150
f 61 63 59 57
f 58 60 64 62
f 57 58 62 61
f 63 64 60 59
f 59 60 58 57
f 61 62 64 63
v 0.0350 0.0300 0.5500
v 0.0380 0.0300 0.5500
v 0.0350 0.0300 0.5150
v 0.0380 0.0300 0.5150
v 0.0350 0.0700 0.5500
v 0.0380 0.0700 0.5500
v 0.0350 0.0700 0.5150
v 0.0380 0.0700 0.5150
f 69 71 67 65
f 66 68 72 70
f 65 66 70 69
f 71 72 68 67
f 67 68 66 65
f 69 70 72 71
v -0.0380 0.0300 0.4850
v -0.0350 0.0300 0.4850
v -0.0380 0.0300 0.4500
v -0.0350 0.0300 0.4500
v -0.0380 0.0700 0.4850
v -0.0350 0.0700 0.4850
v -0.0380 0.0700 0.4500
v -0.0350 0.0700 0.4500
f 77 79 75 73
f 74 76 80 78
f 73 74 78 77
f 79 80 76 75
f 75 76 74 73
f 77 78 80 79
v 0.0350 0.0300 0.4850
v 0.0380 0.0300 0.4850
v 0.0350 0.0300 0.4500
v 0.0380 0.0300 0.4500
v 0.0350 0.0700 0.4850
v 0.0380 0.0700 0.4850
v 0.0350 0.0700 0.4500
v 0.0380 0.0700 0.4500
f 85 87 83 81
f 82 84 88 86
f 81 82 86 85
f 87 88 84 83
f 83 84 82 81
f 85 86 88 87
v -0.0380 0.0300 0.4200
v -0.0350 0.0300 0.4200
v -0.0380 0.0300 0.3850
v -0.0350 0.0300 0.3850
v -0.0380 0.0700 0.4200
v -0.0350 0.0700 0.4200
v -0.0380 0.0700 0.3850
v -0.0350 0.0700 0.3850
f 93 95 91 89
f 90 92 96 94
f 89 90 94 93
f 95 96 92 91
f 91 92 90 89
f 93 94 96 95
v 0.0350 0.0300 0.4200
v 0.0380 0.0300 0.4200
v 0.0350 0.0300 0.3850
v 0.0380 0.0300 0.3850
v 0.0350 0.0700 0.4200
v 0.0380 0.0700 0.4200
v 0.0350 0.0700 0.3850
v 0.0380 0.0700 0.3850
f 101 103 99 97
f 98 100 104 102
f 97 98 102 101
f 103 104 100 99
f 99 100 98 97
f 101 102 104 103
o F1_LMG_WDark
usemtl WDark
v 0.0160 0.0500 0.8600
v 0.0139 0.0580 0.8600
v 0.0080 0.0639 0.8600
v 0.0000 0.0660 0.8600
v -0.0080 0.0639 0.8600
v -0.0139 0.0580 0.8600
v -0.0160 0.0500 0.8600
v -0.0139 0.0420 0.8600
v -0.0080 0.0361 0.8600
v -0.0000 0.0340 0.8600
v 0.0080 0.0361 0.8600
v 0.0139 0.0420 0.8600
v 0.0160 0.0500 0.7000
v 0.0139 0.0580 0.7000
v 0.0080 0.0639 0.7000
v 0.0000 0.0660 0.7000
v -0.0080 0.0639 0.7000
v -0.0139 0.0580 0.7000
v -0.0160 0.0500 0.7000
v -0.0139 0.0420 0.7000
v -0.0080 0.0361 0.7000
v -0.0000 0.0340 0.7000
v 0.0080 0.0361 0.7000
v 0.0139 0.0420 0.7000
f 117 118 106 105
f 118 119 107 106
f 119 120 108 107
f 120 121 109 108
f 121 122 110 109
f 122 123 111 110
f 123 124 112 111
f 124 125 113 112
f 125 126 114 113
f 126 127 115 114
f 127 128 116 115
f 128 117 105 116
f 105 106 107 108 109 110 111 112 113 114 115 116
f 128 127 126 125 124 123 122 121 120 119 118 117
v -0.0120 0.1300 0.3000
v 0.0120 0.1300 0.3000
v -0.0120 0.1300 0.0600
v 0.0120 0.1300 0.0600
v -0.0120 0.2000 0.3000
v 0.0120 0.2000 0.3000
v -0.0120 0.2000 0.0600
v 0.0120 0.2000 0.0600
f 133 135 131 129
f 130 132 136 134
f 129 130 134 133
f 135 136 132 131
f 131 132 130 129
f 133 134 136 135
v -0.0400 0.1300 0.3000
v 0.0400 0.1300 0.3000
v -0.0400 0.1300 0.2600
v 0.0400 0.1300 0.2600
v -0.0400 0.2000 0.3000
v 0.0400 0.2000 0.3000
v -0.0400 0.2000 0.2600
v 0.0400 0.2000 0.2600
f 141 143 139 137
f 138 140 144 142
f 137 138 142 141
f 143 144 140 139
f 139 140 138 137
f 141 142 144 143
v -0.0220 -0.1300 0.0200
v 0.0220 -0.1300 0.0200
v -0.0220 -0.1300 -0.0450
v 0.0220 -0.1300 -0.0450
v -0.0220 -0.0300 0.0200
v 0.0220 -0.0300 0.0200
v -0.0220 -0.0300 -0.0450
v 0.0220 -0.0300 -0.0450
f 149 151 147 145
f 146 148 152 150
f 145 146 150 149
f 151 152 148 147
f 147 148 146 145
f 149 150 152 151
v -0.0450 -0.0400 -0.4800
v 0.0450 -0.0400 -0.4800
v -0.0450 -0.0400 -0.5200
v 0.0450 -0.0400 -0.5200
v -0.0450 0.1300 -0.4800
v 0.0450 0.1300 -0.4800
v -0.0450 0.1300 -0.5200
v 0.0450 0.1300 -0.5200
f 157 159 155 153
f 154 156 160 158
f 153 154 158 157
f 159 160 156 155
f 155 156 154 153
f 157 158 160 159
v -0.0240 -0.0200 0.7500
v -0.0120 -0.0200 0.7500
v -0.0240 -0.0200 0.4800
v -0.0120 -0.0200 0.4800
v -0.0240 0.0000 0.7500
v -0.0120 0.0000 0.7500
v -0.0240 0.0000 0.4800
v -0.0120 0.0000 0.4800
f 165 167 163 161
f 162 164 168 166
f 161 162 166 165
f 167 168 164 163
f 163 164 162 161
f 165 166 168 167
v 0.0120 -0.0200 0.7500
v 0.0240 -0.0200 0.7500
v 0.0120 -0.0200 0.4800
v 0.0240 -0.0200 0.4800
v 0.0120 0.0000 0.7500
v 0.0240 0.0000 0.7500
v 0.0120 0.0000 0.4800
v 0.0240 0.0000 0.4800
f 173 175 171 169
f 170 172 176 174
f 169 170 174 173
f 175 176 172 171
f 171 172 170 169
f 173 174 176 175
o F1_LMG_Mag
usemtl WPanel
v -0.0500 -0.2000 0.2000
v 0.0500 -0.2000 0.2000
v -0.0500 -0.2000 0.0600
v 0.0500 -0.2000 0.0600
v -0.0500 -0.0300 0.2000
v 0.0500 -0.0300 0.2000
v -0.0500 -0.0300 0.0600
v 0.0500 -0.0300 0.0600
f 181 183 179 177
f 178 180 184 182
f 177 178 182 181
f 183 184 180 179
f 179 180 178 177
f 181 182 184 183
