mtllib materials_F1.mtl
o F1_BattleRifle_WBody
usemtl WBody
v -0.0340 0.0000 0.3600
v 0.0340 0.0000 0.3600
v -0.0340 0.0000 -0.1000
v 0.0340 0.0000 -0.1000
v -0.0340 0.1000 0.3600
v 0.0340 0.1000 0.3600
v -0.0340 0.1000 -0.1000
v 0.0340 0.1000 -0.1000
f 5 7 3 1
f 2 4 8 6
f 1 2 6 5
f 7 8 4 3
f 3 4 2 1
f 5 6 8 7
v -0.0380 0.0050 0.6200
v 0.0380 0.0050 0.6200
v -0.0380 0.0050 0.3600
v 0.0380 0.0050 0.3600
v -0.0380 0.0900 0.6200
v 0.0380 0.0900 0.6200
v -0.0380 0.0900 0.3600
v 0.0380 0.0900 0.3600
f 13 15 11 9
f 10 12 16 14
f 9 10 14 13
f 15 16 12 11
f 11 12 10 9
f 13 14 16 15
o F1_BattleRifle_WAccent
usemtl WAccent
v -0.0420 0.0300 0.6000
v -0.0380 0.0300 0.6000
v -0.0420 0.0300 0.4000
v -0.0380 0.0300 0.4000
v -0.0420 0.0600 0.6000
v -0.0380 0.0600 0.6000
v -0.0420 0.0600 0.4000
v -0.0380 0.0600 0.4000
f 21 23 19 17
f 18 20 24 22
f 17 18 22 21
f 23 24 20 19
f 19 20 18 17
f 21 22 24 23
v 0.0380 0.0300 0.6000
v 0.0420 0.0300 0.6000
v 0.0380 0.0300 0.4000
v 0.0420 0.0300 0.4000
v 0.0380 0.0600 0.6000
v 0.0420 0.0600 0.6000
v 0.0380 0.0600 0.4000
v 0.0420 0.0600 0.4000
f 29 31 27 25
f 26 28 32 30
f 25 26 30 29
f 31 32 28 27
f 27 28 26 25
f 29 30 32 31
o F1_BattleRifle_WDark
usemtl WDark
v 0.0110 0.0500 0.8000
v 0.0095 0.0555 0.8000
v 0.0055 0.0595 0.8000
v 0.0000 0.0610 0.8000
v -0.0055 0.0595 0.8000
v -0.0095 0.0555 0.8000
v -0.0110 0.0500 0.8000
v -0.0095 0.0445 0.8000
v -0.0055 0.0405 0.8000
v -0.0000 0.0390 0.8000
v 0.0055 0.0405 0.8000
v 0.0095 0.0445 0.8000
v 0.0110 0.0500 0.6200
v 0.0095 0.0555 0.6200
v 0.0055 0.0595 0.6200
v 0.0000 0.0610 0.6200
v -0.0055 0.0595 0.6200
v -0.0095 0.0555 0.6200
v -0.0110 0.0500 0.6200
v -0.0095 0.0445 0.6200
v -0.0055 0.0405 0.6200
v -0.0000 0.0390 0.6200
v 0.0055 0.0405 0.6200
v 0.0095 0.0445 0.6200
f 45 46 34 33
f 46 47 35 34
f 47 48 36 35
f 48 49 37 36
f 49 50 38 37
f 50 51 39 38
f 51 52 40 39
f 52 53 41 40
f 53 54 42 41
f 54 55 43 42
f 55 56 44 43
f 56 45 33 44
f 33 34 35 36 37 38 39 40 41 42 43 44
f 56 55 54 53 52 51 50 49 48 47 46 45
v -0.0200 0.0350 0.8200
v 0.0200 0.0350 0.8200
v -0.0200 0.0350 0.7800
v 0.0200 0.0350 0.7800
v -0.0200 0.0650 0.8200
v 0.0200 0.0650 0.8200
v -0.0200 0.0650 0.7800
v 0.0200 0.0650 0.7800
f 61 63 59 57
f 58 60 64 62
f 57 58 62 61
f 63 64 60 59
f 59 60 58 57
f 61 62 64 63
v 0.0250 0.1600 0.3000
v 0.0217 0.1725 0.3000
v 0.0125 0.1817 0.3000
v 0.0000 0.1850 0.3000
v -0.0125 0.1817 0.3000
v -0.0217 0.1725 0.3000
v -0.0250 0.1600 0.3000
v -0.0217 0.1475 0.3000
v -0.0125 0.1383 0.3000
v -0.0000 0.1350 0.3000
v 0.0125 0.1383 0.3000
v 0.0217 0.1475 0.3000
v 0.0250 0.1600 0.0200
v 0.0217 0.1725 0.0200
v 0.0125 0.1817 0.0200
v 0.0000 0.1850 0.0200
v -0.0125 0.1817 0.0200
v -0.0217 0.1725 0.0200
v -0.0250 0.1600 0.0200
v -0.0217 0.1475 0.0200
v -0.0125 0.1383 0.0200
v -0.0000 0.1350 0.0200
v 0.0125 0.1383 0.0200
v 0.0217 0.1475 0.0200
f 77 78 66 65
f 78 79 67 66
f 79 80 68 67
f 80 81 69 68
f 81 82 70 69
f 82 83 71 70
f 83 84 72 71
f 84 85 73 72
f 85 86 74 73
f 86 87 75 74
f 87 88 76 75
f 88 77 65 76
f 65 66 67 68 69 70 71 72 73 74 75 76
f 88 87 86 85 84 83 82 81 80 79 78 77
v -0.0150 0.1000 0.2200
v 0.0150 0.1000 0.2200
v -0.0150 0.1000 0.1000
v 0.0150 0.1000 0.1000
v -0.0150 0.1400 0.2200
v 0.0150 0.1400 0.2200
v -0.0150 0.1400 0.1000
v 0.0150 0.1400 0.1000
f 93 95 91 89
f 90 92 96 94
f 89 90 94 93
f 95 96 92 91
f 91 92 90 89
f 93 94 96 95
v -0.0200 -0.1200 0.0200
v 0.0200 -0.1200 0.0200
v -0.0200 -0.1200 -0.0400
v 0.0200 -0.1200 -0.0400
v -0.0200 0.0000 0.0200
v 0.0200 0.0000 0.0200
v -0.0200 0.0000 -0.0400
v 0.0200 0.0000 -0.0400
f 101 103 99 97
f 98 100 104 102
f 97 98 102 101
f 103 104 100 99
f 99 100 98 97
f 101 102 104 103
v -0.0350 -0.0300 -0.3600
v 0.0350 -0.0300 -0.3600
v -0.0350 -0.0300 -0.4000
v 0.0350 -0.0300 -0.4000
v -0.0350 0.1100 -0.3600
v 0.0350 0.1100 -0.3600
v -0.0350 0.1100 -0.4000
v 0.0350 0.1100 -0.4000
f 109 111 107 105
f 106 108 112 110
f 105 106 110 109
f 111 112 108 107
f 107 108 106 105
f 109 110 112 111
o F1_BattleRifle_Optic
usemtl Optic
v 0.0200 0.1600 0.3050
v 0.0173 0.1700 0.3050
v 0.0100 0.1773 0.3050
v 0.0000 0.1800 0.3050
v -0.0100 0.1773 0.3050
v -0.0173 0.1700 0.3050
v -0.0200 0.1600 0.3050
v -0.0173 0.1500 0.3050
v -0.0100 0.1427 0.3050
v -0.0000 0.1400 0.3050
v 0.0100 0.1427 0.3050
v 0.0173 0.1500 0.3050
v 0.0200 0.1600 0.3000
v 0.0173 0.1700 0.3000
v 0.0100 0.1773 0.3000
v 0.0000 0.1800 0.3000
v -0.0100 0.1773 0.3000
v -0.0173 0.1700 0.3000
v -0.0200 0.1600 0.3000
v -0.0173 0.1500 0.3000
v -0.0100 0.1427 0.3000
v -0.0000 0.1400 0.3000
v 0.0100 0.1427 0.3000
v 0.0173 0.1500 0.3000
f 125 126 114 113
f 126 127 115 114
f 127 128 116 115
f 128 129 117 116
f 129 130 118 117
f 130 131 119 118
f 131 132 120 119
f 132 133 121 120
f 133 134 122 121
f 134 135 123 122
f 135 136 124 123
f 136 125 113 124
f 113 114 115 116 117 118 119 120 121 122 123 124
f 136 135 134 133 132 131 130 129 128 127 126 125
o F1_BattleRifle_WPanel
usemtl WPanel
v -0.0300 0.0200 -0.1000
v 0.0300 0.0200 -0.1000
v -0.0300 0.0200 -0.3600
v 0.0300 0.0200 -0.3600
v -0.0300 0.0900 -0.1000
v 0.0300 0.0900 -0.1000
v -0.0300 0.0900 -0.3600
v 0.0300 0.0900 -0.3600
f 141 143 139 137
f 138 140 144 142
f 137 138 142 141
f 143 144 140 139
f 139 140 138 137
f 141 142 144 143
o F1_BattleRifle_Mag
usemtl WPanel
v -0.0200 -0.1700 0.1200
v 0.0200 -0.1700 0.1200
v -0.0200 -0.1700 0.0500
v 0.0200 -0.1700 0.0500
v -0.0200 0.0000 0.1200
v 0.0200 0.0000 0.1200
v -0.0200 0.0000 0.0500
v 0.0200 0.0000 0.0500
f 149 151 147 145
f 146 148 152 150
f 145 146 150 149
f 151 152 148 147
f 147 148 146 145
f 149 150 152 151
