mtllib materials_F2.mtl
o F2_PlasmaPistol_WBody
usemtl WBody
v -0.0280 0.0000 0.1700
v 0.0280 0.0000 0.1700
v -0.0220 0.0150 -0.0500
v 0.0220 0.0150 -0.0500
v -0.0280 0.0700 0.1700
v 0.0280 0.0700 0.1700
v -0.0220 0.0600 -0.0500
v 0.0220 0.0600 -0.0500
f 5 7 3 1
f 2 4 8 6
f 1 2 6 5
f 7 8 4 3
f 3 4 2 1
f 5 6 8 7
o F2_PlasmaPistol_WPanel
usemtl WPanel
v 0.0260 0.0380 0.1900
v 0.0210 0.0533 0.1900
v 0.0080 0.0627 0.1900
v -0.0080 0.0627 0.1900
v -0.0210 0.0533 0.1900
v -0.0260 0.0380 0.1900
v -0.0210 0.0227 0.1900
v -0.0080 0.0133 0.1900
v 0.0080 0.0133 0.1900
v 0.0210 0.0227 0.1900
v 0.0260 0.0380 0.1700
v 0.0210 0.0533 0.1700
v 0.0080 0.0627 0.1700
v -0.0080 0.0627 0.1700
v -0.0210 0.0533 0.1700
v -0.0260 0.0380 0.1700
v -0.0210 0.0227 0.1700
v -0.0080 0.0133 0.1700
v 0.0080 0.0133 0.1700
v 0.0210 0.0227 0.1700
f 19 20 10 9
f 20 21 11 10
f 21 22 12 11
f 22 23 13 12
f 23 24 14 13
f 24 25 15 14
f 25 26 16 15
f 26 27 17 16
f 27 28 18 17
f 28 19 9 18
f 9 10 11 12 13 14 15 16 17 18
f 28 27 26 25 24 23 22 21 20 19
o F2_PlasmaPistol_Energy
usemtl Energy
v 0.0170 0.0380 0.1950
v 0.0138 0.0480 0.1950
v 0.0053 0.0542 0.1950
v -0.0053 0.0542 0.1950
v -0.0138 0.0480 0.1950
v -0.0170 0.0380 0.1950
v -0.0138 0.0280 0.1950
v -0.0053 0.0218 0.1950
v 0.0053 0.0218 0.1950
v 0.0138 0.0280 0.1950
v 0.0170 0.0380 0.1900
v 0.0138 0.0480 0.1900
v 0.0053 0.0542 0.1900
v -0.0053 0.0542 0.1900
v -0.0138 0.0480 0.1900
v -0.0170 0.0380 0.1900
v -0.0138 0.0280 0.1900
v -0.0053 0.0218 0.1900
v 0.0053 0.0218 0.1900
v 0.0138 0.0280 0.1900
f 39 40 30 29
f 40 41 31 30
f 41 42 32 31
f 42 43 33 32
f 43 44 34 33
f 44 45 35 34
f 45 46 36 35
f 46 47 37 36
f 47 48 38 37
f 48 39 29 38
f 29 30 31 32 33 34 35 36 37 38
f 48 47 46 45 44 43 42 41 40 39
v -0.0040 0.0690 0.1500
v 0.0040 0.0690 0.1500
v -0.0040 0.0690 -0.0000
v 0.0040 0.0690 -0.0000
v -0.0040 0.0750 0.1500
v 0.0040 0.0750 0.1500
v -0.0040 0.0750 -0.0000
v 0.0040 0.0750 -0.0000
f 53 55 51 49
f 50 52 56 54
f 49 50 54 53
f 55 56 52 51
f 51 52 50 49
f 53 54 56 55
o F2_PlasmaPistol_WDark
usemtl WDark
v -0.0160 -0.1100 0.0050
v 0.0160 -0.1100 0.0050
v -0.0160 -0.1100 -0.0450
v 0.0160 -0.1100 -0.0450
v -0.0160 0.0000 0.0050
v 0.0160 0.0000 0.0050
v -0.0160 0.0000 -0.0450
v 0.0160 0.0000 -0.0450
f 61 63 59 57
f 58 60 64 62
f 57 58 62 61
f 63 64 60 59
f 59 60 58 57
f 61 62 64 63
o F2_PlasmaPistol_Cell
usemtl Energy
v -0.0120 -0.1250 -0.0000
v 0.0120 -0.1250 -0.0000
v -0.0120 -0.1250 -0.0350
v 0.0120 -0.1250 -0.0350
v -0.0120 -0.1000 -0.0000
v 0.0120 -0.1000 -0.0000
v -0.0120 -0.1000 -0.0350
v 0.0120 -0.1000 -0.0350
f 69 71 67 65
f 66 68 72 70
f 65 66 70 69
f 71 72 68 67
f 67 68 66 65
f 69 70 72 71
