mtllib materials_F1.mtl
o F1_SMG_WBody
usemtl WBody
v -0.0300 0.0000 0.2000
v 0.0300 0.0000 0.2000
v -0.0300 0.0000 -0.1000
v 0.0300 0.0000 -0.1000
v -0.0300 0.0900 0.2000
v 0.0300 0.0900 0.2000
v -0.0300 0.0900 -0.1000
v 0.0300 0.0900 -0.1000
f 5 7 3 1
f 2 4 8 6
f 1 2 6 5
f 7 8 4 3
f 3 4 2 1
f 5 6 8 7
o F1_SMG_WAccent
usemtl WAccent
v -0.0340 0.0200 0.1600
v -0.0300 0.0200 0.1600
v -0.0340 0.0200 -0.0400
v -0.0300 0.0200 -0.0400
v -0.0340 0.0600 0.1600
v -0.0300 0.0600 0.1600
v -0.0340 0.0600 -0.0400
v -0.0300 0.0600 -0.0400
f 13 15 11 9
f 10 12 16 14
f 9 10 14 13
f 15 16 12 11
f 11 12 10 9
f 13 14 16 15
v 0.0300 0.0200 0.1600
v 0.0340 0.0200 0.1600
v 0.0300 0.0200 -0.0400
v 0.0340 0.0200 -0.0400
v 0.0300 0.0600 0.1600
v 0.0340 0.0600 0.1600
v 0.0300 0.0600 -0.0400
v 0.0340 0.0600 -0.0400
f 21 23 19 17
f 18 20 24 22
f 17 18 22 21
f 23 24 20 19
f 19 20 18 17
f 21 22 24 23
o F1_SMG_WDark
usemtl WDark
v 0.0220 0.0450 0.4200
v 0.0191 0.0560 0.4200
v 0.0110 0.0641 0.4200
v 0.0000 0.0670 0.4200
v -0.0110 0.0641 0.4200
v -0.0191 0.0560 0.4200
v -0.0220 0.0450 0.4200
v -0.0191 0.0340 0.4200
v -0.0110 0.0259 0.4200
v -0.0000 0.0230 0.4200
v 0.0110 0.0259 0.4200
v 0.0191 0.0340 0.4200
v 0.0220 0.0450 0.2000
v 0.0191 0.0560 0.2000
v 0.0110 0.0641 0.2000
v 0.0000 0.0670 0.2000
v -0.0110 0.0641 0.2000
v -0.0191 0.0560 0.2000
v -0.0220 0.0450 0.2000
v -0.0191 0.0340 0.2000
v -0.0110 0.0259 0.2000
v -0.0000 0.0230 0.2000
v 0.0110 0.0259 0.2000
v 0.0191 0.0340 0.2000
f 37 38 26 25
f 38 39 27 26
f 39 40 28 27
f 40 41 29 28
f 41 42 30 29
f 42 43 31 30
f 43 44 32 31
f 44 45 33 32
f 45 46 34 33
f 46 47 35 34
f 47 48 36 35
f 48 37 25 36
f 25 26 27 28 29 30 31 32 33 34 35 36
f 48 47 46 45 44 43 42 41 40 39 38 37
v -0.0200 -0.1100 0.0200
v 0.0200 -0.1100 0.0200
v -0.0200 -0.1100 -0.0350
v 0.0200 -0.1100 -0.0350
v -0.0200 0.0000 0.0200
v 0.0200 0.0000 0.0200
v -0.0200 0.0000 -0.0350
v 0.0200 0.0000 -0.0350
f 53 55 51 49
f 50 52 56 54
f 49 50 54 53
f 55 56 52 51
f 51 52 50 49
f 53 54 56 55
v -0.0150 -0.0600 0.1400
v 0.0150 -0.0600 0.1400
v -0.0150 -0.0600 0.0600
v 0.0150 -0.0600 0.0600
v -0.0150 0.0000 0.1400
v 0.0150 0.0000 0.1400
v -0.0150 0.0000 0.0600
v 0.0150 0.0000 0.0600
f 61 63 59 57
f 58 60 64 62
f 57 58 62 61
f 63 64 60 59
f 59 60 58 57
f 61 62 64 63
v -0.0200 0.0200 -0.1000
v -0.0120 0.0200 -0.1000
v -0.0200 0.0200 -0.3000
v -0.0120 0.0200 -0.3000
v -0.0200 0.0350 -0.1000
v -0.0120 0.0350 -0.1000
v -0.0200 0.0350 -0.3000
v -0.0120 0.0350 -0.3000
f 69 71 67 65
f 66 68 72 70
f 65 66 70 69
f 71 72 68 67
f 67 68 66 65
f 69 70 72 71
v 0.0120 0.0200 -0.1000
v 0.0200 0.0200 -0.1000
v 0.0120 0.0200 -0.3000
v 0.0200 0.0200 -0.3000
v 0.0120 0.0350 -0.1000
v 0.0200 0.0350 -0.1000
v 0.0120 0.0350 -0.3000
v 0.0200 0.0350 -0.3000
f 77 79 75 73
f 74 76 80 78
f 73 74 78 77
f 79 80 76 75
f 75 76 74 73
f 77 78 80 79
v -0.0300 -0.0200 -0.2800
v 0.0300 -0.0200 -0.2800
v -0.0300 -0.0200 -0.3100
v 0.0300 -0.0200 -0.3100
v -0.0300 0.0600 -0.2800
v 0.0300 0.0600 -0.2800
v -0.0300 0.0600 -0.3100
v 0.0300 0.0600 -0.3100
f 85 87 83 81
f 82 84 88 86
f 81 82 86 85
f 87 88 84 83
f 83 84 82 81
f 85 86 88 87
v -0.0120 0.0900 0.1000
v 0.0120 0.0900 0.1000
v -0.0120 0.0900 -0.0500
v 0.0120 0.0900 -0.0500
v -0.0120 0.1200 0.1000
v 0.0120 0.1200 0.1000
v -0.0120 0.1200 -0.0500
v 0.0120 0.1200 -0.0500
f 93 95 91 89
f 90 92 96 94
f 89 90 94 93
f 95 96 92 91
f 91 92 90 89
f 93 94 96 95
o F1_SMG_Mag
usemtl WPanel
v -0.0150 -0.2400 0.0050
v 0.0150 -0.2400 0.0050
v -0.0150 -0.2400 -0.0300
v 0.0150 -0.2400 -0.0300
v -0.0150 -0.0200 0.0050
v 0.0150 -0.0200 0.0050
v -0.0150 -0.0200 -0.0300
v 0.0150 -0.0200 -0.0300
f 101 103 99 97
f 98 100 104 102
f 97 98 102 101
f 103 104 100 99
f 99 100 98 97
f 101 102 104 103
