mtllib materials_F1.mtl
o F1_Sniper_WBody
usemtl WBody
v -0.0360 0.0000 0.3000
v 0.0360 0.0000 0.3000
v -0.0360 0.0000 -0.1800
v 0.0360 0.0000 -0.1800
v -0.0360 0.1000 0.3000
v 0.0360 0.1000 0.3000
v -0.0360 0.1000 -0.1800
v 0.0360 0.1000 -0.1800
f 5 7 3 1
f 2 4 8 6
f 1 2 6 5
f 7 8 4 3
f 3 4 2 1
f 5 6 8 7
o F1_Sniper_WDark
usemtl WDark
v 0.0160 0.0500 1.0500
v 0.0139 0.0580 1.0500
v 0.0080 0.0639 1.0500
v 0.0000 0.0660 1.0500
v -0.0080 0.0639 1.0500
v -0.0139 0.0580 1.0500
v -0.0160 0.0500 1.0500
v -0.0139 0.0420 1.0500
v -0.0080 0.0361 1.0500
v -0.0000 0.0340 1.0500
v 0.0080 0.0361 1.0500
v 0.0139 0.0420 1.0500
v 0.0160 0.0500 0.3000
v 0.0139 0.0580 0.3000
v 0.0080 0.0639 0.3000
v 0.0000 0.0660 0.3000
v -0.0080 0.0639 0.3000
v -0.0139 0.0580 0.3000
v -0.0160 0.0500 0.3000
v -0.0139 0.0420 0.3000
v -0.0080 0.0361 0.3000
v -0.0000 0.0340 0.3000
v 0.0080 0.0361 0.3000
v 0.0139 0.0420 0.3000
f 21 22 10 9
f 22 23 11 10
f 23 24 12 11
f 24 25 13 12
f 25 26 14 13
f 26 27 15 14
f 27 28 16 15
f 28 29 17 16
f 29 30 18 17
f 30 31 19 18
f 31 32 20 19
f 32 21 9 20
f 9 10 11 12 13 14 15 16 17 18 19 20
f 32 31 30 29 28 27 26 25 24 23 22 21
v -0.0300 0.0250 1.1000
v 0.0300 0.0250 1.1000
v -0.0300 0.0250 1.0400
v 0.0300 0.0250 1.0400
v -0.0300 0.0750 1.1000
v 0.0300 0.0750 1.1000
v -0.0300 0.0750 1.0400
v 0.0300 0.0750 1.0400
f 37 39 35 33
f 34 36 40 38
f 33 34 38 37
f 39 40 36 35
f 35 36 34 33
f 37 38 40 39
v 0.0320 0.1700 0.2800
v 0.0277 0.1860 0.2800
v 0.0160 0.1977 0.2800
v 0.0000 0.2020 0.2800
v -0.0160 0.1977 0.2800
v -0.0277 0.1860 0.2800
v -0.0320 0.1700 0.2800
v -0.0277 0.1540 0.2800
v -0.0160 0.1423 0.2800
v -0.0000 0.1380 0.2800
v 0.0160 0.1423 0.2800
v 0.0277 0.1540 0.2800
v 0.0320 0.1700 -0.0600
v 0.0277 0.1860 -0.0600
v 0.0160 0.1977 -0.0600
v 0.0000 0.2020 -0.0600
v -0.0160 0.1977 -0.0600
v -0.0277 0.1860 -0.0600
v -0.0320 0.1700 -0.0600
v -0.0277 0.1540 -0.0600
v -0.0160 0.1423 -0.0600
v -0.0000 0.1380 -0.0600
v 0.0160 0.1423 -0.0600
v 0.0277 0.1540 -0.0600
f 53 54 42 41
f 54 55 43 42
f 55 56 44 43
f 56 57 45 44
f 57 58 46 45
f 58 59 47 46
f 59 60 48 47
f 60 61 49 48
f 61 62 50 49
f 62 63 51 50
f 63 64 52 51
f 64 53 41 52
f 41 42 43 44 45 46 47 48 49 50 51 52
f 64 63 62 61 60 59 58 57 56 55 54 53
v -0.0120 0.1000 0.2000
v 0.0120 0.1000 0.2000
v -0.0120 0.1000 0.1600
v 0.0120 0.1000 0.1600
v -0.0120 0.1400 0.2000
v 0.0120 0.1400 0.2000
v -0.0120 0.1400 0.1600
v 0.0120 0.1400 0.1600
f 69 71 67 65
f 66 68 72 70
f 65 66 70 69
f 71 72 68 67
f 67 68 66 65
f 69 70 72 71
v -0.0120 0.1000 0.0200
v 0.0120 0.1000 0.0200
v -0.0120 0.1000 -0.0200
v 0.0120 0.1000 -0.0200
v -0.0120 0.1400 0.0200
v 0.0120 0.1400 0.0200
v -0.0120 0.1400 -0.0200
v 0.0120 0.1400 -0.0200
f 77 79 75 73
f 74 76 80 78
f 73 74 78 77
f 79 80 76 75
f 75 76 74 73
f 77 78 80 79
v -0.0200 -0.1200 0.0200
v 0.0200 -0.1200 0.0200
v -0.0200 -0.1200 -0.0400
v 0.0200 -0.1200 -0.0400
v -0.0200 0.0000 0.0200
v 0.0200 0.0000 0.0200
v -0.0200 0.0000 -0.0400
v 0.0200 0.0000 -0.0400
f 85 87 83 81
f 82 84 88 86
f 81 82 86 85
f 87 88 84 83
f 83 84 82 81
f 85 86 88 87
v -0.0300 0.0900 -0.3000
v 0.0300 0.0900 -0.3000
v -0.0300 0.0900 -0.4400
v 0.0300 0.0900 -0.4400
v -0.0300 0.1200 -0.3000
v 0.0300 0.1200 -0.3000
v -0.0300 0.1200 -0.4400
v 0.0300 0.1200 -0.4400
f 93 95 91 89
f 90 92 96 94
f 89 90 94 93
f 95 96 92 91
f 91 92 90 89
f 93 94 96 95
v -0.0200 -0.0100 0.7000
v -0.0100 -0.0100 0.7000
v -0.0200 -0.0100 0.4500
v -0.0100 -0.0100 0.4500
v -0.0200 0.0100 0.7000
v -0.0100 0.0100 0.7000
v -0.0200 0.0100 0.4500
v -0.0100 0.0100 0.4500
f 101 103 99 97
f 98 100 104 102
f 97 98 102 101
f 103 104 100 99
f 99 100 98 97
f 101 102 104 103
v 0.0100 -0.0100 0.7000
v 0.0200 -0.0100 0.7000
v 0.0100 -0.0100 0.4500
v 0.0200 -0.0100 0.4500
v 0.0100 0.0100 0.7000
v 0.0200 0.0100 0.7000
v 0.0100 0.0100 0.4500
v 0.0200 0.0100 0.4500
f 109 111 107 105
f 106 108 112 110
f 105 106 110 109
f 111 112 108 107
f 107 108 106 105
f 109 110 112 111
o F1_Sniper_Optic
usemtl Optic
v 0.0270 0.1700 0.2850
v 0.0234 0.1835 0.2850
v 0.0135 0.1934 0.2850
v 0.0000 0.1970 0.2850
v -0.0135 0.1934 0.2850
v -0.0234 0.1835 0.2850
v -0.0270 0.1700 0.2850
v -0.0234 0.1565 0.2850
v -0.0135 0.1466 0.2850
v -0.0000 0.1430 0.2850
v 0.0135 0.1466 0.2850
v 0.0234 0.1565 0.2850
v 0.0270 0.1700 0.2800
v 0.0234 0.1835 0.2800
v 0.0135 0.1934 0.2800
v 0.0000 0.1970 0.2800
v -0.0135 0.1934 0.2800
v -0.0234 0.1835 0.2800
v -0.0270 0.1700 0.2800
v -0.0234 0.1565 0.2800
v -0.0135 0.1466 0.2800
v -0.0000 0.1430 0.2800
v 0.0135 0.1466 0.2800
v 0.0234 0.1565 0.2800
f 125 126 114 113
f 126 127 115 114
f 127 128 116 115
f 128 129 117 116
f 129 130 118 117
f 130 131 119 118
f 131 132 120 119
f 132 133 121 120
f 133 134 122 121
f 134 135 123 122
f 135 136 124 123
f 136 125 113 124
f 113 114 115 116 117 118 119 120 121 122 123 124
f 136 135 134 133 132 131 130 129 128 127 126 125
o F1_Sniper_WAccent
usemtl WAccent
v -0.0400 0.0300 0.2600
v -0.0360 0.0300 0.2600
v -0.0400 0.0300 -0.1200
v -0.0360 0.0300 -0.1200
v -0.0400 0.0700 0.2600
v -0.0360 0.0700 0.2600
v -0.0400 0.0700 -0.1200
v -0.0360 0.0700 -0.1200
f 141 143 139 137
f 138 140 144 142
f 137 138 142 141
f 143 144 140 139
f 139 140 138 137
f 141 142 144 143
v 0.0360 0.0300 0.2600
v 0.0400 0.0300 0.2600
v 0.0360 0.0300 -0.1200
v 0.0400 0.0300 -0.1200
v 0.0360 0.0700 0.2600
v 0.0400 0.0700 0.2600
v 0.0360 0.0700 -0.1200
v 0.0400 0.0700 -0.1200
f 149 151 147 145
f 146 148 152 150
f 145 146 150 149
f 151 152 148 147
f 147 148 146 145
f 149 150 152 151
o F1_Sniper_WPanel
usemtl WPanel
v -0.0320 0.0000 -0.1800
v 0.0320 0.0000 -0.1800
v -0.0320 0.0000 -0.5500
v 0.0320 0.0000 -0.5500
v -0.0320 0.0900 -0.1800
v 0.0320 0.0900 -0.1800
v -0.0320 0.0900 -0.5500
v 0.0320 0.0900 -0.5500
f 157 159 155 153
f 154 156 160 158
f 153 154 158 157
f 159 160 156 155
f 155 156 154 153
f 157 158 160 159
o F1_Sniper_Mag
usemtl WPanel
v -0.0240 -0.1300 0.1300
v 0.0240 -0.1300 0.1300
v -0.0240 -0.1300 0.0500
v 0.0240 -0.1300 0.0500
v -0.0240 0.0000 0.1300
v 0.0240 0.0000 0.1300
v -0.0240 0.0000 0.0500
v 0.0240 0.0000 0.0500
f 165 167 163 161
f 162 164 168 166
f 161 162 166 165
f 167 168 164 163
f 163 164 162 161
f 165 166 168 167
