mtllib materials_F2.mtl
o F2_EnergySMG_WBody
usemtl WBody
v -0.0300 0.0000 0.1800
v 0.0300 0.0000 0.1800
v -0.0300 0.0000 -0.1000
v 0.0300 0.0000 -0.1000
v -0.0300 0.0900 0.1800
v 0.0300 0.0900 0.1800
v -0.0300 0.0900 -0.1000
v 0.0300 0.0900 -0.1000
f 5 7 3 1
f 2 4 8 6
f 1 2 6 5
f 7 8 4 3
f 3 4 2 1
f 5 6 8 7
v -0.0250 0.0100 -0.1000
v 0.0250 0.0100 -0.1000
v -0.0200 0.0000 -0.2600
v 0.0200 0.0000 -0.2600
v -0.0250 0.0800 -0.1000
v 0.0250 0.0800 -0.1000
v -0.0200 0.0600 -0.2600
v 0.0200 0.0600 -0.2600
f 13 15 11 9
f 10 12 16 14
f 9 10 14 13
f 15 16 12 11
f 11 12 10 9
f 13 14 16 15
o F2_EnergySMG_WPanel
usemtl WPanel
v 0.0400 0.0450 0.2600
v 0.0324 0.0685 0.2600
v 0.0124 0.0830 0.2600
v -0.0124 0.0830 0.2600
v -0.0324 0.0685 0.2600
v -0.0400 0.0450 0.2600
v -0.0324 0.0215 0.2600
v -0.0124 0.0070 0.2600
v 0.0124 0.0070 0.2600
v 0.0324 0.0215 0.2600
v 0.0400 0.0450 0.1800
v 0.0324 0.0685 0.1800
v 0.0124 0.0830 0.1800
v -0.0124 0.0830 0.1800
v -0.0324 0.0685 0.1800
v -0.0400 0.0450 0.1800
v -0.0324 0.0215 0.1800
v -0.0124 0.0070 0.1800
v 0.0124 0.0070 0.1800
v 0.0324 0.0215 0.1800
f 27 28 18 17
f 28 29 19 18
f 29 30 20 19
f 30 31 21 20
f 31 32 22 21
f 32 33 23 22
f 33 34 24 23
f 34 35 25 24
f 35 36 26 25
f 36 27 17 26
f 17 18 19 20 21 22 23 24 25 26
f 36 35 34 33 32 31 30 29 28 27
o F2_EnergySMG_Energy
usemtl Energy
v 0.0280 0.0450 0.2650
v 0.0227 0.0615 0.2650
v 0.0087 0.0716 0.2650
v -0.0087 0.0716 0.2650
v -0.0227 0.0615 0.2650
v -0.0280 0.0450 0.2650
v -0.0227 0.0285 0.2650
v -0.0087 0.0184 0.2650
v 0.0087 0.0184 0.2650
v 0.0227 0.0285 0.2650
v 0.0280 0.0450 0.2600
v 0.0227 0.0615 0.2600
v 0.0087 0.0716 0.2600
v -0.0087 0.0716 0.2600
v -0.0227 0.0615 0.2600
v -0.0280 0.0450 0.2600
v -0.0227 0.0285 0.2600
v -0.0087 0.0184 0.2600
v 0.0087 0.0184 0.2600
v 0.0227 0.0285 0.2600
f 47 48 38 37
f 48 49 39 38
f 49 50 40 39
f 50 51 41 40
f 51 52 42 41
f 52 53 43 42
f 53 54 44 43
f 54 55 45 44
f 55 56 46 45
f 56 47 37 46
f 37 38 39 40 41 42 43 44 45 46
f 56 55 54 53 52 51 50 49 48 47
v -0.0330 0.0300 0.1400
v -0.0300 0.0300 0.1400
v -0.0330 0.0300 -0.0600
v -0.0300 0.0300 -0.0600
v -0.0330 0.0400 0.1400
v -0.0300 0.0400 0.1400
v -0.0330 0.0400 -0.0600
v -0.0300 0.0400 -0.0600
f 61 63 59 57
f 58 60 64 62
f 57 58 62 61
f 63 64 60 59
f 59 60 58 57
f 61 62 64 63
v 0.0300 0.0300 0.1400
v 0.0330 0.0300 0.1400
v 0.0300 0.0300 -0.0600
v 0.0330 0.0300 -0.0600
v 0.0300 0.0400 0.1400
v 0.0330 0.0400 0.1400
v 0.0300 0.0400 -0.0600
v 0.0330 0.0400 -0.0600
f 69 71 67 65
f 66 68 72 70
f 65 66 70 69
f 71 72 68 67
f 67 68 66 65
f 69 70 72 71
o F2_EnergySMG_WDark
usemtl WDark
v -0.0180 -0.1100 0.0200
v 0.0180 -0.1100 0.0200
v -0.0180 -0.1100 -0.0350
v 0.0180 -0.1100 -0.0350
v -0.0180 0.0000 0.0200
v 0.0180 0.0000 0.0200
v -0.0180 0.0000 -0.0350
v 0.0180 0.0000 -0.0350
f 77 79 75 73
f 74 76 80 78
f 73 74 78 77
f 79 80 76 75
f 75 76 74 73
f 77 78 80 79
o F2_EnergySMG_Cell
usemtl Energy
v -0.0140 -0.2000 0.0050
v 0.0140 -0.2000 0.0050
v -0.0140 -0.2000 -0.0300
v 0.0140 -0.2000 -0.0300
v -0.0140 -0.0200 0.0050
v 0.0140 -0.0200 0.0050
v -0.0140 -0.0200 -0.0300
v 0.0140 -0.0200 -0.0300
f 85 87 83 81
f 82 84 88 86
f 81 82 86 85
f 87 88 84 83
f 83 84 82 81
f 85 86 88 87
