mtllib materials_F2.mtl
o F2_ArcCannon_WBody
usemtl WBody
v -0.0500 -0.0300 0.3000
v 0.0500 -0.0300 0.3000
v -0.0500 -0.0300 -0.2500
v 0.0500 -0.0300 -0.2500
v -0.0500 0.1300 0.3000
v 0.0500 0.1300 0.3000
v -0.0500 0.1300 -0.2500
v 0.0500 0.1300 -0.2500
f 5 7 3 1
f 2 4 8 6
f 1 2 6 5
f 7 8 4 3
f 3 4 2 1
f 5 6 8 7
v -0.0400 0.0000 -0.2500
v 0.0400 0.0000 -0.2500
v -0.0400 0.0000 -0.4800
v 0.0400 0.0000 -0.4800
v -0.0400 0.1100 -0.2500
v 0.0400 0.1100 -0.2500
v -0.0400 0.1100 -0.4800
v 0.0400 0.1100 -0.4800
f 13 15 11 9
f 10 12 16 14
f 9 10 14 13
f 15 16 12 11
f 11 12 10 9
f 13 14 16 15
o F2_ArcCannon_Energy
usemtl Energy
v 0.0180 0.0500 0.7500
v 0.0127 0.0627 0.7500
v 0.0000 0.0680 0.7500
v -0.0127 0.0627 0.7500
v -0.0180 0.0500 0.7500
v -0.0127 0.0373 0.7500
v -0.0000 0.0320 0.7500
v 0.0127 0.0373 0.7500
v 0.0180 0.0500 0.3000
v 0.0127 0.0627 0.3000
v 0.0000 0.0680 0.3000
v -0.0127 0.0627 0.3000
v -0.0180 0.0500 0.3000
v -0.0127 0.0373 0.3000
v -0.0000 0.0320 0.3000
v 0.0127 0.0373 0.3000
f 25 26 18 17
f 26 27 19 18
f 27 28 20 19
f 28 29 21 20
f 29 30 22 21
f 30 31 23 22
f 31 32 24 23
f 32 25 17 24
f 17 18 19 20 21 22 23 24
f 32 31 30 29 28 27 26 25
o F2_ArcCannon_WPanel
usemtl WPanel
v 0.0600 0.0500 0.3900
v 0.0485 0.0853 0.3900
v 0.0185 0.1071 0.3900
v -0.0185 0.1071 0.3900
v -0.0485 0.0853 0.3900
v -0.0600 0.0500 0.3900
v -0.0485 0.0147 0.3900
v -0.0185 -0.0071 0.3900
v 0.0185 -0.0071 0.3900
v 0.0485 0.0147 0.3900
v 0.0600 0.0500 0.3600
v 0.0485 0.0853 0.3600
v 0.0185 0.1071 0.3600
v -0.0185 0.1071 0.3600
v -0.0485 0.0853 0.3600
v -0.0600 0.0500 0.3600
v -0.0485 0.0147 0.3600
v -0.0185 -0.0071 0.3600
v 0.0185 -0.0071 0.3600
v 0.0485 0.0147 0.3600
f 43 44 34 33
f 44 45 35 34
f 45 46 36 35
f 46 47 37 36
f 47 48 38 37
f 48 49 39 38
f 49 50 40 39
f 50 51 41 40
f 51 52 42 41
f 52 43 33 42
f 33 34 35 36 37 38 39 40 41 42
f 52 51 50 49 48 47 46 45 44 43
v 0.0600 0.0500 0.4900
v 0.0485 0.0853 0.4900
v 0.0185 0.1071 0.4900
v -0.0185 0.1071 0.4900
v -0.0485 0.0853 0.4900
v -0.0600 0.0500 0.4900
v -0.0485 0.0147 0.4900
v -0.0185 -0.0071 0.4900
v 0.0185 -0.0071 0.4900
v 0.0485 0.0147 0.4900
v 0.0600 0.0500 0.4600
v 0.0485 0.0853 0.4600
v 0.0185 0.1071 0.4600
v -0.0185 0.1071 0.4600
v -0.0485 0.0853 0.4600
v -0.0600 0.0500 0.4600
v -0.0485 0.0147 0.4600
v -0.0185 -0.0071 0.4600
v 0.0185 -0.0071 0.4600
v 0.0485 0.0147 0.4600
f 63 64 54 53
f 64 65 55 54
f 65 66 56 55
f 66 67 57 56
f 67 68 58 57
f 68 69 59 58
f 69 70 60 59
f 70 71 61 60
f 71 72 62 61
f 72 63 53 62
f 53 54 55 56 57 58 59 60 61 62
f 72 71 70 69 68 67 66 65 64 63
v 0.0600 0.0500 0.5900
v 0.0485 0.0853 0.5900
v 0.0185 0.1071 0.5900
v -0.0185 0.1071 0.5900
v -0.0485 0.0853 0.5900
v -0.0600 0.0500 0.5900
v -0.0485 0.0147 0.5900
v -0.0185 -0.0071 0.5900
v 0.0185 -0.0071 0.5900
v 0.0485 0.0147 0.5900
v 0.0600 0.0500 0.5600
v 0.0485 0.0853 0.5600
v 0.0185 0.1071 0.5600
v -0.0185 0.1071 0.5600
v -0.0485 0.0853 0.5600
v -0.0600 0.0500 0.5600
v -0.0485 0.0147 0.5600
v -0.0185 -0.0071 0.5600
v 0.0185 -0.0071 0.5600
v 0.0485 0.0147 0.5600
f 83 84 74 73
f 84 85 75 74
f 85 86 76 75
f 86 87 77 76
f 87 88 78 77
f 88 89 79 78
f 89 90 80 79
f 90 91 81 80
f 91 92 82 81
f 92 83 73 82
f 73 74 75 76 77 78 79 80 81 82
f 92 91 90 89 88 87 86 85 84 83
v 0.0600 0.0500 0.6900
v 0.0485 0.0853 0.6900
v 0.0185 0.1071 0.6900
v -0.0185 0.1071 0.6900
v -0.0485 0.0853 0.6900
v -0.0600 0.0500 0.6900
v -0.0485 0.0147 0.6900
v -0.0185 -0.0071 0.6900
v 0.0185 -0.0071 0.6900
v 0.0485 0.0147 0.6900
v 0.0600 0.0500 0.6600
v 0.0485 0.0853 0.6600
v 0.0185 0.1071 0.6600
v -0.0185 0.1071 0.6600
v -0.0485 0.0853 0.6600
v -0.0600 0.0500 0.6600
v -0.0485 0.0147 0.6600
v -0.0185 -0.0071 0.6600
v 0.0185 -0.0071 0.6600
v 0.0485 0.0147 0.6600
f 103 104 94 93
f 104 105 95 94
f 105 106 96 95
f 106 107 97 96
f 107 108 98 97
f 108 109 99 98
f 109 110 100 99
f 110 111 101 100
f 111 112 102 101
f 112 103 93 102
f 93 94 95 96 97 98 99 100 101 102
f 112 111 110 109 108 107 106 105 104 103
o F2_ArcCannon_WDark
usemtl WDark
v -0.0600 -0.0100 0.7800
v 0.0600 -0.0100 0.7800
v -0.0600 -0.0100 0.7400
v 0.0600 -0.0100 0.7400
v -0.0600 0.1100 0.7800
v 0.0600 0.1100 0.7800
v -0.0600 0.1100 0.7400
v 0.0600 0.1100 0.7400
f 117 119 115 113
f 114 116 120 118
f 113 114 118 117
f 119 120 116 115
f 115 116 114 113
f 117 118 120 119
v -0.0220 -0.1300 0.0200
v 0.0220 -0.1300 0.0200
v -0.0220 -0.1300 -0.0450
v 0.0220 -0.1300 -0.0450
v -0.0220 -0.0300 0.0200
v 0.0220 -0.0300 0.0200
v -0.0220 -0.0300 -0.0450
v 0.0220 -0.0300 -0.0450
f 125 127 123 121
f 122 124 128 126
f 121 122 126 125
f 127 128 124 123
f 123 124 122 121
f 125 126 128 127
v -0.0120 0.1300 0.2800
v 0.0120 0.1300 0.2800
v -0.0120 0.1300 0.1000
v 0.0120 0.1300 0.1000
v -0.0120 0.1900 0.2800
v 0.0120 0.1900 0.2800
v -0.0120 0.1900 0.1000
v 0.0120 0.1900 0.1000
f 133 135 131 129
f 130 132 136 134
f 129 130 134 133
f 135 136 132 131
f 131 132 130 129
f 133 134 136 135
v -0.0500 0.1300 0.2800
v 0.0500 0.1300 0.2800
v -0.0500 0.1300 0.2400
v 0.0500 0.1300 0.2400
v -0.0500 0.1900 0.2800
v 0.0500 0.1900 0.2800
v -0.0500 0.1900 0.2400
v 0.0500 0.1900 0.2400
f 141 143 139 137
f 138 140 144 142
f 137 138 142 141
f 143 144 140 139
f 139 140 138 137
f 141 142 144 143
o F2_ArcCannon_WAccent
usemtl WAccent
v -0.0540 0.0300 0.2600
v -0.0500 0.0300 0.2600
v -0.0540 0.0300 -0.2000
v -0.0500 0.0300 -0.2000
v -0.0540 0.0900 0.2600
v -0.0500 0.0900 0.2600
v -0.0540 0.0900 -0.2000
v -0.0500 0.0900 -0.2000
f 149 151 147 145
f 146 148 152 150
f 145 146 150 149
f 151 152 148 147
f 147 148 146 145
f 149 150 152 151
v 0.0500 0.0300 0.2600
v 0.0540 0.0300 0.2600
v 0.0500 0.0300 -0.2000
v 0.0540 0.0300 -0.2000
v 0.0500 0.0900 0.2600
v 0.0540 0.0900 0.2600
v 0.0500 0.0900 -0.2000
v 0.0540 0.0900 -0.2000
f 157 159 155 153
f 154 156 160 158
f 153 154 158 157
f 159 160 156 155
f 155 156 154 153
f 157 158 160 159
o F2_ArcCannon_Cell
usemtl Energy
v -0.0450 0.1300 -0.0600
v 0.0450 0.1300 -0.0600
v -0.0450 0.1300 -0.2200
v 0.0450 0.1300 -0.2200
v -0.0450 0.2000 -0.0600
v 0.0450 0.2000 -0.0600
v -0.0450 0.2000 -0.2200
v 0.0450 0.2000 -0.2200
f 165 167 163 161
f 162 164 168 166
f 161 162 166 165
f 167 168 164 163
f 163 164 162 161
f 165 166 168 167
