mtllib materials_F1.mtl
o F1_AssaultRifle_WBody
usemtl WBody
v -0.0350 0.0000 0.3000
v 0.0350 0.0000 0.3000
v -0.0350 0.0000 -0.3200
v 0.0350 0.0000 -0.3200
v -0.0350 0.1100 0.3000
v 0.0350 0.1100 0.3000
v -0.0350 0.1100 -0.3200
v 0.0350 0.1100 -0.3200
f 5 7 3 1
f 2 4 8 6
f 1 2 6 5
f 7 8 4 3
f 3 4 2 1
f 5 6 8 7
v -0.0400 -0.0100 0.5800
v 0.0400 -0.0100 0.5800
v -0.0400 -0.0100 0.3000
v 0.0400 -0.0100 0.3000
v -0.0400 0.1000 0.5800
v 0.0400 0.1000 0.5800
v -0.0400 0.1000 0.3000
v 0.0400 0.1000 0.3000
f 13 15 11 9
f 10 12 16 14
f 9 10 14 13
f 15 16 12 11
f 11 12 10 9
f 13 14 16 15
o F1_AssaultRifle_WAccent
usemtl WAccent
v -0.0440 0.0200 0.5200
v -0.0400 0.0200 0.5200
v -0.0440 0.0200 0.3200
v -0.0400 0.0200 0.3200
v -0.0440 0.0750 0.5200
v -0.0400 0.0750 0.5200
v -0.0440 0.0750 0.3200
v -0.0400 0.0750 0.3200
f 21 23 19 17
f 18 20 24 22
f 17 18 22 21
f 23 24 20 19
f 19 20 18 17
f 21 22 24 23
v 0.0400 0.0200 0.5200
v 0.0440 0.0200 0.5200
v 0.0400 0.0200 0.3200
v 0.0440 0.0200 0.3200
v 0.0400 0.0750 0.5200
v 0.0440 0.0750 0.5200
v 0.0400 0.0750 0.3200
v 0.0440 0.0750 0.3200
f 29 31 27 25
f 26 28 32 30
f 25 26 30 29
f 31 32 28 27
f 27 28 26 25
f 29 30 32 31
o F1_AssaultRifle_WDark
usemtl WDark
v 0.0120 0.0500 0.7400
v 0.0104 0.0560 0.7400
v 0.0060 0.0604 0.7400
v 0.0000 0.0620 0.7400
v -0.0060 0.0604 0.7400
v -0.0104 0.0560 0.7400
v -0.0120 0.0500 0.7400
v -0.0104 0.0440 0.7400
v -0.0060 0.0396 0.7400
v -0.0000 0.0380 0.7400
v 0.0060 0.0396 0.7400
v 0.0104 0.0440 0.7400
v 0.0120 0.0500 0.5800
v 0.0104 0.0560 0.5800
v 0.0060 0.0604 0.5800
v 0.0000 0.0620 0.5800
v -0.0060 0.0604 0.5800
v -0.0104 0.0560 0.5800
v -0.0120 0.0500 0.5800
v -0.0104 0.0440 0.5800
v -0.0060 0.0396 0.5800
v -0.0000 0.0380 0.5800
v 0.0060 0.0396 0.5800
v 0.0104 0.0440 0.5800
f 45 46 34 33
f 46 47 35 34
f 47 48 36 35
f 48 49 37 36
f 49 50 38 37
f 50 51 39 38
f 51 52 40 39
f 52 53 41 40
f 53 54 42 41
f 54 55 43 42
f 55 56 44 43
f 56 45 33 44
f 33 34 35 36 37 38 39 40 41 42 43 44
f 56 55 54 53 52 51 50 49 48 47 46 45
v -0.0180 0.1100 0.2500
v 0.0180 0.1100 0.2500
v -0.0180 0.1100 -0.0500
v 0.0180 0.1100 -0.0500
v -0.0180 0.1300 0.2500
v 0.0180 0.1300 0.2500
v -0.0180 0.1300 -0.0500
v 0.0180 0.1300 -0.0500
f 61 63 59 57
f 58 60 64 62
f 57 58 62 61
f 63 64 60 59
f 59 60 58 57
f 61 62 64 63
v -0.0250 0.1300 0.1500
v 0.0250 0.1300 0.1500
v -0.0250 0.1300 0.0300
v 0.0250 0.1300 0.0300
v -0.0250 0.1800 0.1500
v 0.0250 0.1800 0.1500
v -0.0250 0.1800 0.0300
v 0.0250 0.1800 0.0300
f 69 71 67 65
f 66 68 72 70
f 65 66 70 69
f 71 72 68 67
f 67 68 66 65
f 69 70 72 71
v -0.0200 -0.1200 0.0200
v 0.0200 -0.1200 0.0200
v -0.0200 -0.1200 -0.0400
v 0.0200 -0.1200 -0.0400
v -0.0200 0.0000 0.0200
v 0.0200 0.0000 0.0200
v -0.0200 0.0000 -0.0400
v 0.0200 0.0000 -0.0400
f 77 79 75 73
f 74 76 80 78
f 73 74 78 77
f 79 80 76 75
f 75 76 74 73
f 77 78 80 79
v -0.0060 -0.0450 0.0800
v 0.0060 -0.0450 0.0800
v -0.0060 -0.0450 -0.0000
v 0.0060 -0.0450 -0.0000
v -0.0060 -0.0350 0.0800
v 0.0060 -0.0350 0.0800
v -0.0060 -0.0350 -0.0000
v 0.0060 -0.0350 -0.0000
f 85 87 83 81
f 82 84 88 86
f 81 82 86 85
f 87 88 84 83
f 83 84 82 81
f 85 86 88 87
v -0.0400 -0.0300 -0.3200
v 0.0400 -0.0300 -0.3200
v -0.0400 -0.0300 -0.3600
v 0.0400 -0.0300 -0.3600
v -0.0400 0.1200 -0.3200
v 0.0400 0.1200 -0.3200
v -0.0400 0.1200 -0.3600
v 0.0400 0.1200 -0.3600
f 93 95 91 89
f 90 92 96 94
f 89 90 94 93
f 95 96 92 91
f 91 92 90 89
f 93 94 96 95
o F1_AssaultRifle_Optic
usemtl Optic
v -0.0180 0.1400 0.1530
v 0.0180 0.1400 0.1530
v -0.0180 0.1400 0.1490
v 0.0180 0.1400 0.1490
v -0.0180 0.1700 0.1530
v 0.0180 0.1700 0.1530
v -0.0180 0.1700 0.1490
v 0.0180 0.1700 0.1490
f 101 103 99 97
f 98 100 104 102
f 97 98 102 101
f 103 104 100 99
f 99 100 98 97
f 101 102 104 103
o F1_AssaultRifle_Energy
usemtl Energy
v -0.0150 0.1100 -0.1000
v 0.0150 0.1100 -0.1000
v -0.0150 0.1100 -0.1600
v 0.0150 0.1100 -0.1600
v -0.0150 0.1140 -0.1000
v 0.0150 0.1140 -0.1000
v -0.0150 0.1140 -0.1600
v 0.0150 0.1140 -0.1600
f 109 111 107 105
f 106 108 112 110
f 105 106 110 109
f 111 112 108 107
f 107 108 106 105
f 109 110 112 111
o F1_AssaultRifle_Mag
usemtl WPanel
v -0.0220 -0.2000 -0.0900
v 0.0220 -0.2000 -0.0900
v -0.0220 -0.2000 -0.1700
v 0.0220 -0.2000 -0.1700
v -0.0220 0.0000 -0.0900
v 0.0220 0.0000 -0.0900
v -0.0220 0.0000 -0.1700
v 0.0220 0.0000 -0.1700
f 117 119 115 113
f 114 116 120 118
f 113 114 118 117
f 119 120 116 115
f 115 116 114 113
f 117 118 120 119
