mtllib materials_F2.mtl
o F2_BeamRifle_WBody
usemtl WBody
v -0.0340 0.0000 0.3000
v 0.0340 0.0000 0.3000
v -0.0340 0.0000 -0.1600
v 0.0340 0.0000 -0.1600
v -0.0340 0.1000 0.3000
v 0.0340 0.1000 0.3000
v -0.0340 0.1000 -0.1600
v 0.0340 0.1000 -0.1600
f 5 7 3 1
f 2 4 8 6
f 1 2 6 5
f 7 8 4 3
f 3 4 2 1
f 5 6 8 7
v -0.0300 0.0000 -0.1600
v 0.0300 0.0000 -0.1600
v -0.0300 -0.0300 -0.5200
v 0.0300 -0.0300 -0.5200
v -0.0300 0.1000 -0.1600
v 0.0300 0.1000 -0.1600
v -0.0300 0.0900 -0.5200
v 0.0300 0.0900 -0.5200
f 13 15 11 9
f 10 12 16 14
f 9 10 14 13
f 15 16 12 11
f 11 12 10 9
f 13 14 16 15
o F2_BeamRifle_WPanel
usemtl WPanel
v -0.0300 0.0200 1.1000
v -0.0120 0.0200 1.1000
v -0.0300 0.0200 0.3000
v -0.0120 0.0200 0.3000
v -0.0300 0.0800 1.1000
v -0.0120 0.0800 1.1000
v -0.0300 0.0800 0.3000
v -0.0120 0.0800 0.3000
f 21 23 19 17
f 18 20 24 22
f 17 18 22 21
f 23 24 20 19
f 19 20 18 17
f 21 22 24 23
v 0.0120 0.0200 1.1000
v 0.0300 0.0200 1.1000
v 0.0120 0.0200 0.3000
v 0.0300 0.0200 0.3000
v 0.0120 0.0800 1.1000
v 0.0300 0.0800 1.1000
v 0.0120 0.0800 0.3000
v 0.0300 0.0800 0.3000
f 29 31 27 25
f 26 28 32 30
f 25 26 30 29
f 31 32 28 27
f 27 28 26 25
f 29 30 32 31
o F2_BeamRifle_Energy
usemtl Energy
v -0.0050 0.0400 1.0800
v 0.0050 0.0400 1.0800
v -0.0050 0.0400 0.3000
v 0.0050 0.0400 0.3000
v -0.0050 0.0600 1.0800
v 0.0050 0.0600 1.0800
v -0.0050 0.0600 0.3000
v 0.0050 0.0600 0.3000
f 37 39 35 33
f 34 36 40 38
f 33 34 38 37
f 39 40 36 35
f 35 36 34 33
f 37 38 40 39
o F2_BeamRifle_WDark
usemtl WDark
v 0.0300 0.1650 0.2800
v 0.0212 0.1862 0.2800
v 0.0000 0.1950 0.2800
v -0.0212 0.1862 0.2800
v -0.0300 0.1650 0.2800
v -0.0212 0.1438 0.2800
v -0.0000 0.1350 0.2800
v 0.0212 0.1438 0.2800
v 0.0300 0.1650 -0.0400
v 0.0212 0.1862 -0.0400
v 0.0000 0.1950 -0.0400
v -0.0212 0.1862 -0.0400
v -0.0300 0.1650 -0.0400
v -0.0212 0.1438 -0.0400
v -0.0000 0.1350 -0.0400
v 0.0212 0.1438 -0.0400
f 49 50 42 41
f 50 51 43 42
f 51 52 44 43
f 52 53 45 44
f 53 54 46 45
f 54 55 47 46
f 55 56 48 47
f 56 49 41 48
f 41 42 43 44 45 46 47 48
f 56 55 54 53 52 51 50 49
v -0.0120 0.1000 0.1800
v 0.0120 0.1000 0.1800
v -0.0120 0.1000 0.0200
v 0.0120 0.1000 0.0200
v -0.0120 0.1400 0.1800
v 0.0120 0.1400 0.1800
v -0.0120 0.1400 0.0200
v 0.0120 0.1400 0.0200
f 61 63 59 57
f 58 60 64 62
f 57 58 62 61
f 63 64 60 59
f 59 60 58 57
f 61 62 64 63
v -0.0180 -0.1200 0.0200
v 0.0180 -0.1200 0.0200
v -0.0180 -0.1200 -0.0400
v 0.0180 -0.1200 -0.0400
v -0.0180 0.0000 0.0200
v 0.0180 0.0000 0.0200
v -0.0180 0.0000 -0.0400
v 0.0180 0.0000 -0.0400
f 69 71 67 65
f 66 68 72 70
f 65 66 70 69
f 71 72 68 67
f 67 68 66 65
f 69 70 72 71
o F2_BeamRifle_Optic
usemtl Optic
v 0.0250 0.1650 0.2850
v 0.0177 0.1827 0.2850
v 0.0000 0.1900 0.2850
v -0.0177 0.1827 0.2850
v -0.0250 0.1650 0.2850
v -0.0177 0.1473 0.2850
v -0.0000 0.1400 0.2850
v 0.0177 0.1473 0.2850
v 0.0250 0.1650 0.2800
v 0.0177 0.1827 0.2800
v 0.0000 0.1900 0.2800
v -0.0177 0.1827 0.2800
v -0.0250 0.1650 0.2800
v -0.0177 0.1473 0.2800
v -0.0000 0.1400 0.2800
v 0.0177 0.1473 0.2800
f 81 82 74 73
f 82 83 75 74
f 83 84 76 75
f 84 85 77 76
f 85 86 78 77
f 86 87 79 78
f 87 88 80 79
f 88 81 73 80
f 73 74 75 76 77 78 79 80
f 88 87 86 85 84 83 82 81
o F2_BeamRifle_WAccent
usemtl WAccent
v -0.0380 0.0300 0.2000
v -0.0340 0.0300 0.2000
v -0.0380 0.0300 -0.1000
v -0.0340 0.0300 -0.1000
v -0.0380 0.0600 0.2000
v -0.0340 0.0600 0.2000
v -0.0380 0.0600 -0.1000
v -0.0340 0.0600 -0.1000
f 93 95 91 89
f 90 92 96 94
f 89 90 94 93
f 95 96 92 91
f 91 92 90 89
f 93 94 96 95
v 0.0340 0.0300 0.2000
v 0.0380 0.0300 0.2000
v 0.0340 0.0300 -0.1000
v 0.0380 0.0300 -0.1000
v 0.0340 0.0600 0.2000
v 0.0380 0.0600 0.2000
v 0.0340 0.0600 -0.1000
v 0.0380 0.0600 -0.1000
f 101 103 99 97
f 98 100 104 102
f 97 98 102 101
f 103 104 100 99
f 99 100 98 97
f 101 102 104 103
o F2_BeamRifle_Cell
usemtl Energy
v -0.0220 -0.1200 0.1300
v 0.0220 -0.1200 0.1300
v -0.0220 -0.1200 0.0500
v 0.0220 -0.1200 0.0500
v -0.0220 0.0000 0.1300
v 0.0220 0.0000 0.1300
v -0.0220 0.0000 0.0500
v 0.0220 0.0000 0.0500
f 109 111 107 105
f 106 108 112 110
f 105 106 110 109
f 111 112 108 107
f 107 108 106 105
f 109 110 112 111
