mtllib materials_F1.mtl
o F1_Shotgun_WBody
usemtl WBody
v -0.0400 -0.0200 0.3000
v 0.0400 -0.0200 0.3000
v -0.0400 -0.0200 -0.2000
v 0.0400 -0.0200 -0.2000
v -0.0400 0.1200 0.3000
v 0.0400 0.1200 0.3000
v -0.0400 0.1200 -0.2000
v 0.0400 0.1200 -0.2000
f 5 7 3 1
f 2 4 8 6
f 1 2 6 5
f 7 8 4 3
f 3 4 2 1
f 5 6 8 7
v -0.0350 -0.0300 0.5200
v 0.0350 -0.0300 0.5200
v -0.0350 -0.0300 0.3600
v 0.0350 -0.0300 0.3600
v -0.0350 0.0400 0.5200
v 0.0350 0.0400 0.5200
v -0.0350 0.0400 0.3600
v 0.0350 0.0400 0.3600
f 13 15 11 9
f 10 12 16 14
f 9 10 14 13
f 15 16 12 11
f 11 12 10 9
f 13 14 16 15
v -0.0350 0.0000 -0.2000
v 0.0350 0.0000 -0.2000
v -0.0350 0.0000 -0.4200
v 0.0350 0.0000 -0.4200
v -0.0350 0.1000 -0.2000
v 0.0350 0.1000 -0.2000
v -0.0350 0.1000 -0.4200
v 0.0350 0.1000 -0.4200
f 21 23 19 17
f 18 20 24 22
f 17 18 22 21
f 23 24 20 19
f 19 20 18 17
f 21 22 24 23
o F1_Shotgun_WAccent
usemtl WAccent
v -0.0410 0.0700 0.2800
v 0.0410 0.0700 0.2800
v -0.0410 0.0700 0.0800
v 0.0410 0.0700 0.0800
v -0.0410 0.1100 0.2800
v 0.0410 0.1100 0.2800
v -0.0410 0.1100 0.0800
v 0.0410 0.1100 0.0800
f 29 31 27 25
f 26 28 32 30
f 25 26 30 29
f 31 32 28 27
f 27 28 26 25
f 29 30 32 31
o F1_Shotgun_WDark
usemtl WDark
v 0.0200 0.0700 0.6200
v 0.0173 0.0800 0.6200
v 0.0100 0.0873 0.6200
v 0.0000 0.0900 0.6200
v -0.0100 0.0873 0.6200
v -0.0173 0.0800 0.6200
v -0.0200 0.0700 0.6200
v -0.0173 0.0600 0.6200
v -0.0100 0.0527 0.6200
v -0.0000 0.0500 0.6200
v 0.0100 0.0527 0.6200
v 0.0173 0.0600 0.6200
v 0.0200 0.0700 0.3000
v 0.0173 0.0800 0.3000
v 0.0100 0.0873 0.3000
v 0.0000 0.0900 0.3000
v -0.0100 0.0873 0.3000
v -0.0173 0.0800 0.3000
v -0.0200 0.0700 0.3000
v -0.0173 0.0600 0.3000
v -0.0100 0.0527 0.3000
v -0.0000 0.0500 0.3000
v 0.0100 0.0527 0.3000
v 0.0173 0.0600 0.3000
f 45 46 34 33
f 46 47 35 34
f 47 48 36 35
f 48 49 37 36
f 49 50 38 37
f 50 51 39 38
f 51 52 40 39
f 52 53 41 40
f 53 54 42 41
f 54 55 43 42
f 55 56 44 43
f 56 45 33 44
f 33 34 35 36 37 38 39 40 41 42 43 44
f 56 55 54 53 52 51 50 49 48 47 46 45
v 0.0180 0.0250 0.5500
v 0.0156 0.0340 0.5500
v 0.0090 0.0406 0.5500
v 0.0000 0.0430 0.5500
v -0.0090 0.0406 0.5500
v -0.0156 0.0340 0.5500
v -0.0180 0.0250 0.5500
v -0.0156 0.0160 0.5500
v -0.0090 0.0094 0.5500
v -0.0000 0.0070 0.5500
v 0.0090 0.0094 0.5500
v 0.0156 0.0160 0.5500
v 0.0180 0.0250 0.3000
v 0.0156 0.0340 0.3000
v 0.0090 0.0406 0.3000
v 0.0000 0.0430 0.3000
v -0.0090 0.0406 0.3000
v -0.0156 0.0340 0.3000
v -0.0180 0.0250 0.3000
v -0.0156 0.0160 0.3000
v -0.0090 0.0094 0.3000
v -0.0000 0.0070 0.3000
v 0.0090 0.0094 0.3000
v 0.0156 0.0160 0.3000
f 69 70 58 57
f 70 71 59 58
f 71 72 60 59
f 72 73 61 60
f 73 74 62 61
f 74 75 63 62
f 75 76 64 63
f 76 77 65 64
f 77 78 66 65
f 78 79 67 66
f 79 80 68 67
f 80 69 57 68
f 57 58 59 60 61 62 63 64 65 66 67 68
f 80 79 78 77 76 75 74 73 72 71 70 69
v -0.0220 -0.1200 0.0200
v 0.0220 -0.1200 0.0200
v -0.0220 -0.1200 -0.0450
v 0.0220 -0.1200 -0.0450
v -0.0220 -0.0200 0.0200
v 0.0220 -0.0200 0.0200
v -0.0220 -0.0200 -0.0450
v 0.0220 -0.0200 -0.0450
f 85 87 83 81
f 82 84 88 86
f 81 82 86 85
f 87 88 84 83
f 83 84 82 81
f 85 86 88 87
v -0.0400 -0.0300 -0.4200
v 0.0400 -0.0300 -0.4200
v -0.0400 -0.0300 -0.4500
v 0.0400 -0.0300 -0.4500
v -0.0400 0.1200 -0.4200
v 0.0400 0.1200 -0.4200
v -0.0400 0.1200 -0.4500
v 0.0400 0.1200 -0.4500
f 93 95 91 89
f 90 92 96 94
f 89 90 94 93
f 95 96 92 91
f 91 92 90 89
f 93 94 96 95
v -0.0100 0.0900 0.6200
v 0.0100 0.0900 0.6200
v -0.0100 0.0900 0.5800
v 0.0100 0.0900 0.5800
v -0.0100 0.1100 0.6200
v 0.0100 0.1100 0.6200
v -0.0100 0.1100 0.5800
v 0.0100 0.1100 0.5800
f 101 103 99 97
f 98 100 104 102
f 97 98 102 101
f 103 104 100 99
f 99 100 98 97
f 101 102 104 103
o F1_Shotgun_Mag
usemtl WPanel
v -0.0300 -0.1800 0.1300
v 0.0300 -0.1800 0.1300
v -0.0300 -0.1800 0.0500
v 0.0300 -0.1800 0.0500
v -0.0300 -0.0200 0.1300
v 0.0300 -0.0200 0.1300
v -0.0300 -0.0200 0.0500
v 0.0300 -0.0200 0.0500
f 109 111 107 105
f 106 108 112 110
f 105 106 110 109
f 111 112 108 107
f 107 108 106 105
f 109 110 112 111
