mtllib materials_F2.mtl
o F2_PlasmaRifle_WBody
usemtl WBody
v -0.0500 -0.0200 0.4200
v 0.0500 -0.0200 0.4200
v -0.0320 0.0000 -0.1400
v 0.0320 0.0000 -0.1400
v -0.0500 0.1000 0.4200
v 0.0500 0.1000 0.4200
v -0.0320 0.0750 -0.1400
v 0.0320 0.0750 -0.1400
f 5 7 3 1
f 2 4 8 6
f 1 2 6 5
f 7 8 4 3
f 3 4 2 1
f 5 6 8 7
o F2_PlasmaRifle_WPanel
usemtl WPanel
v -0.0420 0.0120 0.6200
v -0.0180 0.0120 0.6200
v -0.0420 0.0120 0.4000
v -0.0180 0.0120 0.4000
v -0.0420 0.0620 0.6200
v -0.0180 0.0620 0.6200
v -0.0420 0.0620 0.4000
v -0.0180 0.0620 0.4000
f 13 15 11 9
f 10 12 16 14
f 9 10 14 13
f 15 16 12 11
f 11 12 10 9
f 13 14 16 15
v 0.0180 0.0120 0.6200
v 0.0420 0.0120 0.6200
v 0.0180 0.0120 0.4000
v 0.0420 0.0120 0.4000
v 0.0180 0.0620 0.6200
v 0.0420 0.0620 0.6200
v 0.0180 0.0620 0.4000
v 0.0420 0.0620 0.4000
f 21 23 19 17
f 18 20 24 22
f 17 18 22 21
f 23 24 20 19
f 19 20 18 17
f 21 22 24 23
o F2_PlasmaRifle_Energy
usemtl Energy
v -0.0080 0.0300 0.6000
v 0.0080 0.0300 0.6000
v -0.0080 0.0300 0.4200
v 0.0080 0.0300 0.4200
v -0.0080 0.0450 0.6000
v 0.0080 0.0450 0.6000
v -0.0080 0.0450 0.4200
v 0.0080 0.0450 0.4200
f 29 31 27 25
f 26 28 32 30
f 25 26 30 29
f 31 32 28 27
f 27 28 26 25
f 29 30 32 31
v -0.0120 0.0950 0.4000
v 0.0120 0.0950 0.4000
v -0.0120 0.0950 0.0500
v 0.0120 0.0950 0.0500
v -0.0120 0.1050 0.4000
v 0.0120 0.1050 0.4000
v -0.0120 0.1050 0.0500
v 0.0120 0.1050 0.0500
f 37 39 35 33
f 34 36 40 38
f 33 34 38 37
f 39 40 36 35
f 35 36 34 33
f 37 38 40 39
o F2_PlasmaRifle_WDark
usemtl WDark
v -0.0180 -0.1200 0.0200
v 0.0180 -0.1200 0.0200
v -0.0180 -0.1200 -0.0400
v 0.0180 -0.1200 -0.0400
v -0.0180 -0.0200 0.0200
v 0.0180 -0.0200 0.0200
v -0.0180 -0.0200 -0.0400
v 0.0180 -0.0200 -0.0400
f 45 47 43 41
f 42 44 48 46
f 41 42 46 45
f 47 48 44 43
f 43 44 42 41
f 45 46 48 47
v -0.0300 -0.0300 0.0500
v 0.0300 -0.0300 0.0500
v -0.0300 -0.0300 -0.1000
v 0.0300 -0.0300 -0.1000
v -0.0300 -0.0150 0.0500
v 0.0300 -0.0150 0.0500
v -0.0300 -0.0150 -0.1000
v 0.0300 -0.0150 -0.1000
f 53 55 51 49
f 50 52 56 54
f 49 50 54 53
f 55 56 52 51
f 51 52 50 49
f 53 54 56 55
o F2_PlasmaRifle_WAccent
usemtl WAccent
v -0.0500 0.0200 0.2000
v -0.0460 0.0200 0.2000
v -0.0500 0.0200 -0.0600
v -0.0460 0.0200 -0.0600
v -0.0500 0.0600 0.2000
v -0.0460 0.0600 0.2000
v -0.0500 0.0600 -0.0600
v -0.0460 0.0600 -0.0600
f 61 63 59 57
f 58 60 64 62
f 57 58 62 61
f 63 64 60 59
f 59 60 58 57
f 61 62 64 63
v 0.0460 0.0200 0.2000
v 0.0500 0.0200 0.2000
v 0.0460 0.0200 -0.0600
v 0.0500 0.0200 -0.0600
v 0.0460 0.0600 0.2000
v 0.0500 0.0600 0.2000
v 0.0460 0.0600 -0.0600
v 0.0500 0.0600 -0.0600
f 69 71 67 65
f 66 68 72 70
f 65 66 70 69
f 71 72 68 67
f 67 68 66 65
f 69 70 72 71
o F2_PlasmaRifle_Cell
usemtl Energy
v -0.0220 0.0750 -0.0600
v 0.0220 0.0750 -0.0600
v -0.0220 0.0750 -0.1400
v 0.0220 0.0750 -0.1400
v -0.0220 0.1100 -0.0600
v 0.0220 0.1100 -0.0600
v -0.0220 0.1100 -0.1400
v 0.0220 0.1100 -0.1400
f 77 79 75 73
f 74 76 80 78
f 73 74 78 77
f 79 80 76 75
f 75 76 74 73
f 77 78 80 79
